<?xml version="1.0" standalone="no"?>
<!DOCTYPE svg PUBLIC "-//W3C//DTD SVG 1.1//EN" "http://www.w3.org/Graphics/SVG/1.1/DTD/svg11.dtd" >
<svg xmlns="http://www.w3.org/2000/svg" xmlns:xlink="http://www.w3.org/1999/xlink" version="1.1">
<metadata>
Created by FontForge 20161003 at Fri Oct  6 17:04:42 2017
 By www-data
Copyright (c) 2014 by Mattox Shuler. All rights reserved.
</metadata>
<defs>
<font id="FortFoundryIndustryBoldItalic" horiz-adv-x="628" >
  <font-face 
    font-family="FortFoundryIndustryBoldItalic"
    font-weight="700"
    font-style="italic"
    font-stretch="normal"
    units-per-em="1000"
    panose-1="0 0 8 0 0 0 0 0 0 0"
    ascent="800"
    descent="-200"
    x-height="540"
    cap-height="700"
    bbox="-194 -350 1025 946"
    underline-thickness="50"
    underline-position="-150"
    slope="-10"
    unicode-range="U+0020-FB02"
  />
<missing-glyph horiz-adv-x="300" 
 />
    <glyph glyph-name="fi" unicode="fi" horiz-adv-x="640" 
d="M408 626h-85q-22 0 -25 -22l-12 -64h117l-20 -116h-117l-75 -424h-138l75 424h-75l20 116h75l11 60q13 69 48.5 99.5t102.5 30.5h117zM639 600h-146l23 130h146zM624 540l-95 -540h-138l95 540h138z" />
    <glyph glyph-name="fl" unicode="fl" horiz-adv-x="636" 
d="M408 626h-85q-22 0 -25 -22l-12 -64h117l-20 -116h-117l-75 -424h-138l75 424h-75l20 116h75l11 60q13 69 48.5 99.5t102.5 30.5h117zM518 730h138l-129 -730h-138z" />
    <glyph glyph-name=".notdef" horiz-adv-x="300" 
 />
    <glyph glyph-name=".null" horiz-adv-x="0" 
 />
    <glyph glyph-name="nonmarkingreturn" horiz-adv-x="333" 
 />
    <glyph glyph-name="space" unicode=" " horiz-adv-x="236" 
 />
    <glyph glyph-name="exclam" unicode="!" horiz-adv-x="270" 
d="M184 243h-107l50 457h167zM167 0h-158l28 156h158z" />
    <glyph glyph-name="quotedbl" unicode="&#x22;" horiz-adv-x="449" 
d="M278 700l-81 -256h-84l10 256h155zM477 700l-81 -256h-83l9 256h155z" />
    <glyph glyph-name="numbersign" unicode="#" horiz-adv-x="778" 
d="M642 414l-57 -113h98l-22 -126h-140l-88 -175h-139l88 175h-139l-88 -175h-139l88 175h-88l22 126h130l57 113h-99l22 126h140l81 160h139l-81 -160h139l81 160h139l-81 -160h88l-22 -126h-129zM503 414h-139l-57 -113h139z" />
    <glyph glyph-name="dollar" unicode="$" horiz-adv-x="615" 
d="M438 700h45q72 0 97 -42.5t6 -151.5l-4 -24h-140l5 30q5 26 5.5 38.5t-3 16t-11.5 3.5h-37l-28 -157l68 -15q27 -6 45 -14t35 -22t23 -35t9 -53.5t-7 -75.5q-20 -111 -60 -154.5t-112 -43.5h-59l-18 -102h-115l18 102h-54q-72 0 -97 43.5t-5 154.5l5 30h140l-6 -36
q-5 -28 -5.5 -41.5t3 -17t11.5 -3.5h46l29 166l-61 14q-27 6 -45 13.5t-35 22t-23 35t-9.5 52t6.5 73.5q19 108 59 151t112 43h52l18 102h115zM316 570h-41q-11 0 -17 -10t-13 -48q-7 -45 -3 -57.5t23 -16.5l27 -6zM349 277l-26 -147h47q12 0 18 10.5t13 51.5q7 48 3 60.5
t-23 17.5z" />
    <glyph glyph-name="percent" unicode="%" horiz-adv-x="611" 
d="M599 700l-439 -700h-120l439 700h120zM184 700h85q37 0 50 -16t6 -54l-24 -136q-7 -38 -25 -54t-55 -16h-85q-37 0 -50.5 16.5t-6.5 53.5l24 136q7 38 25.5 54t55.5 16zM232 510l18 104q4 18 -14 18h-43q-10 0 -14.5 -3.5t-6.5 -14.5l-18 -104q-2 -10 1 -14t14 -4h43
q10 0 14 3.5t6 14.5zM419 276h85q37 0 50 -16t6 -54l-24 -136q-6 -38 -25 -54t-56 -16h-85q-36 0 -49 16.5t-7 53.5l24 136q7 38 25.5 54t55.5 16zM467 86l19 104q2 11 -1 14.5t-13 3.5h-44q-10 0 -14.5 -4t-5.5 -14l-19 -104q-2 -11 1 -14.5t13 -3.5h44q10 0 14.5 4t5.5 14
z" />
    <glyph glyph-name="ampersand" unicode="&#x26;" horiz-adv-x="646" 
d="M561 294l-27 -154q-25 -140 -163 -140h-223q-72 0 -97 43t-6 152q13 75 35.5 110.5t64.5 52.5q-32 19 -40 51.5t4 103.5q18 104 58 145.5t112 41.5h182q137 0 113 -140l-12 -68h-144l10 58q4 20 -15 20h-130q-11 0 -17.5 -12.5t-15.5 -61.5q-5 -26 -6.5 -40.5t0 -22
t4 -9.5t8.5 -2h397l-22 -128h-70zM418 294h-192q-11 0 -17.5 -14t-16.5 -68q-5 -29 -7 -45.5t-0.5 -24.5t4 -10t8.5 -2h172q20 0 23 20z" />
    <glyph glyph-name="quotesingle" unicode="'" horiz-adv-x="250" 
d="M278 700l-81 -256h-84l10 256h155z" />
    <glyph glyph-name="parenleft" unicode="(" horiz-adv-x="385" 
d="M396 632h-89q-18 0 -22 -20l-100 -566q-4 -20 16 -20h89l-24 -132h-115q-137 0 -112 140l104 590q25 140 162 140h115z" />
    <glyph glyph-name="parenright" unicode=")" horiz-adv-x="385" 
d="M140 764h115q137 0 112 -140l-104 -590q-25 -140 -162 -140h-115l24 132h89q18 0 22 20l100 566q4 20 -16 20h-89z" />
    <glyph glyph-name="asterisk" unicode="*" horiz-adv-x="412" 
d="M380 401l-103 -67l-34 139l-86 -138l-80 66l126 104l-142 14l53 109l116 -75l-5 147h113l-55 -147l141 74l16 -108l-152 -15z" />
    <glyph glyph-name="plus" unicode="+" horiz-adv-x="500" 
d="M174 182l22 127h-134l22 122h134l22 127h121l-22 -127h134l-22 -122h-134l-22 -127h-121z" />
    <glyph glyph-name="comma" unicode="," horiz-adv-x="247" 
d="M183 156l-20 -108q-7 -48 -65 -104l-83 -78h-55l100 134h-63l28 156h158z" />
    <glyph glyph-name="hyphen" unicode="-" horiz-adv-x="436" 
d="M407 393l-22 -128h-335l22 128h335z" />
    <glyph glyph-name="period" unicode="." horiz-adv-x="246" 
d="M154 0h-157l28 156h157z" />
    <glyph glyph-name="slash" unicode="/" horiz-adv-x="514" 
d="M592 770l-495 -840h-146l495 840h146z" />
    <glyph glyph-name="zero" unicode="0" horiz-adv-x="631" 
d="M386 0h-236q-137 0 -112 140l74 420q24 140 161 140h236q137 0 113 -140l-74 -420q-25 -140 -162 -140zM254 548l-70 -396q-4 -20 15 -20h184q19 0 23 20l70 396q3 20 -16 20h-184q-19 0 -22 -20z" />
    <glyph glyph-name="one" unicode="1" horiz-adv-x="411" 
d="M130 0l97 550l-146 -46l21 120l181 76h114l-123 -700h-144z" />
    <glyph glyph-name="two" unicode="2" horiz-adv-x="592" 
d="M242 482l12 66q3 20 22 20h152q11 0 14.5 -4.5t1.5 -15.5l-12 -68q-3 -15 -12 -21.5t-32 -14.5l-171 -60q-75 -26 -115.5 -58.5t-50.5 -89.5l-42 -236h484l23 132h-340l13 72q3 15 12 21.5t32 14.5l171 60q76 26 116 58t50 90l20 112q24 140 -113 140h-200
q-137 0 -161 -140l-14 -78h140z" />
    <glyph glyph-name="three" unicode="3" horiz-adv-x="590" 
d="M180 216l-1 -4q-5 -29 -7 -45.5t-0.5 -24.5t4 -10t8.5 -2h170q11 0 17.5 14t15.5 68q5 29 7 45.5t1 24.5t-3.5 10t-8.5 2h-163l22 128h155q11 0 17.5 12.5t14.5 61.5q5 26 7 40.5t0.5 22t-4 9.5t-8.5 2h-154q-11 0 -17.5 -12.5t-15.5 -61.5l-2 -12h-144l4 23
q19 108 59 150.5t112 42.5h206q72 0 97 -41.5t7 -145.5q-12 -71 -31 -103.5t-58 -51.5q36 -17 45 -50.5t-4 -112.5q-19 -109 -59 -152t-112 -43h-222q-72 0 -97 43t-6 152l4 21h144z" />
    <glyph glyph-name="four" unicode="4" horiz-adv-x="624" 
d="M580 144h-98l-25 -144h-140l25 144h-313l-9 118l425 438h135l-75 -428h98zM204 272h161l38 214z" />
    <glyph glyph-name="five" unicode="5" horiz-adv-x="599" 
d="M267 568l-34 -191q37 43 76 63.5t108 20.5q85 0 116 -33.5t19 -106.5l-32 -177q-24 -144 -166 -144h-204q-137 0 -112 140l13 77h144l-11 -65q-4 -20 15 -20h155q20 0 24 20l28 161q2 12 -4.5 16t-31.5 4q-82 0 -150 -33l-138 36l64 364h452l-23 -132h-308z" />
    <glyph glyph-name="six" unicode="6" horiz-adv-x="608" 
d="M437 494l10 54q3 20 -16 20h-155q-19 0 -22 -20l-34 -190q37 42 79.5 63t116.5 21q88 0 120 -33.5t19 -106.5l-28 -162q-25 -140 -162 -140h-215q-137 0 -112 140l74 420q24 140 161 140h207q137 0 113 -140l-12 -66h-144zM207 281l-23 -129q-4 -20 15 -20h163
q19 0 23 20l25 142q2 12 -5.5 16t-36.5 4q-95 0 -161 -33z" />
    <glyph glyph-name="seven" unicode="7" horiz-adv-x="567" 
d="M593 597l-400 -597h-164l387 570h-332l22 130h505z" />
    <glyph glyph-name="eight" unicode="8" horiz-adv-x="609" 
d="M506 358q36 -17 45 -50.5t-4 -112.5q-19 -109 -58.5 -152t-111.5 -43h-238q-72 0 -97 43t-6 152q14 76 36 111t64 52q-32 19 -39.5 51t3.5 104q18 104 58 145.5t112 41.5h222q72 0 97 -41.5t7 -145.5q-12 -70 -31.5 -103t-58.5 -52zM443 570h-169q-11 0 -17.5 -12.5
t-15.5 -61.5q-5 -26 -6.5 -40.5t0 -22t4 -9.5t8.5 -2h169q12 0 18 12.5t15 61.5q5 26 7 40.5t0.5 22t-4.5 9.5t-9 2zM188 130h185q12 0 18 13.5t15 68.5q5 29 7.5 45t1.5 24.5t-4 10.5t-9 2h-185q-11 0 -17.5 -14t-16.5 -68q-5 -29 -7 -45.5t-0.5 -24.5t4 -10t8.5 -2z" />
    <glyph glyph-name="nine" unicode="9" horiz-adv-x="607" 
d="M198 206l-9 -54q-3 -20 15 -20h155q20 0 23 20l34 193q-37 -42 -79 -63t-116 -21q-89 0 -121 33.5t-19 106.5l28 159q24 140 161 140h215q137 0 113 -140l-74 -420q-25 -140 -162 -140h-207q-137 0 -112 140l11 66h144zM429 422l23 126q3 20 -16 20h-163q-19 0 -22 -20
l-25 -139q-2 -12 5.5 -16t36.5 -4q95 0 161 33z" />
    <glyph glyph-name="colon" unicode=":" horiz-adv-x="247" 
d="M223 384h-158l27 156h158zM155 0h-158l28 156h158z" />
    <glyph glyph-name="semicolon" unicode=";" horiz-adv-x="247" 
d="M223 384h-158l27 156h158zM183 156l-20 -108q-7 -48 -65 -104l-83 -78h-55l100 134h-63l28 156h158z" />
    <glyph glyph-name="less" unicode="&#x3c;" horiz-adv-x="499" 
d="M78 418l-20 -110l347 -215l21 119l-227 149l279 144l23 129z" />
    <glyph glyph-name="equal" unicode="=" horiz-adv-x="500" 
d="M493 542l-23 -128h-389l23 128h389zM456 334l-23 -128h-389l23 128h389z" />
    <glyph glyph-name="greater" unicode="&#x3e;" horiz-adv-x="499" 
d="M106 515l227 -150l-279 -142l-23 -130l423 215l20 110l-347 216z" />
    <glyph glyph-name="question" unicode="?" horiz-adv-x="555" 
d="M229 700h230q137 0 113 -140l-18 -101q-4 -21 -15 -39t-35 -36t-40.5 -28t-55.5 -31q-12 -7 -18 -10l-44 -24q-36 -19 -38 -32l-8 -45h-144l13 75q5 28 34.5 57t54.5 44.5t77 44.5l43 24q2 1 5 3q31 19 33 29l10 57q3 20 -17 20h-177q-19 0 -22 -20l-12 -68h-144l14 80
q24 140 161 140zM287 144l-25 -144h-144l25 144h144z" />
    <glyph glyph-name="at" unicode="@" horiz-adv-x="961" 
d="M291 700h530q137 0 113 -140l-66 -373q-13 -73 -50 -106.5t-112 -33.5h-179l-7 72q-21 -23 -36.5 -36t-48.5 -26.5t-73 -13.5q-74 0 -102.5 34t-16.5 106l31 174q13 72 53.5 106t114.5 34q40 0 68.5 -13.5t39 -26.5t23.5 -36l33 72h119l-65 -370h57q23 0 32.5 13t16.5 53
l67 377q7 38 -29 38h-528q-36 0 -43 -38l-105 -592q-3 -20 4 -29t26 -9h501l-17 -96h-502q-137 0 -113 140l103 580q12 73 49 106.5t112 33.5zM534 198l25 144q-48 39 -110 39q-19 0 -26.5 -5t-9.5 -19l-31 -174q-2 -14 3.5 -19t24.5 -5q61 0 124 39z" />
    <glyph glyph-name="A" unicode="A" horiz-adv-x="657" 
d="M425 152h-233l-68 -152h-156l332 700h208l86 -700h-154zM413 284l-29 294l-132 -294h161z" />
    <glyph glyph-name="B" unicode="B" horiz-adv-x="631" 
d="M152 700h361q72 0 97 -41.5t7 -145.5q-12 -70 -31.5 -103t-58.5 -52q36 -17 45.5 -51.5t-3.5 -111.5q-19 -111 -56.5 -153t-114.5 -42h-369zM247 420h191q11 0 17.5 12.5t14.5 62.5q5 26 7 41t0.5 22.5t-4 9.5t-8.5 2h-191zM196 130h199q11 0 17.5 14t16.5 69
q5 29 7 45.5t0.5 25t-4 10.5t-8.5 2h-199z" />
    <glyph glyph-name="C" unicode="C" horiz-adv-x="612" 
d="M380 0h-230q-137 0 -112 140l74 420q24 140 161 140h230q137 0 113 -140l-20 -114h-144l18 102q3 20 -17 20h-177q-19 0 -22 -20l-70 -396q-4 -20 15 -20h177q20 0 24 20l18 102h144l-20 -114q-25 -140 -162 -140z" />
    <glyph glyph-name="D" unicode="D" horiz-adv-x="651" 
d="M152 700h378q136 0 112 -140l-74 -420q-25 -140 -161 -140h-378zM196 132h207q19 0 23 20l70 396q2 11 -1.5 15.5t-14.5 4.5h-207z" />
    <glyph glyph-name="E" unicode="E" horiz-adv-x="586" 
d="M152 700h463l-23 -132h-319l-25 -145h258l-23 -130h-258l-29 -161h319l-23 -132h-463z" />
    <glyph glyph-name="F" unicode="F" horiz-adv-x="569" 
d="M29 0l123 700h463l-23 -132h-319l-26 -151h258l-23 -130h-258l-51 -287h-144z" />
    <glyph glyph-name="G" unicode="G" horiz-adv-x="630" 
d="M464 468l14 80q2 11 -1.5 15.5t-14.5 4.5h-186q-19 0 -22 -20l-70 -396q-4 -20 15 -20h186q19 0 23 20l19 108h-127l22 126h271l-43 -246q-25 -140 -162 -140h-238q-137 0 -112 140l74 420q24 140 161 140h238q137 0 113 -140l-16 -92h-144z" />
    <glyph glyph-name="H" unicode="H" horiz-adv-x="681" 
d="M29 0l123 700h144l-48 -276h240l48 276h144l-123 -700h-144l51 292h-240l-51 -292h-144z" />
    <glyph glyph-name="I" unicode="I" horiz-adv-x="297" 
d="M29 0l123 700h144l-123 -700h-144z" />
    <glyph glyph-name="J" unicode="J" horiz-adv-x="562" 
d="M567 700l-98 -560q-25 -140 -162 -140h-192q-137 0 -112 140l27 156h144l-25 -144q-4 -20 15 -20h139q20 0 24 20l96 548h144z" />
    <glyph glyph-name="K" unicode="K" horiz-adv-x="647" 
d="M442 426l149 -426h-152l-107 310l-130 -136l-31 -174h-142l123 700h142l-56 -323l292 323h173z" />
    <glyph glyph-name="L" unicode="L" horiz-adv-x="544" 
d="M152 700h144l-100 -568h294l-23 -132h-438z" />
    <glyph glyph-name="M" unicode="M" horiz-adv-x="830" 
d="M829 700l-123 -700h-141l79 446l-203 -353h-104l-91 353l-79 -446h-138l123 700h158l107 -412l236 412h176z" />
    <glyph glyph-name="N" unicode="N" horiz-adv-x="700" 
d="M559 700h140l-123 -700h-132l-193 467l-82 -467h-140l123 700h142l186 -451z" />
    <glyph glyph-name="O" unicode="O" horiz-adv-x="648" 
d="M403 0h-253q-137 0 -112 140l74 420q24 140 161 140h253q137 0 113 -140l-74 -420q-25 -140 -162 -140zM254 548l-70 -396q-4 -20 15 -20h201q19 0 23 20l70 396q3 20 -16 20h-201q-19 0 -22 -20z" />
    <glyph glyph-name="P" unicode="P" horiz-adv-x="615" 
d="M152 700h365q137 0 113 -140l-33 -186q-25 -140 -162 -140h-221l-41 -234h-144zM238 366h195q18 0 22 20l29 162q3 20 -16 20h-195z" />
    <glyph glyph-name="Q" unicode="Q" horiz-adv-x="637" 
d="M273 700h242q137 0 113 -140l-74 -420q-25 -140 -162 -140h-49l-23 -128h-143l23 128h-50q-137 0 -112 140l74 420q24 140 161 140zM412 152l70 396q3 20 -16 20h-190q-19 0 -22 -20l-70 -396q-4 -20 15 -20h190q19 0 23 20z" />
    <glyph glyph-name="R" unicode="R" horiz-adv-x="638" 
d="M152 700h364q137 0 113 -140l-30 -169q-21 -118 -119 -136l72 -255h-148l-70 247h-117l-44 -247h-144zM456 395l27 155q4 20 -15 20h-194l-35 -195h194q19 0 23 20z" />
    <glyph glyph-name="S" unicode="S" horiz-adv-x="615" 
d="M444 480l12 70q2 11 -1.5 15.5t-14.5 4.5h-165q-19 0 -23 -20l-13 -76q-3 -19 2.5 -26.5t23.5 -11.5l176 -40q69 -16 97.5 -45.5t17.5 -94.5l-20 -116q-25 -140 -162 -140h-228q-137 0 -112 140l15 88h140l-14 -78q-3 -20 17 -20h178q20 0 23 20l15 84q4 19 -2 26t-25 12
l-175 40q-69 16 -97.5 45.5t-17.5 94.5l19 108q24 140 161 140h214q137 0 113 -140l-14 -80h-140z" />
    <glyph glyph-name="T" unicode="T" horiz-adv-x="563" 
d="M592 570h-185l-101 -570h-144l101 570h-185l22 130h514z" />
    <glyph glyph-name="U" unicode="U" horiz-adv-x="656" 
d="M661 700l-98 -560q-25 -140 -162 -140h-241q-137 0 -112 140l98 560h144l-96 -548q-4 -20 15 -20h188q20 0 24 20l96 548h144z" />
    <glyph glyph-name="V" unicode="V" horiz-adv-x="627" 
d="M685 700l-335 -700h-168l-89 700h153l45 -541l236 541h158z" />
    <glyph glyph-name="W" unicode="W" horiz-adv-x="911" 
d="M675 0h-152l-32 456l-192 -456h-158l-48 700h146l14 -514l216 514h123l35 -514l195 514h147z" />
    <glyph glyph-name="X" unicode="X" horiz-adv-x="622" 
d="M307 236l-180 -236h-161l277 356l-148 344h156l93 -226l173 226h161l-273 -344l156 -356h-156z" />
    <glyph glyph-name="Y" unicode="Y" horiz-adv-x="603" 
d="M326 0h-144l42 239l-142 461h150l85 -312l195 312h160l-304 -461z" />
    <glyph glyph-name="Z" unicode="Z" horiz-adv-x="587" 
d="M17 108l397 464h-297l22 128h478l-19 -108l-396 -464h314l-23 -128h-495z" />
    <glyph glyph-name="bracketleft" unicode="[" horiz-adv-x="375" 
d="M288 632l-106 -606h98l-24 -132h-242l154 870h242l-24 -132h-98z" />
    <glyph glyph-name="backslash" unicode="\" horiz-adv-x="502" 
d="M432 -70h-134l-199 840h134z" />
    <glyph glyph-name="bracketright" unicode="]" horiz-adv-x="375" 
d="M140 764h242l-154 -870h-242l24 132h98l106 606h-98z" />
    <glyph glyph-name="asciicircum" unicode="^" horiz-adv-x="703" 
d="M357 720h148l137 -432h-142l-90 288l-192 -288h-150z" />
    <glyph glyph-name="underscore" unicode="_" horiz-adv-x="566" 
d="M504 -46l-22 -124h-553l22 124h553z" />
    <glyph glyph-name="grave" unicode="`" horiz-adv-x="404" 
d="M302 766h112l-64 144h-170z" />
    <glyph glyph-name="a" unicode="a" horiz-adv-x="570" 
d="M248 544q48 0 79 -11.5t46 -27.5t30 -45l14 80h137l-95 -540h-137l14 80q-38 -43 -77 -63.5t-108 -20.5q-80 0 -107.5 32.5t-14.5 107.5l47 268q14 75 53 107.5t119 32.5zM211 388l-41 -236q-4 -20 2 -26t31 -6q82 0 146 32l41 236q-52 32 -134 32q-24 0 -32.5 -6
t-12.5 -26z" />
    <glyph glyph-name="b" unicode="b" horiz-adv-x="570" 
d="M419 544q80 0 108 -32.5t14 -107.5l-47 -268q-13 -75 -52.5 -107.5t-119.5 -32.5q-48 0 -79 11.5t-45.5 27.5t-29.5 45l-14 -80h-138l129 730h138l-48 -270q38 44 76.5 64t107.5 20zM360 152l41 236q4 20 -2.5 26t-30.5 6q-82 0 -146 -32l-41 -236q52 -32 134 -32
q24 0 32.5 6t12.5 26z" />
    <glyph glyph-name="c" unicode="c" horiz-adv-x="521" 
d="M227 540h172q65 0 90.5 -31.5t13.5 -98.5l-12 -68h-137l10 56q4 22 -18 22h-108q-21 0 -25 -22l-45 -256q-4 -22 17 -22h108q22 0 26 22l10 56h137l-12 -68q-23 -130 -150 -130h-172q-65 0 -90.5 31.5t-13.5 98.5l49 280q23 130 150 130z" />
    <glyph glyph-name="d" unicode="d" horiz-adv-x="570" 
d="M248 544q48 0 79 -11.5t46 -27.5t30 -45l48 270h137l-129 -730h-137l14 80q-38 -43 -77 -63.5t-108 -20.5q-80 0 -107.5 32.5t-14.5 107.5l47 268q14 75 53 107.5t119 32.5zM211 388l-41 -236q-4 -20 2 -26t31 -6q82 0 146 32l41 236q-52 32 -134 32q-24 0 -32.5 -6
t-12.5 -26z" />
    <glyph glyph-name="e" unicode="e" horiz-adv-x="541" 
d="M227 540h185q65 0 91 -31.5t14 -98.5l-31 -179h-302l-17 -97q-4 -22 17 -22h121q22 0 26 22l7 42h138l-8 -46q-23 -130 -151 -130h-185q-65 0 -90.5 31.5t-13.5 98.5l49 280q23 130 150 130zM364 324l15 82q3 22 -19 22h-121q-21 0 -24 -22l-14 -82h163z" />
    <glyph glyph-name="f" unicode="f" horiz-adv-x="375" 
d="M408 626h-85q-22 0 -25 -22l-12 -64h117l-20 -116h-117l-75 -424h-138l75 424h-75l20 116h75l11 60q13 69 48.5 99.5t102.5 30.5h117z" />
    <glyph glyph-name="g" unicode="g" horiz-adv-x="572" 
d="M555 540l-100 -570q-23 -130 -151 -130h-258l19 110h226q22 0 26 22l23 132q-37 -43 -76 -63.5t-108 -20.5q-80 0 -108 32.5t-15 107.5l43 244q14 75 53 107.5t119 32.5q48 0 79 -11.5t46 -27.5t30 -45l14 80h138zM213 398l-41 -232q-2 -13 4.5 -17.5t30.5 -4.5
q82 0 146 32l37 212q-52 32 -134 32q-24 0 -32.5 -4.5t-10.5 -17.5z" />
    <glyph glyph-name="h" unicode="h" horiz-adv-x="569" 
d="M283 730l-48 -269q38 43 76 63.5t104 20.5q77 0 105 -32t15 -102l-72 -411h-138l70 395q2 15 -3.5 20.5t-26.5 5.5q-79 0 -142 -32l-69 -389h-138l129 730h138z" />
    <glyph glyph-name="i" unicode="i" horiz-adv-x="265" 
d="M264 600h-146l23 130h146zM249 540l-95 -540h-138l95 540h138z" />
    <glyph glyph-name="j" unicode="j" horiz-adv-x="265" 
d="M264 600h-146l23 130h146zM249 540l-100 -569q-11 -60 -46.5 -87.5t-104.5 -41.5l-109 -22l17 97l85 42q19 9 22 24l98 557h138z" />
    <glyph glyph-name="k" unicode="k" horiz-adv-x="543" 
d="M371 332l115 -332l-142 -1l-73 228l-96 -99l-23 -128h-136l129 730h136l-74 -419l200 229h164z" />
    <glyph glyph-name="l" unicode="l" horiz-adv-x="261" 
d="M143 730h138l-129 -730h-138z" />
    <glyph glyph-name="m" unicode="m" horiz-adv-x="851" 
d="M702 546q74 0 101 -32t15 -102l-73 -412h-138l70 396q2 15 -3 20.5t-23 5.5q-69 0 -133 -32l-69 -390h-137l70 396q2 15 -3 20.5t-23 5.5q-69 0 -133 -32l-69 -390h-138l95 540h138l-14 -78q38 43 74.5 63.5t96.5 20.5q61 0 89.5 -21.5t30.5 -67.5q38 44 77 66.5t99 22.5
z" />
    <glyph glyph-name="n" unicode="n" horiz-adv-x="569" 
d="M249 540l-14 -79q38 43 76 63.5t104 20.5q77 0 105 -32t15 -102l-72 -411h-138l70 395q2 15 -3.5 20.5t-26.5 5.5q-79 0 -142 -32l-69 -389h-138l95 540h138z" />
    <glyph glyph-name="o" unicode="o" horiz-adv-x="550" 
d="M227 540h191q65 0 90.5 -31.5t13.5 -98.5l-49 -280q-23 -130 -150 -130h-191q-65 0 -90.5 31.5t-13.5 98.5l49 280q23 130 150 130zM338 142l45 256q4 22 -18 22h-127q-21 0 -25 -22l-45 -256q-4 -22 17 -22h127q22 0 26 22z" />
    <glyph glyph-name="p" unicode="p" horiz-adv-x="570" 
d="M419 544q80 0 108 -32.5t14 -107.5l-47 -268q-13 -75 -52.5 -107.5t-119.5 -32.5q-48 0 -79 11.5t-45.5 27.5t-29.5 45l-42 -240h-138l123 700h138l-14 -80q38 44 76.5 64t107.5 20zM360 152l41 236q4 20 -2.5 26t-30.5 6q-82 0 -146 -32l-41 -236q52 -32 134 -32
q24 0 32.5 6t12.5 26z" />
    <glyph glyph-name="q" unicode="q" horiz-adv-x="570" 
d="M248 544q48 0 79 -11.5t46 -27.5t30 -45l14 80h137l-123 -700h-137l42 240q-38 -43 -77 -63.5t-108 -20.5q-80 0 -107.5 32.5t-14.5 107.5l47 268q14 75 53 107.5t119 32.5zM211 388l-41 -236q-4 -20 2 -26t31 -6q82 0 146 32l41 236q-52 32 -134 32q-24 0 -32.5 -6
t-12.5 -26z" />
    <glyph glyph-name="r" unicode="r" horiz-adv-x="415" 
d="M418 410h-67q-67 0 -130 -32l-67 -378h-138l95 540h138l-15 -84q37 43 73 63.5t91 20.5h43z" />
    <glyph glyph-name="s" unicode="s" horiz-adv-x="516" 
d="M345 370l7 40q4 22 -18 22h-100q-12 0 -18 -8t-10 -33q-5 -33 -2 -41t22 -11l142 -24q64 -11 83 -40.5t5 -109.5q-16 -91 -52.5 -128t-103.5 -37h-179q-65 0 -90.5 31.5t-13.5 98.5l9 49h136l-9 -49q-4 -22 17 -22h119q13 0 19 8.5t11 37.5q5 36 2 45t-21 12l-142 24
q-64 11 -84 39.5t-6 105.5q15 88 51.5 124t103.5 36h160q66 0 91.5 -31.5t13.5 -98.5l-7 -40h-136z" />
    <glyph glyph-name="t" unicode="t" horiz-adv-x="381" 
d="M264 428l-51 -292q-4 -22 17 -22h92l-20 -114h-124q-65 0 -90.5 31.5t-13.5 98.5l52 298h-79l20 112h81l23 130h134l-23 -130h115l-20 -112h-113z" />
    <glyph glyph-name="u" unicode="u" horiz-adv-x="569" 
d="M320 0l14 79q-38 -43 -76.5 -63.5t-104.5 -20.5q-77 0 -104.5 32t-14.5 102l72 411h138l-69 -395q-3 -15 2.5 -20.5t26.5 -5.5q79 0 143 32l68 389h138l-95 -540h-138z" />
    <glyph glyph-name="v" unicode="v" horiz-adv-x="527" 
d="M560 540l-268 -540h-152l-78 540h143l31 -417l177 417h147z" />
    <glyph glyph-name="w" unicode="w" horiz-adv-x="773" 
d="M572 0h-143l-19 381l-152 -381h-144l-52 540h143l3 -391l160 391h133l23 -391l140 391h142z" />
    <glyph glyph-name="x" unicode="x" horiz-adv-x="520" 
d="M242 167l-130 -167h-146l220 274l-123 266h143l69 -163l127 163h146l-216 -267l127 -273h-144z" />
    <glyph glyph-name="y" unicode="y" horiz-adv-x="534" 
d="M567 540l-360 -700h-138l84 160l-91 540h143l39 -395l177 395h146z" />
    <glyph glyph-name="z" unicode="z" horiz-adv-x="473" 
d="M1 98l290 326h-224l20 116h395l-17 -96l-290 -328h239l-20 -116h-410z" />
    <glyph glyph-name="braceleft" unicode="{" horiz-adv-x="446" 
d="M346 612l-33 -188q-11 -57 -70 -92q48 -35 37 -92l-34 -194q-2 -11 1.5 -15.5t14.5 -4.5h89l-24 -132h-115q-137 0 -112 140l38 216q2 11 -1.5 15.5t-14.5 4.5h-79l21 124h79q20 0 24 20l37 210q25 140 162 140h115l-24 -132h-89q-11 0 -15.5 -4t-6.5 -16z" />
    <glyph glyph-name="bar" unicode="|" horiz-adv-x="347" 
d="M195 767h132l-173 -983h-132z" />
    <glyph glyph-name="braceright" unicode="}" horiz-adv-x="446" 
d="M188 424l33 188q4 20 -16 20h-89l24 132h115q137 0 112 -140l-37 -210q-2 -11 1.5 -15.5t14.5 -4.5h79l-21 -124h-79q-20 0 -24 -20l-38 -216q-25 -140 -162 -140h-115l24 132h89q18 0 22 20l34 194q11 57 71 92q-49 36 -38 92z" />
    <glyph glyph-name="asciitilde" unicode="~" horiz-adv-x="499" 
d="M144 264l3 19q4 21 26 21q19 0 82 -23t92 -23q85 0 104 112l5 25h-81l-4 -19q-3 -21 -24 -21q-18 0 -77.5 23t-91.5 23q-89 0 -109 -112l-4 -25h79z" />
    <glyph glyph-name="exclamdown" unicode="&#xa1;" horiz-adv-x="270" 
d="M102 540h159l-27 -156h-159zM85 297h107l-50 -457h-167z" />
    <glyph glyph-name="cent" unicode="&#xa2;" horiz-adv-x="575" 
d="M417 414l10 54q3 20 -17 20h-32l-48 -270h32q20 0 24 20l9 54h130l-9 -56q-25 -140 -162 -140h-36l-17 -96h-115l17 96h-41q-137 0 -112 140l41 234q25 140 162 140h41l15 90h115l-15 -90h36q137 0 112 -140l-10 -56h-130zM281 488h-38q-19 0 -22 -20l-41 -230
q-4 -20 15 -20h38z" />
    <glyph glyph-name="sterling" unicode="&#xa3;" horiz-adv-x="615" 
d="M317 700h183q137 0 113 -140l-16 -92h-144l14 80q2 11 -1.5 15.5t-14.5 4.5h-131q-19 0 -22 -20l-24 -135h139l-23 -130h-139l-27 -151h317l-23 -132h-541l23 132h60q20 0 24 20l23 131h-80l23 130h80l26 147q24 140 161 140z" />
    <glyph glyph-name="currency" unicode="&#xa4;" horiz-adv-x="591" 
d="M528 438l-28 -160q-4 -25 -14 -50l67 -83l-101 -86l-67 84q-23 -5 -47 -5h-132q-28 0 -45 4l-97 -83l-69 86l95 83q-1 17 4 50l28 160q4 22 13 48l-66 82l100 86l65 -81q25 5 50 5h132q25 0 48 -5l93 81l70 -86l-95 -83q0 -23 -4 -47zM230 252h124q19 0 23 20l30 172
q4 20 -15 20h-124q-19 0 -23 -20l-30 -172q-4 -20 15 -20z" />
    <glyph glyph-name="yen" unicode="&#xa5;" horiz-adv-x="603" 
d="M433 338h102l-13 -74h-138l-16 -25l-4 -25h149l-13 -74h-149l-25 -140h-144l25 140h-149l13 74h149l4 25l-8 25h-136l13 74h101l-112 362h151l85 -312l195 312h159z" />
    <glyph glyph-name="brokenbar" unicode="&#xa6;" horiz-adv-x="347" 
d="M195 767h132l-70 -396h-132zM154 -216h-132l66 376h132z" />
    <glyph glyph-name="section" unicode="&#xa7;" horiz-adv-x="527" 
d="M380 532v2q5 34 3 42t-14 8h-99q-12 0 -17.5 -7.5t-9.5 -32.5q-8 -41 11 -44l150 -26q58 -9 79.5 -40.5t5.5 -119.5q-11 -62 -26.5 -90.5t-38.5 -46.5q15 -14 19 -29.5t-2 -69.5q-17 -93 -57 -132.5t-111 -39.5h-155q-71 0 -97 39t-10 131l2 11h136l-1 -9q-5 -34 -3 -42
t13 -8h119q12 0 17.5 8t10.5 36q8 44 -11 47l-150 26q-59 10 -79.5 42.5t-6.5 113.5q11 61 27 89t42 48q-11 10 -15.5 18t-8.5 29t3 50q15 88 55 126.5t111 38.5h135q71 0 97.5 -38t11.5 -126l-1 -4h-135zM202 252l117 -20q7 -1 12 2.5t10.5 19t10.5 44.5t5 44t-2.5 19.5
t-8.5 5.5l-116 20q-7 1 -12 -2.5t-10.5 -18.5t-10.5 -44t-5.5 -44.5t2 -20t8.5 -5.5z" />
    <glyph glyph-name="dieresis" unicode="&#xa8;" 
d="M367 766h-129l23 128h129zM565 766h-129l23 128h129z" />
    <glyph glyph-name="copyright" unicode="&#xa9;" horiz-adv-x="830" 
d="M291 700h399q137 0 113 -140l-74 -420q-13 -73 -50 -106.5t-112 -33.5h-399q-137 0 -112 140l74 420q12 73 49 106.5t112 33.5zM636 138l75 424q9 52 -41 52h-389q-50 0 -59 -52l-75 -424q-9 -52 41 -52h389q50 0 59 52zM400 568h136q100 0 81 -102l-12 -68h-103l10 55
q4 20 -17 20h-88q-19 0 -23 -20l-36 -206q-2 -11 1.5 -15.5t14.5 -4.5h88q20 0 24 20l9 55h103l-12 -68q-9 -55 -34.5 -78.5t-82.5 -23.5h-136q-51 0 -70.5 24.5t-10.5 77.5l41 232q10 55 35.5 78.5t81.5 23.5z" />
    <glyph glyph-name="ordfeminine" unicode="&#xaa;" horiz-adv-x="381" 
d="M220 700h102q88 0 73 -90l-46 -261h-88l8 49q-20 -25 -42 -38.5t-63 -13.5q-56 0 -76 24t-10 81q9 54 34.5 75t79.5 29q40 6 107 10l8 45q1 12 -10 12h-81q-13 0 -14 -12l-4 -22h-85l4 22q8 47 32.5 68.5t70.5 21.5zM291 514l-105 -20q-5 -1 -7 -2.5t-5 -9t-6 -21.5
q-4 -23 -0.5 -28t22.5 -5q52 0 89 22zM339 295l-14 -77h-281l14 77h281z" />
    <glyph glyph-name="guillemotleft" unicode="&#xab;" horiz-adv-x="527" 
d="M340 559l-186 -208l102 -207h-139l-93 181l9 52l158 182h149zM561 559l-186 -208l102 -207h-138l-94 181l9 52l159 182h148z" />
    <glyph glyph-name="registered" unicode="&#xae;" horiz-adv-x="419" 
d="M186 700h196q64 0 52 -64l-43 -242q-10 -64 -74 -64h-196q-32 0 -44 15.5t-7 48.5l43 242q12 64 73 64zM354 391l44 248q4 26 -21 26h-197q-25 0 -29 -26l-44 -248q-2 -14 2.5 -20t17.5 -6h197q26 0 30 26zM198 624h107q43 0 34 -43l-8 -47q-6 -39 -40 -43l21 -85h-39
l-20 86h-40l-15 -86h-38zM294 537l7 42q3 10 -8 10h-62l-11 -62h62q10 0 12 10z" />
    <glyph glyph-name="macron" unicode="&#xaf;" horiz-adv-x="601" 
d="M538 888l-20 -112h-271l20 112h271z" />
    <glyph glyph-name="degree" unicode="&#xb0;" horiz-adv-x="316" 
d="M240 488h-87q-60 0 -48 60l16 92q10 60 69 60h87q59 0 49 -60l-16 -92q-12 -60 -70 -60zM248 646h-47q-16 0 -19 -16l-13 -72q-3 -16 14 -16h47q9 0 12 3.5t5 12.5l13 72q3 16 -12 16z" />
    <glyph glyph-name="plusminus" unicode="&#xb1;" horiz-adv-x="500" 
d="M187 255l22 127h-134l22 122h134l22 127h121l-22 -127h134l-22 -122h-134l-22 -127h-121zM43 200h389l-21 -120h-389z" />
    <glyph glyph-name="twosuperior" unicode="&#xb2;" horiz-adv-x="355" 
d="M202 686l4 22q2 12 13 12h79q8 0 9.5 -2.5t0.5 -9.5l-4 -24q-1 -9 -22 -15l-100 -28q-43 -12 -67.5 -29t-30.5 -52l-26 -146h293l16 90h-198l5 31q2 12 22 17l99 28q28 8 43 14t33 23t22 42l11 61q8 47 -8.5 68.5t-62.5 21.5h-113q-45 0 -70 -21.5t-33 -68.5l-6 -34h91z
" />
    <glyph glyph-name="threesuperior" unicode="&#xb3;" horiz-adv-x="355" 
d="M167 539v-2q-2 -13 -3 -20t-0.5 -11t2 -4.5t5.5 -0.5h88q8 0 11.5 6t7.5 30q4 26 3 31.5t-9 5.5h-88l15 83h83q8 0 11 5t7 28q3 23 2 28t-9 5h-79q-7 0 -9.5 -5t-6.5 -28l-1 -5h-94l2 11q11 63 36 88.5t71 25.5h115q46 0 62.5 -25t5.5 -89q-7 -36 -17.5 -52t-33.5 -28
q21 -11 26.5 -28t-1.5 -58q-11 -65 -35.5 -90.5t-71.5 -25.5h-124q-47 0 -63 25.5t-5 90.5l2 9h95z" />
    <glyph glyph-name="acute" unicode="&#xb4;" horiz-adv-x="404" 
d="M282 766h-122l113 144h181z" />
    <glyph glyph-name="paragraph" unicode="&#xb6;" horiz-adv-x="822" 
d="M698 0h-144l99 564h-86l-99 -564h-144l42 236h-185q-137 0 -113 140l33 184q24 140 161 140h559z" />
    <glyph glyph-name="periodcentered" unicode="&#xb7;" horiz-adv-x="246" 
d="M197 245h-157l28 156h157z" />
    <glyph glyph-name="cedilla" unicode="&#xb8;" horiz-adv-x="555" 
d="M283 0l-12 -66q-10 -55 -32.5 -74.5t-75.5 -19.5h-82l-35 78h100q19 0 23 20l11 62h103z" />
    <glyph glyph-name="onesuperior" unicode="&#xb9;" horiz-adv-x="247" 
d="M129 416l53 298l-89 -24l14 77l112 45h74l-70 -396h-94z" />
    <glyph glyph-name="ordmasculine" unicode="&#xba;" horiz-adv-x="382" 
d="M210 700h113q88 0 73 -90l-31 -171q-15 -90 -103 -90h-113q-88 0 -73 90l31 171q15 90 103 90zM278 442l29 165q3 12 -10 12h-88q-11 0 -14 -12l-29 -165q-3 -12 10 -12h88q11 0 14 12zM332 295l-14 -77h-273l14 77h273z" />
    <glyph glyph-name="guillemotright" unicode="&#xbb;" horiz-adv-x="527" 
d="M310 377l-9 -52l-158 -181h-148l186 207l-102 208h138zM531 377l-9 -52l-157 -181h-149l186 207l-102 208h139z" />
    <glyph glyph-name="onequarter" unicode="&#xbc;" horiz-adv-x="799" 
d="M684 720l-531 -720h-100l531 720h100zM110 306l53 298l-89 -24l14 77l112 45h74l-70 -396h-94zM743 72h-59l-13 -72h-92l13 72h-189l-9 70l270 254h77l-43 -241h59zM514 155h92l17 96z" />
    <glyph glyph-name="onehalf" unicode="&#xbd;" horiz-adv-x="813" 
d="M684 720l-531 -720h-100l531 720h100zM110 306l53 298l-89 -24l14 77l112 45h74l-70 -396h-94zM587 272l4 22q2 12 13 12h79q8 0 9.5 -2.5t0.5 -9.5l-4 -24q-1 -9 -22 -15l-100 -28q-43 -12 -67.5 -29t-30.5 -52l-26 -146h293l16 90h-198l5 31q2 12 22 17l99 28
q28 8 43 14t33 23t22 42l11 61q8 47 -8.5 68.5t-62.5 21.5h-113q-45 0 -70 -21.5t-33 -68.5l-6 -34h91z" />
    <glyph glyph-name="threequarters" unicode="&#xbe;" horiz-adv-x="907" 
d="M792 720l-531 -720h-100l531 720h100zM148 429v-2q-2 -13 -3 -20t-0.5 -11t2 -4.5t5.5 -0.5h88q8 0 11.5 6t7.5 30q4 26 3 31.5t-9 5.5h-88l15 83h83q8 0 11 5t7 28q3 23 2 28t-9 5h-79q-7 0 -9.5 -5t-6.5 -28l-1 -5h-94l2 11q11 63 36 88.5t71 25.5h115q46 0 62.5 -25
t5.5 -89q-7 -36 -17.5 -52t-33.5 -28q21 -11 26.5 -28t-1.5 -58q-11 -65 -35.5 -90.5t-71.5 -25.5h-124q-47 0 -63 25.5t-5 90.5l2 9h95zM851 72h-59l-13 -72h-92l13 72h-189l-9 70l270 254h77l-43 -241h59zM622 155h92l17 96z" />
    <glyph glyph-name="questiondown" unicode="&#xbf;" horiz-adv-x="555" 
d="M268 396l25 144h144l-25 -144h-144zM326 -160h-230q-137 0 -113 140l18 101q4 23 17 42t39.5 38t46 30.5t61.5 33.5l45 24q36 20 38 32l7 45h144l-13 -75q-4 -21 -17.5 -40.5t-44 -41t-46.5 -31t-58 -33.5l-42 -24q-36 -20 -38 -32l-10 -57q-4 -20 15 -20h177q20 0 24 20
l12 68h144l-15 -80q-24 -140 -161 -140z" />
    <glyph glyph-name="Agrave" unicode="&#xc0;" horiz-adv-x="657" 
d="M377 766l-122 144h170l64 -144h-112zM425 152h-233l-68 -152h-156l332 700h208l86 -700h-154zM413 284l-29 294l-132 -294h161z" />
    <glyph glyph-name="Aacute" unicode="&#xc1;" horiz-adv-x="657" 
d="M460 766h-122l113 144h181zM508 700l86 -700h-154l-15 152h-233l-68 -152h-156l332 700h208zM413 284l-29 294l-132 -294h161z" />
    <glyph glyph-name="Acircumflex" unicode="&#xc2;" horiz-adv-x="657" 
d="M359 766h-131l152 130h118l106 -130h-127l-48 63zM508 700l86 -700h-154l-15 152h-233l-68 -152h-156l332 700h208zM413 284l-29 294l-132 -294h161z" />
    <glyph glyph-name="Atilde" unicode="&#xc3;" horiz-adv-x="657" 
d="M599 895l-5 -25q-10 -58 -32.5 -85t-63.5 -27q-29 0 -74 23t-64 23q-23 0 -27 -21l-3 -19h-73l4 25q20 112 104 112q31 0 72 -23t60 -23q20 0 23 21l4 19h75zM508 700l86 -700h-154l-15 152h-233l-68 -152h-156l332 700h208zM413 284l-29 294l-132 -294h161z" />
    <glyph glyph-name="Adieresis" unicode="&#xc4;" horiz-adv-x="657" 
d="M382 766h-129l23 128h129zM580 766h-129l23 128h129zM508 700l86 -700h-154l-15 152h-233l-68 -152h-156l332 700h208zM413 284l-29 294l-132 -294h161z" />
    <glyph glyph-name="Aring" unicode="&#xc5;" horiz-adv-x="657" 
d="M453 766h-74q-31 0 -42 14t-5 46l10 60q11 60 69 60h74q31 0 42 -14t5 -46l-10 -60q-11 -60 -69 -60zM403 878l-8 -44q-1 -7 0.5 -9.5t9.5 -2.5h42q12 0 14 12l8 44q1 7 -0.5 9.5t-9.5 2.5h-42q-12 0 -14 -12zM425 152h-233l-68 -152h-156l332 700h208l86 -700h-154z
M413 284l-29 294l-132 -294h161z" />
    <glyph glyph-name="AE" unicode="&#xc6;" horiz-adv-x="996" 
d="M683 568l-25 -144h258l-24 -132h-258l-28 -160h319l-23 -132h-463l28 158h-235l-104 -158h-172l479 700h590l-23 -132h-319zM490 290l48 276h-37l-182 -276h171z" />
    <glyph glyph-name="Ccedilla" unicode="&#xc7;" horiz-adv-x="612" 
d="M273 700h230q137 0 113 -140l-20 -114h-144l18 102q3 20 -17 20h-177q-19 0 -22 -20l-70 -396q-4 -20 15 -20h177q20 0 24 20l18 102h144l-20 -114q-25 -140 -162 -140h-57l-12 -66q-10 -55 -32.5 -74.5t-75.5 -19.5h-82l-35 78h100q19 0 23 20l11 62h-70
q-137 0 -112 140l74 420q24 140 161 140z" />
    <glyph glyph-name="Egrave" unicode="&#xc8;" horiz-adv-x="586" 
d="M359 766h112l-64 144h-170zM152 700h463l-23 -132h-319l-25 -145h258l-23 -130h-258l-29 -161h319l-23 -132h-463z" />
    <glyph glyph-name="Eacute" unicode="&#xc9;" horiz-adv-x="586" 
d="M442 766h-122l113 144h181zM152 700h463l-23 -132h-319l-25 -145h258l-23 -130h-258l-29 -161h319l-23 -132h-463z" />
    <glyph glyph-name="Ecircumflex" unicode="&#xca;" horiz-adv-x="586" 
d="M341 766l70 63l48 -63h127l-106 130h-118l-152 -130h131zM152 700h463l-23 -132h-319l-25 -145h258l-23 -130h-258l-29 -161h319l-23 -132h-463z" />
    <glyph glyph-name="Edieresis" unicode="&#xcb;" horiz-adv-x="586" 
d="M364 766h-129l23 128h129zM562 766h-129l23 128h129zM152 700h463l-23 -132h-319l-25 -145h258l-23 -130h-258l-29 -161h319l-23 -132h-463z" />
    <glyph glyph-name="Igrave" unicode="&#xcc;" horiz-adv-x="297" 
d="M197 766h112l-64 144h-170zM29 0l123 700h144l-123 -700h-144z" />
    <glyph glyph-name="Iacute" unicode="&#xcd;" horiz-adv-x="297" 
d="M280 766h-122l113 144h181zM29 0l123 700h144l-123 -700h-144z" />
    <glyph glyph-name="Icircumflex" unicode="&#xce;" horiz-adv-x="297" 
d="M179 766l70 63l48 -63h127l-106 130h-118l-152 -130h131zM29 0l123 700h144l-123 -700h-144z" />
    <glyph glyph-name="Idieresis" unicode="&#xcf;" horiz-adv-x="297" 
d="M202 766h-129l23 128h129zM400 766h-129l23 128h129zM29 0l123 700h144l-123 -700h-144z" />
    <glyph glyph-name="Eth" unicode="&#xd0;" horiz-adv-x="644" 
d="M144 700h378q137 0 113 -140l-74 -420q-25 -140 -162 -140h-378l51 290h-70l26 144h69zM419 152l70 396q3 20 -17 20h-207l-24 -134h71l-26 -144h-70l-28 -158h207q20 0 24 20z" />
    <glyph glyph-name="Ntilde" unicode="&#xd1;" horiz-adv-x="700" 
d="M351 764l3 19q4 21 27 21q19 0 64 -23t74 -23q41 0 63.5 27t32.5 85l5 25h-75l-4 -19q-3 -21 -23 -21q-19 0 -60 23t-72 23q-84 0 -104 -112l-4 -25h73zM559 700h140l-123 -700h-132l-193 467l-82 -467h-140l123 700h142l186 -451z" />
    <glyph glyph-name="Ograve" unicode="&#xd2;" horiz-adv-x="648" 
d="M373 766h112l-64 144h-170zM403 0h-253q-137 0 -112 140l74 420q24 140 161 140h253q137 0 113 -140l-74 -420q-25 -140 -162 -140zM254 548l-70 -396q-4 -20 15 -20h201q19 0 23 20l70 396q3 20 -16 20h-201q-19 0 -22 -20z" />
    <glyph glyph-name="Oacute" unicode="&#xd3;" horiz-adv-x="648" 
d="M456 766h-122l113 144h181zM403 0h-253q-137 0 -112 140l74 420q24 140 161 140h253q137 0 113 -140l-74 -420q-25 -140 -162 -140zM254 548l-70 -396q-4 -20 15 -20h201q19 0 23 20l70 396q3 20 -16 20h-201q-19 0 -22 -20z" />
    <glyph glyph-name="Ocircumflex" unicode="&#xd4;" horiz-adv-x="648" 
d="M355 766l70 63l48 -63h127l-106 130h-118l-152 -130h131zM403 0h-253q-137 0 -112 140l74 420q24 140 161 140h253q137 0 113 -140l-74 -420q-25 -140 -162 -140zM254 548l-70 -396q-4 -20 15 -20h201q19 0 23 20l70 396q3 20 -16 20h-201q-19 0 -22 -20z" />
    <glyph glyph-name="Otilde" unicode="&#xd5;" horiz-adv-x="648" 
d="M326 764l3 19q4 21 27 21q19 0 64 -23t74 -23q41 0 63.5 27t32.5 85l5 25h-75l-4 -19q-3 -21 -23 -21q-19 0 -60 23t-72 23q-84 0 -104 -112l-4 -25h73zM403 0h-253q-137 0 -112 140l74 420q24 140 161 140h253q137 0 113 -140l-74 -420q-25 -140 -162 -140zM254 548
l-70 -396q-4 -20 15 -20h201q19 0 23 20l70 396q3 20 -16 20h-201q-19 0 -22 -20z" />
    <glyph glyph-name="Odieresis" unicode="&#xd6;" horiz-adv-x="648" 
d="M378 766h-129l23 128h129zM576 766h-129l23 128h129zM403 0h-253q-137 0 -112 140l74 420q24 140 161 140h253q137 0 113 -140l-74 -420q-25 -140 -162 -140zM254 548l-70 -396q-4 -20 15 -20h201q19 0 23 20l70 396q3 20 -16 20h-201q-19 0 -22 -20z" />
    <glyph glyph-name="multiply" unicode="&#xd7;" horiz-adv-x="499" 
d="M342 329l87 -108l-92 -78l-86 108l-129 -112l-72 86l131 113l-88 108l93 78l86 -107l129 111l71 -86z" />
    <glyph glyph-name="Oslash" unicode="&#xd8;" horiz-adv-x="637" 
d="M628 760l-41 -74q58 -28 41 -126l-74 -420q-25 -140 -162 -140h-194l-35 -60h-128l43 74q-56 31 -40 126l74 420q24 140 161 140h194l34 60h127zM197 225l195 343h-116q-19 0 -22 -20zM272 132h117q19 0 23 20l58 330z" />
    <glyph glyph-name="Ugrave" unicode="&#xd9;" horiz-adv-x="656" 
d="M376 766h112l-64 144h-170zM661 700l-98 -560q-25 -140 -162 -140h-241q-137 0 -112 140l98 560h144l-96 -548q-4 -20 15 -20h188q20 0 24 20l96 548h144z" />
    <glyph glyph-name="Uacute" unicode="&#xda;" horiz-adv-x="656" 
d="M459 766h-122l113 144h181zM661 700l-98 -560q-25 -140 -162 -140h-241q-137 0 -112 140l98 560h144l-96 -548q-4 -20 15 -20h188q20 0 24 20l96 548h144z" />
    <glyph glyph-name="Ucircumflex" unicode="&#xdb;" horiz-adv-x="656" 
d="M358 766l70 63l48 -63h127l-106 130h-118l-152 -130h131zM661 700l-98 -560q-25 -140 -162 -140h-241q-137 0 -112 140l98 560h144l-96 -548q-4 -20 15 -20h188q20 0 24 20l96 548h144z" />
    <glyph glyph-name="Udieresis" unicode="&#xdc;" horiz-adv-x="656" 
d="M381 766h-129l23 128h129zM579 766h-129l23 128h129zM661 700l-98 -560q-25 -140 -162 -140h-241q-137 0 -112 140l98 560h144l-96 -548q-4 -20 15 -20h188q20 0 24 20l96 548h144z" />
    <glyph glyph-name="Yacute" unicode="&#xdd;" horiz-adv-x="603" 
d="M434 766h-122l113 144h181zM326 0h-144l42 239l-142 461h150l85 -312l195 312h160l-304 -461z" />
    <glyph glyph-name="Thorn" unicode="&#xde;" horiz-adv-x="615" 
d="M296 700l-21 -122h221q137 0 112 -140l-29 -166q-25 -140 -162 -140h-221l-23 -132h-144l123 700h144zM220 264h195q18 0 22 20l25 142q4 20 -15 20h-195z" />
    <glyph glyph-name="germandbls" unicode="&#xdf;" horiz-adv-x="564" 
d="M552 539q-13 -76 -32 -110t-58 -55q35 -19 43.5 -54t-5.5 -120q-21 -118 -55 -159t-107 -41h-133l21 120h99q13 0 20.5 16.5t18.5 81.5q6 34 9 54t1.5 29.5t-4.5 12t-10 2.5h-99l20 116h91q13 0 20 15t18 74q6 31 8 49t0.5 26.5t-4.5 11t-10 2.5h-125q-21 0 -25 -22
l-104 -588h-138l106 600q22 130 150 130h191q68 0 90 -41t3 -150z" />
    <glyph glyph-name="agrave" unicode="&#xe0;" horiz-adv-x="570" 
d="M299 606h112l-64 144h-170zM248 544q48 0 79 -11.5t46 -27.5t30 -45l14 80h137l-95 -540h-137l14 80q-38 -43 -77 -63.5t-108 -20.5q-80 0 -107.5 32.5t-14.5 107.5l47 268q14 75 53 107.5t119 32.5zM211 388l-41 -236q-4 -20 2 -26t31 -6q82 0 146 32l41 236
q-52 32 -134 32q-24 0 -32.5 -6t-12.5 -26z" />
    <glyph glyph-name="aacute" unicode="&#xe1;" horiz-adv-x="570" 
d="M382 606h-122l113 144h181zM248 544q48 0 79 -11.5t46 -27.5t30 -45l14 80h137l-95 -540h-137l14 80q-38 -43 -77 -63.5t-108 -20.5q-80 0 -107.5 32.5t-14.5 107.5l47 268q14 75 53 107.5t119 32.5zM211 388l-41 -236q-4 -20 2 -26t31 -6q82 0 146 32l41 236
q-52 32 -134 32q-24 0 -32.5 -6t-12.5 -26z" />
    <glyph glyph-name="acircumflex" unicode="&#xe2;" horiz-adv-x="570" 
d="M281 606l70 63l48 -63h127l-106 130h-118l-152 -130h131zM248 544q48 0 79 -11.5t46 -27.5t30 -45l14 80h137l-95 -540h-137l14 80q-38 -43 -77 -63.5t-108 -20.5q-80 0 -107.5 32.5t-14.5 107.5l47 268q14 75 53 107.5t119 32.5zM211 388l-41 -236q-4 -20 2 -26t31 -6
q82 0 146 32l41 236q-52 32 -134 32q-24 0 -32.5 -6t-12.5 -26z" />
    <glyph glyph-name="atilde" unicode="&#xe3;" horiz-adv-x="570" 
d="M252 604l3 19q4 21 27 21q19 0 64 -23t74 -23q41 0 63.5 27t32.5 85l5 25h-75l-4 -19q-3 -21 -23 -21q-19 0 -60 23t-72 23q-84 0 -104 -112l-4 -25h73zM248 544q48 0 79 -11.5t46 -27.5t30 -45l14 80h137l-95 -540h-137l14 80q-38 -43 -77 -63.5t-108 -20.5
q-80 0 -107.5 32.5t-14.5 107.5l47 268q14 75 53 107.5t119 32.5zM211 388l-41 -236q-4 -20 2 -26t31 -6q82 0 146 32l41 236q-52 32 -134 32q-24 0 -32.5 -6t-12.5 -26z" />
    <glyph glyph-name="adieresis" unicode="&#xe4;" horiz-adv-x="570" 
d="M304 606h-129l23 128h129zM502 606h-129l23 128h129zM248 544q48 0 79 -11.5t46 -27.5t30 -45l14 80h137l-95 -540h-137l14 80q-38 -43 -77 -63.5t-108 -20.5q-80 0 -107.5 32.5t-14.5 107.5l47 268q14 75 53 107.5t119 32.5zM211 388l-41 -236q-4 -20 2 -26t31 -6
q82 0 146 32l41 236q-52 32 -134 32q-24 0 -32.5 -6t-12.5 -26z" />
    <glyph glyph-name="aring" unicode="&#xe5;" horiz-adv-x="570" 
d="M375 606h-74q-31 0 -42 14t-5 46l10 60q11 60 69 60h74q31 0 42 -14t5 -46l-10 -60q-11 -60 -69 -60zM381 730h-42q-12 0 -14 -12l-8 -44q-1 -7 0.5 -9.5t9.5 -2.5h42q12 0 14 12l8 44q1 7 -0.5 9.5t-9.5 2.5zM248 544q48 0 79 -11.5t46 -27.5t30 -45l14 80h137l-95 -540
h-137l14 80q-38 -43 -77 -63.5t-108 -20.5q-80 0 -107.5 32.5t-14.5 107.5l47 268q14 75 53 107.5t119 32.5zM211 388l-41 -236q-4 -20 2 -26t31 -6q82 0 146 32l41 236q-52 32 -134 32q-24 0 -32.5 -6t-12.5 -26z" />
    <glyph glyph-name="ae" unicode="&#xe6;" horiz-adv-x="835" 
d="M479 231l-17 -97q-4 -22 17 -22h121q22 0 26 22l7 42h137l-8 -46q-23 -130 -150 -130h-185q-105 0 -108 87q-69 -91 -185 -91q-76 0 -102.5 36.5t-11.5 120.5q14 81 55 117.5t112 46.5q93 12 172 16l12 72q4 22 -18 22h-110q-21 0 -25 -22l-5 -32h-136l6 37
q23 130 150 130h159q27 0 45 -10t21 -25q7 15 28.5 25t49.5 10h171q65 0 90.5 -31.5t13.5 -98.5l-31 -179h-301zM659 324l15 82q3 22 -19 22h-121q-21 0 -24 -22l-15 -82h164zM343 245l-142 -27q-20 -4 -28.5 -13t-14.5 -38q-5 -32 -0.5 -42.5t26.5 -10.5q67 0 143 38z" />
    <glyph glyph-name="ccedilla" unicode="&#xe7;" horiz-adv-x="521" 
d="M227 540h172q65 0 90.5 -31.5t13.5 -98.5l-12 -68h-137l10 56q4 22 -18 22h-108q-21 0 -25 -22l-45 -256q-4 -22 17 -22h108q22 0 26 22l10 56h137l-12 -68q-23 -130 -150 -130h-29l-12 -66q-10 -55 -32.5 -74.5t-75.5 -19.5h-82l-35 78h100q19 0 23 20l11 62h-40
q-65 0 -90.5 31.5t-13.5 98.5l49 280q23 130 150 130z" />
    <glyph glyph-name="egrave" unicode="&#xe8;" horiz-adv-x="541" 
d="M293 606l-122 144h170l64 -144h-112zM227 540h185q65 0 91 -31.5t14 -98.5l-31 -179h-302l-17 -97q-4 -22 17 -22h121q22 0 26 22l7 42h138l-8 -46q-23 -130 -151 -130h-185q-65 0 -90.5 31.5t-13.5 98.5l49 280q23 130 150 130zM364 324l15 82q3 22 -19 22h-121
q-21 0 -24 -22l-14 -82h163z" />
    <glyph glyph-name="eacute" unicode="&#xe9;" horiz-adv-x="541" 
d="M376 606h-122l113 144h181zM227 540h185q65 0 91 -31.5t14 -98.5l-31 -179h-302l-17 -97q-4 -22 17 -22h121q22 0 26 22l7 42h138l-8 -46q-23 -130 -151 -130h-185q-65 0 -90.5 31.5t-13.5 98.5l49 280q23 130 150 130zM364 324l15 82q3 22 -19 22h-121q-21 0 -24 -22
l-14 -82h163z" />
    <glyph glyph-name="ecircumflex" unicode="&#xea;" horiz-adv-x="541" 
d="M275 606h-131l152 130h118l106 -130h-127l-48 63zM227 540h185q65 0 91 -31.5t14 -98.5l-31 -179h-302l-17 -97q-4 -22 17 -22h121q22 0 26 22l7 42h138l-8 -46q-23 -130 -151 -130h-185q-65 0 -90.5 31.5t-13.5 98.5l49 280q23 130 150 130zM364 324l15 82q3 22 -19 22
h-121q-21 0 -24 -22l-14 -82h163z" />
    <glyph glyph-name="edieresis" unicode="&#xeb;" horiz-adv-x="541" 
d="M298 606h-129l23 128h129zM496 606h-129l23 128h129zM227 540h185q65 0 91 -31.5t14 -98.5l-31 -179h-302l-17 -97q-4 -22 17 -22h121q22 0 26 22l7 42h138l-8 -46q-23 -130 -151 -130h-185q-65 0 -90.5 31.5t-13.5 98.5l49 280q23 130 150 130zM364 324l15 82
q3 22 -19 22h-121q-21 0 -24 -22l-14 -82h163z" />
    <glyph glyph-name="igrave" unicode="&#xec;" horiz-adv-x="264" 
d="M145 586h112l-64 144h-170zM248 540l-95 -540h-136l95 540h136z" />
    <glyph glyph-name="iacute" unicode="&#xed;" horiz-adv-x="264" 
d="M217 586h-122l113 144h181zM248 540l-95 -540h-136l95 540h136z" />
    <glyph glyph-name="icircumflex" unicode="&#xee;" horiz-adv-x="266" 
d="M132 586l70 63l48 -63h127l-106 130h-118l-152 -130h131zM249 540l-95 -540h-137l95 540h137z" />
    <glyph glyph-name="idieresis" unicode="&#xef;" horiz-adv-x="266" 
d="M154 586h-129l23 128h129zM352 586h-129l23 128h129zM249 540l-95 -540h-137l95 540h137z" />
    <glyph glyph-name="eth" unicode="&#xf0;" horiz-adv-x="559" 
d="M525 737l-76 -67q73 -19 92.5 -55.5t7.5 -104.5l-67 -380q-23 -130 -150 -130h-200q-65 0 -90.5 31.5t-13.5 98.5l41 234q14 75 53 107.5t119 32.5q48 0 79 -11.5t46 -27.5t30 -45l18 100q4 24 -1 34t-24 18l-36 14l-42 -37h-116l79 69l-74 30l15 84l145 -39l50 44h115z
M347 142l36 206q-52 32 -134 32q-24 0 -32.5 -6t-12.5 -26l-36 -206q-4 -22 17 -22h136q22 0 26 22z" />
    <glyph glyph-name="ntilde" unicode="&#xf1;" horiz-adv-x="569" 
d="M259 604l3 19q4 21 27 21q19 0 64 -23t74 -23q41 0 63.5 27t32.5 85l5 25h-75l-4 -19q-3 -21 -23 -21q-19 0 -60 23t-72 23q-84 0 -104 -112l-4 -25h73zM249 540l-14 -79q38 43 76 63.5t104 20.5q77 0 105 -32t15 -102l-72 -411h-138l70 395q2 15 -3.5 20.5t-26.5 5.5
q-79 0 -142 -32l-69 -389h-138l95 540h138z" />
    <glyph glyph-name="ograve" unicode="&#xf2;" horiz-adv-x="550" 
d="M296 606h112l-64 144h-170zM227 540h191q65 0 90.5 -31.5t13.5 -98.5l-49 -280q-23 -130 -150 -130h-191q-65 0 -90.5 31.5t-13.5 98.5l49 280q23 130 150 130zM338 142l45 256q4 22 -18 22h-127q-21 0 -25 -22l-45 -256q-4 -22 17 -22h127q22 0 26 22z" />
    <glyph glyph-name="oacute" unicode="&#xf3;" horiz-adv-x="550" 
d="M379 606h-122l113 144h181zM227 540h191q65 0 90.5 -31.5t13.5 -98.5l-49 -280q-23 -130 -150 -130h-191q-65 0 -90.5 31.5t-13.5 98.5l49 280q23 130 150 130zM338 142l45 256q4 22 -18 22h-127q-21 0 -25 -22l-45 -256q-4 -22 17 -22h127q22 0 26 22z" />
    <glyph glyph-name="ocircumflex" unicode="&#xf4;" horiz-adv-x="550" 
d="M278 606l70 63l48 -63h127l-106 130h-118l-152 -130h131zM227 540h191q65 0 90.5 -31.5t13.5 -98.5l-49 -280q-23 -130 -150 -130h-191q-65 0 -90.5 31.5t-13.5 98.5l49 280q23 130 150 130zM338 142l45 256q4 22 -18 22h-127q-21 0 -25 -22l-45 -256q-4 -22 17 -22h127
q22 0 26 22z" />
    <glyph glyph-name="otilde" unicode="&#xf5;" horiz-adv-x="550" 
d="M249 604l3 19q4 21 27 21q19 0 64 -23t74 -23q41 0 63.5 27t32.5 85l5 25h-75l-4 -19q-3 -21 -23 -21q-19 0 -60 23t-72 23q-84 0 -104 -112l-4 -25h73zM227 540h191q65 0 90.5 -31.5t13.5 -98.5l-49 -280q-23 -130 -150 -130h-191q-65 0 -90.5 31.5t-13.5 98.5l49 280
q23 130 150 130zM338 142l45 256q4 22 -18 22h-127q-21 0 -25 -22l-45 -256q-4 -22 17 -22h127q22 0 26 22z" />
    <glyph glyph-name="odieresis" unicode="&#xf6;" horiz-adv-x="550" 
d="M301 606h-129l23 128h129zM499 606h-129l23 128h129zM227 540h191q65 0 90.5 -31.5t13.5 -98.5l-49 -280q-23 -130 -150 -130h-191q-65 0 -90.5 31.5t-13.5 98.5l49 280q23 130 150 130zM338 142l45 256q4 22 -18 22h-127q-21 0 -25 -22l-45 -256q-4 -22 17 -22h127
q22 0 26 22z" />
    <glyph glyph-name="divide" unicode="&#xf7;" horiz-adv-x="500" 
d="M357 507h-131l24 132h131zM65 437h429l-24 -134h-429zM286 101h-131l23 132h131z" />
    <glyph glyph-name="oslash" unicode="&#xf8;" horiz-adv-x="542" 
d="M510 600l-39 -70q59 -25 43 -120l-49 -280q-23 -130 -150 -130h-142l-34 -60h-102l38 69q-65 24 -47 121l49 280q23 130 150 130h146l34 60h103zM175 186l131 234h-68q-22 0 -26 -22zM240 120h65q21 0 25 22l35 200z" />
    <glyph glyph-name="ugrave" unicode="&#xf9;" horiz-adv-x="569" 
d="M294 606h112l-64 144h-170zM320 0l14 79q-38 -43 -76.5 -63.5t-104.5 -20.5q-77 0 -104.5 32t-14.5 102l72 411h138l-69 -395q-3 -15 2.5 -20.5t26.5 -5.5q79 0 143 32l68 389h138l-95 -540h-138z" />
    <glyph glyph-name="uacute" unicode="&#xfa;" horiz-adv-x="569" 
d="M377 606h-122l113 144h181zM320 0l14 79q-38 -43 -76.5 -63.5t-104.5 -20.5q-77 0 -104.5 32t-14.5 102l72 411h138l-69 -395q-3 -15 2.5 -20.5t26.5 -5.5q79 0 143 32l68 389h138l-95 -540h-138z" />
    <glyph glyph-name="ucircumflex" unicode="&#xfb;" horiz-adv-x="569" 
d="M276 606l70 63l48 -63h127l-106 130h-118l-152 -130h131zM320 0l14 79q-38 -43 -76.5 -63.5t-104.5 -20.5q-77 0 -104.5 32t-14.5 102l72 411h138l-69 -395q-3 -15 2.5 -20.5t26.5 -5.5q79 0 143 32l68 389h138l-95 -540h-138z" />
    <glyph glyph-name="udieresis" unicode="&#xfc;" horiz-adv-x="569" 
d="M299 606h-129l23 128h129zM497 606h-129l23 128h129zM320 0l14 79q-38 -43 -76.5 -63.5t-104.5 -20.5q-77 0 -104.5 32t-14.5 102l72 411h138l-69 -395q-3 -15 2.5 -20.5t26.5 -5.5q79 0 143 32l68 389h138l-95 -540h-138z" />
    <glyph glyph-name="yacute" unicode="&#xfd;" horiz-adv-x="534" 
d="M377 606h-122l113 144h181zM567 540l-360 -700h-138l84 160l-91 540h143l39 -395l177 395h146z" />
    <glyph glyph-name="thorn" unicode="&#xfe;" horiz-adv-x="570" 
d="M419 544q80 0 108 -32.5t14 -107.5l-47 -268q-13 -75 -52.5 -107.5t-119.5 -32.5q-48 0 -79 11.5t-45.5 27.5t-29.5 45l-42 -240h-138l157 890h138l-48 -270q38 44 76.5 64t107.5 20zM360 152l41 236q4 20 -2.5 26t-30.5 6q-82 0 -146 -32l-41 -236q52 -32 134 -32
q24 0 32.5 6t12.5 26z" />
    <glyph glyph-name="ydieresis" unicode="&#xff;" horiz-adv-x="534" 
d="M299 606h-129l23 128h129zM497 606h-129l23 128h129zM567 540l-360 -700h-138l84 160l-91 540h143l39 -395l177 395h146z" />
    <glyph glyph-name="Amacron" unicode="&#x100;" horiz-adv-x="657" 
d="M554 776h-271l20 112h271zM425 152h-233l-68 -152h-156l332 700h208l86 -700h-154zM413 284l-29 294l-132 -294h161z" />
    <glyph glyph-name="amacron" unicode="&#x101;" horiz-adv-x="570" 
d="M496 728l-20 -112h-271l20 112h271zM248 544q48 0 79 -11.5t46 -27.5t30 -45l14 80h137l-95 -540h-137l14 80q-38 -43 -77 -63.5t-108 -20.5q-80 0 -107.5 32.5t-14.5 107.5l47 268q14 75 53 107.5t119 32.5zM211 388l-41 -236q-4 -20 2 -26t31 -6q82 0 146 32l41 236
q-52 32 -134 32q-24 0 -32.5 -6t-12.5 -26z" />
    <glyph glyph-name="Abreve" unicode="&#x102;" horiz-adv-x="657" 
d="M455 766h-79q-79 0 -64 80l10 55h84l-8 -43q-2 -11 1 -14.5t13 -3.5h33q11 0 15.5 4t5.5 14l8 43h83l-10 -55q-8 -41 -30 -60.5t-62 -19.5zM425 152h-233l-68 -152h-156l332 700h208l86 -700h-154zM413 284l-29 294l-132 -294h161z" />
    <glyph glyph-name="abreve" unicode="&#x103;" horiz-adv-x="570" 
d="M479 741l-10 -55q-8 -41 -30 -60.5t-62 -19.5h-79q-79 0 -64 80l10 55h84l-8 -43q-2 -11 1 -14.5t13 -3.5h33q11 0 15.5 4t5.5 14l8 43h83zM248 544q48 0 79 -11.5t46 -27.5t30 -45l14 80h137l-95 -540h-137l14 80q-38 -43 -77 -63.5t-108 -20.5q-80 0 -107.5 32.5
t-14.5 107.5l47 268q14 75 53 107.5t119 32.5zM211 388l-41 -236q-4 -20 2 -26t31 -6q82 0 146 32l41 236q-52 32 -134 32q-24 0 -32.5 -6t-12.5 -26z" />
    <glyph glyph-name="Aogonek" unicode="&#x104;" horiz-adv-x="657" 
d="M594 0l-62 -81q-17 -20 4 -20h52l-13 -76h-99q-48 0 -62 25t20 73l61 79h-55l-15 152h-233l-68 -152h-156l332 700h208zM413 284l-29 294l-132 -294h161z" />
    <glyph glyph-name="aogonek" unicode="&#x105;" horiz-adv-x="570" 
d="M459 0l-62 -81q-17 -20 4 -20h52l-13 -76h-99q-48 0 -62 25t20 73l61 79h-38l14 80q-38 -43 -77 -63.5t-108 -20.5q-80 0 -107.5 32.5t-14.5 107.5l47 268q14 75 53 107.5t119 32.5q48 0 79 -11.5t46 -27.5t30 -45l14 80h137zM349 152l41 236q-52 32 -134 32
q-24 0 -32.5 -6t-12.5 -26l-41 -236q-4 -20 2 -26t31 -6q82 0 146 32z" />
    <glyph glyph-name="Cacute" unicode="&#x106;" horiz-adv-x="612" 
d="M444 766h-122l113 144h181zM380 0h-230q-137 0 -112 140l74 420q24 140 161 140h230q137 0 113 -140l-20 -114h-144l18 102q3 20 -17 20h-177q-19 0 -22 -20l-70 -396q-4 -20 15 -20h177q20 0 24 20l18 102h144l-20 -114q-25 -140 -162 -140z" />
    <glyph glyph-name="cacute" unicode="&#x107;" horiz-adv-x="521" 
d="M372 606h-122l113 144h181zM227 540h172q65 0 90.5 -31.5t13.5 -98.5l-12 -68h-137l10 56q4 22 -18 22h-108q-21 0 -25 -22l-45 -256q-4 -22 17 -22h108q22 0 26 22l10 56h137l-12 -68q-23 -130 -150 -130h-172q-65 0 -90.5 31.5t-13.5 98.5l49 280q23 130 150 130z" />
    <glyph glyph-name="Cdotaccent" unicode="&#x10a;" horiz-adv-x="612" 
d="M465 766h-129l23 128h129zM380 0h-230q-137 0 -112 140l74 420q24 140 161 140h230q137 0 113 -140l-20 -114h-144l18 102q3 20 -17 20h-177q-19 0 -22 -20l-70 -396q-4 -20 15 -20h177q20 0 24 20l18 102h144l-20 -114q-25 -140 -162 -140z" />
    <glyph glyph-name="cdotaccent" unicode="&#x10b;" horiz-adv-x="521" 
d="M393 606h-129l23 128h129zM227 540h172q65 0 90.5 -31.5t13.5 -98.5l-12 -68h-137l10 56q4 22 -18 22h-108q-21 0 -25 -22l-45 -256q-4 -22 17 -22h108q22 0 26 22l10 56h137l-12 -68q-23 -130 -150 -130h-172q-65 0 -90.5 31.5t-13.5 98.5l49 280q23 130 150 130z" />
    <glyph glyph-name="Ccaron" unicode="&#x10c;" horiz-adv-x="612" 
d="M341 766h118l152 130h-131l-70 -63l-48 63h-127zM380 0h-230q-137 0 -112 140l74 420q24 140 161 140h230q137 0 113 -140l-20 -114h-144l18 102q3 20 -17 20h-177q-19 0 -22 -20l-70 -396q-4 -20 15 -20h177q20 0 24 20l18 102h144l-20 -114q-25 -140 -162 -140z" />
    <glyph glyph-name="ccaron" unicode="&#x10d;" horiz-adv-x="521" 
d="M269 606h118l152 130h-131l-70 -63l-48 63h-127zM227 540h172q65 0 90.5 -31.5t13.5 -98.5l-12 -68h-137l10 56q4 22 -18 22h-108q-21 0 -25 -22l-45 -256q-4 -22 17 -22h108q22 0 26 22l10 56h137l-12 -68q-23 -130 -150 -130h-172q-65 0 -90.5 31.5t-13.5 98.5l49 280
q23 130 150 130z" />
    <glyph glyph-name="Dcaron" unicode="&#x10e;" horiz-adv-x="651" 
d="M352 766h118l152 130h-131l-70 -63l-48 63h-127zM152 700h378q136 0 112 -140l-74 -420q-25 -140 -161 -140h-378zM196 132h207q19 0 23 20l70 396q2 11 -1.5 15.5t-14.5 4.5h-207z" />
    <glyph glyph-name="dcaron" unicode="&#x10f;" horiz-adv-x="570" 
d="M248 544q48 0 79 -11.5t46 -27.5t30 -45l48 270h137l-129 -730h-137l14 80q-38 -43 -77 -63.5t-108 -20.5q-80 0 -107.5 32.5t-14.5 107.5l47 268q14 75 53 107.5t119 32.5zM805 730l-19 -108q-7 -48 -65 -104l-83 -78h-55l100 134h-63l27 156h158zM211 388l-41 -236
q-4 -20 2 -26t31 -6q82 0 146 32l41 236q-52 32 -134 32q-24 0 -32.5 -6t-12.5 -26z" />
    <glyph glyph-name="Dcroat" unicode="&#x110;" horiz-adv-x="644" 
d="M144 700h378q137 0 113 -140l-74 -420q-25 -140 -162 -140h-378l51 290h-70l26 144h69zM419 152l70 396q3 20 -17 20h-207l-24 -134h71l-26 -144h-70l-28 -158h207q20 0 24 20z" />
    <glyph glyph-name="dcroat" unicode="&#x111;" horiz-adv-x="571" 
d="M608 567h-49l-100 -567h-137l14 80q-38 -43 -77 -63.5t-108 -20.5q-80 0 -107.5 32.5t-14.5 107.5l47 268q14 75 53 107.5t119 32.5q48 0 79 -11.5t46 -27.5t30 -45l19 107h-101l16 92h101l13 71h137l-13 -71h49zM349 152l41 236q-52 32 -134 32q-24 0 -32.5 -6
t-12.5 -26l-41 -236q-4 -20 2 -26t31 -6q82 0 146 32z" />
    <glyph glyph-name="Emacron" unicode="&#x112;" horiz-adv-x="586" 
d="M556 888l-20 -112h-271l20 112h271zM152 700h463l-23 -132h-319l-25 -145h258l-23 -130h-258l-29 -161h319l-23 -132h-463z" />
    <glyph glyph-name="emacron" unicode="&#x113;" horiz-adv-x="541" 
d="M470 616h-271l20 112h271zM227 540h185q65 0 91 -31.5t14 -98.5l-31 -179h-302l-17 -97q-4 -22 17 -22h121q22 0 26 22l7 42h138l-8 -46q-23 -130 -151 -130h-185q-65 0 -90.5 31.5t-13.5 98.5l49 280q23 130 150 130zM364 324l15 82q3 22 -19 22h-121q-21 0 -24 -22
l-14 -82h163z" />
    <glyph glyph-name="Edotaccent" unicode="&#x116;" horiz-adv-x="586" 
d="M463 766h-129l23 128h129zM152 700h463l-23 -132h-319l-25 -145h258l-23 -130h-258l-29 -161h319l-23 -132h-463z" />
    <glyph glyph-name="edotaccent" unicode="&#x117;" horiz-adv-x="541" 
d="M397 606h-129l23 128h129zM227 540h185q65 0 91 -31.5t14 -98.5l-31 -179h-302l-17 -97q-4 -22 17 -22h121q22 0 26 22l7 42h138l-8 -46q-23 -130 -151 -130h-185q-65 0 -90.5 31.5t-13.5 98.5l49 280q23 130 150 130zM364 324l15 82q3 22 -19 22h-121q-21 0 -24 -22
l-14 -82h163z" />
    <glyph glyph-name="Eogonek" unicode="&#x118;" horiz-adv-x="586" 
d="M273 568l-25 -145h258l-23 -130h-258l-29 -161h319l-23 -132l-62 -81q-17 -20 4 -20h52l-13 -76h-99q-48 0 -62 25t20 73l61 79h-364l123 700h463l-23 -132h-319z" />
    <glyph glyph-name="eogonek" unicode="&#x119;" horiz-adv-x="541" 
d="M227 540h185q65 0 91 -31.5t14 -98.5l-31 -179h-302l-17 -97q-4 -22 17 -22h121q22 0 26 22l7 42h138l-8 -46q-23 -130 -151 -130h-31l-62 -81q-17 -20 4 -20h52l-13 -76h-99q-48 0 -62 25t20 73l61 79h-55q-65 0 -90.5 31.5t-13.5 98.5l49 280q23 130 150 130zM364 324
l15 82q3 22 -19 22h-121q-21 0 -24 -22l-14 -82h163z" />
    <glyph glyph-name="Ecaron" unicode="&#x11a;" horiz-adv-x="586" 
d="M339 766h118l152 130h-131l-70 -63l-48 63h-127zM152 700h463l-23 -132h-319l-25 -145h258l-23 -130h-258l-29 -161h319l-23 -132h-463z" />
    <glyph glyph-name="ecaron" unicode="&#x11b;" horiz-adv-x="541" 
d="M273 606l-106 130h127l48 -63l70 63h131l-152 -130h-118zM227 540h185q65 0 91 -31.5t14 -98.5l-31 -179h-302l-17 -97q-4 -22 17 -22h121q22 0 26 22l7 42h138l-8 -46q-23 -130 -151 -130h-185q-65 0 -90.5 31.5t-13.5 98.5l49 280q23 130 150 130zM364 324l15 82
q3 22 -19 22h-121q-21 0 -24 -22l-14 -82h163z" />
    <glyph glyph-name="Gbreve" unicode="&#x11e;" horiz-adv-x="630" 
d="M546 901l-10 -55q-8 -41 -30 -60.5t-62 -19.5h-79q-79 0 -64 80l10 55h84l-8 -43q-2 -11 1 -14.5t13 -3.5h33q11 0 15.5 4t5.5 14l8 43h83zM464 468l14 80q2 11 -1.5 15.5t-14.5 4.5h-186q-19 0 -22 -20l-70 -396q-4 -20 15 -20h186q19 0 23 20l19 108h-127l22 126h271
l-43 -246q-25 -140 -162 -140h-238q-137 0 -112 140l74 420q24 140 161 140h238q137 0 113 -140l-16 -92h-144z" />
    <glyph glyph-name="gbreve" unicode="&#x11f;" horiz-adv-x="572" 
d="M491 741l-10 -55q-8 -41 -30 -60.5t-62 -19.5h-79q-79 0 -64 80l10 55h84l-8 -43q-2 -11 1 -14.5t13 -3.5h33q11 0 15.5 4t5.5 14l8 43h83zM555 540l-100 -570q-23 -130 -151 -130h-258l19 110h226q22 0 26 22l23 132q-37 -43 -76 -63.5t-108 -20.5q-80 0 -108 32.5
t-15 107.5l43 244q14 75 53 107.5t119 32.5q48 0 79 -11.5t46 -27.5t30 -45l14 80h138zM213 398l-41 -232q-2 -13 4.5 -17.5t30.5 -4.5q82 0 146 32l37 212q-52 32 -134 32q-24 0 -32.5 -4.5t-10.5 -17.5z" />
    <glyph glyph-name="Gdotaccent" unicode="&#x120;" horiz-adv-x="630" 
d="M470 766h-129l23 128h129zM464 468l14 80q2 11 -1.5 15.5t-14.5 4.5h-186q-19 0 -22 -20l-70 -396q-4 -20 15 -20h186q19 0 23 20l19 108h-127l22 126h271l-43 -246q-25 -140 -162 -140h-238q-137 0 -112 140l74 420q24 140 161 140h238q137 0 113 -140l-16 -92h-144z
" />
    <glyph glyph-name="gdotaccent" unicode="&#x121;" horiz-adv-x="572" 
d="M415 606h-129l23 128h129zM555 540l-100 -570q-23 -130 -151 -130h-258l19 110h226q22 0 26 22l23 132q-37 -43 -76 -63.5t-108 -20.5q-80 0 -108 32.5t-15 107.5l43 244q14 75 53 107.5t119 32.5q48 0 79 -11.5t46 -27.5t30 -45l14 80h138zM213 398l-41 -232
q-2 -13 4.5 -17.5t30.5 -4.5q82 0 146 32l37 212q-52 32 -134 32q-24 0 -32.5 -4.5t-10.5 -17.5z" />
    <glyph glyph-name="Gcommaaccent" unicode="&#x122;" horiz-adv-x="630" 
d="M464 468l14 80q2 11 -1.5 15.5t-14.5 4.5h-186q-19 0 -22 -20l-70 -396q-4 -20 15 -20h186q19 0 23 20l19 108h-127l22 126h271l-43 -246q-25 -140 -162 -140h-238q-137 0 -112 140l74 420q24 140 161 140h238q137 0 113 -140l-16 -92h-144zM327 -70l-19 -108
q-6 -34 -64 -94l-73 -78h-55l100 134h-54l26 146h139z" />
    <glyph glyph-name="gcommaaccent" unicode="&#x123;" horiz-adv-x="572" 
d="M363 616l19 108q6 34 64 94l73 78h55l-100 -134h54l-26 -146h-139zM555 540l-100 -570q-23 -130 -151 -130h-258l19 110h226q22 0 26 22l23 132q-37 -43 -76 -63.5t-108 -20.5q-80 0 -108 32.5t-15 107.5l43 244q14 75 53 107.5t119 32.5q48 0 79 -11.5t46 -27.5t30 -45
l14 80h138zM213 398l-41 -232q-2 -13 4.5 -17.5t30.5 -4.5q82 0 146 32l37 212q-52 32 -134 32q-24 0 -32.5 -4.5t-10.5 -17.5z" />
    <glyph glyph-name="Hbar" unicode="&#x126;" horiz-adv-x="687" 
d="M723 515h-73l-91 -515h-143l53 302h-240l-53 -302h-143l91 515h-73l17 100h73l19 105h143l-18 -105h240l18 105h143l-19 -105h73zM507 515h-240l-14 -81h240z" />
    <glyph glyph-name="hbar" unicode="&#x127;" horiz-adv-x="569" 
d="M416 545q77 0 104.5 -32t14.5 -102l-72 -411h-138l70 395q2 15 -3.5 20.5t-26.5 5.5q-79 0 -142 -32l-69 -389h-138l100 567h-48l16 92h48l13 71h138l-13 -71h101l-16 -92h-101l-19 -106q38 43 76.5 63.5t104.5 20.5z" />
    <glyph glyph-name="Imacron" unicode="&#x12a;" horiz-adv-x="297" 
d="M394 888l-20 -112h-271l20 112h271zM29 0l123 700h144l-123 -700h-144z" />
    <glyph glyph-name="imacron" unicode="&#x12b;" horiz-adv-x="265" 
d="M347 716l-20 -112h-271l20 112h271zM248 540l-95 -540h-136l95 540h136z" />
    <glyph glyph-name="Iogonek" unicode="&#x12e;" horiz-adv-x="297" 
d="M173 0l-62 -81q-17 -20 4 -20h52l-13 -76h-99q-48 0 -62 25t20 73l61 79h-45l123 700h144z" />
    <glyph glyph-name="iogonek" unicode="&#x12f;" horiz-adv-x="265" 
d="M287 730l-23 -130h-146l23 130h146zM111 540h138l-95 -540l-62 -81q-17 -20 4 -20h52l-13 -76h-99q-48 0 -62 25t20 73l61 79h-39z" />
    <glyph glyph-name="Idotaccent" unicode="&#x130;" horiz-adv-x="297" 
d="M301 766h-129l23 128h129zM29 0l123 700h144l-123 -700h-144z" />
    <glyph glyph-name="IJ" unicode="&#x132;" horiz-adv-x="859" 
d="M29 0l123 700h144l-123 -700h-144zM864 700l-98 -560q-25 -140 -162 -140h-192q-137 0 -112 140l27 156h144l-25 -144q-4 -20 15 -20h139q20 0 24 20l96 548h144z" />
    <glyph glyph-name="ij" unicode="&#x133;" horiz-adv-x="546" 
d="M264 600h-146l23 130h146zM545 600h-146l23 130h146zM249 540l-95 -540h-138l95 540h138zM530 540l-100 -569q-11 -60 -46.5 -87.5t-104.5 -41.5l-109 -22l17 97l85 42q20 9 22 24l98 557h138z" />
    <glyph glyph-name="Kcommaaccent" unicode="&#x136;" horiz-adv-x="647" 
d="M442 426l149 -426h-152l-107 310l-130 -136l-31 -174h-142l123 700h142l-56 -323l292 323h173zM211 -70h139l-19 -108q-6 -34 -64 -94l-73 -78h-55l100 134h-54z" />
    <glyph glyph-name="kcommaaccent" unicode="&#x137;" horiz-adv-x="543" 
d="M371 332l115 -332l-142 -1l-73 228l-96 -99l-23 -128h-136l129 730h136l-74 -419l200 229h164zM156 -70h139l-19 -108q-6 -34 -64 -94l-73 -78h-55l100 134h-54z" />
    <glyph glyph-name="Lacute" unicode="&#x139;" horiz-adv-x="544" 
d="M280 766h-122l113 144h181zM152 700h144l-100 -568h294l-23 -132h-438z" />
    <glyph glyph-name="lacute" unicode="&#x13a;" horiz-adv-x="261" 
d="M268 796h-122l113 144h181zM143 730h138l-129 -730h-138z" />
    <glyph glyph-name="Lcommaaccent" unicode="&#x13b;" horiz-adv-x="544" 
d="M152 700h144l-100 -568h294l-23 -132h-438zM305 -70l-19 -108q-6 -34 -64 -94l-73 -78h-55l100 134h-54l26 146h139z" />
    <glyph glyph-name="lcommaaccent" unicode="&#x13c;" horiz-adv-x="261" 
d="M143 730h138l-129 -730h-138zM140 -70l-19 -108q-6 -34 -64 -94l-73 -78h-55l100 134h-54l26 146h139z" />
    <glyph glyph-name="Lcaron" unicode="&#x13d;" horiz-adv-x="544" 
d="M534 710l-20 -108q-7 -48 -65 -104l-83 -78h-55l100 134h-63l28 156h158zM152 700h144l-100 -568h294l-23 -132h-438z" />
    <glyph glyph-name="lcaron" unicode="&#x13e;" horiz-adv-x="419" 
d="M143 730h138l-129 -730h-138zM490 730l-19 -108q-5 -31 -64 -94l-73 -78h-55l100 134h-54l26 146h139z" />
    <glyph glyph-name="Ldot" unicode="&#x13f;" horiz-adv-x="544" 
d="M152 700h144l-100 -568h294l-23 -132h-438zM494 300h-157l28 156h157z" />
    <glyph glyph-name="ldot" unicode="&#x140;" horiz-adv-x="419" 
d="M143 730h138l-129 -730h-138zM415 314h-139l26 146h139z" />
    <glyph glyph-name="Lslash" unicode="&#x141;" horiz-adv-x="544" 
d="M490 132l-23 -132h-437l53 300l-67 -24l23 133l67 25l51 286h142l-41 -231l143 52l-23 -133l-143 -52l-40 -224h295z" />
    <glyph glyph-name="lslash" unicode="&#x142;" horiz-adv-x="340" 
d="M352 398l-97 -38l-64 -360h-138l54 303l-97 -37l23 133l97 37l52 294h138l-42 -237l98 38z" />
    <glyph glyph-name="Nacute" unicode="&#x143;" horiz-adv-x="700" 
d="M481 766h-122l113 144h181zM559 700h140l-123 -700h-132l-193 467l-82 -467h-140l123 700h142l186 -451z" />
    <glyph glyph-name="nacute" unicode="&#x144;" horiz-adv-x="569" 
d="M389 606h-122l113 144h181zM249 540l-14 -79q38 43 76 63.5t104 20.5q77 0 105 -32t15 -102l-72 -411h-138l70 395q2 15 -3.5 20.5t-26.5 5.5q-79 0 -142 -32l-69 -389h-138l95 540h138z" />
    <glyph glyph-name="Ncommaaccent" unicode="&#x145;" horiz-adv-x="700" 
d="M559 700h140l-123 -700h-132l-193 467l-82 -467h-140l123 700h142l186 -451zM359 -70l-19 -108q-6 -34 -64 -94l-73 -78h-55l100 134h-54l26 146h139z" />
    <glyph glyph-name="ncommaaccent" unicode="&#x146;" horiz-adv-x="569" 
d="M249 540l-14 -79q38 43 76 63.5t104 20.5q77 0 105 -32t15 -102l-72 -411h-138l70 395q2 15 -3.5 20.5t-26.5 5.5q-79 0 -142 -32l-69 -389h-138l95 540h138zM292 -70l-19 -108q-6 -34 -64 -94l-73 -78h-55l100 134h-54l26 146h139z" />
    <glyph glyph-name="Ncaron" unicode="&#x147;" horiz-adv-x="700" 
d="M378 766h118l152 130h-131l-70 -63l-48 63h-127zM559 700h140l-123 -700h-132l-193 467l-82 -467h-140l123 700h142l186 -451z" />
    <glyph glyph-name="ncaron" unicode="&#x148;" horiz-adv-x="569" 
d="M286 606h118l152 130h-131l-70 -63l-48 63h-127zM249 540l-14 -79q38 43 76 63.5t104 20.5q77 0 105 -32t15 -102l-72 -411h-138l70 395q2 15 -3.5 20.5t-26.5 5.5q-79 0 -142 -32l-69 -389h-138l95 540h138z" />
    <glyph glyph-name="Eng" unicode="&#x14a;" horiz-adv-x="697" 
d="M696 700l-127 -720q-24 -140 -161 -140h-122l22 124h108q19 0 23 20l3 16l-196 467l-82 -467h-135l123 700h140l190 -449l79 449h135z" />
    <glyph glyph-name="eng" unicode="&#x14b;" horiz-adv-x="569" 
d="M415 545q77 0 105 -32t15 -102l-77 -441q-23 -130 -151 -130h-115l21 120h87q18 0 21 18l74 417q2 15 -3.5 20.5t-26.5 5.5q-79 0 -142 -32l-69 -389h-138l95 540h138l-14 -79q38 43 76 63.5t104 20.5z" />
    <glyph glyph-name="Omacron" unicode="&#x14c;" horiz-adv-x="648" 
d="M570 888l-20 -112h-271l20 112h271zM403 0h-253q-137 0 -112 140l74 420q24 140 161 140h253q137 0 113 -140l-74 -420q-25 -140 -162 -140zM254 548l-70 -396q-4 -20 15 -20h201q19 0 23 20l70 396q3 20 -16 20h-201q-19 0 -22 -20z" />
    <glyph glyph-name="omacron" unicode="&#x14d;" horiz-adv-x="550" 
d="M493 728l-20 -112h-271l20 112h271zM227 540h191q65 0 90.5 -31.5t13.5 -98.5l-49 -280q-23 -130 -150 -130h-191q-65 0 -90.5 31.5t-13.5 98.5l49 280q23 130 150 130zM338 142l45 256q4 22 -18 22h-127q-21 0 -25 -22l-45 -256q-4 -22 17 -22h127q22 0 26 22z" />
    <glyph glyph-name="Ohungarumlaut" unicode="&#x150;" horiz-adv-x="648" 
d="M501 911l-139 -145h-136l139 145h136zM692 911l-139 -145h-136l139 145h136zM403 0h-253q-137 0 -112 140l74 420q24 140 161 140h253q137 0 113 -140l-74 -420q-25 -140 -162 -140zM254 548l-70 -396q-4 -20 15 -20h201q19 0 23 20l70 396q3 20 -16 20h-201
q-19 0 -22 -20z" />
    <glyph glyph-name="ohungarumlaut" unicode="&#x151;" horiz-adv-x="550" 
d="M424 751l-139 -145h-136l139 145h136zM615 751l-139 -145h-136l139 145h136zM227 540h191q65 0 90.5 -31.5t13.5 -98.5l-49 -280q-23 -130 -150 -130h-191q-65 0 -90.5 31.5t-13.5 98.5l49 280q23 130 150 130zM338 142l45 256q4 22 -18 22h-127q-21 0 -25 -22l-45 -256
q-4 -22 17 -22h127q22 0 26 22z" />
    <glyph glyph-name="OE" unicode="&#x152;" horiz-adv-x="942" 
d="M862 424l-24 -132h-258l-28 -160h319l-23 -132h-698q-137 0 -112 140l74 420q24 140 161 140h698l-23 -132h-319l-25 -144h258zM485 568h-209q-19 0 -22 -20l-70 -396q-4 -20 15 -20h209z" />
    <glyph glyph-name="oe" unicode="&#x153;" horiz-adv-x="848" 
d="M492 231l-17 -97q-4 -22 17 -22h121q22 0 26 22l7 42h137l-8 -46q-23 -130 -150 -130h-171q-28 0 -46 10t-20 25q-18 -35 -78 -35h-178q-65 0 -90.5 31.5t-13.5 98.5l49 280q23 130 150 130h178q27 0 45.5 -10t20.5 -25q8 15 29 25t49 10h171q65 0 90.5 -31.5t13.5 -98.5
l-31 -179h-301zM672 324l15 82q3 22 -19 22h-121q-21 0 -24 -22l-15 -82h164zM338 142l45 256q4 22 -18 22h-127q-21 0 -25 -22l-45 -256q-4 -22 17 -22h127q22 0 26 22z" />
    <glyph glyph-name="Racute" unicode="&#x154;" horiz-adv-x="638" 
d="M445 766h-122l113 144h181zM152 700h364q137 0 113 -140l-30 -169q-21 -118 -119 -136l72 -255h-148l-70 247h-117l-44 -247h-144zM456 395l27 155q4 20 -15 20h-194l-35 -195h194q19 0 23 20z" />
    <glyph glyph-name="racute" unicode="&#x155;" horiz-adv-x="415" 
d="M325 606h-122l113 144h181zM418 410h-67q-67 0 -130 -32l-67 -378h-138l95 540h138l-15 -84q37 43 73 63.5t91 20.5h43z" />
    <glyph glyph-name="Rcommaaccent" unicode="&#x156;" horiz-adv-x="638" 
d="M152 700h364q137 0 113 -140l-30 -169q-21 -118 -119 -136l72 -255h-148l-70 247h-117l-44 -247h-144zM456 395l27 155q4 20 -15 20h-194l-35 -195h194q19 0 23 20zM195 -70h139l-19 -108q-6 -34 -64 -94l-73 -78h-55l100 134h-54z" />
    <glyph glyph-name="rcommaaccent" unicode="&#x157;" horiz-adv-x="415" 
d="M418 410h-67q-67 0 -130 -32l-67 -378h-138l95 540h138l-15 -84q37 43 73 63.5t91 20.5h43zM142 -70l-19 -108q-6 -34 -64 -94l-73 -78h-55l100 134h-54l26 146h139z" />
    <glyph glyph-name="Rcaron" unicode="&#x158;" horiz-adv-x="638" 
d="M342 766l-106 130h127l48 -63l70 63h131l-152 -130h-118zM152 700h364q137 0 113 -140l-30 -169q-21 -118 -119 -136l72 -255h-148l-70 247h-117l-44 -247h-144zM456 395l27 155q4 20 -15 20h-194l-35 -195h194q19 0 23 20z" />
    <glyph glyph-name="rcaron" unicode="&#x159;" horiz-adv-x="415" 
d="M222 606h118l152 130h-131l-70 -63l-48 63h-127zM418 410h-67q-67 0 -130 -32l-67 -378h-138l95 540h138l-15 -84q37 43 73 63.5t91 20.5h43z" />
    <glyph glyph-name="Sacute" unicode="&#x15a;" horiz-adv-x="615" 
d="M438 766h-122l113 144h181zM444 480l12 70q2 11 -1.5 15.5t-14.5 4.5h-165q-19 0 -23 -20l-13 -76q-3 -19 2.5 -26.5t23.5 -11.5l176 -40q69 -16 97.5 -45.5t17.5 -94.5l-20 -116q-25 -140 -162 -140h-228q-137 0 -112 140l15 88h140l-14 -78q-3 -20 17 -20h178
q20 0 23 20l15 84q4 19 -2 26t-25 12l-175 40q-69 16 -97.5 45.5t-17.5 94.5l19 108q24 140 161 140h214q137 0 113 -140l-14 -80h-140z" />
    <glyph glyph-name="sacute" unicode="&#x15b;" horiz-adv-x="516" 
d="M362 606h-122l113 144h181zM345 370l7 40q4 22 -18 22h-100q-12 0 -18 -8t-10 -33q-5 -33 -2 -41t22 -11l142 -24q64 -11 83 -40.5t5 -109.5q-16 -91 -52.5 -128t-103.5 -37h-179q-65 0 -90.5 31.5t-13.5 98.5l9 49h136l-9 -49q-4 -22 17 -22h119q13 0 19 8.5t11 37.5
q5 36 2 45t-21 12l-142 24q-64 11 -84 39.5t-6 105.5q15 88 51.5 124t103.5 36h160q66 0 91.5 -31.5t13.5 -98.5l-7 -40h-136z" />
    <glyph glyph-name="Scedilla" unicode="&#x15e;" horiz-adv-x="615" 
d="M271 700h214q137 0 113 -140l-14 -80h-140l12 70q2 11 -1.5 15.5t-14.5 4.5h-165q-19 0 -23 -20l-13 -76q-3 -19 2.5 -26.5t23.5 -11.5l176 -40q69 -16 97.5 -45.5t17.5 -94.5l-20 -116q-25 -140 -162 -140h-48l-12 -66q-10 -55 -32.5 -74.5t-75.5 -19.5h-82l-35 78h100
q19 0 23 20l11 62h-77q-137 0 -112 140l15 88h140l-14 -78q-3 -20 17 -20h178q20 0 23 20l15 84q4 19 -2 26t-25 12l-175 40q-69 16 -97.5 45.5t-17.5 94.5l19 108q24 140 161 140z" />
    <glyph glyph-name="scedilla" unicode="&#x15f;" horiz-adv-x="516" 
d="M223 540h160q66 0 91.5 -31.5t13.5 -98.5l-7 -40h-136l7 40q4 22 -18 22h-100q-12 0 -18 -8t-10 -33q-5 -33 -2 -41t22 -11l142 -24q64 -11 83 -40.5t5 -109.5q-16 -91 -52.5 -128t-103.5 -37h-25l-12 -66q-10 -55 -32.5 -74.5t-75.5 -19.5h-82l-35 78h100q19 0 23 20
l11 62h-51q-65 0 -90.5 31.5t-13.5 98.5l9 49h136l-9 -49q-4 -22 17 -22h119q13 0 19 8.5t11 37.5q5 36 2 45t-21 12l-142 24q-64 11 -84 39.5t-6 105.5q15 88 51.5 124t103.5 36z" />
    <glyph glyph-name="Scaron" unicode="&#x160;" horiz-adv-x="615" 
d="M335 766h118l152 130h-131l-70 -63l-48 63h-127zM444 480l12 70q2 11 -1.5 15.5t-14.5 4.5h-165q-19 0 -23 -20l-13 -76q-3 -19 2.5 -26.5t23.5 -11.5l176 -40q69 -16 97.5 -45.5t17.5 -94.5l-20 -116q-25 -140 -162 -140h-228q-137 0 -112 140l15 88h140l-14 -78
q-3 -20 17 -20h178q20 0 23 20l15 84q4 19 -2 26t-25 12l-175 40q-69 16 -97.5 45.5t-17.5 94.5l19 108q24 140 161 140h214q137 0 113 -140l-14 -80h-140z" />
    <glyph glyph-name="scaron" unicode="&#x161;" horiz-adv-x="516" 
d="M259 606h118l152 130h-131l-70 -63l-48 63h-127zM345 370l7 40q4 22 -18 22h-100q-12 0 -18 -8t-10 -33q-5 -33 -2 -41t22 -11l142 -24q64 -11 83 -40.5t5 -109.5q-16 -91 -52.5 -128t-103.5 -37h-179q-65 0 -90.5 31.5t-13.5 98.5l9 49h136l-9 -49q-4 -22 17 -22h119
q13 0 19 8.5t11 37.5q5 36 2 45t-21 12l-142 24q-64 11 -84 39.5t-6 105.5q15 88 51.5 124t103.5 36h160q66 0 91.5 -31.5t13.5 -98.5l-7 -40h-136z" />
    <glyph glyph-name="Tcedilla" unicode="&#x162;" horiz-adv-x="563" 
d="M614 700l-22 -130h-185l-101 -570l-12 -66q-10 -55 -32.5 -74.5t-75.5 -19.5h-82l-35 78h100q19 0 23 20l11 62h-41l101 570h-185l22 130h514z" />
    <glyph glyph-name="tcedilla" unicode="&#x163;" horiz-adv-x="381" 
d="M264 428l-51 -292q-4 -22 17 -22h92l-20 -114l-12 -66q-10 -55 -32.5 -74.5t-75.5 -19.5h-82l-35 78h100q19 0 23 20l11 62h-21q-65 0 -90.5 31.5t-13.5 98.5l52 298h-79l20 112h81l23 130h134l-23 -130h115l-20 -112h-113z" />
    <glyph glyph-name="Tcaron" unicode="&#x164;" horiz-adv-x="563" 
d="M310 766h118l152 130h-131l-70 -63l-48 63h-127zM592 570h-185l-101 -570h-144l101 570h-185l22 130h514z" />
    <glyph glyph-name="tcaron" unicode="&#x165;" horiz-adv-x="381" 
d="M531 860l-19 -108q-7 -48 -65 -104l-83 -78h-55l100 134h-63l27 156h158zM264 428l-51 -292q-4 -22 17 -22h92l-20 -114h-124q-65 0 -90.5 31.5t-13.5 98.5l52 298h-79l20 112h81l23 130h134l-23 -130h115l-20 -112h-113z" />
    <glyph glyph-name="Tbar" unicode="&#x166;" horiz-adv-x="563" 
d="M527 888l-20 -112h-271l20 112h271zM592 570h-185l-101 -570h-144l101 570h-185l22 130h514z" />
    <glyph glyph-name="tbar" unicode="&#x167;" horiz-adv-x="381" 
d="M264 428l-15 -88h80l-20 -112h-80l-16 -92q-4 -22 17 -22h92l-20 -114h-124q-65 0 -90.5 31.5t-13.5 98.5l17 98h-53l20 112h53l15 88h-79l20 112h81l23 130h134l-23 -130h115l-20 -112h-113z" />
    <glyph glyph-name="Umacron" unicode="&#x16a;" horiz-adv-x="656" 
d="M573 888l-20 -112h-271l20 112h271zM661 700l-98 -560q-25 -140 -162 -140h-241q-137 0 -112 140l98 560h144l-96 -548q-4 -20 15 -20h188q20 0 24 20l96 548h144z" />
    <glyph glyph-name="umacron" unicode="&#x16b;" horiz-adv-x="569" 
d="M491 728l-20 -112h-271l20 112h271zM320 0l14 79q-38 -43 -76.5 -63.5t-104.5 -20.5q-77 0 -104.5 32t-14.5 102l72 411h138l-69 -395q-3 -15 2.5 -20.5t26.5 -5.5q79 0 143 32l68 389h138l-95 -540h-138z" />
    <glyph glyph-name="Uring" unicode="&#x16e;" horiz-adv-x="656" 
d="M452 766h-74q-31 0 -42 14t-5 46l10 60q11 60 69 60h74q31 0 42 -14t5 -46l-10 -60q-11 -60 -69 -60zM458 890h-42q-12 0 -14 -12l-8 -44q-1 -7 0.5 -9.5t9.5 -2.5h42q12 0 14 12l8 44q1 7 -0.5 9.5t-9.5 2.5zM661 700l-98 -560q-25 -140 -162 -140h-241q-137 0 -112 140
l98 560h144l-96 -548q-4 -20 15 -20h188q20 0 24 20l96 548h144z" />
    <glyph glyph-name="uring" unicode="&#x16f;" horiz-adv-x="569" 
d="M370 606h-74q-31 0 -42 14t-5 46l10 60q11 60 69 60h74q31 0 42 -14t5 -46l-10 -60q-11 -60 -69 -60zM376 730h-42q-12 0 -14 -12l-8 -44q-1 -7 0.5 -9.5t9.5 -2.5h42q12 0 14 12l8 44q1 7 -0.5 9.5t-9.5 2.5zM320 0l14 79q-38 -43 -76.5 -63.5t-104.5 -20.5
q-77 0 -104.5 32t-14.5 102l72 411h138l-69 -395q-3 -15 2.5 -20.5t26.5 -5.5q79 0 143 32l68 389h138l-95 -540h-138z" />
    <glyph glyph-name="Uhungarumlaut" unicode="&#x170;" horiz-adv-x="656" 
d="M504 911l-139 -145h-136l139 145h136zM695 911l-139 -145h-136l139 145h136zM661 700l-98 -560q-25 -140 -162 -140h-241q-137 0 -112 140l98 560h144l-96 -548q-4 -20 15 -20h188q20 0 24 20l96 548h144z" />
    <glyph glyph-name="uhungarumlaut" unicode="&#x171;" horiz-adv-x="569" 
d="M422 751l-139 -145h-136l139 145h136zM613 751l-139 -145h-136l139 145h136zM320 0l14 79q-38 -43 -76.5 -63.5t-104.5 -20.5q-77 0 -104.5 32t-14.5 102l72 411h138l-69 -395q-3 -15 2.5 -20.5t26.5 -5.5q79 0 143 32l68 389h138l-95 -540h-138z" />
    <glyph glyph-name="Uogonek" unicode="&#x172;" horiz-adv-x="656" 
d="M661 700l-98 -560q-25 -140 -162 -140h-61l-62 -81q-17 -20 4 -20h52l-13 -76h-99q-48 0 -62 25t20 73l61 79h-81q-137 0 -112 140l98 560h144l-96 -548q-4 -20 15 -20h188q20 0 24 20l96 548h144z" />
    <glyph glyph-name="uogonek" unicode="&#x173;" horiz-adv-x="569" 
d="M458 0l-62 -81q-17 -20 4 -20h52l-13 -76h-99q-48 0 -62 25t20 73l61 79h-39l14 79q-38 -43 -76.5 -63.5t-104.5 -20.5q-77 0 -104.5 32t-14.5 102l72 411h138l-69 -395q-3 -15 2.5 -20.5t26.5 -5.5q79 0 143 32l68 389h138z" />
    <glyph glyph-name="Wcircumflex" unicode="&#x174;" horiz-adv-x="911" 
d="M489 766l70 63l48 -63h127l-106 130h-118l-152 -130h131zM675 0h-152l-32 456l-192 -456h-158l-48 700h146l14 -514l216 514h123l35 -514l195 514h147z" />
    <glyph glyph-name="wcircumflex" unicode="&#x175;" horiz-adv-x="773" 
d="M394 606l70 63l48 -63h127l-106 130h-118l-152 -130h131zM572 0h-143l-19 381l-152 -381h-144l-52 540h143l3 -391l160 391h133l23 -391l140 391h142z" />
    <glyph glyph-name="Ycircumflex" unicode="&#x176;" horiz-adv-x="603" 
d="M333 766l70 63l48 -63h127l-106 130h-118l-152 -130h131zM326 0h-144l42 239l-142 461h150l85 -312l195 312h160l-304 -461z" />
    <glyph glyph-name="ycircumflex" unicode="&#x177;" horiz-adv-x="534" 
d="M276 606l70 63l48 -63h127l-106 130h-118l-152 -130h131zM567 540l-360 -700h-138l84 160l-91 540h143l39 -395l177 395h146z" />
    <glyph glyph-name="Ydieresis" unicode="&#x178;" horiz-adv-x="603" 
d="M356 766h-129l23 128h129zM554 766h-129l23 128h129zM326 0h-144l42 239l-142 461h150l85 -312l195 312h160l-304 -461z" />
    <glyph glyph-name="Zacute" unicode="&#x179;" horiz-adv-x="587" 
d="M438 766h-122l113 144h181zM17 108l397 464h-297l22 128h478l-19 -108l-396 -464h314l-23 -128h-495z" />
    <glyph glyph-name="zacute" unicode="&#x17a;" horiz-adv-x="473" 
d="M343 606h-122l113 144h181zM1 98l290 326h-224l20 116h395l-17 -96l-290 -328h239l-20 -116h-410z" />
    <glyph glyph-name="Zdotaccent" unicode="&#x17b;" horiz-adv-x="587" 
d="M459 766h-129l23 128h129zM17 108l397 464h-297l22 128h478l-19 -108l-396 -464h314l-23 -128h-495z" />
    <glyph glyph-name="zdotaccent" unicode="&#x17c;" horiz-adv-x="473" 
d="M364 606h-129l23 128h129zM1 98l290 326h-224l20 116h395l-17 -96l-290 -328h239l-20 -116h-410z" />
    <glyph glyph-name="Zcaron" unicode="&#x17d;" horiz-adv-x="587" 
d="M335 766h118l152 130h-131l-70 -63l-48 63h-127zM17 108l397 464h-297l22 128h478l-19 -108l-396 -464h314l-23 -128h-495z" />
    <glyph glyph-name="zcaron" unicode="&#x17e;" horiz-adv-x="473" 
d="M240 606h118l152 130h-131l-70 -63l-48 63h-127zM1 98l290 326h-224l20 116h395l-17 -96l-290 -328h239l-20 -116h-410z" />
    <glyph glyph-name="florin" unicode="&#x192;" horiz-adv-x="456" 
d="M475 568h-118q-19 0 -22 -20l-18 -100h128l-22 -126h-128l-32 -182q-25 -140 -162 -140h-115l23 132h88q20 0 24 20l30 170h-101l22 126h101l20 112q24 140 161 140h144z" />
    <glyph glyph-name="circumflex" unicode="&#x2c6;" horiz-adv-x="647" 
d="M354 766l70 63l48 -63h127l-106 130h-118l-152 -130h131z" />
    <glyph glyph-name="caron" unicode="&#x2c7;" horiz-adv-x="647" 
d="M352 766h118l152 130h-131l-70 -63l-48 63h-127z" />
    <glyph glyph-name="breve" unicode="&#x2d8;" horiz-adv-x="606" 
d="M532 901l-10 -55q-8 -41 -30 -60.5t-62 -19.5h-79q-79 0 -64 80l10 55h84l-8 -43q-2 -11 1 -14.5t13 -3.5h33q11 0 15.5 4t5.5 14l8 43h83z" />
    <glyph glyph-name="dotaccent" unicode="&#x2d9;" horiz-adv-x="430" 
d="M367 766h-129l23 128h129z" />
    <glyph glyph-name="ring" unicode="&#x2da;" horiz-adv-x="338" 
d="M293 766h-74q-31 0 -42 14t-5 46l10 60q11 60 69 60h74q31 0 42 -14t5 -46l-10 -60q-11 -60 -69 -60zM299 890h-42q-12 0 -14 -12l-8 -44q-1 -7 0.5 -9.5t9.5 -2.5h42q12 0 14 12l8 44q1 7 -0.5 9.5t-9.5 2.5z" />
    <glyph glyph-name="ogonek" unicode="&#x2db;" horiz-adv-x="377" 
d="M215 0l-62 -81q-17 -20 4 -20h52l-13 -76h-99q-48 0 -62 25t20 73l61 79h99z" />
    <glyph glyph-name="tilde" unicode="&#x2dc;" horiz-adv-x="599" 
d="M300 764l3 19q4 21 27 21q19 0 64 -23t74 -23q41 0 63.5 27t32.5 85l5 25h-75l-4 -19q-3 -21 -23 -21q-19 0 -60 23t-72 23q-84 0 -104 -112l-4 -25h73z" />
    <glyph glyph-name="hungarumlaut" unicode="&#x2dd;" horiz-adv-x="735" 
d="M510 911l-139 -145h-136l139 145h136zM701 911l-139 -145h-136l139 145h136z" />
    <glyph glyph-name="uni0326" unicode="&#x326;" horiz-adv-x="0" 
d="M190 -70l-19 -108q-6 -34 -64 -94l-73 -78h-55l100 134h-54l26 146h139z" />
    <glyph glyph-name="Wgrave" unicode="&#x1e80;" horiz-adv-x="911" 
d="M507 766h112l-64 144h-170zM675 0h-152l-32 456l-192 -456h-158l-48 700h146l14 -514l216 514h123l35 -514l195 514h147z" />
    <glyph glyph-name="wgrave" unicode="&#x1e81;" horiz-adv-x="773" 
d="M412 606h112l-64 144h-170zM572 0h-143l-19 381l-152 -381h-144l-52 540h143l3 -391l160 391h133l23 -391l140 391h142z" />
    <glyph glyph-name="Wacute" unicode="&#x1e82;" horiz-adv-x="911" 
d="M590 766h-122l113 144h181zM675 0h-152l-32 456l-192 -456h-158l-48 700h146l14 -514l216 514h123l35 -514l195 514h147z" />
    <glyph glyph-name="wacute" unicode="&#x1e83;" horiz-adv-x="773" 
d="M495 606h-122l113 144h181zM572 0h-143l-19 381l-152 -381h-144l-52 540h143l3 -391l160 391h133l23 -391l140 391h142z" />
    <glyph glyph-name="Wdieresis" unicode="&#x1e84;" horiz-adv-x="911" 
d="M512 766h-129l23 128h129zM710 766h-129l23 128h129zM675 0h-152l-32 456l-192 -456h-158l-48 700h146l14 -514l216 514h123l35 -514l195 514h147z" />
    <glyph glyph-name="wdieresis" unicode="&#x1e85;" horiz-adv-x="773" 
d="M417 606h-129l23 128h129zM615 606h-129l23 128h129zM572 0h-143l-19 381l-152 -381h-144l-52 540h143l3 -391l160 391h133l23 -391l140 391h142z" />
    <glyph glyph-name="Ygrave" unicode="&#x1ef2;" horiz-adv-x="603" 
d="M351 766h112l-64 144h-170zM326 0h-144l42 239l-142 461h150l85 -312l195 312h160l-304 -461z" />
    <glyph glyph-name="ygrave" unicode="&#x1ef3;" horiz-adv-x="534" 
d="M294 606h112l-64 144h-170zM567 540l-360 -700h-138l84 160l-91 540h143l39 -395l177 395h146z" />
    <glyph glyph-name="endash" unicode="&#x2013;" horiz-adv-x="552" 
d="M523 393l-22 -128h-451l22 128h451z" />
    <glyph glyph-name="emdash" unicode="&#x2014;" horiz-adv-x="787" 
d="M758 393l-22 -128h-686l22 128h686z" />
    <glyph glyph-name="quoteleft" unicode="&#x2018;" horiz-adv-x="246" 
d="M69 410l19 108q5 28 19.5 50.5t46.5 53.5l82 78h55l-99 -134h63l-28 -156h-158z" />
    <glyph glyph-name="quoteright" unicode="&#x2019;" horiz-adv-x="246" 
d="M278 700l-19 -108q-7 -48 -65 -104l-83 -78h-55l100 134h-63l27 156h158z" />
    <glyph glyph-name="quotesinglbase" unicode="&#x201a;" horiz-adv-x="247" 
d="M183 156l-20 -108q-7 -48 -65 -104l-83 -78h-55l100 134h-63l28 156h158z" />
    <glyph glyph-name="quotedblleft" unicode="&#x201c;" horiz-adv-x="450" 
d="M69 410l19 108q5 28 19.5 50.5t46.5 53.5l82 78h55l-99 -134h63l-28 -156h-158zM272 410l19 108q5 28 19.5 50.5t46.5 53.5l82 78h55l-99 -134h63l-28 -156h-158z" />
    <glyph glyph-name="quotedblright" unicode="&#x201d;" horiz-adv-x="450" 
d="M278 700l-19 -108q-7 -48 -65 -104l-83 -78h-55l100 134h-63l27 156h158zM481 700l-19 -108q-7 -48 -65 -104l-83 -78h-55l100 134h-63l27 156h158z" />
    <glyph glyph-name="quotedblbase" unicode="&#x201e;" horiz-adv-x="449" 
d="M182 156l-19 -108q-7 -48 -65 -104l-83 -78h-55l100 134h-63l27 156h158zM385 156l-19 -108q-7 -48 -65 -104l-83 -78h-55l100 134h-63l27 156h158z" />
    <glyph glyph-name="dagger" unicode="&#x2020;" horiz-adv-x="368" 
d="M372 400h-102l-70 -400h-126l70 400h-101l21 120h101l32 180h126l-32 -180h102z" />
    <glyph glyph-name="daggerdbl" unicode="&#x2021;" horiz-adv-x="368" 
d="M270 400l-17 -100h101l-21 -120h-101l-32 -180h-126l32 180h-102l21 120h102l17 100h-101l21 120h101l32 180h126l-32 -180h102l-21 -120h-102z" />
    <glyph glyph-name="bullet" unicode="&#x2022;" horiz-adv-x="421" 
d="M207 250q-62 0 -82 24.5t-9 87.5t40 87.5t91 24.5t82 -24.5t9 -87.5t-40 -87.5t-91 -24.5z" />
    <glyph glyph-name="ellipsis" unicode="&#x2026;" horiz-adv-x="679" 
d="M155 0h-158l28 156h158zM371 0h-158l28 156h158zM587 0h-158l28 156h158z" />
    <glyph glyph-name="perthousand" unicode="&#x2030;" horiz-adv-x="872" 
d="M599 700l-439 -700h-120l439 700h120zM184 700h85q37 0 50 -16t6 -54l-24 -136q-7 -38 -25 -54t-55 -16h-85q-37 0 -50.5 16.5t-6.5 53.5l24 136q7 38 25.5 54t55.5 16zM232 510l18 104q4 18 -14 18h-43q-10 0 -14.5 -3.5t-6.5 -14.5l-18 -104q-2 -10 1 -14t14 -4h43
q10 0 14 3.5t6 14.5zM419 276h85q37 0 50 -16t6 -54l-24 -136q-6 -38 -25 -54t-56 -16h-85q-36 0 -49 16.5t-7 53.5l24 136q7 38 25.5 54t55.5 16zM680 276h85q37 0 50 -16t6 -54l-24 -136q-6 -37 -25 -53.5t-56 -16.5h-85q-36 0 -49.5 16.5t-7.5 53.5l24 136q7 37 26 53.5
t56 16.5zM467 86l19 104q2 11 -1 14.5t-13 3.5h-44q-10 0 -14.5 -4t-5.5 -14l-19 -104q-2 -11 1 -14.5t13 -3.5h44q10 0 14.5 4t5.5 14zM727 86l19 104q2 11 -1 14.5t-13 3.5h-43q-10 0 -14 -3.5t-6 -14.5l-19 -104q-2 -11 1 -14.5t13 -3.5h43q10 0 14 3.5t6 14.5z" />
    <glyph glyph-name="guilsinglleft" unicode="&#x2039;" horiz-adv-x="306" 
d="M340 559l-186 -208l102 -207h-139l-93 181l9 52l158 182h149z" />
    <glyph glyph-name="guilsinglright" unicode="&#x203a;" horiz-adv-x="306" 
d="M310 377l-9 -52l-158 -181h-148l186 207l-102 208h138z" />
    <glyph glyph-name="fraction" unicode="&#x2044;" horiz-adv-x="211" 
d="M437 720l-531 -720h-100l531 720h100z" />
    <glyph glyph-name="zerosuperior" unicode="&#x2070;" horiz-adv-x="373" 
d="M277 414h-129q-46 0 -63 21.5t-9 68.5l38 216q8 47 33 68.5t71 21.5h129q45 0 62 -21.5t9 -68.5l-38 -216q-8 -47 -32.5 -68.5t-70.5 -21.5zM207 708l-34 -192q-1 -7 0.5 -9.5t8.5 -2.5h92q12 0 14 12l34 192q1 7 -0.5 9.5t-9.5 2.5h-92q-11 0 -13 -12z" />
    <glyph glyph-name="foursuperior" unicode="&#x2074;" horiz-adv-x="401" 
d="M418 486h-59l-13 -72h-92l13 72h-189l-9 70l270 254h77l-43 -241h59zM189 569h92l17 96z" />
    <glyph glyph-name="fivesuperior" unicode="&#x2075;" horiz-adv-x="365" 
d="M402 720h-191l-16 -89q24 23 50 33t72 10q47 0 64.5 -21.5t9.5 -68.5l-14 -80q-8 -47 -33 -68.5t-71 -21.5h-129q-46 0 -63 21.5t-9 68.5l6 33h95l-4 -21q-1 -7 0.5 -9.5t8.5 -2.5h93q12 0 14 12l11 63q1 5 0.5 7.5t-3 3.5t-8.5 1q-58 0 -99 -13l-90 27l36 205h286z" />
    <glyph glyph-name="sixsuperior" unicode="&#x2076;" horiz-adv-x="372" 
d="M315 693l3 15q1 7 -0.5 9.5t-9.5 2.5h-88q-11 0 -13 -12l-16 -88q25 24 51.5 34t76.5 10q47 0 64.5 -21.5t9.5 -68.5l-12 -70q-8 -47 -33 -68.5t-71 -21.5h-129q-46 0 -63 21.5t-9 68.5l38 216q8 47 33 68.5t71 21.5h125q46 0 62.5 -21.5t8.5 -68.5l-5 -27h-94zM183 571
l-10 -55q-1 -7 0.5 -9.5t8.5 -2.5h93q12 0 14 12l10 56q1 5 0.5 7.5t-3 3.5t-8.5 1q-64 0 -105 -13z" />
    <glyph glyph-name="sevensuperior" unicode="&#x2077;" horiz-adv-x="342" 
d="M406 737l-254 -323h-108l242 306h-191l16 90h308z" />
    <glyph glyph-name="eightsuperior" unicode="&#x2078;" horiz-adv-x="367" 
d="M406 698q-6 -36 -17 -53.5t-35 -28.5q22 -11 28 -29t0 -56q-12 -65 -37 -91t-72 -26h-128q-47 0 -63 25.5t-4 91.5q7 38 19 56t38 29q-20 11 -24.5 28.5t1.5 53.5q11 62 36 87t71 25h119q46 0 62.5 -25t5.5 -87zM303 723h-82q-7 0 -9.5 -5t-6.5 -28t-3 -28t8 -5h82
q8 0 11 5t7 28q3 23 2 28t-9 5zM282 574h-91q-7 0 -10 -5.5t-7 -30.5q-2 -14 -3 -20.5t-0.5 -11t2 -5t5.5 -0.5h91q8 0 11.5 6t7.5 31q4 26 3 31t-9 5z" />
    <glyph glyph-name="ninesuperior" unicode="&#x2079;" horiz-adv-x="372" 
d="M179 531l-3 -15q-1 -7 0.5 -9.5t8.5 -2.5h88q12 0 14 12l16 88q-25 -24 -52 -34t-76 -10q-47 0 -64.5 21.5t-9.5 68.5l12 70q8 47 33 68.5t71 21.5h129q45 0 62.5 -21.5t9.5 -68.5l-38 -216q-16 -90 -104 -90h-125q-46 0 -63 21.5t-9 68.5l5 27h95zM311 653l10 55
q1 7 -0.5 9.5t-9.5 2.5h-93q-11 0 -13 -12l-10 -56q-1 -7 0.5 -9.5t9.5 -2.5q65 0 106 13z" />
    <glyph glyph-name="Euro" unicode="&#x20ac;" horiz-adv-x="651" 
d="M313 700h229q137 0 113 -140l-20 -114h-144l18 102q3 20 -16 20h-177q-11 0 -15.5 -4.5t-6.5 -15.5l-17 -94h172l-12 -71h-172l-12 -66h172l-13 -71h-171l-17 -94q-2 -11 1 -15.5t14 -4.5h177q19 0 23 20l18 102h144l-20 -114q-25 -140 -162 -140h-229q-137 0 -112 140
l19 106h-77l13 71h76l12 66h-76l12 71h76l19 106q24 140 161 140z" />
    <glyph glyph-name="trademark" unicode="&#x2122;" horiz-adv-x="743" 
d="M368 630h-91l-51 -290h-74l51 290h-90l12 70h255zM769 700l-63 -360h-69l40 227l-104 -173h-48l-46 173l-40 -227h-68l63 360h81l49 -204l121 204h84z" />
    <glyph glyph-name="oneeighth" unicode="&#x215b;" horiz-adv-x="825" 
d="M684 720l-531 -720h-100l531 720h100zM110 306l53 298l-89 -24l14 77l112 45h74l-70 -396h-94zM791 284q-6 -36 -17 -53.5t-35 -28.5q22 -11 28 -29t0 -56q-12 -65 -37 -91t-72 -26h-128q-47 0 -63 25.5t-4 91.5q7 38 19 56t38 29q-20 11 -24.5 28.5t1.5 53.5
q11 62 36 87t71 25h119q46 0 62.5 -25t5.5 -87zM688 309h-82q-7 0 -9.5 -5t-6.5 -28t-3 -28t8 -5h82q8 0 11 5t7 28q3 23 2 28t-9 5zM667 160h-91q-7 0 -10 -5.5t-7 -30.5q-2 -14 -3 -20.5t-0.5 -11t2 -5t5.5 -0.5h91q8 0 11.5 6t7.5 31q4 26 3 31t-9 5z" />
    <glyph glyph-name="threeeighths" unicode="&#x215c;" horiz-adv-x="933" 
d="M792 720l-531 -720h-100l531 720h100zM148 429v-2q-2 -13 -3 -20t-0.5 -11t2 -4.5t5.5 -0.5h88q8 0 11.5 6t7.5 30q4 26 3 31.5t-9 5.5h-88l15 83h83q8 0 11 5t7 28q3 23 2 28t-9 5h-79q-7 0 -9.5 -5t-6.5 -28l-1 -5h-94l2 11q11 63 36 88.5t71 25.5h115q46 0 62.5 -25
t5.5 -89q-7 -36 -17.5 -52t-33.5 -28q21 -11 26.5 -28t-1.5 -58q-11 -65 -35.5 -90.5t-71.5 -25.5h-124q-47 0 -63 25.5t-5 90.5l2 9h95zM899 284q-6 -36 -17 -53.5t-35 -28.5q22 -11 28 -29t0 -56q-12 -65 -37 -91t-72 -26h-128q-47 0 -63 25.5t-4 91.5q7 38 19 56t38 29
q-20 11 -24.5 28.5t1.5 53.5q11 62 36 87t71 25h119q46 0 62.5 -25t5.5 -87zM796 309h-82q-7 0 -9.5 -5t-6.5 -28t-3 -28t8 -5h82q8 0 11 5t7 28q3 23 2 28t-9 5zM775 160h-91q-7 0 -10 -5.5t-7 -30.5q-2 -14 -3 -20.5t-0.5 -11t2 -5t5.5 -0.5h91q8 0 11.5 6t7.5 31
q4 26 3 31t-9 5z" />
    <glyph glyph-name="fiveeighths" unicode="&#x215d;" horiz-adv-x="943" 
d="M802 720l-531 -720h-100l531 720h100zM383 610h-191l-16 -89q24 23 50 33t72 10q47 0 64.5 -21.5t9.5 -68.5l-14 -80q-8 -47 -33 -68.5t-71 -21.5h-129q-46 0 -63 21.5t-9 68.5l6 33h95l-4 -21q-1 -7 0.5 -9.5t8.5 -2.5h93q12 0 14 12l11 63q1 5 0.5 7.5t-3 3.5t-8.5 1
q-58 0 -99 -13l-90 27l36 205h286zM909 284q-6 -36 -17 -53.5t-35 -28.5q22 -11 28 -29t0 -56q-12 -65 -37 -91t-72 -26h-128q-47 0 -63 25.5t-4 91.5q7 38 19 56t38 29q-20 11 -24.5 28.5t1.5 53.5q11 62 36 87t71 25h119q46 0 62.5 -25t5.5 -87zM806 309h-82q-7 0 -9.5 -5
t-6.5 -28t-3 -28t8 -5h82q8 0 11 5t7 28q3 23 2 28t-9 5zM785 160h-91q-7 0 -10 -5.5t-7 -30.5q-2 -14 -3 -20.5t-0.5 -11t2 -5t5.5 -0.5h91q8 0 11.5 6t7.5 31q4 26 3 31t-9 5z" />
    <glyph glyph-name="seveneighths" unicode="&#x215e;" horiz-adv-x="840" 
d="M699 720l-531 -720h-100l531 720h100zM387 627l-254 -323h-108l242 306h-191l16 90h308zM806 284q-6 -36 -17 -53.5t-35 -28.5q22 -11 28 -29t0 -56q-12 -65 -37 -91t-72 -26h-128q-47 0 -63 25.5t-4 91.5q7 38 19 56t38 29q-20 11 -24.5 28.5t1.5 53.5q11 62 36 87
t71 25h119q46 0 62.5 -25t5.5 -87zM703 309h-82q-7 0 -9.5 -5t-6.5 -28t-3 -28t8 -5h82q8 0 11 5t7 28q3 23 2 28t-9 5zM682 160h-91q-7 0 -10 -5.5t-7 -30.5q-2 -14 -3 -20.5t-0.5 -11t2 -5t5.5 -0.5h91q8 0 11.5 6t7.5 31q4 26 3 31t-9 5z" />
    <glyph glyph-name="minus" unicode="&#x2212;" horiz-adv-x="500" 
d="M83 427h389l-23 -134h-389z" />
    <glyph glyph-name="infinity" unicode="&#x221e;" horiz-adv-x="813" 
d="M584 570h93q70 0 97 -34.5t14 -105.5l-24 -134q-25 -140 -160 -140h-93q-32 0 -54 7.5t-33 21t-15 24t-7 24.5q-38 -77 -139 -77h-92q-138 0 -113 140l24 134q25 140 162 140h92q97 0 108 -77q41 77 140 77zM195 286h105q19 0 23 20l20 114q4 20 -15 20h-105
q-20 0 -24 -20l-20 -114q-2 -11 1.5 -15.5t14.5 -4.5zM647 306l20 114q4 20 -15 20h-105q-20 0 -24 -20l-20 -114q-2 -11 1.5 -15.5t14.5 -4.5h105q19 0 23 20z" />
    <glyph glyph-name="notequal" unicode="&#x2260;" horiz-adv-x="500" 
d="M338 412l-40 -76h158l-23 -130h-204l-61 -115h-97l61 115h-88l23 130h134l40 76h-160l23 130h206l57 108h97l-57 -108h86l-23 -130h-132z" />
    <glyph glyph-name="B.ss01" horiz-adv-x="637" 
d="M152 700h361q137 0 113 -140l-17 -94q-13 -75 -82 -108q65 -31 52 -108l-19 -110q-25 -140 -162 -140h-369zM247 420h191q19 0 23 20l19 110q4 20 -15 20h-191zM196 130h199q19 0 22 20l23 126q3 20 -16 20h-199z" />
    <glyph glyph-name="K.ss01" horiz-adv-x="648" 
d="M225 294l-52 -294h-144l123 700h144l-49 -278h45l240 278h170l-295 -342l181 -358h-160l-145 294h-58z" />
    <glyph glyph-name="Kcommaaccent.ss01" horiz-adv-x="648" 
d="M225 294l-52 -294h-144l123 700h144l-49 -278h45l240 278h170l-295 -342l181 -358h-160l-145 294h-58zM357 -70l-19 -108q-6 -34 -64 -94l-73 -78h-55l100 134h-54l26 146h139z" />
    <glyph glyph-name="k.ss01" horiz-adv-x="544" 
d="M191 220l-39 -220h-136l129 730h136l-70 -394h37l171 204h153l-221 -262l136 -278h-147l-103 220h-46z" />
    <glyph glyph-name="kcommaaccent.ss01" horiz-adv-x="544" 
d="M191 220l-39 -220h-136l129 730h136l-70 -394h37l171 204h153l-221 -262l136 -278h-147l-103 220h-46zM295 -70l-19 -108q-6 -34 -64 -94l-73 -78h-55l100 134h-54l26 146h139z" />
    <glyph glyph-name="three.ss01" horiz-adv-x="594" 
d="M183 216l-12 -66q-3 -20 16 -20h170q19 0 22 20l22 124q4 20 -15 20h-163l22 128h155q19 0 23 20l19 108q4 20 -15 20h-154q-19 0 -23 -20l-12 -66h-144l14 76q24 140 161 140h206q137 0 113 -140l-17 -94q-12 -74 -81 -108q65 -31 51 -108l-19 -110q-25 -140 -162 -140
h-222q-137 0 -112 140l13 76h144z" />
    <glyph glyph-name="eight.ss01" horiz-adv-x="609" 
d="M505 358q65 -31 51 -108l-19 -110q-25 -140 -161 -140h-238q-137 0 -112 140l19 110q14 78 90 108q-56 33 -44 108l17 94q24 140 161 140h222q137 0 113 -140l-17 -94q-12 -74 -82 -108zM250 550l-19 -108q-4 -20 15 -20h169q20 0 24 20l19 108q2 11 -1.5 15.5t-14.5 4.5
h-169q-19 0 -23 -20zM394 150l22 124q2 11 -1 15.5t-14 4.5h-185q-19 0 -23 -20l-22 -124q-3 -20 16 -20h185q11 0 15.5 4.5t6.5 15.5z" />
    <glyph glyph-name="zero.subs" horiz-adv-x="373" 
d="M182 -126h-129q-46 0 -63 21.5t-9 68.5l38 216q8 47 33 68.5t71 21.5h129q45 0 62 -21.5t9 -68.5l-38 -216q-8 -47 -32.5 -68.5t-70.5 -21.5zM112 168l-34 -192q-1 -7 0.5 -9.5t8.5 -2.5h92q12 0 14 12l34 192q1 7 -0.5 9.5t-9.5 2.5h-92q-11 0 -13 -12z" />
    <glyph glyph-name="one.subs" horiz-adv-x="247" 
d="M34 -126l53 298l-89 -24l14 77l112 45h74l-70 -396h-94z" />
    <glyph glyph-name="two.subs" horiz-adv-x="355" 
d="M107 146l4 22q2 12 13 12h79q8 0 9.5 -2.5t0.5 -9.5l-4 -24q-1 -9 -22 -15l-100 -28q-43 -12 -67.5 -29t-30.5 -52l-26 -146h293l16 90h-198l5 31q2 12 22 17l99 28q28 8 43 14t33 23t22 42l11 61q8 47 -8.5 68.5t-62.5 21.5h-113q-45 0 -70 -21.5t-33 -68.5l-6 -34h91z
" />
    <glyph glyph-name="three.subs" horiz-adv-x="355" 
d="M72 -1v-2q-2 -13 -3 -20t-0.5 -11t2 -4.5t5.5 -0.5h88q8 0 11.5 6t7.5 30q4 26 3 31.5t-9 5.5h-88l15 83h83q8 0 11 5t7 28q3 23 2 28t-9 5h-79q-7 0 -9.5 -5t-6.5 -28l-1 -5h-94l2 11q11 63 36 88.5t71 25.5h115q46 0 62.5 -25t5.5 -89q-7 -36 -17.5 -52t-33.5 -28
q21 -11 26.5 -28t-1.5 -58q-11 -65 -35.5 -90.5t-71.5 -25.5h-124q-47 0 -63 25.5t-5 90.5l2 9h95z" />
    <glyph glyph-name="four.subs" horiz-adv-x="401" 
d="M323 -54h-59l-13 -72h-92l13 72h-189l-9 70l270 254h77l-43 -241h59zM94 29h92l17 96z" />
    <glyph glyph-name="five.subs" horiz-adv-x="365" 
d="M307 180h-191l-16 -89q24 23 50 33t72 10q47 0 64.5 -21.5t9.5 -68.5l-14 -80q-8 -47 -33 -68.5t-71 -21.5h-129q-46 0 -63 21.5t-9 68.5l6 33h95l-4 -21q-1 -7 0.5 -9.5t8.5 -2.5h93q12 0 14 12l11 63q1 5 0.5 7.5t-3 3.5t-8.5 1q-58 0 -99 -13l-90 27l36 205h286z" />
    <glyph glyph-name="six.subs" horiz-adv-x="372" 
d="M220 153l3 15q1 7 -0.5 9.5t-9.5 2.5h-88q-11 0 -13 -12l-16 -88q25 24 51.5 34t76.5 10q47 0 64.5 -21.5t9.5 -68.5l-12 -70q-8 -47 -33 -68.5t-71 -21.5h-129q-46 0 -63 21.5t-9 68.5l38 216q8 47 33 68.5t71 21.5h125q46 0 62.5 -21.5t8.5 -68.5l-5 -27h-94zM88 31
l-10 -55q-1 -7 0.5 -9.5t8.5 -2.5h93q12 0 14 12l10 56q1 5 0.5 7.5t-3 3.5t-8.5 1q-64 0 -105 -13z" />
    <glyph glyph-name="seven.subs" horiz-adv-x="342" 
d="M311 197l-254 -323h-108l242 306h-191l16 90h308z" />
    <glyph glyph-name="eight.subs" horiz-adv-x="367" 
d="M311 158q-6 -36 -17 -53.5t-35 -28.5q22 -11 28 -29t0 -56q-12 -65 -37 -91t-72 -26h-128q-47 0 -63 25.5t-4 91.5q7 38 19 56t38 29q-20 11 -24.5 28.5t1.5 53.5q11 62 36 87t71 25h119q46 0 62.5 -25t5.5 -87zM208 183h-82q-7 0 -9.5 -5t-6.5 -28t-3 -28t8 -5h82
q8 0 11 5t7 28q3 23 2 28t-9 5zM187 34h-91q-7 0 -10 -5.5t-7 -30.5q-2 -14 -3 -20.5t-0.5 -11t2 -5t5.5 -0.5h91q8 0 11.5 6t7.5 31q4 26 3 31t-9 5z" />
    <glyph glyph-name="nine.subs" horiz-adv-x="372" 
d="M84 -9l-3 -15q-1 -7 0.5 -9.5t8.5 -2.5h88q12 0 14 12l16 88q-25 -24 -52 -34t-76 -10q-47 0 -64.5 21.5t-9.5 68.5l12 70q8 47 33 68.5t71 21.5h129q45 0 62.5 -21.5t9.5 -68.5l-38 -216q-16 -90 -104 -90h-125q-46 0 -63 21.5t-9 68.5l5 27h95zM216 113l10 55
q1 7 -0.5 9.5t-9.5 2.5h-93q-11 0 -13 -12l-10 -56q-1 -7 0.5 -9.5t9.5 -2.5q65 0 106 13z" />
    <glyph glyph-name="zero.tf" 
d="M384 0h-236q-137 0 -112 140l74 420q24 140 161 140h236q137 0 113 -140l-74 -420q-25 -140 -162 -140zM252 548l-70 -396q-4 -20 15 -20h184q19 0 23 20l70 396q3 20 -16 20h-184q-19 0 -22 -20z" />
    <glyph glyph-name="one.tf" 
d="M492 0h-441l23 132h155l76 428l-164 -50l25 140l162 50h145l-100 -568h142z" />
    <glyph glyph-name="two.tf" 
d="M261 482l12 66q3 20 22 20h152q11 0 14.5 -4.5t1.5 -15.5l-12 -68q-3 -15 -12 -21.5t-32 -14.5l-171 -60q-75 -26 -115.5 -58.5t-50.5 -89.5l-42 -236h484l23 132h-340l13 72q3 15 12 21.5t32 14.5l171 60q76 26 116 58t50 90l20 112q24 140 -113 140h-200
q-137 0 -161 -140l-14 -78h140z" />
    <glyph glyph-name="three.tf" 
d="M198 216l-1 -4q-5 -29 -7 -45.5t-0.5 -24.5t4 -10t8.5 -2h170q11 0 17.5 14t15.5 68q5 29 7 45.5t1 24.5t-3.5 10t-8.5 2h-163l22 128h155q11 0 17.5 12.5t14.5 61.5q5 26 7 40.5t0.5 22t-4 9.5t-8.5 2h-154q-11 0 -17.5 -12.5t-15.5 -61.5l-2 -12h-144l4 23
q19 108 59 150.5t112 42.5h206q72 0 97 -41.5t7 -145.5q-12 -71 -31 -103.5t-58 -51.5q36 -17 45 -50.5t-4 -112.5q-19 -109 -59 -152t-112 -43h-222q-72 0 -97 43t-6 152l4 21h144z" />
    <glyph glyph-name="four.tf" 
d="M583 144h-98l-25 -144h-140l25 144h-313l-9 118l425 438h135l-75 -428h98zM207 272h161l38 214z" />
    <glyph glyph-name="five.tf" 
d="M279 568l-34 -191q37 43 76 63.5t108 20.5q85 0 116 -33.5t19 -106.5l-32 -177q-24 -144 -166 -144h-204q-137 0 -112 140l13 77h144l-11 -65q-4 -20 15 -20h155q20 0 24 20l28 161q2 12 -4.5 16t-31.5 4q-82 0 -150 -33l-138 36l64 364h452l-23 -132h-308z" />
    <glyph glyph-name="six.tf" 
d="M447 494l10 54q3 20 -16 20h-155q-19 0 -22 -20l-34 -190q37 42 79.5 63t116.5 21q88 0 120 -33.5t19 -106.5l-28 -162q-25 -140 -162 -140h-215q-137 0 -112 140l74 420q24 140 161 140h207q137 0 113 -140l-12 -66h-144zM217 281l-23 -129q-4 -20 15 -20h163
q19 0 23 20l25 142q2 12 -5.5 16t-36.5 4q-95 0 -161 -33z" />
    <glyph glyph-name="seven.tf" 
d="M630 597l-400 -597h-164l387 570h-332l22 130h505z" />
    <glyph glyph-name="eight.tf" 
d="M514 358q36 -17 45 -50.5t-4 -112.5q-19 -109 -58.5 -152t-111.5 -43h-238q-72 0 -97 43t-6 152q14 76 36 111t64 52q-32 19 -39.5 51t3.5 104q18 104 58 145.5t112 41.5h222q72 0 97 -41.5t7 -145.5q-12 -70 -31.5 -103t-58.5 -52zM451 570h-169q-11 0 -17.5 -12.5
t-15.5 -61.5q-5 -26 -6.5 -40.5t0 -22t4 -9.5t8.5 -2h169q12 0 18 12.5t15 61.5q5 26 7 40.5t0.5 22t-4.5 9.5t-9 2zM196 130h185q12 0 18 13.5t15 68.5q5 29 7.5 45t1.5 24.5t-4 10.5t-9 2h-185q-11 0 -17.5 -14t-16.5 -68q-5 -29 -7 -45.5t-0.5 -24.5t4 -10t8.5 -2z" />
    <glyph glyph-name="nine.tf" 
d="M209 206l-9 -54q-3 -20 15 -20h155q20 0 23 20l34 193q-37 -42 -79 -63t-116 -21q-89 0 -121 33.5t-19 106.5l28 159q24 140 161 140h215q137 0 113 -140l-74 -420q-25 -140 -162 -140h-207q-137 0 -112 140l11 66h144zM440 422l23 126q3 20 -16 20h-163q-19 0 -22 -20
l-25 -139q-2 -12 5.5 -16t36.5 -4q95 0 161 33z" />
    <glyph glyph-name="zero.dnom" horiz-adv-x="373" 
d="M204 0h-129q-46 0 -63 21.5t-9 68.5l38 216q8 47 33 68.5t71 21.5h129q45 0 62 -21.5t9 -68.5l-38 -216q-8 -47 -32.5 -68.5t-70.5 -21.5zM134 294l-34 -192q-1 -7 0.5 -9.5t8.5 -2.5h92q12 0 14 12l34 192q1 7 -0.5 9.5t-9.5 2.5h-92q-11 0 -13 -12z" />
    <glyph glyph-name="one.dnom" horiz-adv-x="247" 
d="M56 0l53 298l-89 -24l14 77l112 45h74l-70 -396h-94z" />
    <glyph glyph-name="two.dnom" horiz-adv-x="355" 
d="M129 272l4 22q2 12 13 12h79q8 0 9.5 -2.5t0.5 -9.5l-4 -24q-1 -9 -22 -15l-100 -28q-43 -12 -67.5 -29t-30.5 -52l-26 -146h293l16 90h-198l5 31q2 12 22 17l99 28q28 8 43 14t33 23t22 42l11 61q8 47 -8.5 68.5t-62.5 21.5h-113q-45 0 -70 -21.5t-33 -68.5l-6 -34h91z
" />
    <glyph glyph-name="three.dnom" horiz-adv-x="355" 
d="M94 125v-2q-2 -13 -3 -20t-0.5 -11t2 -4.5t5.5 -0.5h88q8 0 11.5 6t7.5 30q4 26 3 31.5t-9 5.5h-88l15 83h83q8 0 11 5t7 28q3 23 2 28t-9 5h-79q-7 0 -9.5 -5t-6.5 -28l-1 -5h-94l2 11q11 63 36 88.5t71 25.5h115q46 0 62.5 -25t5.5 -89q-7 -36 -17.5 -52t-33.5 -28
q21 -11 26.5 -28t-1.5 -58q-11 -65 -35.5 -90.5t-71.5 -25.5h-124q-47 0 -63 25.5t-5 90.5l2 9h95z" />
    <glyph glyph-name="four.dnom" horiz-adv-x="401" 
d="M345 72h-59l-13 -72h-92l13 72h-189l-9 70l270 254h77l-43 -241h59zM116 155h92l17 96z" />
    <glyph glyph-name="five.dnom" horiz-adv-x="365" 
d="M329 306h-191l-16 -89q24 23 50 33t72 10q47 0 64.5 -21.5t9.5 -68.5l-14 -80q-8 -47 -33 -68.5t-71 -21.5h-129q-46 0 -63 21.5t-9 68.5l6 33h95l-4 -21q-1 -7 0.5 -9.5t8.5 -2.5h93q12 0 14 12l11 63q1 5 0.5 7.5t-3 3.5t-8.5 1q-58 0 -99 -13l-90 27l36 205h286z" />
    <glyph glyph-name="six.dnom" horiz-adv-x="372" 
d="M242 279l3 15q1 7 -0.5 9.5t-9.5 2.5h-88q-11 0 -13 -12l-16 -88q25 24 51.5 34t76.5 10q47 0 64.5 -21.5t9.5 -68.5l-12 -70q-8 -47 -33 -68.5t-71 -21.5h-129q-46 0 -63 21.5t-9 68.5l38 216q8 47 33 68.5t71 21.5h125q46 0 62.5 -21.5t8.5 -68.5l-5 -27h-94zM110 157
l-10 -55q-1 -7 0.5 -9.5t8.5 -2.5h93q12 0 14 12l10 56q1 5 0.5 7.5t-3 3.5t-8.5 1q-64 0 -105 -13z" />
    <glyph glyph-name="seven.dnom" horiz-adv-x="342" 
d="M333 323l-254 -323h-108l242 306h-191l16 90h308z" />
    <glyph glyph-name="eight.dnom" horiz-adv-x="367" 
d="M333 284q-6 -36 -17 -53.5t-35 -28.5q22 -11 28 -29t0 -56q-12 -65 -37 -91t-72 -26h-128q-47 0 -63 25.5t-4 91.5q7 38 19 56t38 29q-20 11 -24.5 28.5t1.5 53.5q11 62 36 87t71 25h119q46 0 62.5 -25t5.5 -87zM230 309h-82q-7 0 -9.5 -5t-6.5 -28t-3 -28t8 -5h82
q8 0 11 5t7 28q3 23 2 28t-9 5zM209 160h-91q-7 0 -10 -5.5t-7 -30.5q-2 -14 -3 -20.5t-0.5 -11t2 -5t5.5 -0.5h91q8 0 11.5 6t7.5 31q4 26 3 31t-9 5z" />
    <glyph glyph-name="nine.dnom" horiz-adv-x="372" 
d="M106 117l-3 -15q-1 -7 0.5 -9.5t8.5 -2.5h88q12 0 14 12l16 88q-25 -24 -52 -34t-76 -10q-47 0 -64.5 21.5t-9.5 68.5l12 70q8 47 33 68.5t71 21.5h129q45 0 62.5 -21.5t9.5 -68.5l-38 -216q-16 -90 -104 -90h-125q-46 0 -63 21.5t-9 68.5l5 27h95zM238 239l10 55
q1 7 -0.5 9.5t-9.5 2.5h-93q-11 0 -13 -12l-10 -56q-1 -7 0.5 -9.5t9.5 -2.5q65 0 106 13z" />
    <glyph glyph-name="zero.numr" horiz-adv-x="373" 
d="M258 304h-129q-46 0 -63 21.5t-9 68.5l38 216q8 47 33 68.5t71 21.5h129q45 0 62 -21.5t9 -68.5l-38 -216q-8 -47 -32.5 -68.5t-70.5 -21.5zM188 598l-34 -192q-1 -7 0.5 -9.5t8.5 -2.5h92q12 0 14 12l34 192q1 7 -0.5 9.5t-9.5 2.5h-92q-11 0 -13 -12z" />
    <glyph glyph-name="one.numr" horiz-adv-x="247" 
d="M110 306l53 298l-89 -24l14 77l112 45h74l-70 -396h-94z" />
    <glyph glyph-name="two.numr" horiz-adv-x="355" 
d="M183 576l4 22q2 12 13 12h79q8 0 9.5 -2.5t0.5 -9.5l-4 -24q-1 -9 -22 -15l-100 -28q-43 -12 -67.5 -29t-30.5 -52l-26 -146h293l16 90h-198l5 31q2 12 22 17l99 28q28 8 43 14t33 23t22 42l11 61q8 47 -8.5 68.5t-62.5 21.5h-113q-45 0 -70 -21.5t-33 -68.5l-6 -34h91z
" />
    <glyph glyph-name="three.numr" horiz-adv-x="355" 
d="M148 429v-2q-2 -13 -3 -20t-0.5 -11t2 -4.5t5.5 -0.5h88q8 0 11.5 6t7.5 30q4 26 3 31.5t-9 5.5h-88l15 83h83q8 0 11 5t7 28q3 23 2 28t-9 5h-79q-7 0 -9.5 -5t-6.5 -28l-1 -5h-94l2 11q11 63 36 88.5t71 25.5h115q46 0 62.5 -25t5.5 -89q-7 -36 -17.5 -52t-33.5 -28
q21 -11 26.5 -28t-1.5 -58q-11 -65 -35.5 -90.5t-71.5 -25.5h-124q-47 0 -63 25.5t-5 90.5l2 9h95z" />
    <glyph glyph-name="four.numr" horiz-adv-x="401" 
d="M399 376h-59l-13 -72h-92l13 72h-189l-9 70l270 254h77l-43 -241h59zM170 459h92l17 96z" />
    <glyph glyph-name="five.numr" horiz-adv-x="365" 
d="M383 610h-191l-16 -89q24 23 50 33t72 10q47 0 64.5 -21.5t9.5 -68.5l-14 -80q-8 -47 -33 -68.5t-71 -21.5h-129q-46 0 -63 21.5t-9 68.5l6 33h95l-4 -21q-1 -7 0.5 -9.5t8.5 -2.5h93q12 0 14 12l11 63q1 5 0.5 7.5t-3 3.5t-8.5 1q-58 0 -99 -13l-90 27l36 205h286z" />
    <glyph glyph-name="six.numr" horiz-adv-x="372" 
d="M296 583l3 15q1 7 -0.5 9.5t-9.5 2.5h-88q-11 0 -13 -12l-16 -88q25 24 51.5 34t76.5 10q47 0 64.5 -21.5t9.5 -68.5l-12 -70q-8 -47 -33 -68.5t-71 -21.5h-129q-46 0 -63 21.5t-9 68.5l38 216q8 47 33 68.5t71 21.5h125q46 0 62.5 -21.5t8.5 -68.5l-5 -27h-94zM164 461
l-10 -55q-1 -7 0.5 -9.5t8.5 -2.5h93q12 0 14 12l10 56q1 5 0.5 7.5t-3 3.5t-8.5 1q-64 0 -105 -13z" />
    <glyph glyph-name="seven.numr" horiz-adv-x="342" 
d="M387 627l-254 -323h-108l242 306h-191l16 90h308z" />
    <glyph glyph-name="eight.numr" horiz-adv-x="367" 
d="M387 588q-6 -36 -17 -53.5t-35 -28.5q22 -11 28 -29t0 -56q-12 -65 -37 -91t-72 -26h-128q-47 0 -63 25.5t-4 91.5q7 38 19 56t38 29q-20 11 -24.5 28.5t1.5 53.5q11 62 36 87t71 25h119q46 0 62.5 -25t5.5 -87zM284 613h-82q-7 0 -9.5 -5t-6.5 -28t-3 -28t8 -5h82
q8 0 11 5t7 28q3 23 2 28t-9 5zM263 464h-91q-7 0 -10 -5.5t-7 -30.5q-2 -14 -3 -20.5t-0.5 -11t2 -5t5.5 -0.5h91q8 0 11.5 6t7.5 31q4 26 3 31t-9 5z" />
    <glyph glyph-name="nine.numr" horiz-adv-x="372" 
d="M160 421l-3 -15q-1 -7 0.5 -9.5t8.5 -2.5h88q12 0 14 12l16 88q-25 -24 -52 -34t-76 -10q-47 0 -64.5 21.5t-9.5 68.5l12 70q8 47 33 68.5t71 21.5h129q45 0 62.5 -21.5t9.5 -68.5l-38 -216q-16 -90 -104 -90h-125q-46 0 -63 21.5t-9 68.5l5 27h95zM292 543l10 55
q1 7 -0.5 9.5t-9.5 2.5h-93q-11 0 -13 -12l-10 -56q-1 -7 0.5 -9.5t9.5 -2.5q65 0 106 13z" />
    <glyph glyph-name="numbersign.tf" 
d="M603 543h65l-22 -126h-106l-62 -122h78l-22 -126h-119l-85 -169h-139l85 169h-82l-85 -169h-140l85 169h-63l22 126h105l61 122h-76l22 126h118l79 157h139l-79 -157h82l79 157h139zM400 417h-82l-61 -122h82z" />
    <glyph glyph-name="florin.tf" 
d="M560 568h-118q-19 0 -22 -20l-18 -100h128l-22 -126h-128l-32 -182q-25 -140 -162 -140h-115l23 132h88q20 0 24 20l30 170h-101l22 126h101l20 112q24 140 161 140h144z" />
    <glyph glyph-name="cent.tf" 
d="M446 414l10 54q3 20 -17 20h-32l-48 -270h32q20 0 24 20l9 54h130l-9 -56q-25 -140 -162 -140h-36l-17 -96h-115l17 96h-41q-137 0 -112 140l41 234q25 140 162 140h41l15 90h115l-15 -90h36q137 0 112 -140l-10 -56h-130zM310 488h-38q-19 0 -22 -20l-41 -230
q-4 -20 15 -20h38z" />
    <glyph glyph-name="currency.tf" 
d="M546 438l-28 -160q-4 -25 -14 -50l67 -83l-101 -86l-67 84q-23 -5 -47 -5h-132q-28 0 -45 4l-97 -83l-69 86l95 83q-1 17 4 50l28 160q4 22 13 48l-66 82l100 86l65 -81q25 5 50 5h132q25 0 48 -5l93 81l70 -86l-95 -83q0 -23 -4 -47zM248 252h124q19 0 23 20l30 172
q4 20 -15 20h-124q-19 0 -23 -20l-30 -172q-4 -20 15 -20z" />
    <glyph glyph-name="dollar.tf" 
d="M444 700h45q72 0 97 -42.5t6 -151.5l-4 -24h-140l5 30q5 26 5.5 38.5t-3 16t-11.5 3.5h-37l-28 -157l68 -15q27 -6 45 -14t35 -22t23 -35t9 -53.5t-7 -75.5q-20 -111 -60 -154.5t-112 -43.5h-59l-18 -102h-115l18 102h-54q-72 0 -97 43.5t-5 154.5l5 30h140l-6 -36
q-5 -28 -5.5 -41.5t3 -17t11.5 -3.5h46l29 166l-61 14q-27 6 -45 13.5t-35 22t-23 35t-9.5 52t6.5 73.5q19 108 59 151t112 43h52l18 102h115zM322 570h-41q-11 0 -17 -10t-13 -48q-7 -45 -3 -57.5t23 -16.5l27 -6zM355 277l-26 -147h47q12 0 18 10.5t13 51.5q7 48 3 60.5
t-23 17.5z" />
    <glyph glyph-name="Euro.tf" 
d="M304 700h229q137 0 113 -140l-20 -114h-144l18 102q3 20 -16 20h-177q-11 0 -15.5 -4.5t-6.5 -15.5l-17 -94h172l-12 -71h-172l-12 -66h172l-13 -71h-171l-17 -94q-2 -11 1 -15.5t14 -4.5h177q19 0 23 20l18 102h144l-20 -114q-25 -140 -162 -140h-229q-137 0 -112 140
l19 106h-77l13 71h76l12 66h-76l12 71h76l19 106q24 140 161 140z" />
    <glyph glyph-name="sterling.tf" 
d="M322 700h183q137 0 113 -140l-16 -92h-144l14 80q2 11 -1.5 15.5t-14.5 4.5h-131q-19 0 -22 -20l-24 -135h139l-23 -130h-139l-27 -151h317l-23 -132h-541l23 132h60q20 0 24 20l23 131h-80l23 130h80l26 147q24 140 161 140z" />
    <glyph glyph-name="yen.tf" 
d="M445 338h102l-13 -74h-138l-16 -25l-4 -25h149l-13 -74h-149l-25 -140h-144l25 140h-149l13 74h149l4 25l-8 25h-136l13 74h101l-112 362h151l85 -312l195 312h159z" />
    <glyph glyph-name="ampersand.ss01" horiz-adv-x="646" 
d="M631 294h-70l-27 -154q-25 -140 -163 -140h-223q-137 0 -112 140l19 110q13 77 90 108q-57 34 -44 108l17 94q24 140 161 140h182q137 0 113 -140l-12 -68h-144l10 58q4 20 -15 20h-130q-19 0 -23 -20l-19 -108q-4 -20 15 -20h397zM418 294h-192q-19 0 -23 -20l-22 -124
q-3 -20 16 -20h172q20 0 23 20z" />
    </font>
</defs>
</svg>
