<?xml version="1.0" standalone="no"?>
<!DOCTYPE svg PUBLIC "-//W3C//DTD SVG 1.1//EN" "http://www.w3.org/Graphics/SVG/1.1/DTD/svg11.dtd" >
<svg xmlns="http://www.w3.org/2000/svg" xmlns:xlink="http://www.w3.org/1999/xlink" version="1.1">
<metadata>
Created by FontForge 20161003 at Fri Oct  6 17:11:54 2017
 By www-data
Copyright (c) 2014 by Mattox Shuler. All rights reserved.
</metadata>
<defs>
<font id="FortFoundryIndustryMediumItalic" horiz-adv-x="558" >
  <font-face 
    font-family="FortFoundryIndustryMediumItalic"
    font-weight="500"
    font-style="italic"
    font-stretch="normal"
    units-per-em="1000"
    panose-1="0 0 6 0 0 0 0 0 0 0"
    ascent="800"
    descent="-200"
    x-height="540"
    cap-height="700"
    bbox="-194 -311 999 940"
    underline-thickness="50"
    underline-position="-150"
    slope="-10"
    unicode-range="U+0020-FB02"
  />
<missing-glyph horiz-adv-x="501" 
 />
    <glyph glyph-name="fi" unicode="fi" horiz-adv-x="612" 
d="M405 655h-80q-27 0 -41.5 -12.5t-19.5 -41.5l-11 -61h141l-13 -77h-141l-81 -463h-92l82 463h-87l13 77h88l10 56q13 69 50.5 101.5t104.5 32.5h91zM602 615h-101l18 102h100zM583 540l-95 -540h-91l95 540h91z" />
    <glyph glyph-name="fl" unicode="fl" horiz-adv-x="610" 
d="M405 655h-80q-27 0 -41.5 -12.5t-19.5 -41.5l-11 -61h141l-13 -77h-141l-81 -463h-92l82 463h-87l13 77h88l10 56q13 69 50.5 101.5t104.5 32.5h91zM525 730h91l-129 -730h-91z" />
    <glyph glyph-name=".notdef" horiz-adv-x="501" 
 />
    <glyph glyph-name=".null" horiz-adv-x="0" 
 />
    <glyph glyph-name="nonmarkingreturn" horiz-adv-x="333" 
 />
    <glyph glyph-name="space" unicode=" " horiz-adv-x="236" 
 />
    <glyph glyph-name="exclam" unicode="!" horiz-adv-x="284" 
d="M166 213h-68l62 487h114zM152 0h-114l21 119h114z" />
    <glyph glyph-name="quotedbl" unicode="&#x22;" horiz-adv-x="399" 
d="M251 700l-71 -237h-58l13 237h116zM416 700l-71 -237h-58l12 237h117z" />
    <glyph glyph-name="numbersign" unicode="#" horiz-adv-x="757" 
d="M614 442l-76 -160h112l-15 -82h-136l-95 -200h-92l95 200h-175l-95 -200h-92l95 200h-111l15 82h135l76 160h-116l15 82h140l83 176h93l-84 -176h175l83 176h93l-84 -176h107l-15 -82h-131zM521 442h-174l-76 -160h175z" />
    <glyph glyph-name="dollar" unicode="$" horiz-adv-x="613" 
d="M421 700h53q72 0 97.5 -41t7.5 -142l-5 -26h-94l5 32q9 56 1.5 73t-37.5 17h-49l-39 -220l66 -16q19 -5 31.5 -9t28 -11t24.5 -15.5t17.5 -22.5t11 -32t2 -43t-5.5 -56q-18 -104 -58.5 -146t-113.5 -42h-66l-17 -95h-81l17 95h-64q-72 0 -97 42t-7 146l5 29h95l-6 -34
q-9 -61 -1.5 -78.5t37.5 -17.5h60l41 232l-60 15q-20 5 -32.5 9t-28 11t-24.5 15.5t-17.5 22t-11.5 30.5t-2.5 41t5.5 54q18 101 57.5 142t112.5 41h61l17 95h81zM332 613h-56q-30 0 -44.5 -18t-24.5 -72q-10 -59 0.5 -77t59.5 -30l29 -7zM344 304l-38 -217h62
q30 0 44.5 18.5t24.5 77.5q11 63 1.5 81.5t-57.5 30.5z" />
    <glyph glyph-name="percent" unicode="%" horiz-adv-x="619" 
d="M602 700l-475 -700h-83l476 700h82zM191 700h78q37 0 51 -17t7 -54l-24 -134q-7 -38 -26 -54.5t-56 -16.5h-78q-37 0 -50.5 17t-7.5 54l24 134q7 38 26 54.5t56 16.5zM245 502l21 120q2 13 -1 17.5t-15 4.5h-57q-12 0 -17 -4.5t-8 -17.5l-20 -120q-3 -13 0.5 -17.5
t16.5 -4.5h56q12 0 16.5 4.5t7.5 17.5zM426 276h78q37 0 50.5 -17t6.5 -54l-23 -134q-7 -37 -26.5 -54t-56.5 -17h-78q-36 0 -49.5 17t-6.5 54l23 134q7 38 26 54.5t56 16.5zM479 78l22 120q2 13 -1.5 17.5t-16.5 4.5h-56q-12 0 -17 -4.5t-7 -17.5l-21 -120q-2 -13 1 -17.5
t15 -4.5h56q13 0 18 4.5t7 17.5z" />
    <glyph glyph-name="ampersand" unicode="&#x26;" horiz-adv-x="646" 
d="M550 317l-31 -177q-25 -140 -162 -140h-200q-72 0 -97 43t-5 153q14 80 36.5 115.5t63.5 47.5q-30 15 -39 46.5t3 108.5q18 103 57.5 144.5t111.5 41.5h171q137 0 113 -140l-12 -65h-96l11 63q5 30 -4.5 42.5t-37.5 12.5h-148q-30 0 -45.5 -20.5t-26.5 -85.5
q-10 -67 -3 -85.5t37 -18.5h394l-14 -86h-77zM454 317h-230q-30 0 -45 -21.5t-27 -93.5q-12 -75 -5 -95t37 -20h177q29 0 43 12.5t19 42.5z" />
    <glyph glyph-name="quotesingle" unicode="'" horiz-adv-x="234" 
d="M251 700l-71 -237h-58l13 237h116z" />
    <glyph glyph-name="parenleft" unicode="(" horiz-adv-x="355" 
d="M365 676h-56q-28 0 -42 -12.5t-20 -42.5l-102 -584q-6 -30 3.5 -42.5t38.5 -12.5h56l-16 -88h-67q-137 0 -112 140l104 590q25 140 162 140h67z" />
    <glyph glyph-name="parenright" unicode=")" horiz-adv-x="355" 
d="M148 764h67q137 0 112 -140l-104 -590q-25 -140 -162 -140h-67l16 88h56q28 0 42 12.5t20 42.5l103 584q5 30 -4.5 42.5t-38.5 12.5h-56z" />
    <glyph glyph-name="asterisk" unicode="*" horiz-adv-x="401" 
d="M357 407l-72 -46l-45 131l-92 -132l-56 47l117 109l-135 26l37 76l120 -65l6 147h79l-45 -147l142 64l11 -75l-149 -27z" />
    <glyph glyph-name="plus" unicode="+" horiz-adv-x="499" 
d="M194 182l26 148h-148l15 80h148l25 148h80l-26 -148h148l-14 -80h-148l-26 -148h-80z" />
    <glyph glyph-name="comma" unicode="," horiz-adv-x="229" 
d="M146 120l-15 -85q-4 -26 -14.5 -43t-42.5 -55l-59 -64h-45l90 127h-51l21 120h116z" />
    <glyph glyph-name="hyphen" unicode="-" horiz-adv-x="423" 
d="M382 374l-15 -88h-306l15 88h306z" />
    <glyph glyph-name="period" unicode="." horiz-adv-x="229" 
d="M125 0h-116l21 120h117z" />
    <glyph glyph-name="slash" unicode="/" horiz-adv-x="477" 
d="M548 770l-495 -840h-96l495 840h96z" />
    <glyph glyph-name="zero" unicode="0" horiz-adv-x="627" 
d="M372 0h-211q-137 0 -112 140l74 420q24 140 161 140h211q137 0 113 -140l-74 -420q-25 -140 -162 -140zM218 557l-73 -414q-5 -30 4.5 -42.5t38.5 -12.5h188q29 0 43 12.5t19 42.5l73 414q5 30 -4.5 42.5t-38.5 12.5h-188q-29 0 -43 -12.5t-19 -42.5z" />
    <glyph glyph-name="one" unicode="1" horiz-adv-x="382" 
d="M138 0l105 601l-147 -50l15 85l166 64h80l-123 -700h-96z" />
    <glyph glyph-name="two" unicode="2" horiz-adv-x="587" 
d="M207 491l12 66q5 30 19 42.5t43 12.5h156q29 0 38.5 -12.5t4.5 -42.5l-14 -81q-3 -19 -18.5 -30.5t-50.5 -26.5l-179 -77q-86 -37 -121.5 -65t-44.5 -80l-35 -197h463l15 88h-366l16 94q3 19 18 30t51 27l179 81q40 18 55.5 25.5t41 22.5t35.5 26.5t20.5 29.5t14.5 41
l17 95q24 140 -113 140h-178q-137 0 -161 -140l-12 -69h94z" />
    <glyph glyph-name="three" unicode="3" horiz-adv-x="590" 
d="M139 205l-2 -9q-10 -70 -3 -89.5t37 -19.5h180q29 0 44.5 23.5t27.5 91.5q12 70 5 92.5t-37 22.5h-175l14 86h169q29 0 43.5 20t26.5 84q11 68 4 87t-37 19h-164q-30 0 -45.5 -20.5t-26.5 -85.5l-2 -12h-96l3 14q18 106 58 148.5t112 42.5h187q72 0 97 -41.5t7 -145.5
q-13 -73 -33.5 -106t-56.5 -48q36 -13 45.5 -45.5t-3.5 -117.5q-19 -110 -59 -153t-112 -43h-203q-72 0 -97 42.5t-6 149.5l2 13h96z" />
    <glyph glyph-name="four" unicode="4" horiz-adv-x="613" 
d="M565 168h-101l-30 -168h-95l30 168h-339l-3 77l430 455h100l-78 -445h101zM149 255h235l55 311z" />
    <glyph glyph-name="five" unicode="5" horiz-adv-x="596" 
d="M233 612l-41 -234q44 40 88 60t117 20q90 0 122.5 -33.5t20.5 -106.5l-32 -177q-24 -141 -163 -141h-186q-137 0 -112 140l11 65h96l-11 -62q-5 -30 4.5 -42.5t38.5 -12.5h164q29 0 43 12.5t19 42.5l31 174q5 31 -8.5 43t-62.5 12q-101 0 -190 -53l-92 27l62 354h441
l-15 -88h-345z" />
    <glyph glyph-name="six" unicode="6" horiz-adv-x="605" 
d="M472 501l10 56q9 55 -43 55h-159q-53 0 -62 -55l-35 -198q45 40 90 60t121 20q94 0 127 -33.5t20 -106.5l-27 -159q-25 -140 -162 -140h-191q-137 0 -112 140l74 420q24 140 161 140h182q137 0 113 -140l-11 -59h-96zM173 299l-28 -156q-5 -30 4.5 -42.5t38.5 -12.5h168
q29 0 43 12.5t19 42.5l28 154q5 31 -10.5 43t-66.5 12q-107 0 -196 -53z" />
    <glyph glyph-name="seven" unicode="7" horiz-adv-x="549" 
d="M578 634l-410 -634h-108l400 613h-365l15 87h479z" />
    <glyph glyph-name="eight" unicode="8" horiz-adv-x="605" 
d="M490 359q36 -13 46 -45.5t-3 -117.5q-20 -110 -60 -153t-112 -43h-213q-72 0 -97 43t-5 153q14 81 36.5 115.5t63.5 47.5q-31 15 -39.5 45.5t2.5 108.5q18 104 58 145.5t112 41.5h197q72 0 97 -41.5t7 -145.5q-12 -73 -33 -105.5t-57 -48.5zM450 613h-174q-30 0 -45 -20
t-27 -86q-10 -67 -3 -85.5t37 -18.5h175q30 0 44.5 20t26.5 84q11 68 4 87t-38 19zM176 87h190q29 0 44.5 23.5t27.5 91.5q12 70 5 92.5t-37 22.5h-190q-29 0 -45 -23.5t-28 -91.5q-11 -70 -3.5 -92.5t36.5 -22.5z" />
    <glyph glyph-name="nine" unicode="9" horiz-adv-x="605" 
d="M162 199l-10 -56q-5 -29 5 -42t38 -13h159q28 0 42.5 13t19.5 42l36 205q-44 -40 -89.5 -60t-121.5 -20q-94 0 -127 33.5t-21 106.5l28 152q24 140 161 140h191q137 0 113 -140l-74 -420q-25 -140 -162 -140h-182q-137 0 -112 140l10 59h96zM462 407l26 150
q5 30 -4.5 42.5t-37.5 12.5h-169q-29 0 -43 -12.5t-19 -42.5l-26 -148q-5 -31 9.5 -43t65.5 -12q65 0 108.5 13t89.5 40z" />
    <glyph glyph-name="colon" unicode=":" horiz-adv-x="230" 
d="M200 420h-117l21 120h117zM126 0h-117l21 120h117z" />
    <glyph glyph-name="semicolon" unicode=";" horiz-adv-x="229" 
d="M199 420h-116l21 120h116zM146 120l-15 -85q-4 -26 -14.5 -43t-42.5 -55l-59 -64h-45l90 127h-51l21 120h116z" />
    <glyph glyph-name="less" unicode="&#x3c;" horiz-adv-x="499" 
d="M81 398l-15 -83l332 -229l15 89l-263 180l327 181l16 91z" />
    <glyph glyph-name="equal" unicode="=" horiz-adv-x="499" 
d="M479 502l-15 -86h-376l15 86h376zM446 319l-15 -86h-376l16 86h375z" />
    <glyph glyph-name="greater" unicode="&#x3e;" horiz-adv-x="499" 
d="M118 546l261 -188l-326 -180l-16 -92l412 229l14 83l-331 229z" />
    <glyph glyph-name="question" unicode="?" horiz-adv-x="550" 
d="M238 700h207q137 0 113 -140l-13 -73q-8 -48 -45 -78.5t-121 -71.5l-34 -17q-35 -17 -50 -28.5t-17 -25.5l-13 -69h-96l14 78q8 46 46.5 76t120.5 70l33 17q36 17 50 29t18 31l10 59q5 30 -4.5 42.5t-38.5 12.5h-184q-29 0 -43 -12.5t-19 -42.5l-12 -70h-96l13 73
q24 140 161 140zM252 121l-21 -121h-96l21 121h96z" />
    <glyph glyph-name="at" unicode="@" horiz-adv-x="927" 
d="M300 700h478q136 0 112 -140l-65 -371q-13 -72 -51.5 -106t-109.5 -34h-117l-9 68q-78 -76 -175 -76q-75 0 -104 34t-16 106l31 178q13 72 54 106t116 34q56 0 89.5 -19.5t59.5 -56.5l32 72h66l-68 -389h47q39 0 59 19t28 65l66 372q7 40 -7 57t-52 17h-472
q-38 0 -57.5 -17.5t-26.5 -56.5l-104 -584q-7 -40 7 -57t52 -17h498l-11 -64h-501q-137 0 -113 140l103 580q12 72 51 106t110 34zM549 172l34 196q-57 56 -141 56q-40 0 -57.5 -14t-22.5 -47l-33 -186q-6 -33 6 -47t52 -14q84 0 162 56z" />
    <glyph glyph-name="A" unicode="A" horiz-adv-x="648" 
d="M446 191h-270l-95 -191h-103l360 700h124l114 -700h-101zM433 279l-49 328l-164 -328h213z" />
    <glyph glyph-name="B" unicode="B" horiz-adv-x="634" 
d="M164 700h340q73 0 98.5 -41.5t7.5 -145.5q-12 -71 -33.5 -104t-58.5 -48q37 -14 47 -48t-3 -116q-20 -114 -57.5 -155.5t-115.5 -41.5h-348zM208 403h233q30 0 44.5 20t26.5 85q10 68 3.5 86.5t-37.5 18.5h-233zM153 87h241q30 0 45 22t28 94q11 76 4 96t-37 20h-241z
" />
    <glyph glyph-name="C" unicode="C" horiz-adv-x="617" 
d="M374 0h-214q-136 0 -112 140l74 420q24 140 161 140h214q137 0 113 -140l-16 -89h-96l15 86q5 30 -4.5 42.5t-38.5 12.5h-190q-29 0 -43.5 -12.5t-18.5 -42.5l-74 -414q-5 -30 4.5 -42.5t38.5 -12.5h191q29 0 43 12.5t19 42.5l15 86h96l-15 -89q-26 -140 -162 -140z" />
    <glyph glyph-name="D" unicode="D" horiz-adv-x="651" 
d="M164 700h355q136 0 112 -140l-74 -420q-25 -140 -161 -140h-355zM153 88h247q29 0 43 12.5t19 42.5l73 414q5 30 -4.5 42.5t-38.5 12.5h-247z" />
    <glyph glyph-name="E" unicode="E" horiz-adv-x="585" 
d="M164 700h444l-15 -88h-348l-37 -210h290l-16 -88h-290l-39 -226h348l-16 -88h-444z" />
    <glyph glyph-name="F" unicode="F" horiz-adv-x="568" 
d="M41 0l123 700h444l-15 -88h-348l-38 -218h290l-16 -87h-290l-54 -307h-96z" />
    <glyph glyph-name="G" unicode="G" horiz-adv-x="635" 
d="M508 485l13 72q5 30 -4.5 42.5t-38.5 12.5h-198q-29 0 -43 -12.5t-19 -42.5l-73 -414q-5 -30 4.5 -42.5t38.5 -12.5h198q29 0 43 12.5t19 42.5l25 142h-162l15 86h258l-40 -231q-25 -140 -162 -140h-221q-137 0 -112 140l74 420q24 140 161 140h221q137 0 113 -140
l-14 -75h-96z" />
    <glyph glyph-name="H" unicode="H" horiz-adv-x="682" 
d="M41 0l123 700h96l-52 -298h313l52 298h96l-123 -700h-96l55 314h-313l-55 -314h-96z" />
    <glyph glyph-name="I" unicode="I" horiz-adv-x="273" 
d="M41 0l123 700h96l-123 -700h-96z" />
    <glyph glyph-name="J" unicode="J" horiz-adv-x="559" 
d="M555 700l-98 -560q-25 -140 -162 -140h-170q-137 0 -112 140l21 127h96l-21 -124q-5 -30 4.5 -42.5t38.5 -12.5h147q29 0 43 12.5t19 42.5l98 557h96z" />
    <glyph glyph-name="K" unicode="K" horiz-adv-x="632" 
d="M405 420l179 -420h-105l-147 348l-162 -159l-34 -189h-95l123 700h95l-66 -378l376 378h120z" />
    <glyph glyph-name="L" unicode="L" horiz-adv-x="544" 
d="M164 700h96l-107 -612h323l-16 -88h-419z" />
    <glyph glyph-name="M" unicode="M" horiz-adv-x="826" 
d="M813 700l-123 -700h-94l97 544l-267 -446h-78l-119 446l-97 -544h-91l123 700h113l125 -479l291 479h120z" />
    <glyph glyph-name="N" unicode="N" horiz-adv-x="697" 
d="M592 700h92l-123 -700h-92l-238 556l-98 -556h-92l123 700h99l234 -545z" />
    <glyph glyph-name="O" unicode="O" horiz-adv-x="645" 
d="M391 0h-230q-137 0 -112 140l74 420q24 140 161 140h230q136 0 112 -140l-74 -420q-25 -140 -161 -140zM218 557l-73 -414q-5 -30 4.5 -42.5t38.5 -12.5h207q28 0 42 12.5t19 42.5l73 414q5 30 -4.5 42.5t-37.5 12.5h-207q-29 0 -43 -12.5t-19 -42.5z" />
    <glyph glyph-name="P" unicode="P" horiz-adv-x="619" 
d="M164 700h346q137 0 113 -140l-29 -161q-24 -140 -162 -140h-249l-46 -259h-96zM199 347h238q51 0 62 55l27 155q9 55 -42 55h-239z" />
    <glyph glyph-name="Q" unicode="Q" horiz-adv-x="642" 
d="M284 700h226q136 0 112 -140l-74 -420q-25 -140 -161 -140h-65l-22 -127h-96l22 127h-65q-137 0 -112 140l74 420q24 140 161 140zM452 143l74 414q5 30 -4.5 42.5t-37.5 12.5h-204q-29 0 -43 -12.5t-19 -42.5l-73 -414q-5 -30 4.5 -42.5t38.5 -12.5h203q28 0 42 12.5
t19 42.5z" />
    <glyph glyph-name="R" unicode="R" horiz-adv-x="643" 
d="M164 700h345q137 0 113 -140l-26 -144q-24 -130 -142 -139l91 -277h-101l-91 275h-167l-49 -275h-96zM500 416l25 142q5 30 -4.5 42.5t-37.5 12.5h-238l-44 -251h237q28 0 42.5 12.5t19.5 41.5z" />
    <glyph glyph-name="S" unicode="S" horiz-adv-x="612" 
d="M482 491l13 70q5 29 -4.5 41.5t-38.5 12.5h-177q-28 0 -42.5 -12.5t-19.5 -41.5l-14 -77q-6 -32 5 -46t41 -21l182 -39q67 -14 97.5 -43.5t18.5 -98.5l-17 -96q-25 -140 -162 -140h-211q-137 0 -112 140l13 77h95l-14 -78q-5 -29 4.5 -41.5t38.5 -12.5h190
q28 0 42.5 12.5t19.5 41.5l15 88q6 33 -4.5 46.5t-41.5 20.5l-181 39q-67 15 -97.5 44.5t-18.5 97.5l15 85q24 140 161 140h199q137 0 113 -140l-13 -69h-95z" />
    <glyph glyph-name="T" unicode="T" 
d="M589 613h-201l-109 -613h-96l109 613h-202l15 87h499z" />
    <glyph glyph-name="U" unicode="U" horiz-adv-x="651" 
d="M647 700l-98 -560q-25 -140 -162 -140h-218q-137 0 -112 140l98 560h96l-98 -557q-5 -30 4.5 -42.5t38.5 -12.5h195q29 0 43 12.5t19 42.5l98 557h96z" />
    <glyph glyph-name="V" unicode="V" horiz-adv-x="618" 
d="M668 700l-351 -700h-111l-105 700h101l75 -594l287 594h104z" />
    <glyph glyph-name="W" unicode="W" horiz-adv-x="902" 
d="M648 0h-100l-47 543l-239 -543h-104l-57 700h99l30 -577l252 577h86l50 -577l233 577h101z" />
    <glyph glyph-name="X" unicode="X" horiz-adv-x="609" 
d="M309 278l-225 -278h-108l289 357l-159 343h102l123 -266l216 266h108l-281 -343l165 -357h-102z" />
    <glyph glyph-name="Y" unicode="Y" horiz-adv-x="595" 
d="M298 0h-96l44 245l-157 455h99l119 -357l245 357h106l-316 -455z" />
    <glyph glyph-name="Z" unicode="Z" horiz-adv-x="587" 
d="M19 71l457 543h-343l14 86h462l-13 -71l-456 -543h359l-15 -86h-477z" />
    <glyph glyph-name="bracketleft" unicode="[" horiz-adv-x="356" 
d="M257 676l-122 -694h110l-16 -88h-206l154 870h206l-16 -88h-110z" />
    <glyph glyph-name="backslash" unicode="\" horiz-adv-x="467" 
d="M391 -70h-86l-199 840h86z" />
    <glyph glyph-name="bracketright" unicode="]" horiz-adv-x="357" 
d="M148 764h206l-154 -870h-206l16 88h110l122 694h-110z" />
    <glyph glyph-name="asciicircum" unicode="^" horiz-adv-x="570" 
d="M310 707h105l93 -335h-88l-68 257l-159 -257h-94z" />
    <glyph glyph-name="underscore" unicode="_" horiz-adv-x="553" 
d="M491 -45l-14 -78h-540l14 78h540z" />
    <glyph glyph-name="grave" unicode="`" horiz-adv-x="527" 
d="M382 766h70l-63 144h-116z" />
    <glyph glyph-name="a" unicode="a" horiz-adv-x="564" 
d="M264 544q69 0 103.5 -19t67.5 -61l13 76h91l-95 -540h-91l14 76q-48 -42 -89.5 -61t-110.5 -19q-83 0 -113 32.5t-18 104.5l49 274q12 72 53.5 104.5t125.5 32.5zM176 404l-47 -268q-6 -32 7 -44.5t56 -12.5q60 0 99 12.5t86 41.5l48 274q-36 29 -71 41.5t-94 12.5
q-44 0 -61.5 -12.5t-22.5 -44.5z" />
    <glyph glyph-name="b" unicode="b" horiz-adv-x="564" 
d="M398 544q83 0 113 -32.5t17 -104.5l-48 -274q-13 -72 -54.5 -104.5t-124.5 -32.5q-69 0 -103 19t-68 61l-14 -76h-91l129 730h91l-47 -266q49 42 90 61t110 19zM390 136l47 268q5 32 -8 44.5t-56 12.5q-59 0 -98.5 -12.5t-86.5 -41.5l-48 -274q37 -29 71.5 -41.5
t93.5 -12.5q43 0 61 12.5t24 44.5z" />
    <glyph glyph-name="c" unicode="c" horiz-adv-x="519" 
d="M239 540h147q131 0 107 -134l-8 -47h-91l8 46q5 29 -4.5 41.5t-37.5 12.5h-123q-28 0 -42 -12.5t-19 -41.5l-48 -270q-5 -28 5 -41t38 -13h122q28 0 42.5 12.5t19.5 41.5l8 46h91l-8 -47q-24 -134 -155 -134h-147q-131 0 -107 134l48 272q12 68 49.5 101t104.5 33z" />
    <glyph glyph-name="d" unicode="d" horiz-adv-x="564" 
d="M264 544q69 0 103.5 -19t67.5 -61l47 266h91l-129 -730h-91l14 76q-48 -42 -89.5 -61t-110.5 -19q-83 0 -113 32.5t-18 104.5l49 274q12 72 53.5 104.5t125.5 32.5zM176 404l-47 -268q-6 -32 7 -44.5t56 -12.5q60 0 99 12.5t86 41.5l48 274q-36 29 -71 41.5t-94 12.5
q-44 0 -61.5 -12.5t-22.5 -44.5z" />
    <glyph glyph-name="e" unicode="e" horiz-adv-x="535" 
d="M239 540h155q132 0 108 -134l-28 -158h-325l-21 -117q-5 -29 4.5 -41.5t37.5 -12.5h131q28 0 42.5 12.5t19.5 41.5l7 40h91l-7 -37q-24 -134 -155 -134h-155q-131 0 -107 134l48 272q12 68 49.5 101t104.5 33zM395 316l16 93q5 29 -4.5 41.5t-37.5 12.5h-131
q-28 0 -42 -12.5t-19 -41.5l-16 -93h234z" />
    <glyph glyph-name="f" unicode="f" horiz-adv-x="368" 
d="M405 655h-80q-27 0 -41.5 -12.5t-19.5 -41.5l-11 -61h141l-13 -77h-141l-81 -463h-92l82 463h-87l13 77h88l10 56q13 69 50.5 101.5t104.5 32.5h91z" />
    <glyph glyph-name="g" unicode="g" horiz-adv-x="565" 
d="M539 540l-99 -566q-24 -134 -155 -134h-239l13 77h227q28 0 42.5 12.5t19.5 41.5l22 122q-49 -42 -90 -61t-110 -19q-83 0 -113 33t-18 105l45 256q13 72 54.5 104.5t125.5 32.5q68 0 102.5 -19t68.5 -61l13 76h91zM177 407l-46 -257q-5 -30 8 -42t57 -12q58 0 97.5 12.5
t86.5 41.5l46 257q-38 29 -72.5 41.5t-93.5 12.5q-43 0 -60.5 -12t-22.5 -42z" />
    <glyph glyph-name="h" unicode="h" 
d="M245 730l-47 -265q49 42 89 61t104 19q79 0 108 -32.5t16 -102.5l-72 -410h-90l72 407q5 31 -7 43t-51 12q-55 0 -93.5 -12.5t-84.5 -41.5l-73 -408h-91l129 730h91z" />
    <glyph glyph-name="i" unicode="i" horiz-adv-x="244" 
d="M234 615h-101l18 102h100zM215 540l-95 -540h-91l95 540h91z" />
    <glyph glyph-name="j" unicode="j" horiz-adv-x="244" 
d="M234 615h-101l18 102h100zM215 540l-100 -563q-10 -60 -47 -90t-108 -44l-71 -14l11 65l63 26q55 19 62 58l98 562h92z" />
    <glyph glyph-name="k" unicode="k" horiz-adv-x="518" 
d="M330 334l124 -334h-96l-94 268l-123 -123l-25 -145h-91l129 730h91l-83 -466l263 276h111z" />
    <glyph glyph-name="l" unicode="l" horiz-adv-x="242" 
d="M157 730h91l-129 -730h-91z" />
    <glyph glyph-name="m" unicode="m" horiz-adv-x="850" 
d="M692 546q73 0 101 -33t15 -102l-72 -411h-91l72 408q5 30 -6 42.5t-44 12.5q-48 0 -85.5 -13t-83.5 -41l-72 -409h-91l72 408q5 30 -6 42.5t-44 12.5q-48 0 -84.5 -12.5t-83.5 -41.5l-73 -409h-91l95 540h91l-12 -74q48 42 86.5 61t96.5 19q114 0 120 -85
q46 42 89.5 63.5t100.5 21.5z" />
    <glyph glyph-name="n" unicode="n" 
d="M211 540l-13 -75q49 42 89 61t104 19q79 0 108 -32.5t16 -102.5l-72 -410h-90l72 407q5 31 -7 43t-51 12q-55 0 -93.5 -12.5t-84.5 -41.5l-73 -408h-91l95 540h91z" />
    <glyph glyph-name="o" unicode="o" horiz-adv-x="545" 
d="M239 540h162q131 0 107 -134l-47 -272q-24 -134 -155 -134h-162q-131 0 -107 134l48 272q12 68 49.5 101t104.5 33zM369 135l48 270q5 29 -5 41.5t-38 12.5h-137q-28 0 -42 -12.5t-19 -41.5l-48 -270q-5 -29 4.5 -41.5t37.5 -12.5h138q28 0 42 12.5t19 41.5z" />
    <glyph glyph-name="p" unicode="p" horiz-adv-x="564" 
d="M397 544q83 0 113 -32.5t17 -104.5l-48 -274q-12 -72 -53.5 -104.5t-125.5 -32.5q-68 0 -102.5 19t-68.5 61l-41 -236h-92l123 700h92l-14 -76q49 42 90.5 61t109.5 19zM390 136l47 268q5 32 -8 44.5t-56 12.5q-59 0 -98.5 -12.5t-86.5 -41.5l-48 -274q37 -29 71.5 -41.5
t93.5 -12.5q43 0 61 12.5t24 44.5z" />
    <glyph glyph-name="q" unicode="q" horiz-adv-x="564" 
d="M264 544q69 0 103.5 -19t67.5 -61l13 76h91l-123 -700h-91l42 236q-48 -42 -89.5 -61t-110.5 -19q-83 0 -113 32.5t-18 104.5l49 274q12 72 53.5 104.5t125.5 32.5zM176 404l-47 -268q-6 -32 7 -44.5t56 -12.5q60 0 99 12.5t86 41.5l48 274q-36 29 -71 41.5t-94 12.5
q-44 0 -61.5 -12.5t-22.5 -44.5z" />
    <glyph glyph-name="r" unicode="r" horiz-adv-x="391" 
d="M398 453h-48q-69 0 -163 -53l-71 -400h-91l95 540h91l-14 -80q31 26 52 40.5t54.5 27t69.5 12.5h40z" />
    <glyph glyph-name="s" unicode="s" horiz-adv-x="509" 
d="M379 381l3 21q7 33 -3 47t-38 14h-110q-28 0 -43 -16.5t-22 -56.5q-6 -36 2.5 -48.5t35.5 -16.5l149 -22q59 -9 80 -39.5t9 -102.5q-15 -87 -53.5 -124t-106.5 -37h-151q-67 0 -92.5 35t-11.5 112l3 21h90l-5 -23q-7 -38 2.5 -53t37.5 -15h130q28 0 43 18t23 64
q7 41 -1.5 54.5t-35.5 17.5l-148 22q-60 9 -81 38.5t-9 95.5q14 81 51.5 117t105.5 36h132q67 0 93 -34t13 -107l-3 -18h-89z" />
    <glyph glyph-name="t" unicode="t" horiz-adv-x="353" 
d="M229 463l-59 -330q-5 -29 5 -41.5t38 -12.5h74l-14 -79h-86q-132 0 -108 134l58 329h-78l13 77h79l23 130h90l-23 -130h127l-14 -77h-125z" />
    <glyph glyph-name="u" unicode="u" 
d="M347 0l13 75q-48 -42 -88.5 -61t-104.5 -19q-79 0 -108 32.5t-17 102.5l72 410h92l-72 -407q-5 -31 6.5 -43t51.5 -12q55 0 93 12.5t86 41.5l71 408h91l-95 -540h-91z" />
    <glyph glyph-name="v" unicode="v" horiz-adv-x="502" 
d="M531 540l-274 -540h-108l-84 540h93l57 -461l219 461h97z" />
    <glyph glyph-name="w" unicode="w" horiz-adv-x="746" 
d="M538 0h-98l-38 427l-188 -427h-99l-50 540h93l21 -444l196 444h88l41 -444l177 444h94z" />
    <glyph glyph-name="x" unicode="x" horiz-adv-x="501" 
d="M239 205l-170 -205h-99l230 273l-133 267h96l97 -200l165 200h100l-226 -268l137 -272h-96z" />
    <glyph glyph-name="y" unicode="y" horiz-adv-x="508" 
d="M537 540l-374 -700h-91l86 160l-93 540h92l63 -436l221 436h96z" />
    <glyph glyph-name="z" unicode="z" horiz-adv-x="458" 
d="M0 61l338 402h-255l14 77h369l-10 -60l-339 -403h268l-13 -77h-382z" />
    <glyph glyph-name="braceleft" unicode="{" horiz-adv-x="407" 
d="M300 621l-32 -184q-12 -70 -83 -102q59 -31 47 -102l-34 -196q-6 -30 3.5 -42.5t38.5 -12.5h56l-16 -88h-67q-137 0 -112 140l35 202q10 57 -42 57h-38l14 83h38q52 0 63 57l34 191q25 140 162 140h67l-16 -88h-56q-28 0 -42 -12.5t-20 -42.5z" />
    <glyph glyph-name="bar" unicode="|" horiz-adv-x="315" 
d="M204 767h83l-173 -983h-83z" />
    <glyph glyph-name="braceright" unicode="}" horiz-adv-x="408" 
d="M198 437l33 184q5 30 -4.5 42.5t-38.5 12.5h-56l16 88h67q137 0 112 -140l-33 -191q-10 -57 43 -57h38l-15 -83h-37q-53 0 -64 -57l-36 -202q-25 -140 -162 -140h-67l16 88h56q28 0 42 12.5t20 42.5l34 196q14 71 83 102q-59 31 -47 102z" />
    <glyph glyph-name="asciitilde" unicode="~" horiz-adv-x="500" 
d="M141 271l5 26q5 29 33 29q21 0 70 -31t87 -31q88 0 105 100l5 25h-66l-5 -26q-5 -29 -33 -29q-22 0 -70.5 31t-84.5 31q-42 0 -70 -26t-36 -74l-5 -25h65z" />
    <glyph glyph-name="exclamdown" unicode="&#xa1;" horiz-adv-x="284" 
d="M132 540h115l-21 -119h-114zM118 327h67l-62 -487h-114z" />
    <glyph glyph-name="cent" unicode="&#xa2;" horiz-adv-x="553" 
d="M427 427l8 41q5 30 -5 42.5t-39 12.5h-35l-60 -340h35q29 0 43.5 12.5t19.5 42.5l7 41h91l-7 -40q-24 -140 -161 -140h-38l-17 -99h-77l17 99h-38q-137 0 -113 140l41 228q25 140 162 140h38l16 93h77l-16 -93h37q137 0 112 -140l-6 -40h-92zM288 523h-36
q-28 0 -42 -12.5t-19 -42.5l-41 -230q-5 -30 4.5 -42.5t37.5 -12.5h36z" />
    <glyph glyph-name="sterling" unicode="&#xa3;" horiz-adv-x="612" 
d="M325 700h163q137 0 113 -140l-14 -81h-96l14 78q5 30 -5 42.5t-38 12.5h-140q-29 0 -43.5 -12.5t-18.5 -42.5l-29 -166h187l-15 -86h-188l-38 -217h345l-16 -88h-521l16 88h61q19 0 22 20l35 197h-79l15 86h79l30 169q24 140 161 140z" />
    <glyph glyph-name="currency" unicode="&#xa4;" horiz-adv-x="594" 
d="M523 438l-28 -160q-7 -41 -24 -71l61 -75l-69 -60l-62 77q-26 -11 -68 -11h-119q-40 0 -64 10l-88 -76l-48 60l87 75q-6 31 1 71l28 160q8 42 23 68l-60 75l69 60l59 -74q31 11 71 11h119q39 0 66 -11l86 74l48 -60l-86 -74q5 -31 -2 -69zM231 219h113q28 0 42.5 12.5
t19.5 41.5l30 170q5 29 -4.5 41.5t-37.5 12.5h-114q-28 0 -42.5 -12.5t-19.5 -41.5l-30 -170q-5 -29 4.5 -41.5t38.5 -12.5z" />
    <glyph glyph-name="yen" unicode="&#xa5;" horiz-adv-x="595" 
d="M398 325h118l-12 -66h-152l-10 -14l-8 -43h161l-12 -66h-161l-24 -136h-96l24 136h-159l12 66h159l8 43l-5 14h-153l12 66h118l-129 375h100l118 -358l245 358h106z" />
    <glyph glyph-name="brokenbar" unicode="&#xa6;" horiz-adv-x="315" 
d="M204 767h82l-68 -389h-83zM114 -216h-83l67 383h83z" />
    <glyph glyph-name="section" unicode="&#xa7;" horiz-adv-x="526" 
d="M420 540v4q8 46 -0.5 61.5t-38.5 15.5h-108q-29 0 -44 -15.5t-22 -58.5q-6 -33 2.5 -48t32.5 -20l152 -26q56 -9 77 -40t7 -108q-10 -60 -26 -89t-40 -47q17 -15 20.5 -33t-3.5 -67q-15 -87 -55 -125t-110 -38h-136q-71 0 -97.5 38t-11.5 124l2 10h88l-1 -12
q-9 -47 -0.5 -63t38.5 -16h128q29 0 43.5 16t22.5 61q6 34 -2.5 49.5t-32.5 20.5l-149 26q-57 10 -78.5 41t-8.5 107q10 61 26 89t42 47q-18 15 -22 32.5t2 64.5q15 84 54.5 121.5t110.5 37.5h116q71 0 97.5 -36.5t12.5 -118.5l-1 -5h-87zM190 233l143 -24q22 -4 34 17
t21 74q8 42 -0.5 59t-31.5 21l-145 25q-19 4 -31 -17t-21 -73q-8 -43 0.5 -60.5t30.5 -21.5z" />
    <glyph glyph-name="dieresis" unicode="&#xa8;" horiz-adv-x="628" 
d="M363 766h-100l20 112h100zM540 766h-100l20 112h100z" />
    <glyph glyph-name="copyright" unicode="&#xa9;" horiz-adv-x="831" 
d="M300 700h382q136 0 112 -140l-74 -420q-13 -73 -51 -106.5t-110 -33.5h-382q-137 0 -112 140l74 420q13 73 50.5 106.5t110.5 33.5zM654 139l75 422q7 43 -7 60.5t-56 17.5h-372q-76 0 -90 -78l-74 -422q-8 -43 6 -60.5t56 -17.5h372q76 0 90 78zM412 573h114
q55 0 75.5 -26t10.5 -81l-9 -53h-77l9 53q4 22 -2.5 29.5t-27.5 7.5h-98q-20 0 -29 -8t-13 -29l-41 -232q-4 -22 2 -29.5t27 -7.5h98q20 0 30 8.5t14 28.5l9 53h77l-10 -53q-10 -58 -37.5 -82.5t-86.5 -24.5h-114q-55 0 -75.5 25.5t-10.5 81.5l41 232q10 58 37.5 82.5
t86.5 24.5z" />
    <glyph glyph-name="ordfeminine" unicode="&#xaa;" horiz-adv-x="373" 
d="M222 700h90q88 0 73 -90l-46 -261h-64l8 48q-53 -51 -119 -51q-53 0 -73 24.5t-10 81.5q9 55 35.5 77.5t77.5 28.5q55 6 119 8l8 45q6 32 -25 32h-77q-30 0 -36 -32l-3 -15h-63l2 14q8 47 32.5 68.5t70.5 21.5zM306 525l-121 -16q-17 -2 -26 -12t-14 -39q-5 -33 1.5 -43
t33.5 -10q60 0 111 35zM328 286l-11 -57h-268l11 57h268z" />
    <glyph glyph-name="guillemotleft" unicode="&#xab;" horiz-adv-x="448" 
d="M298 559l-180 -208l100 -207h-93l-92 185l8 44l158 186h99zM472 559l-181 -208l101 -207h-93l-93 185l8 44l159 186h99z" />
    <glyph glyph-name="registered" unicode="&#xae;" horiz-adv-x="411" 
d="M192 700h178q63 0 51 -64l-42 -235q-5 -34 -22.5 -49t-50.5 -15h-177q-63 0 -51 64l41 235q6 34 23 49t50 15zM349 400l42 237q3 20 -2.5 27t-24.5 7h-176q-32 0 -39 -34l-42 -237q-3 -20 2.5 -27t24.5 -7h176q34 0 39 34zM196 629h104q22 0 30.5 -10t4.5 -33l-8 -45
q-7 -42 -46 -43l28 -87h-31l-28 87h-47l-15 -87h-30zM297 542l8 42q2 10 -0.5 13t-11.5 3h-71l-13 -73h71q9 0 12 3t5 12z" />
    <glyph glyph-name="macron" unicode="&#xaf;" horiz-adv-x="590" 
d="M524 847l-14 -78h-258l14 78h258z" />
    <glyph glyph-name="degree" unicode="&#xb0;" horiz-adv-x="313" 
d="M242 488h-97q-50 0 -40 52l18 108q10 52 59 52h97q51 0 41 -52l-18 -108q-10 -52 -60 -52zM254 651h-63q-8 0 -11 -3t-5 -11l-15 -86q-3 -14 11 -14h63q14 0 17 14l15 86q3 14 -12 14z" />
    <glyph glyph-name="plusminus" unicode="&#xb1;" horiz-adv-x="499" 
d="M204 240l26 147h-148l14 81h148l26 148h80l-26 -148h148l-14 -81h-148l-26 -147h-80zM47 188h375l-13 -80h-376z" />
    <glyph glyph-name="twosuperior" unicode="&#xb2;" horiz-adv-x="336" 
d="M183 697l3 17q4 18 10 23.5t23 5.5h71q17 0 22 -5.5t1 -23.5l-5 -25q-1 -11 -30 -21l-100 -32q-46 -15 -66.5 -30.5t-26.5 -46.5l-21 -121h271l12 67h-201l6 39q3 14 31 22l100 33q31 10 46 17t28.5 21.5t17.5 36.5l9 46q8 48 -9 69t-64 21h-89q-47 0 -71 -21t-32 -69
l-5 -23h69z" />
    <glyph glyph-name="threesuperior" unicode="&#xb3;" horiz-adv-x="338" 
d="M147 550v-1q-5 -31 -1.5 -38.5t21.5 -7.5h79q18 0 24.5 8t11.5 39q6 32 2 39.5t-22 7.5h-84l11 62h80q18 0 24.5 7.5t11.5 35.5t1 35.5t-22 7.5h-71q-17 0 -23.5 -7.5t-11.5 -35.5l-1 -4h-70l2 7q10 58 34 81.5t71 23.5h91q47 0 63.5 -23.5t6.5 -81.5t-50 -77
q38 -14 26 -81q-10 -61 -34.5 -85t-72.5 -24h-99q-48 0 -64 24t-5 85l1 3h70z" />
    <glyph glyph-name="acute" unicode="&#xb4;" horiz-adv-x="523" 
d="M324 766h-78l113 144h124z" />
    <glyph glyph-name="paragraph" unicode="&#xb6;" horiz-adv-x="743" 
d="M607 0h-96l108 611h-76l-108 -611h-96l47 265h-192q-137 0 -112 140l27 155q24 140 161 140h460z" />
    <glyph glyph-name="periodcentered" unicode="&#xb7;" horiz-adv-x="235" 
d="M175 268h-116l21 120h117z" />
    <glyph glyph-name="cedilla" unicode="&#xb8;" horiz-adv-x="554" 
d="M274 0l-10 -55q-10 -55 -30.5 -73.5t-73.5 -18.5h-65l-32 62h89q19 0 26 6.5t10 24.5l10 54h76z" />
    <glyph glyph-name="onesuperior" unicode="&#xb9;" horiz-adv-x="224" 
d="M130 439l53 299l-82 -24l10 59l98 38h56l-65 -372h-70z" />
    <glyph glyph-name="ordmasculine" unicode="&#xba;" horiz-adv-x="375" 
d="M212 700h102q88 0 73 -90l-31 -171q-15 -90 -103 -90h-102q-88 0 -73 90l31 171q15 90 103 90zM292 440l30 169q6 32 -26 32h-87q-30 0 -36 -32l-30 -169q-6 -32 25 -32h87q31 0 37 32zM322 286l-11 -57h-262l11 57h262z" />
    <glyph glyph-name="guillemotright" unicode="&#xbb;" horiz-adv-x="448" 
d="M270 373l-7 -44l-158 -185h-99l180 207l-100 208h93zM443 373l-7 -44l-158 -185h-99l180 207l-100 208h93z" />
    <glyph glyph-name="onequarter" unicode="&#xbc;" horiz-adv-x="702" 
d="M611 707l-509 -707h-72l509 707h72zM111 329l53 299l-82 -24l10 59l98 38h56l-65 -372h-70zM643 77h-57l-13 -77h-69l14 77h-189l-3 52l250 243h62l-41 -233h57zM414 139h114l23 128z" />
    <glyph glyph-name="onehalf" unicode="&#xbd;" horiz-adv-x="724" 
d="M611 707l-509 -707h-72l509 707h72zM111 329l53 299l-82 -24l10 59l98 38h56l-65 -372h-70zM494 259l3 17q4 18 10 23.5t23 5.5h71q17 0 22 -5.5t1 -23.5l-5 -25q-1 -11 -30 -21l-100 -32q-46 -15 -66.5 -30.5t-26.5 -46.5l-21 -121h271l12 67h-201l6 39q3 14 31 22
l100 33q31 10 46 17t28.5 21.5t17.5 36.5l9 46q8 48 -9 69t-64 21h-89q-47 0 -71 -21t-32 -69l-5 -23h69z" />
    <glyph glyph-name="threequarters" unicode="&#xbe;" horiz-adv-x="816" 
d="M725 707l-509 -707h-72l509 707h72zM128 440v-1q-5 -31 -1.5 -38.5t21.5 -7.5h79q18 0 24.5 8t11.5 39q6 32 2 39.5t-22 7.5h-84l11 62h80q18 0 24.5 7.5t11.5 35.5t1 35.5t-22 7.5h-71q-17 0 -23.5 -7.5t-11.5 -35.5l-1 -4h-70l2 7q10 58 34 81.5t71 23.5h91
q47 0 63.5 -23.5t6.5 -81.5t-50 -77q38 -14 26 -81q-10 -61 -34.5 -85t-72.5 -24h-99q-48 0 -64 24t-5 85l1 3h70zM757 77h-57l-13 -77h-69l14 77h-189l-3 52l250 243h62l-41 -233h57zM528 139h114l23 128z" />
    <glyph glyph-name="questiondown" unicode="&#xbf;" horiz-adv-x="550" 
d="M298 419l21 121h96l-21 -121h-96zM312 -160h-208q-137 0 -113 140l14 73q9 49 47 80t119 71l34 16q36 18 50.5 29t16.5 25l12 69h96l-14 -78q-8 -46 -46.5 -76.5t-119.5 -69.5l-34 -17q-35 -17 -49 -29t-18 -31l-11 -59q-5 -30 4.5 -42.5t38.5 -12.5h184q29 0 43.5 12.5
t19.5 42.5l12 70h96l-13 -73q-24 -140 -161 -140z" />
    <glyph glyph-name="Agrave" unicode="&#xc0;" horiz-adv-x="648" 
d="M402 766l-109 144h116l63 -144h-70zM446 191h-270l-95 -191h-103l360 700h124l114 -700h-101zM433 279l-49 328l-164 -328h213z" />
    <glyph glyph-name="Aacute" unicode="&#xc1;" horiz-adv-x="648" 
d="M425 766h-78l113 144h124zM462 700l114 -700h-101l-29 191h-270l-95 -191h-103l360 700h124zM433 279l-49 328l-164 -328h213z" />
    <glyph glyph-name="Acircumflex" unicode="&#xc2;" horiz-adv-x="648" 
d="M343 766h-92l139 123h88l96 -123h-87l-58 76zM446 191h-270l-95 -191h-103l360 700h124l114 -700h-101zM433 279l-49 328l-164 -328h213z" />
    <glyph glyph-name="Atilde" unicode="&#xc3;" horiz-adv-x="648" 
d="M590 882l-3 -23q-17 -97 -100 -97q-34 0 -72.5 29.5t-59.5 29.5q-29 0 -33 -29l-5 -23h-60l4 23q17 97 102 97q33 0 70 -29.5t59 -29.5q28 0 33 29l4 23h61zM462 700l114 -700h-101l-29 191h-270l-95 -191h-103l360 700h124zM433 279l-49 328l-164 -328h213z" />
    <glyph glyph-name="Adieresis" unicode="&#xc4;" horiz-adv-x="648" 
d="M373 766h-100l20 112h100zM550 766h-100l20 112h100zM446 191h-270l-95 -191h-103l360 700h124l114 -700h-101zM433 279l-49 328l-164 -328h213z" />
    <glyph glyph-name="Aring" unicode="&#xc5;" horiz-adv-x="648" 
d="M440 766h-58q-32 0 -43 14t-5 46l7 45q6 32 22 46t48 14h59q31 0 42 -14t5 -46l-7 -45q-6 -32 -22 -46t-48 -14zM396 874l-10 -51q-1 -6 0.5 -8t7.5 -2h51q11 0 13 10l9 51q1 7 -0.5 9t-8.5 2h-50q-11 0 -12 -11zM446 191h-270l-95 -191h-103l360 700h124l114 -700h-101z
M433 279l-49 328l-164 -328h213z" />
    <glyph glyph-name="AE" unicode="&#xc6;" horiz-adv-x="975" 
d="M636 612l-36 -203h290l-16 -88h-290l-40 -233h347l-15 -88h-444l34 193h-257l-134 -193h-113l494 700h543l-15 -88h-348zM481 281l58 330h-39l-230 -330h211z" />
    <glyph glyph-name="Ccedilla" unicode="&#xc7;" horiz-adv-x="617" 
d="M283 700h214q137 0 113 -140l-16 -89h-96l15 86q5 30 -4.5 42.5t-38.5 12.5h-190q-29 0 -43.5 -12.5t-18.5 -42.5l-74 -414q-5 -30 4.5 -42.5t38.5 -12.5h191q29 0 43 12.5t19 42.5l15 86h96l-15 -89q-26 -140 -162 -140h-56l-10 -55q-10 -55 -30.5 -73.5t-73.5 -18.5
h-65l-32 62h89q19 0 26 6.5t10 24.5l10 54h-82q-136 0 -112 140l74 420q24 140 161 140z" />
    <glyph glyph-name="Egrave" unicode="&#xc8;" horiz-adv-x="585" 
d="M392 766h70l-63 144h-116zM164 700h444l-15 -88h-348l-37 -210h290l-16 -88h-290l-39 -226h348l-16 -88h-444z" />
    <glyph glyph-name="Eacute" unicode="&#xc9;" horiz-adv-x="585" 
d="M415 766h-78l113 144h124zM164 700h444l-15 -88h-348l-37 -210h290l-16 -88h-290l-39 -226h348l-16 -88h-444z" />
    <glyph glyph-name="Ecircumflex" unicode="&#xca;" horiz-adv-x="585" 
d="M333 766l86 76l58 -76h87l-96 123h-88l-139 -123h92zM164 700h444l-15 -88h-348l-37 -210h290l-16 -88h-290l-39 -226h348l-16 -88h-444z" />
    <glyph glyph-name="Edieresis" unicode="&#xcb;" horiz-adv-x="585" 
d="M363 766h-100l20 112h100zM540 766h-100l20 112h100zM164 700h444l-15 -88h-348l-37 -210h290l-16 -88h-290l-39 -226h348l-16 -88h-444z" />
    <glyph glyph-name="Igrave" unicode="&#xcc;" horiz-adv-x="273" 
d="M214 766h70l-63 144h-116zM41 0l123 700h96l-123 -700h-96z" />
    <glyph glyph-name="Iacute" unicode="&#xcd;" horiz-adv-x="273" 
d="M237 766h-78l113 144h124zM41 0l123 700h96l-123 -700h-96z" />
    <glyph glyph-name="Icircumflex" unicode="&#xce;" horiz-adv-x="273" 
d="M155 766l86 76l58 -76h87l-96 123h-88l-139 -123h92zM41 0l123 700h96l-123 -700h-96z" />
    <glyph glyph-name="Idieresis" unicode="&#xcf;" horiz-adv-x="273" 
d="M185 766h-100l20 112h100zM362 766h-100l20 112h100zM41 0l123 700h96l-123 -700h-96z" />
    <glyph glyph-name="Eth" unicode="&#xd0;" horiz-adv-x="649" 
d="M161 700h355q137 0 113 -140l-74 -420q-25 -140 -162 -140h-355l55 311h-81l16 92h81zM459 143l73 414q5 30 -4.5 42.5t-38.5 12.5h-247l-37 -209h82l-16 -92h-82l-39 -223h247q29 0 43 12.5t19 42.5z" />
    <glyph glyph-name="Ntilde" unicode="&#xd1;" horiz-adv-x="697" 
d="M341 769l5 23q4 29 33 29q21 0 59.5 -29.5t72.5 -29.5q83 0 100 97l3 23h-61l-4 -23q-5 -29 -33 -29q-22 0 -59 29.5t-70 29.5q-85 0 -102 -97l-4 -23h60zM592 700h92l-123 -700h-92l-238 556l-98 -556h-92l123 700h99l234 -545z" />
    <glyph glyph-name="Ograve" unicode="&#xd2;" horiz-adv-x="645" 
d="M401 766h70l-63 144h-116zM391 0h-230q-137 0 -112 140l74 420q24 140 161 140h230q136 0 112 -140l-74 -420q-25 -140 -161 -140zM218 557l-73 -414q-5 -30 4.5 -42.5t38.5 -12.5h207q28 0 42 12.5t19 42.5l73 414q5 30 -4.5 42.5t-37.5 12.5h-207q-29 0 -43 -12.5
t-19 -42.5z" />
    <glyph glyph-name="Oacute" unicode="&#xd3;" horiz-adv-x="645" 
d="M424 766h-78l113 144h124zM391 0h-230q-137 0 -112 140l74 420q24 140 161 140h230q136 0 112 -140l-74 -420q-25 -140 -161 -140zM218 557l-73 -414q-5 -30 4.5 -42.5t38.5 -12.5h207q28 0 42 12.5t19 42.5l73 414q5 30 -4.5 42.5t-37.5 12.5h-207q-29 0 -43 -12.5
t-19 -42.5z" />
    <glyph glyph-name="Ocircumflex" unicode="&#xd4;" horiz-adv-x="645" 
d="M342 766l86 76l58 -76h87l-96 123h-88l-139 -123h92zM391 0h-230q-137 0 -112 140l74 420q24 140 161 140h230q136 0 112 -140l-74 -420q-25 -140 -161 -140zM218 557l-73 -414q-5 -30 4.5 -42.5t38.5 -12.5h207q28 0 42 12.5t19 42.5l73 414q5 30 -4.5 42.5t-37.5 12.5
h-207q-29 0 -43 -12.5t-19 -42.5z" />
    <glyph glyph-name="Otilde" unicode="&#xd5;" horiz-adv-x="645" 
d="M316 769l5 23q4 29 33 29q21 0 59.5 -29.5t72.5 -29.5q83 0 100 97l3 23h-61l-4 -23q-5 -29 -33 -29q-22 0 -59 29.5t-70 29.5q-85 0 -102 -97l-4 -23h60zM391 0h-230q-137 0 -112 140l74 420q24 140 161 140h230q136 0 112 -140l-74 -420q-25 -140 -161 -140zM218 557
l-73 -414q-5 -30 4.5 -42.5t38.5 -12.5h207q28 0 42 12.5t19 42.5l73 414q5 30 -4.5 42.5t-37.5 12.5h-207q-29 0 -43 -12.5t-19 -42.5z" />
    <glyph glyph-name="Odieresis" unicode="&#xd6;" horiz-adv-x="645" 
d="M372 766h-100l20 112h100zM549 766h-100l20 112h100zM391 0h-230q-137 0 -112 140l74 420q24 140 161 140h230q136 0 112 -140l-74 -420q-25 -140 -161 -140zM218 557l-73 -414q-5 -30 4.5 -42.5t38.5 -12.5h207q28 0 42 12.5t19 42.5l73 414q5 30 -4.5 42.5t-37.5 12.5
h-207q-29 0 -43 -12.5t-19 -42.5z" />
    <glyph glyph-name="multiply" unicode="&#xd7;" horiz-adv-x="499" 
d="M315 331l99 -123l-62 -52l-98 123l-145 -127l-48 58l146 127l-98 122l61 52l98 -122l145 126l47 -57z" />
    <glyph glyph-name="Oslash" unicode="&#xd8;" horiz-adv-x="642" 
d="M623 760l-43 -73q58 -29 42 -127l-74 -420q-25 -140 -161 -140h-219l-36 -60h-89l45 75q-55 30 -39 125l74 420q24 140 161 140h214l36 60h89zM218 557l-73 -414q-4 -20 -1 -33l301 502h-165q-29 0 -43 -12.5t-19 -42.5zM452 143l74 414q4 24 -2 38l-303 -507h170
q28 0 42 12.5t19 42.5z" />
    <glyph glyph-name="Ugrave" unicode="&#xd9;" horiz-adv-x="651" 
d="M402 766h70l-63 144h-116zM647 700l-98 -560q-25 -140 -162 -140h-218q-137 0 -112 140l98 560h96l-98 -557q-5 -30 4.5 -42.5t38.5 -12.5h195q29 0 43 12.5t19 42.5l98 557h96z" />
    <glyph glyph-name="Uacute" unicode="&#xda;" horiz-adv-x="651" 
d="M425 766h-78l113 144h124zM647 700l-98 -560q-25 -140 -162 -140h-218q-137 0 -112 140l98 560h96l-98 -557q-5 -30 4.5 -42.5t38.5 -12.5h195q29 0 43 12.5t19 42.5l98 557h96z" />
    <glyph glyph-name="Ucircumflex" unicode="&#xdb;" horiz-adv-x="651" 
d="M343 766l86 76l58 -76h87l-96 123h-88l-139 -123h92zM647 700l-98 -560q-25 -140 -162 -140h-218q-137 0 -112 140l98 560h96l-98 -557q-5 -30 4.5 -42.5t38.5 -12.5h195q29 0 43 12.5t19 42.5l98 557h96z" />
    <glyph glyph-name="Udieresis" unicode="&#xdc;" horiz-adv-x="651" 
d="M373 766h-100l20 112h100zM550 766h-100l20 112h100zM647 700l-98 -560q-25 -140 -162 -140h-218q-137 0 -112 140l98 560h96l-98 -557q-5 -30 4.5 -42.5t38.5 -12.5h195q29 0 43 12.5t19 42.5l98 557h96z" />
    <glyph glyph-name="Yacute" unicode="&#xdd;" horiz-adv-x="595" 
d="M399 766h-78l113 144h124zM298 0h-96l44 245l-157 455h99l119 -357l245 357h106l-316 -455z" />
    <glyph glyph-name="Thorn" unicode="&#xde;" horiz-adv-x="619" 
d="M260 700l-22 -125h250q137 0 113 -140l-29 -160q-24 -140 -162 -140h-249l-24 -135h-96l123 700h96zM177 223h238q51 0 62 54l27 156q10 54 -42 54h-238z" />
    <glyph glyph-name="germandbls" unicode="&#xdf;" horiz-adv-x="556" 
d="M540 539q-14 -79 -35 -114t-62 -49q38 -12 48.5 -48.5t-3.5 -126.5q-21 -117 -56.5 -159t-110.5 -42h-137l14 81h125q29 0 45 24.5t29 103.5q13 83 7 105t-36 22h-111l14 79h103q30 0 45 22.5t28 94.5q12 76 5 96.5t-36 20.5h-137q-28 0 -42.5 -12.5t-19.5 -41.5
l-105 -595h-91l105 596q24 134 155 134h162q69 0 92.5 -41.5t4.5 -149.5z" />
    <glyph glyph-name="agrave" unicode="&#xe0;" horiz-adv-x="564" 
d="M328 606h70l-63 144h-116zM264 544q69 0 103.5 -19t67.5 -61l13 76h91l-95 -540h-91l14 76q-48 -42 -89.5 -61t-110.5 -19q-83 0 -113 32.5t-18 104.5l49 274q12 72 53.5 104.5t125.5 32.5zM176 404l-47 -268q-6 -32 7 -44.5t56 -12.5q60 0 99 12.5t86 41.5l48 274
q-36 29 -71 41.5t-94 12.5q-44 0 -61.5 -12.5t-22.5 -44.5z" />
    <glyph glyph-name="aacute" unicode="&#xe1;" horiz-adv-x="564" 
d="M351 606h-78l113 144h124zM264 544q69 0 103.5 -19t67.5 -61l13 76h91l-95 -540h-91l14 76q-48 -42 -89.5 -61t-110.5 -19q-83 0 -113 32.5t-18 104.5l49 274q12 72 53.5 104.5t125.5 32.5zM176 404l-47 -268q-6 -32 7 -44.5t56 -12.5q60 0 99 12.5t86 41.5l48 274
q-36 29 -71 41.5t-94 12.5q-44 0 -61.5 -12.5t-22.5 -44.5z" />
    <glyph glyph-name="acircumflex" unicode="&#xe2;" horiz-adv-x="564" 
d="M269 606l86 76l58 -76h87l-96 123h-88l-139 -123h92zM264 544q69 0 103.5 -19t67.5 -61l13 76h91l-95 -540h-91l14 76q-48 -42 -89.5 -61t-110.5 -19q-83 0 -113 32.5t-18 104.5l49 274q12 72 53.5 104.5t125.5 32.5zM176 404l-47 -268q-6 -32 7 -44.5t56 -12.5
q60 0 99 12.5t86 41.5l48 274q-36 29 -71 41.5t-94 12.5q-44 0 -61.5 -12.5t-22.5 -44.5z" />
    <glyph glyph-name="atilde" unicode="&#xe3;" horiz-adv-x="564" 
d="M243 609l5 23q4 29 33 29q21 0 59.5 -29.5t72.5 -29.5q83 0 100 97l3 23h-61l-4 -23q-5 -29 -33 -29q-22 0 -59 29.5t-70 29.5q-85 0 -102 -97l-4 -23h60zM264 544q69 0 103.5 -19t67.5 -61l13 76h91l-95 -540h-91l14 76q-48 -42 -89.5 -61t-110.5 -19q-83 0 -113 32.5
t-18 104.5l49 274q12 72 53.5 104.5t125.5 32.5zM176 404l-47 -268q-6 -32 7 -44.5t56 -12.5q60 0 99 12.5t86 41.5l48 274q-36 29 -71 41.5t-94 12.5q-44 0 -61.5 -12.5t-22.5 -44.5z" />
    <glyph glyph-name="adieresis" unicode="&#xe4;" horiz-adv-x="564" 
d="M299 606h-100l20 112h100zM476 606h-100l20 112h100zM264 544q69 0 103.5 -19t67.5 -61l13 76h91l-95 -540h-91l14 76q-48 -42 -89.5 -61t-110.5 -19q-83 0 -113 32.5t-18 104.5l49 274q12 72 53.5 104.5t125.5 32.5zM176 404l-47 -268q-6 -32 7 -44.5t56 -12.5
q60 0 99 12.5t86 41.5l48 274q-36 29 -71 41.5t-94 12.5q-44 0 -61.5 -12.5t-22.5 -44.5z" />
    <glyph glyph-name="aring" unicode="&#xe5;" horiz-adv-x="564" 
d="M366 606h-58q-32 0 -43 14t-5 46l7 45q6 32 22 46t48 14h59q31 0 42 -14t5 -46l-7 -45q-6 -32 -22 -46t-48 -14zM384 725h-50q-11 0 -12 -11l-10 -51q-1 -6 0.5 -8t7.5 -2h51q11 0 13 10l9 51q1 7 -0.5 9t-8.5 2zM264 544q69 0 103.5 -19t67.5 -61l13 76h91l-95 -540h-91
l14 76q-48 -42 -89.5 -61t-110.5 -19q-83 0 -113 32.5t-18 104.5l49 274q12 72 53.5 104.5t125.5 32.5zM176 404l-47 -268q-6 -32 7 -44.5t56 -12.5q60 0 99 12.5t86 41.5l48 274q-36 29 -71 41.5t-94 12.5q-44 0 -61.5 -12.5t-22.5 -44.5z" />
    <glyph glyph-name="ae" unicode="&#xe6;" horiz-adv-x="856" 
d="M469 248l-21 -117q-5 -29 5 -41.5t38 -12.5h131q28 0 42.5 12.5t19.5 41.5l7 40h91l-7 -37q-24 -134 -155 -134h-155q-104 0 -111 83q-73 -87 -202 -87q-80 0 -108 37t-13 122q14 80 52 114t110 42q106 12 198 15l14 82q5 29 -4.5 41.5t-37.5 12.5h-118q-28 0 -42 -12.5
t-19 -41.5l-3 -20h-91l3 18q12 68 49.5 101t104.5 33h137q63 0 84 -40q34 40 97 40h150q132 0 108 -134l-28 -158h-326zM716 316l17 93q5 29 -5 41.5t-38 12.5h-131q-28 0 -42.5 -12.5t-19.5 -41.5l-16 -93h235zM381 266l-189 -25q-33 -5 -47 -20t-22 -61q-9 -49 2 -67
t52 -18q55 0 93.5 13t86.5 43z" />
    <glyph glyph-name="ccedilla" unicode="&#xe7;" horiz-adv-x="519" 
d="M239 540h147q131 0 107 -134l-8 -47h-91l8 46q5 29 -4.5 41.5t-37.5 12.5h-123q-28 0 -42 -12.5t-19 -41.5l-48 -270q-5 -28 5 -41t38 -13h122q28 0 42.5 12.5t19.5 41.5l8 46h91l-8 -47q-24 -134 -155 -134h-25l-10 -55q-10 -55 -30.5 -73.5t-73.5 -18.5h-65l-32 62h89
q19 0 26 6.5t10 24.5l10 54h-46q-131 0 -107 134l48 272q12 68 49.5 101t104.5 33z" />
    <glyph glyph-name="egrave" unicode="&#xe8;" horiz-adv-x="535" 
d="M319 606l-109 144h116l63 -144h-70zM239 540h155q132 0 108 -134l-28 -158h-325l-21 -117q-5 -29 4.5 -41.5t37.5 -12.5h131q28 0 42.5 12.5t19.5 41.5l7 40h91l-7 -37q-24 -134 -155 -134h-155q-131 0 -107 134l48 272q12 68 49.5 101t104.5 33zM395 316l16 93
q5 29 -4.5 41.5t-37.5 12.5h-131q-28 0 -42 -12.5t-19 -41.5l-16 -93h234z" />
    <glyph glyph-name="eacute" unicode="&#xe9;" horiz-adv-x="535" 
d="M342 606h-78l113 144h124zM239 540h155q132 0 108 -134l-28 -158h-325l-21 -117q-5 -29 4.5 -41.5t37.5 -12.5h131q28 0 42.5 12.5t19.5 41.5l7 40h91l-7 -37q-24 -134 -155 -134h-155q-131 0 -107 134l48 272q12 68 49.5 101t104.5 33zM395 316l16 93q5 29 -4.5 41.5
t-37.5 12.5h-131q-28 0 -42 -12.5t-19 -41.5l-16 -93h234z" />
    <glyph glyph-name="ecircumflex" unicode="&#xea;" horiz-adv-x="535" 
d="M260 606h-92l139 123h88l96 -123h-87l-58 76zM239 540h155q132 0 108 -134l-28 -158h-325l-21 -117q-5 -29 4.5 -41.5t37.5 -12.5h131q28 0 42.5 12.5t19.5 41.5l7 40h91l-7 -37q-24 -134 -155 -134h-155q-131 0 -107 134l48 272q12 68 49.5 101t104.5 33zM395 316l16 93
q5 29 -4.5 41.5t-37.5 12.5h-131q-28 0 -42 -12.5t-19 -41.5l-16 -93h234z" />
    <glyph glyph-name="edieresis" unicode="&#xeb;" horiz-adv-x="535" 
d="M290 606h-100l20 112h100zM467 606h-100l20 112h100zM239 540h155q132 0 108 -134l-28 -158h-325l-21 -117q-5 -29 4.5 -41.5t37.5 -12.5h131q28 0 42.5 12.5t19.5 41.5l7 40h91l-7 -37q-24 -134 -155 -134h-155q-131 0 -107 134l48 272q12 68 49.5 101t104.5 33z
M395 316l16 93q5 29 -4.5 41.5t-37.5 12.5h-131q-28 0 -42 -12.5t-19 -41.5l-16 -93h234z" />
    <glyph glyph-name="igrave" unicode="&#xec;" horiz-adv-x="243" 
d="M162 593h70l-63 144h-116zM214 540l-95 -540h-91l95 540h91z" />
    <glyph glyph-name="iacute" unicode="&#xed;" horiz-adv-x="243" 
d="M189 593h-78l113 144h124zM215 540l-95 -540h-91l95 540h91z" />
    <glyph glyph-name="icircumflex" unicode="&#xee;" horiz-adv-x="244" 
d="M110 593l86 76l58 -76h87l-96 123h-88l-139 -123h92zM215 540l-95 -540h-91l95 540h91z" />
    <glyph glyph-name="idieresis" unicode="&#xef;" horiz-adv-x="244" 
d="M141 599h-100l20 112h100zM318 599h-100l20 112h100zM215 540l-95 -540h-91l95 540h91z" />
    <glyph glyph-name="eth" unicode="&#xf0;" horiz-adv-x="552" 
d="M411 660l13 -4q71 -19 97 -49t14 -92l-67 -381q-12 -68 -49.5 -101t-104.5 -33h-170q-131 0 -107 134l40 229q13 72 54.5 104.5t125.5 32.5q68 0 102.5 -19t68.5 -61l17 99q6 28 -5.5 40.5t-42.5 23.5l-53 19l-61 -52h-85l85 73l-86 30l11 63l139 -39l57 49h85zM377 135
l40 228q-37 29 -71.5 41.5t-93.5 12.5q-43 0 -61 -12.5t-23 -44.5l-40 -225q-5 -29 4.5 -41.5t37.5 -12.5h146q28 0 42 12.5t19 41.5z" />
    <glyph glyph-name="ntilde" unicode="&#xf1;" 
d="M245 609l5 23q4 29 33 29q21 0 59.5 -29.5t72.5 -29.5q83 0 100 97l3 23h-61l-4 -23q-5 -29 -33 -29q-22 0 -59 29.5t-70 29.5q-85 0 -102 -97l-4 -23h60zM211 540l-13 -75q49 42 89 61t104 19q79 0 108 -32.5t16 -102.5l-72 -410h-90l72 407q5 31 -7 43t-51 12
q-55 0 -93.5 -12.5t-84.5 -41.5l-73 -408h-91l95 540h91z" />
    <glyph glyph-name="ograve" unicode="&#xf2;" horiz-adv-x="545" 
d="M323 606h70l-63 144h-116zM239 540h162q131 0 107 -134l-47 -272q-24 -134 -155 -134h-162q-131 0 -107 134l48 272q12 68 49.5 101t104.5 33zM369 135l48 270q5 29 -5 41.5t-38 12.5h-137q-28 0 -42 -12.5t-19 -41.5l-48 -270q-5 -29 4.5 -41.5t37.5 -12.5h138
q28 0 42 12.5t19 41.5z" />
    <glyph glyph-name="oacute" unicode="&#xf3;" horiz-adv-x="545" 
d="M346 606h-78l113 144h124zM239 540h162q131 0 107 -134l-47 -272q-24 -134 -155 -134h-162q-131 0 -107 134l48 272q12 68 49.5 101t104.5 33zM369 135l48 270q5 29 -5 41.5t-38 12.5h-137q-28 0 -42 -12.5t-19 -41.5l-48 -270q-5 -29 4.5 -41.5t37.5 -12.5h138
q28 0 42 12.5t19 41.5z" />
    <glyph glyph-name="ocircumflex" unicode="&#xf4;" horiz-adv-x="545" 
d="M264 606l86 76l58 -76h87l-96 123h-88l-139 -123h92zM239 540h162q131 0 107 -134l-47 -272q-24 -134 -155 -134h-162q-131 0 -107 134l48 272q12 68 49.5 101t104.5 33zM369 135l48 270q5 29 -5 41.5t-38 12.5h-137q-28 0 -42 -12.5t-19 -41.5l-48 -270
q-5 -29 4.5 -41.5t37.5 -12.5h138q28 0 42 12.5t19 41.5z" />
    <glyph glyph-name="otilde" unicode="&#xf5;" horiz-adv-x="545" 
d="M238 609l5 23q4 29 33 29q21 0 59.5 -29.5t72.5 -29.5q83 0 100 97l3 23h-61l-4 -23q-5 -29 -33 -29q-22 0 -59 29.5t-70 29.5q-85 0 -102 -97l-4 -23h60zM239 540h162q131 0 107 -134l-47 -272q-24 -134 -155 -134h-162q-131 0 -107 134l48 272q12 68 49.5 101t104.5 33
zM369 135l48 270q5 29 -5 41.5t-38 12.5h-137q-28 0 -42 -12.5t-19 -41.5l-48 -270q-5 -29 4.5 -41.5t37.5 -12.5h138q28 0 42 12.5t19 41.5z" />
    <glyph glyph-name="odieresis" unicode="&#xf6;" horiz-adv-x="545" 
d="M294 606h-100l20 112h100zM471 606h-100l20 112h100zM239 540h162q131 0 107 -134l-47 -272q-24 -134 -155 -134h-162q-131 0 -107 134l48 272q12 68 49.5 101t104.5 33zM369 135l48 270q5 29 -5 41.5t-38 12.5h-137q-28 0 -42 -12.5t-19 -41.5l-48 -270
q-5 -29 4.5 -41.5t37.5 -12.5h138q28 0 42 12.5t19 41.5z" />
    <glyph glyph-name="divide" unicode="&#xf7;" horiz-adv-x="499" 
d="M338 483h-102l19 109h103zM79 406h390l-15 -86h-390zM277 134h-102l19 110h102z" />
    <glyph glyph-name="oslash" unicode="&#xf8;" horiz-adv-x="542" 
d="M500 600l-40 -70q62 -27 46 -124l-48 -272q-24 -134 -155 -134h-146l-34 -60h-77l39 69q-66 25 -48 125l48 272q12 68 49.5 101t104.5 33h149l34 60h78zM176 405l-48 -270q-6 -30 5 -42l208 366h-104q-28 0 -42 -12.5t-19 -41.5zM367 135l48 270q6 27 -3 40l-208 -364
h102q28 0 42 12.5t19 41.5z" />
    <glyph glyph-name="ugrave" unicode="&#xf9;" 
d="M323 606h70l-63 144h-116zM347 0l13 75q-48 -42 -88.5 -61t-104.5 -19q-79 0 -108 32.5t-17 102.5l72 410h92l-72 -407q-5 -31 6.5 -43t51.5 -12q55 0 93 12.5t86 41.5l71 408h91l-95 -540h-91z" />
    <glyph glyph-name="uacute" unicode="&#xfa;" 
d="M346 606h-78l113 144h124zM347 0l13 75q-48 -42 -88.5 -61t-104.5 -19q-79 0 -108 32.5t-17 102.5l72 410h92l-72 -407q-5 -31 6.5 -43t51.5 -12q55 0 93 12.5t86 41.5l71 408h91l-95 -540h-91z" />
    <glyph glyph-name="ucircumflex" unicode="&#xfb;" 
d="M264 606l86 76l58 -76h87l-96 123h-88l-139 -123h92zM347 0l13 75q-48 -42 -88.5 -61t-104.5 -19q-79 0 -108 32.5t-17 102.5l72 410h92l-72 -407q-5 -31 6.5 -43t51.5 -12q55 0 93 12.5t86 41.5l71 408h91l-95 -540h-91z" />
    <glyph glyph-name="udieresis" unicode="&#xfc;" 
d="M294 606h-100l20 112h100zM471 606h-100l20 112h100zM347 0l13 75q-48 -42 -88.5 -61t-104.5 -19q-79 0 -108 32.5t-17 102.5l72 410h92l-72 -407q-5 -31 6.5 -43t51.5 -12q55 0 93 12.5t86 41.5l71 408h91l-95 -540h-91z" />
    <glyph glyph-name="yacute" unicode="&#xfd;" horiz-adv-x="508" 
d="M331 606h-78l113 144h124zM537 540l-374 -700h-91l86 160l-93 540h92l63 -436l221 436h96z" />
    <glyph glyph-name="thorn" unicode="&#xfe;" horiz-adv-x="564" 
d="M397 544q83 0 113 -32.5t17 -104.5l-48 -274q-12 -72 -53.5 -104.5t-125.5 -32.5q-68 0 -102.5 19t-68.5 61l-41 -236h-92l157 890h92l-48 -266q49 42 90.5 61t109.5 19zM390 136l47 268q5 32 -8 44.5t-56 12.5q-59 0 -98.5 -12.5t-86.5 -41.5l-48 -274
q37 -29 71.5 -41.5t93.5 -12.5q43 0 61 12.5t24 44.5z" />
    <glyph glyph-name="ydieresis" unicode="&#xff;" horiz-adv-x="508" 
d="M279 606h-100l20 112h100zM456 606h-100l20 112h100zM537 540l-374 -700h-91l86 160l-93 540h92l63 -436l221 436h96z" />
    <glyph glyph-name="Amacron" unicode="&#x100;" horiz-adv-x="648" 
d="M539 769h-258l14 78h258zM446 191h-270l-95 -191h-103l360 700h124l114 -700h-101zM433 279l-49 328l-164 -328h213z" />
    <glyph glyph-name="amacron" unicode="&#x101;" horiz-adv-x="564" 
d="M479 687l-14 -78h-258l14 78h258zM264 544q69 0 103.5 -19t67.5 -61l13 76h91l-95 -540h-91l14 76q-48 -42 -89.5 -61t-110.5 -19q-83 0 -113 32.5t-18 104.5l49 274q12 72 53.5 104.5t125.5 32.5zM176 404l-47 -268q-6 -32 7 -44.5t56 -12.5q60 0 99 12.5t86 41.5
l48 274q-36 29 -71 41.5t-94 12.5q-44 0 -61.5 -12.5t-22.5 -44.5z" />
    <glyph glyph-name="Abreve" unicode="&#x102;" horiz-adv-x="648" 
d="M447 766h-72q-68 0 -56 69l9 53h63l-8 -48q-2 -10 0.5 -14t12.5 -4h49q11 0 15.5 4t5.5 14l8 48h63l-10 -53q-12 -69 -80 -69zM446 191h-270l-95 -191h-103l360 700h124l114 -700h-101zM433 279l-49 328l-164 -328h213z" />
    <glyph glyph-name="abreve" unicode="&#x103;" horiz-adv-x="564" 
d="M463 728l-10 -53q-12 -69 -80 -69h-72q-68 0 -56 69l9 53h63l-8 -48q-2 -10 0.5 -14t12.5 -4h49q11 0 15.5 4t5.5 14l8 48h63zM264 544q69 0 103.5 -19t67.5 -61l13 76h91l-95 -540h-91l14 76q-48 -42 -89.5 -61t-110.5 -19q-83 0 -113 32.5t-18 104.5l49 274
q12 72 53.5 104.5t125.5 32.5zM176 404l-47 -268q-6 -32 7 -44.5t56 -12.5q60 0 99 12.5t86 41.5l48 274q-36 29 -71 41.5t-94 12.5q-44 0 -61.5 -12.5t-22.5 -44.5z" />
    <glyph glyph-name="Aogonek" unicode="&#x104;" horiz-adv-x="648" 
d="M588 -110l-11 -61h-98q-49 0 -64 24.5t22 73.5l61 73h-23l-29 191h-270l-95 -191h-103l360 700h124l114 -700l-74 -90q-15 -20 6 -20h80zM433 279l-49 328l-164 -328h213z" />
    <glyph glyph-name="aogonek" unicode="&#x105;" horiz-adv-x="564" 
d="M444 0l-74 -90q-15 -20 6 -20h80l-11 -61h-98q-49 0 -64 24.5t22 73.5l61 73h-13l14 76q-48 -42 -89.5 -61t-110.5 -19q-83 0 -113 32.5t-18 104.5l49 274q12 72 53.5 104.5t125.5 32.5q69 0 103.5 -19t67.5 -61l13 76h91zM192 79q60 0 99 12.5t86 41.5l48 274
q-36 29 -71 41.5t-94 12.5q-44 0 -61.5 -12.5t-22.5 -44.5l-47 -268q-6 -32 7 -44.5t56 -12.5z" />
    <glyph glyph-name="Cacute" unicode="&#x106;" horiz-adv-x="617" 
d="M419 766h-78l113 144h124zM374 0h-214q-136 0 -112 140l74 420q24 140 161 140h214q137 0 113 -140l-16 -89h-96l15 86q5 30 -4.5 42.5t-38.5 12.5h-190q-29 0 -43.5 -12.5t-18.5 -42.5l-74 -414q-5 -30 4.5 -42.5t38.5 -12.5h191q29 0 43 12.5t19 42.5l15 86h96l-15 -89
q-26 -140 -162 -140z" />
    <glyph glyph-name="cacute" unicode="&#x107;" horiz-adv-x="519" 
d="M340 606h-78l113 144h124zM239 540h147q131 0 107 -134l-8 -47h-91l8 46q5 29 -4.5 41.5t-37.5 12.5h-123q-28 0 -42 -12.5t-19 -41.5l-48 -270q-5 -28 5 -41t38 -13h122q28 0 42.5 12.5t19.5 41.5l8 46h91l-8 -47q-24 -134 -155 -134h-147q-131 0 -107 134l48 272
q12 68 49.5 101t104.5 33z" />
    <glyph glyph-name="Cdotaccent" unicode="&#x10a;" horiz-adv-x="617" 
d="M457 766h-102l19 108h102zM374 0h-214q-136 0 -112 140l74 420q24 140 161 140h214q137 0 113 -140l-16 -89h-96l15 86q5 30 -4.5 42.5t-38.5 12.5h-190q-29 0 -43.5 -12.5t-18.5 -42.5l-74 -414q-5 -30 4.5 -42.5t38.5 -12.5h191q29 0 43 12.5t19 42.5l15 86h96l-15 -89
q-26 -140 -162 -140z" />
    <glyph glyph-name="cdotaccent" unicode="&#x10b;" horiz-adv-x="519" 
d="M378 606h-102l19 108h102zM239 540h147q131 0 107 -134l-8 -47h-91l8 46q5 29 -4.5 41.5t-37.5 12.5h-123q-28 0 -42 -12.5t-19 -41.5l-48 -270q-5 -28 5 -41t38 -13h122q28 0 42.5 12.5t19.5 41.5l8 46h91l-8 -47q-24 -134 -155 -134h-147q-131 0 -107 134l48 272
q12 68 49.5 101t104.5 33z" />
    <glyph glyph-name="Ccaron" unicode="&#x10c;" horiz-adv-x="617" 
d="M362 766h87l140 123h-93l-84 -75l-59 75h-87zM374 0h-214q-136 0 -112 140l74 420q24 140 161 140h214q137 0 113 -140l-16 -89h-96l15 86q5 30 -4.5 42.5t-38.5 12.5h-190q-29 0 -43.5 -12.5t-18.5 -42.5l-74 -414q-5 -30 4.5 -42.5t38.5 -12.5h191q29 0 43 12.5
t19 42.5l15 86h96l-15 -89q-26 -140 -162 -140z" />
    <glyph glyph-name="ccaron" unicode="&#x10d;" horiz-adv-x="519" 
d="M283 606h87l140 123h-93l-84 -75l-59 75h-87zM239 540h147q131 0 107 -134l-8 -47h-91l8 46q5 29 -4.5 41.5t-37.5 12.5h-123q-28 0 -42 -12.5t-19 -41.5l-48 -270q-5 -28 5 -41t38 -13h122q28 0 42.5 12.5t19.5 41.5l8 46h91l-8 -47q-24 -134 -155 -134h-147
q-131 0 -107 134l48 272q12 68 49.5 101t104.5 33z" />
    <glyph glyph-name="Dcaron" unicode="&#x10e;" horiz-adv-x="651" 
d="M373 766h87l140 123h-93l-84 -75l-59 75h-87zM164 700h355q136 0 112 -140l-74 -420q-25 -140 -161 -140h-355zM153 88h247q29 0 43 12.5t19 42.5l73 414q5 30 -4.5 42.5t-38.5 12.5h-247z" />
    <glyph glyph-name="dcaron" unicode="&#x10f;" horiz-adv-x="564" 
d="M264 544q69 0 103.5 -19t67.5 -61l47 266h91l-129 -730h-91l14 76q-48 -42 -89.5 -61t-110.5 -19q-83 0 -113 32.5t-18 104.5l49 274q12 72 53.5 104.5t125.5 32.5zM748 728l-15 -85q-4 -26 -14.5 -43t-42.5 -55l-58 -64h-45l89 127h-51l21 120h116zM176 404l-47 -268
q-6 -32 7 -44.5t56 -12.5q60 0 99 12.5t86 41.5l48 274q-36 29 -71 41.5t-94 12.5q-44 0 -61.5 -12.5t-22.5 -44.5z" />
    <glyph glyph-name="Dcroat" unicode="&#x110;" horiz-adv-x="649" 
d="M161 700h355q137 0 113 -140l-74 -420q-25 -140 -162 -140h-355l55 311h-81l16 92h81zM459 143l73 414q5 30 -4.5 42.5t-38.5 12.5h-247l-37 -209h82l-16 -92h-82l-39 -223h247q29 0 43 12.5t19 42.5z" />
    <glyph glyph-name="dcroat" unicode="&#x111;" horiz-adv-x="564" 
d="M599 585h-52l-103 -585h-91l14 76q-48 -42 -89.5 -61t-110.5 -19q-83 0 -113 32.5t-18 104.5l49 274q12 72 53.5 104.5t125.5 32.5q69 0 103.5 -19t67.5 -61l21 121h-100l11 65h101l14 80h91l-14 -80h51zM377 133l48 274q-36 29 -71 41.5t-94 12.5q-44 0 -61.5 -12.5
t-22.5 -44.5l-47 -268q-6 -32 7 -44.5t56 -12.5q60 0 99 12.5t86 41.5z" />
    <glyph glyph-name="Emacron" unicode="&#x112;" horiz-adv-x="585" 
d="M543 847l-14 -78h-258l14 78h258zM164 700h444l-15 -88h-348l-37 -210h290l-16 -88h-290l-39 -226h348l-16 -88h-444z" />
    <glyph glyph-name="emacron" unicode="&#x113;" horiz-adv-x="535" 
d="M456 609h-258l14 78h258zM239 540h155q132 0 108 -134l-28 -158h-325l-21 -117q-5 -29 4.5 -41.5t37.5 -12.5h131q28 0 42.5 12.5t19.5 41.5l7 40h91l-7 -37q-24 -134 -155 -134h-155q-131 0 -107 134l48 272q12 68 49.5 101t104.5 33zM395 316l16 93q5 29 -4.5 41.5
t-37.5 12.5h-131q-28 0 -42 -12.5t-19 -41.5l-16 -93h234z" />
    <glyph glyph-name="Edotaccent" unicode="&#x116;" horiz-adv-x="585" 
d="M453 766h-102l19 108h102zM164 700h444l-15 -88h-348l-37 -210h290l-16 -88h-290l-39 -226h348l-16 -88h-444z" />
    <glyph glyph-name="edotaccent" unicode="&#x117;" horiz-adv-x="535" 
d="M380 606h-102l19 108h102zM239 540h155q132 0 108 -134l-28 -158h-325l-21 -117q-5 -29 4.5 -41.5t37.5 -12.5h131q28 0 42.5 12.5t19.5 41.5l7 40h91l-7 -37q-24 -134 -155 -134h-155q-131 0 -107 134l48 272q12 68 49.5 101t104.5 33zM395 316l16 93q5 29 -4.5 41.5
t-37.5 12.5h-131q-28 0 -42 -12.5t-19 -41.5l-16 -93h234z" />
    <glyph glyph-name="Eogonek" unicode="&#x118;" horiz-adv-x="585" 
d="M245 612l-37 -210h290l-16 -88h-290l-39 -226h348l-16 -88l-74 -90q-15 -20 6 -20h80l-11 -61h-98q-49 0 -64 24.5t22 73.5l61 73h-366l123 700h444l-15 -88h-348z" />
    <glyph glyph-name="eogonek" unicode="&#x119;" horiz-adv-x="535" 
d="M239 540h155q132 0 108 -134l-28 -158h-325l-21 -117q-5 -29 4.5 -41.5t37.5 -12.5h131q28 0 42.5 12.5t19.5 41.5l7 40h91l-7 -37q-24 -134 -155 -134h-31l-74 -90q-15 -20 6 -20h80l-11 -61h-98q-49 0 -64 24.5t22 73.5l61 73h-46q-131 0 -107 134l48 272
q12 68 49.5 101t104.5 33zM395 316l16 93q5 29 -4.5 41.5t-37.5 12.5h-131q-28 0 -42 -12.5t-19 -41.5l-16 -93h234z" />
    <glyph glyph-name="Ecaron" unicode="&#x11a;" horiz-adv-x="585" 
d="M358 766h87l140 123h-93l-84 -75l-59 75h-87zM164 700h444l-15 -88h-348l-37 -210h290l-16 -88h-290l-39 -226h348l-16 -88h-444z" />
    <glyph glyph-name="ecaron" unicode="&#x11b;" horiz-adv-x="535" 
d="M285 606l-96 123h87l59 -75l84 75h93l-140 -123h-87zM239 540h155q132 0 108 -134l-28 -158h-325l-21 -117q-5 -29 4.5 -41.5t37.5 -12.5h131q28 0 42.5 12.5t19.5 41.5l7 40h91l-7 -37q-24 -134 -155 -134h-155q-131 0 -107 134l48 272q12 68 49.5 101t104.5 33z
M395 316l16 93q5 29 -4.5 41.5t-37.5 12.5h-131q-28 0 -42 -12.5t-19 -41.5l-16 -93h234z" />
    <glyph glyph-name="Gbreve" unicode="&#x11e;" horiz-adv-x="635" 
d="M531 888l-10 -53q-12 -69 -80 -69h-72q-68 0 -56 69l9 53h63l-8 -48q-2 -10 0.5 -14t12.5 -4h49q11 0 15.5 4t5.5 14l8 48h63zM508 485l13 72q5 30 -4.5 42.5t-38.5 12.5h-198q-29 0 -43 -12.5t-19 -42.5l-73 -414q-5 -30 4.5 -42.5t38.5 -12.5h198q29 0 43 12.5t19 42.5
l25 142h-162l15 86h258l-40 -231q-25 -140 -162 -140h-221q-137 0 -112 140l74 420q24 140 161 140h221q137 0 113 -140l-14 -75h-96z" />
    <glyph glyph-name="gbreve" unicode="&#x11f;" horiz-adv-x="565" 
d="M472 728l-10 -53q-12 -69 -80 -69h-72q-68 0 -56 69l9 53h63l-8 -48q-2 -10 0.5 -14t12.5 -4h49q11 0 15.5 4t5.5 14l8 48h63zM539 540l-99 -566q-24 -134 -155 -134h-239l13 77h227q28 0 42.5 12.5t19.5 41.5l22 122q-49 -42 -90 -61t-110 -19q-83 0 -113 33t-18 105
l45 256q13 72 54.5 104.5t125.5 32.5q68 0 102.5 -19t68.5 -61l13 76h91zM177 407l-46 -257q-5 -30 8 -42t57 -12q58 0 97.5 12.5t86.5 41.5l46 257q-38 29 -72.5 41.5t-93.5 12.5q-43 0 -60.5 -12t-22.5 -42z" />
    <glyph glyph-name="Gdotaccent" unicode="&#x120;" horiz-adv-x="635" 
d="M457 766h-102l19 108h102zM508 485l13 72q5 30 -4.5 42.5t-38.5 12.5h-198q-29 0 -43 -12.5t-19 -42.5l-73 -414q-5 -30 4.5 -42.5t38.5 -12.5h198q29 0 43 12.5t19 42.5l25 142h-162l15 86h258l-40 -231q-25 -140 -162 -140h-221q-137 0 -112 140l74 420q24 140 161 140
h221q137 0 113 -140l-14 -75h-96z" />
    <glyph glyph-name="gdotaccent" unicode="&#x121;" horiz-adv-x="565" 
d="M398 606h-102l19 108h102zM539 540l-99 -566q-24 -134 -155 -134h-239l13 77h227q28 0 42.5 12.5t19.5 41.5l22 122q-49 -42 -90 -61t-110 -19q-83 0 -113 33t-18 105l45 256q13 72 54.5 104.5t125.5 32.5q68 0 102.5 -19t68.5 -61l13 76h91zM177 407l-46 -257
q-5 -30 8 -42t57 -12q58 0 97.5 12.5t86.5 41.5l46 257q-38 29 -72.5 41.5t-93.5 12.5q-43 0 -60.5 -12t-22.5 -42z" />
    <glyph glyph-name="Gcommaaccent" unicode="&#x122;" horiz-adv-x="635" 
d="M508 485l13 72q5 30 -4.5 42.5t-38.5 12.5h-198q-29 0 -43 -12.5t-19 -42.5l-73 -414q-5 -30 4.5 -42.5t38.5 -12.5h198q29 0 43 12.5t19 42.5l25 142h-162l15 86h258l-40 -231q-25 -140 -162 -140h-221q-137 0 -112 140l74 420q24 140 161 140h221q137 0 113 -140
l-14 -75h-96zM310 -70l-15 -89q-2 -9 -9 -21.5t-13 -21t-18.5 -24.5t-15.5 -21l-50 -64h-47l87 127h-44l21 114h104z" />
    <glyph glyph-name="gcommaaccent" unicode="&#x123;" horiz-adv-x="565" 
d="M296 610l15 89q2 9 9 21.5t13 21t18.5 24.5t15.5 21l50 64h47l-87 -127h44l-21 -114h-104zM539 540l-99 -566q-24 -134 -155 -134h-239l13 77h227q28 0 42.5 12.5t19.5 41.5l22 122q-49 -42 -90 -61t-110 -19q-83 0 -113 33t-18 105l45 256q13 72 54.5 104.5t125.5 32.5
q68 0 102.5 -19t68.5 -61l13 76h91zM177 407l-46 -257q-5 -30 8 -42t57 -12q58 0 97.5 12.5t86.5 41.5l46 257q-38 29 -72.5 41.5t-93.5 12.5q-43 0 -60.5 -12t-22.5 -42z" />
    <glyph glyph-name="Hbar" unicode="&#x126;" horiz-adv-x="682" 
d="M700 526h-63l-92 -526h-96l57 325h-311l-57 -325h-96l92 526h-61l12 70h62l19 111h96l-19 -111h311l19 111h96l-19 -111h63zM542 526h-311l-20 -113h311z" />
    <glyph glyph-name="hbar" unicode="&#x127;" 
d="M392 545q78 0 107 -32.5t16 -102.5l-72 -410h-91l72 407q5 31 -7 43t-50 12q-55 0 -93.5 -12.5t-84.5 -41.5l-73 -408h-91l103 585h-51l11 65h52l14 80h91l-14 -80h100l-11 -65h-101l-21 -120q48 42 88.5 61t105.5 19z" />
    <glyph glyph-name="Imacron" unicode="&#x12a;" horiz-adv-x="273" 
d="M365 847l-14 -78h-258l14 78h258zM41 0l123 700h96l-123 -700h-96z" />
    <glyph glyph-name="imacron" unicode="&#x12b;" horiz-adv-x="244" 
d="M326 690l-14 -78h-258l14 78h258zM215 540l-95 -540h-91l95 540h91z" />
    <glyph glyph-name="Iogonek" unicode="&#x12e;" horiz-adv-x="273" 
d="M137 0l-74 -90q-15 -20 6 -20h80l-11 -61h-98q-49 0 -64 24.5t22 73.5l61 73h-18l123 700h96z" />
    <glyph glyph-name="iogonek" unicode="&#x12f;" horiz-adv-x="244" 
d="M251 717l-17 -102h-101l18 102h100zM120 0l-74 -90q-15 -20 6 -20h80l-11 -61h-98q-49 0 -64 24.5t22 73.5l61 73h-13l95 540h91z" />
    <glyph glyph-name="Idotaccent" unicode="&#x130;" horiz-adv-x="273" 
d="M275 766h-102l19 108h102zM41 0l123 700h96l-123 -700h-96z" />
    <glyph glyph-name="IJ" unicode="&#x132;" horiz-adv-x="832" 
d="M41 0l123 700h96l-123 -700h-96zM828 700l-98 -560q-25 -140 -162 -140h-170q-137 0 -112 140l21 127h96l-21 -124q-5 -30 4.5 -42.5t38.5 -12.5h147q29 0 43 12.5t19 42.5l98 557h96z" />
    <glyph glyph-name="ij" unicode="&#x133;" horiz-adv-x="504" 
d="M234 615h-101l18 102h100zM494 615h-101l18 102h100zM215 540l-95 -540h-91l95 540h91zM475 540l-100 -563q-10 -60 -47 -90t-108 -44l-71 -14l11 65l63 26q55 19 62 58l98 562h92z" />
    <glyph glyph-name="Kcommaaccent" unicode="&#x136;" horiz-adv-x="632" 
d="M405 420l179 -420h-105l-147 348l-162 -159l-34 -189h-95l123 700h95l-66 -378l376 378h120zM218 -70h104l-15 -89q-2 -9 -9 -21.5t-13 -21t-18.5 -24.5t-15.5 -21l-50 -64h-47l87 127h-44z" />
    <glyph glyph-name="kcommaaccent" unicode="&#x137;" horiz-adv-x="518" 
d="M330 334l124 -334h-96l-94 268l-123 -123l-25 -145h-91l129 730h91l-83 -466l263 276h111zM160 -70h104l-15 -89q-2 -9 -9 -21.5t-13 -21t-18.5 -24.5t-15.5 -21l-50 -64h-47l87 127h-44z" />
    <glyph glyph-name="Lacute" unicode="&#x139;" horiz-adv-x="544" 
d="M237 766h-78l113 144h124zM164 700h96l-107 -612h323l-16 -88h-419z" />
    <glyph glyph-name="lacute" unicode="&#x13a;" horiz-adv-x="242" 
d="M228 796h-78l113 144h124zM157 730h91l-129 -730h-91z" />
    <glyph glyph-name="Lcommaaccent" unicode="&#x13b;" horiz-adv-x="544" 
d="M164 700h96l-107 -612h323l-16 -88h-419zM296 -70l-15 -89q-2 -9 -9 -21.5t-13 -21t-18.5 -24.5t-15.5 -21l-50 -64h-47l87 127h-44l21 114h104z" />
    <glyph glyph-name="lcommaaccent" unicode="&#x13c;" horiz-adv-x="242" 
d="M157 730h91l-129 -730h-91zM113 -70l-15 -89q-2 -9 -9 -21.5t-13 -21t-18.5 -24.5t-15.5 -21l-50 -64h-47l87 127h-44l21 114h104z" />
    <glyph glyph-name="Lcaron" unicode="&#x13d;" horiz-adv-x="544" 
d="M469 706l-15 -85q-4 -26 -14.5 -43t-42.5 -55l-59 -64h-45l90 127h-51l21 120h116zM164 700h96l-107 -612h323l-16 -88h-419z" />
    <glyph glyph-name="lcaron" unicode="&#x13e;" horiz-adv-x="353" 
d="M157 730h91l-129 -730h-91zM424 730l-16 -89q-4 -21 -56 -88l-50 -64h-47l87 127h-44l21 114h105z" />
    <glyph glyph-name="Ldot" unicode="&#x13f;" horiz-adv-x="544" 
d="M164 700h96l-107 -612h323l-16 -88h-419zM468 313h-116l21 120h117z" />
    <glyph glyph-name="ldot" unicode="&#x140;" horiz-adv-x="364" 
d="M157 730h91l-129 -730h-91zM363 338h-104l20 114h104z" />
    <glyph glyph-name="Lslash" unicode="&#x141;" horiz-adv-x="544" 
d="M476 88l-16 -88h-419l57 325l-69 -26l16 90l69 26l54 305h95l-47 -266l138 52l-16 -90l-138 -52l-48 -276h324z" />
    <glyph glyph-name="lslash" unicode="&#x142;" horiz-adv-x="306" 
d="M318 407l-102 -40l-65 -367h-91l58 329l-103 -40l16 91l103 40l55 310h91l-48 -272l102 39z" />
    <glyph glyph-name="Nacute" unicode="&#x143;" horiz-adv-x="697" 
d="M449 766h-78l113 144h124zM592 700h92l-123 -700h-92l-238 556l-98 -556h-92l123 700h99l234 -545z" />
    <glyph glyph-name="nacute" unicode="&#x144;" 
d="M353 606h-78l113 144h124zM211 540l-13 -75q49 42 89 61t104 19q79 0 108 -32.5t16 -102.5l-72 -410h-90l72 407q5 31 -7 43t-51 12q-55 0 -93.5 -12.5t-84.5 -41.5l-73 -408h-91l95 540h91z" />
    <glyph glyph-name="Ncommaaccent" unicode="&#x145;" horiz-adv-x="697" 
d="M592 700h92l-123 -700h-92l-238 556l-98 -556h-92l123 700h99l234 -545zM340 -70l-15 -89q-2 -9 -9 -21.5t-13 -21t-18.5 -24.5t-15.5 -21l-50 -64h-47l87 127h-44l21 114h104z" />
    <glyph glyph-name="ncommaaccent" unicode="&#x146;" 
d="M211 540l-13 -75q49 42 89 61t104 19q79 0 108 -32.5t16 -102.5l-72 -410h-90l72 407q5 31 -7 43t-51 12q-55 0 -93.5 -12.5t-84.5 -41.5l-73 -408h-91l95 540h91zM271 -70l-15 -89q-2 -9 -9 -21.5t-13 -21t-18.5 -24.5t-15.5 -21l-50 -64h-47l87 127h-44l21 114h104z
" />
    <glyph glyph-name="Ncaron" unicode="&#x147;" horiz-adv-x="697" 
d="M392 766h87l140 123h-93l-84 -75l-59 75h-87zM592 700h92l-123 -700h-92l-238 556l-98 -556h-92l123 700h99l234 -545z" />
    <glyph glyph-name="ncaron" unicode="&#x148;" 
d="M296 606h87l140 123h-93l-84 -75l-59 75h-87zM211 540l-13 -75q49 42 89 61t104 19q79 0 108 -32.5t16 -102.5l-72 -410h-90l72 407q5 31 -7 43t-51 12q-55 0 -93.5 -12.5t-84.5 -41.5l-73 -408h-91l95 540h91z" />
    <glyph glyph-name="Eng" unicode="&#x14a;" horiz-adv-x="695" 
d="M683 700l-127 -720q-24 -140 -161 -140h-86l14 84h85q29 0 43 12.5t19 42.5l3 20l-244 559l-99 -558h-89l123 700h96l239 -540l95 540h89z" />
    <glyph glyph-name="eng" unicode="&#x14b;" 
d="M391 545q79 0 108 -32.5t16 -102.5l-76 -436q-25 -134 -155 -134h-78l15 81h67q51 0 60 53l77 433q5 31 -7 43t-51 12q-55 0 -93.5 -12.5t-84.5 -41.5l-73 -408h-91l95 540h91l-13 -75q49 42 89 61t104 19z" />
    <glyph glyph-name="Omacron" unicode="&#x14c;" horiz-adv-x="645" 
d="M552 847l-14 -78h-258l14 78h258zM391 0h-230q-137 0 -112 140l74 420q24 140 161 140h230q136 0 112 -140l-74 -420q-25 -140 -161 -140zM218 557l-73 -414q-5 -30 4.5 -42.5t38.5 -12.5h207q28 0 42 12.5t19 42.5l73 414q5 30 -4.5 42.5t-37.5 12.5h-207
q-29 0 -43 -12.5t-19 -42.5z" />
    <glyph glyph-name="omacron" unicode="&#x14d;" horiz-adv-x="545" 
d="M474 687l-14 -78h-258l14 78h258zM239 540h162q131 0 107 -134l-47 -272q-24 -134 -155 -134h-162q-131 0 -107 134l48 272q12 68 49.5 101t104.5 33zM369 135l48 270q5 29 -5 41.5t-38 12.5h-137q-28 0 -42 -12.5t-19 -41.5l-48 -270q-5 -29 4.5 -41.5t37.5 -12.5h138
q28 0 42 12.5t19 41.5z" />
    <glyph glyph-name="Ohungarumlaut" unicode="&#x150;" horiz-adv-x="645" 
d="M492 911l-138 -145h-95l139 145h94zM649 911l-139 -145h-95l139 145h95zM391 0h-230q-137 0 -112 140l74 420q24 140 161 140h230q136 0 112 -140l-74 -420q-25 -140 -161 -140zM218 557l-73 -414q-5 -30 4.5 -42.5t38.5 -12.5h207q28 0 42 12.5t19 42.5l73 414
q5 30 -4.5 42.5t-37.5 12.5h-207q-29 0 -43 -12.5t-19 -42.5z" />
    <glyph glyph-name="ohungarumlaut" unicode="&#x151;" horiz-adv-x="545" 
d="M414 751l-138 -145h-95l139 145h94zM571 751l-139 -145h-95l139 145h95zM239 540h162q131 0 107 -134l-47 -272q-24 -134 -155 -134h-162q-131 0 -107 134l48 272q12 68 49.5 101t104.5 33zM369 135l48 270q5 29 -5 41.5t-38 12.5h-137q-28 0 -42 -12.5t-19 -41.5
l-48 -270q-5 -29 4.5 -41.5t37.5 -12.5h138q28 0 42 12.5t19 41.5z" />
    <glyph glyph-name="OE" unicode="&#x152;" horiz-adv-x="971" 
d="M884 402l-16 -88h-290l-39 -226h348l-15 -88h-711q-137 0 -112 140l74 420q24 140 161 140h711l-15 -88h-349l-37 -210h290zM535 612h-255q-29 0 -43 -12.5t-19 -42.5l-73 -414q-5 -30 4.5 -42.5t38.5 -12.5h255z" />
    <glyph glyph-name="oe" unicode="&#x153;" horiz-adv-x="868" 
d="M481 248l-20 -117q-5 -29 4.5 -41.5t37.5 -12.5h132q28 0 42 12.5t19 41.5l7 40h91l-7 -37q-12 -68 -49.5 -101t-104.5 -33h-151q-62 0 -83 40q-34 -40 -97 -40h-158q-131 0 -107 134l48 272q12 68 49.5 101t104.5 33h158q64 0 83 -40q36 40 97 40h151q131 0 107 -134
l-28 -158h-326zM728 316l17 93q5 29 -5 41.5t-38 12.5h-131q-28 0 -42.5 -12.5t-19.5 -41.5l-16 -93h235zM369 135l48 270q5 29 -5 41.5t-38 12.5h-137q-28 0 -42 -12.5t-19 -41.5l-48 -270q-5 -29 4.5 -41.5t37.5 -12.5h138q28 0 42 12.5t19 41.5z" />
    <glyph glyph-name="Racute" unicode="&#x154;" horiz-adv-x="643" 
d="M420 766h-78l113 144h124zM164 700h345q137 0 113 -140l-26 -144q-24 -130 -142 -139l91 -277h-101l-91 275h-167l-49 -275h-96zM500 416l25 142q5 30 -4.5 42.5t-37.5 12.5h-238l-44 -251h237q28 0 42.5 12.5t19.5 41.5z" />
    <glyph glyph-name="racute" unicode="&#x155;" horiz-adv-x="391" 
d="M285 606h-78l113 144h124zM398 453h-48q-69 0 -163 -53l-71 -400h-91l95 540h91l-14 -80q31 26 52 40.5t54.5 27t69.5 12.5h40z" />
    <glyph glyph-name="Rcommaaccent" unicode="&#x156;" horiz-adv-x="643" 
d="M164 700h345q137 0 113 -140l-26 -144q-24 -130 -142 -139l91 -277h-101l-91 275h-167l-49 -275h-96zM500 416l25 142q5 30 -4.5 42.5t-37.5 12.5h-238l-44 -251h237q28 0 42.5 12.5t19.5 41.5zM214 -70h104l-15 -89q-2 -9 -9 -21.5t-13 -21t-18.5 -24.5t-15.5 -21
l-50 -64h-47l87 127h-44z" />
    <glyph glyph-name="rcommaaccent" unicode="&#x157;" horiz-adv-x="391" 
d="M398 453h-48q-69 0 -163 -53l-71 -400h-91l95 540h91l-14 -80q31 26 52 40.5t54.5 27t69.5 12.5h40zM109 -70l-15 -89q-2 -9 -9 -21.5t-13 -21t-18.5 -24.5t-15.5 -21l-50 -64h-47l87 127h-44l21 114h104z" />
    <glyph glyph-name="Rcaron" unicode="&#x158;" horiz-adv-x="643" 
d="M363 766l-96 123h87l59 -75l84 75h93l-140 -123h-87zM164 700h345q137 0 113 -140l-26 -144q-24 -130 -142 -139l91 -277h-101l-91 275h-167l-49 -275h-96zM500 416l25 142q5 30 -4.5 42.5t-37.5 12.5h-238l-44 -251h237q28 0 42.5 12.5t19.5 41.5z" />
    <glyph glyph-name="rcaron" unicode="&#x159;" horiz-adv-x="391" 
d="M228 606h87l140 123h-93l-84 -75l-59 75h-87zM398 453h-48q-69 0 -163 -53l-71 -400h-91l95 540h91l-14 -80q31 26 52 40.5t54.5 27t69.5 12.5h40z" />
    <glyph glyph-name="Sacute" unicode="&#x15a;" horiz-adv-x="612" 
d="M406 766h-78l113 144h124zM482 491l13 70q5 29 -4.5 41.5t-38.5 12.5h-177q-28 0 -42.5 -12.5t-19.5 -41.5l-14 -77q-6 -32 5 -46t41 -21l182 -39q67 -14 97.5 -43.5t18.5 -98.5l-17 -96q-25 -140 -162 -140h-211q-137 0 -112 140l13 77h95l-14 -78q-5 -29 4.5 -41.5
t38.5 -12.5h190q28 0 42.5 12.5t19.5 41.5l15 88q6 33 -4.5 46.5t-41.5 20.5l-181 39q-67 15 -97.5 44.5t-18.5 97.5l15 85q24 140 161 140h199q137 0 113 -140l-13 -69h-95z" />
    <glyph glyph-name="sacute" unicode="&#x15b;" horiz-adv-x="509" 
d="M326 606h-78l113 144h124zM379 381l3 21q7 33 -3 47t-38 14h-110q-28 0 -43 -16.5t-22 -56.5q-6 -36 2.5 -48.5t35.5 -16.5l149 -22q59 -9 80 -39.5t9 -102.5q-15 -87 -53.5 -124t-106.5 -37h-151q-67 0 -92.5 35t-11.5 112l3 21h90l-5 -23q-7 -38 2.5 -53t37.5 -15h130
q28 0 43 18t23 64q7 41 -1.5 54.5t-35.5 17.5l-148 22q-60 9 -81 38.5t-9 95.5q14 81 51.5 117t105.5 36h132q67 0 93 -34t13 -107l-3 -18h-89z" />
    <glyph glyph-name="Scedilla" unicode="&#x15e;" horiz-adv-x="612" 
d="M278 700h199q137 0 113 -140l-13 -69h-95l13 70q5 29 -4.5 41.5t-38.5 12.5h-177q-28 0 -42.5 -12.5t-19.5 -41.5l-14 -77q-6 -32 5 -46t41 -21l182 -39q67 -14 97.5 -43.5t18.5 -98.5l-17 -96q-25 -140 -162 -140h-48l-10 -55q-10 -55 -30.5 -73.5t-73.5 -18.5h-65
l-32 62h89q19 0 26 6.5t10 24.5l10 54h-87q-137 0 -112 140l13 77h95l-14 -78q-5 -29 4.5 -41.5t38.5 -12.5h190q28 0 42.5 12.5t19.5 41.5l15 88q6 33 -4.5 46.5t-41.5 20.5l-181 39q-67 15 -97.5 44.5t-18.5 97.5l15 85q24 140 161 140z" />
    <glyph glyph-name="scedilla" unicode="&#x15f;" horiz-adv-x="509" 
d="M233 540h132q67 0 93 -34t13 -107l-3 -18h-89l3 21q7 33 -3 47t-38 14h-110q-28 0 -43 -16.5t-22 -56.5q-6 -36 2.5 -48.5t35.5 -16.5l149 -22q59 -9 80 -39.5t9 -102.5q-15 -87 -53.5 -124t-106.5 -37h-23l-10 -55q-10 -55 -30.5 -73.5t-73.5 -18.5h-65l-32 62h89
q19 0 26 6.5t10 24.5l10 54h-52q-67 0 -92.5 35t-11.5 112l3 21h90l-5 -23q-7 -38 2.5 -53t37.5 -15h130q28 0 43 18t23 64q7 41 -1.5 54.5t-35.5 17.5l-148 22q-60 9 -81 38.5t-9 95.5q14 81 51.5 117t105.5 36z" />
    <glyph glyph-name="Scaron" unicode="&#x160;" horiz-adv-x="612" 
d="M349 766h87l140 123h-93l-84 -75l-59 75h-87zM482 491l13 70q5 29 -4.5 41.5t-38.5 12.5h-177q-28 0 -42.5 -12.5t-19.5 -41.5l-14 -77q-6 -32 5 -46t41 -21l182 -39q67 -14 97.5 -43.5t18.5 -98.5l-17 -96q-25 -140 -162 -140h-211q-137 0 -112 140l13 77h95l-14 -78
q-5 -29 4.5 -41.5t38.5 -12.5h190q28 0 42.5 12.5t19.5 41.5l15 88q6 33 -4.5 46.5t-41.5 20.5l-181 39q-67 15 -97.5 44.5t-18.5 97.5l15 85q24 140 161 140h199q137 0 113 -140l-13 -69h-95z" />
    <glyph glyph-name="scaron" unicode="&#x161;" horiz-adv-x="509" 
d="M269 606h87l140 123h-93l-84 -75l-59 75h-87zM379 381l3 21q7 33 -3 47t-38 14h-110q-28 0 -43 -16.5t-22 -56.5q-6 -36 2.5 -48.5t35.5 -16.5l149 -22q59 -9 80 -39.5t9 -102.5q-15 -87 -53.5 -124t-106.5 -37h-151q-67 0 -92.5 35t-11.5 112l3 21h90l-5 -23
q-7 -38 2.5 -53t37.5 -15h130q28 0 43 18t23 64q7 41 -1.5 54.5t-35.5 17.5l-148 22q-60 9 -81 38.5t-9 95.5q14 81 51.5 117t105.5 36h132q67 0 93 -34t13 -107l-3 -18h-89z" />
    <glyph glyph-name="Tcedilla" unicode="&#x162;" 
d="M604 700l-15 -87h-201l-109 -613l-10 -55q-10 -55 -30.5 -73.5t-73.5 -18.5h-65l-32 62h89q19 0 26 6.5t10 24.5l10 54h-20l109 613h-202l15 87h499z" />
    <glyph glyph-name="tcedilla" unicode="&#x163;" horiz-adv-x="353" 
d="M229 463l-59 -330q-5 -29 5 -41.5t38 -12.5h74l-14 -79l-10 -55q-10 -55 -30.5 -73.5t-73.5 -18.5h-65l-32 62h89q19 0 26 6.5t10 24.5l10 54h-10q-132 0 -108 134l58 329h-78l13 77h79l23 130h90l-23 -130h127l-14 -77h-125z" />
    <glyph glyph-name="Tcaron" unicode="&#x164;" 
d="M322 766h87l140 123h-93l-84 -75l-59 75h-87zM589 613h-201l-109 -613h-96l109 613h-202l15 87h499z" />
    <glyph glyph-name="tcaron" unicode="&#x165;" horiz-adv-x="353" 
d="M470 830l-15 -85q-4 -26 -14.5 -43t-42.5 -55l-58 -64h-45l89 127h-51l21 120h116zM229 463l-59 -330q-5 -29 5 -41.5t38 -12.5h74l-14 -79h-86q-132 0 -108 134l58 329h-78l13 77h79l23 130h90l-23 -130h127l-14 -77h-125z" />
    <glyph glyph-name="Tbar" unicode="&#x166;" 
d="M507 847l-14 -78h-258l14 78h258zM589 613h-201l-109 -613h-96l109 613h-202l15 87h499z" />
    <glyph glyph-name="tbar" unicode="&#x167;" horiz-adv-x="353" 
d="M229 463l-22 -125h105l-14 -78h-105l-23 -127q-5 -29 5 -41.5t38 -12.5h74l-14 -79h-86q-132 0 -108 134l22 126h-61l14 78h61l22 125h-78l13 77h79l23 130h90l-23 -130h127l-14 -77h-125z" />
    <glyph glyph-name="Umacron" unicode="&#x16a;" horiz-adv-x="651" 
d="M553 847l-14 -78h-258l14 78h258zM647 700l-98 -560q-25 -140 -162 -140h-218q-137 0 -112 140l98 560h96l-98 -557q-5 -30 4.5 -42.5t38.5 -12.5h195q29 0 43 12.5t19 42.5l98 557h96z" />
    <glyph glyph-name="umacron" unicode="&#x16b;" 
d="M474 687l-14 -78h-258l14 78h258zM347 0l13 75q-48 -42 -88.5 -61t-104.5 -19q-79 0 -108 32.5t-17 102.5l72 410h92l-72 -407q-5 -31 6.5 -43t51.5 -12q55 0 93 12.5t86 41.5l71 408h91l-95 -540h-91z" />
    <glyph glyph-name="Uring" unicode="&#x16e;" horiz-adv-x="651" 
d="M440 766h-58q-32 0 -43 14t-5 46l7 45q6 32 22 46t48 14h59q31 0 42 -14t5 -46l-7 -45q-6 -32 -22 -46t-48 -14zM458 885h-50q-11 0 -12 -11l-10 -51q-1 -6 0.5 -8t7.5 -2h51q11 0 13 10l9 51q1 7 -0.5 9t-8.5 2zM647 700l-98 -560q-25 -140 -162 -140h-218
q-137 0 -112 140l98 560h96l-98 -557q-5 -30 4.5 -42.5t38.5 -12.5h195q29 0 43 12.5t19 42.5l98 557h96z" />
    <glyph glyph-name="uring" unicode="&#x16f;" 
d="M361 606h-58q-32 0 -43 14t-5 46l7 45q6 32 22 46t48 14h59q31 0 42 -14t5 -46l-7 -45q-6 -32 -22 -46t-48 -14zM379 725h-50q-11 0 -12 -11l-10 -51q-1 -6 0.5 -8t7.5 -2h51q10 0 13 10l9 51q1 7 -0.5 9t-8.5 2zM347 0l13 75q-48 -42 -88.5 -61t-104.5 -19
q-79 0 -108 32.5t-17 102.5l72 410h92l-72 -407q-5 -31 6.5 -43t51.5 -12q55 0 93 12.5t86 41.5l71 408h91l-95 -540h-91z" />
    <glyph glyph-name="Uhungarumlaut" unicode="&#x170;" horiz-adv-x="651" 
d="M493 911l-138 -145h-95l139 145h94zM650 911l-139 -145h-95l139 145h95zM647 700l-98 -560q-25 -140 -162 -140h-218q-137 0 -112 140l98 560h96l-98 -557q-5 -30 4.5 -42.5t38.5 -12.5h195q29 0 43 12.5t19 42.5l98 557h96z" />
    <glyph glyph-name="uhungarumlaut" unicode="&#x171;" 
d="M414 751l-138 -145h-95l139 145h94zM571 751l-139 -145h-95l139 145h95zM347 0l13 75q-48 -42 -88.5 -61t-104.5 -19q-79 0 -108 32.5t-17 102.5l72 410h92l-72 -407q-5 -31 6.5 -43t51.5 -12q55 0 93 12.5t86 41.5l71 408h91l-95 -540h-91z" />
    <glyph glyph-name="Uogonek" unicode="&#x172;" horiz-adv-x="651" 
d="M647 700l-98 -560q-25 -140 -162 -140h-59l-74 -90q-15 -20 6 -20h80l-11 -61h-98q-49 0 -64 24.5t22 73.5l61 73h-81q-137 0 -112 140l98 560h96l-98 -557q-5 -30 4.5 -42.5t38.5 -12.5h195q29 0 43 12.5t19 42.5l98 557h96z" />
    <glyph glyph-name="uogonek" unicode="&#x173;" 
d="M438 0l-74 -90q-15 -20 6 -20h80l-11 -61h-98q-49 0 -64 24.5t22 73.5l61 73h-13l13 75q-48 -42 -88.5 -61t-104.5 -19q-79 0 -108 32.5t-17 102.5l72 410h92l-72 -407q-5 -31 6.5 -43t51.5 -12q55 0 93 12.5t86 41.5l71 408h91z" />
    <glyph glyph-name="Wcircumflex" unicode="&#x174;" horiz-adv-x="902" 
d="M471 766l86 76l58 -76h87l-96 123h-88l-139 -123h92zM648 0h-100l-47 543l-239 -543h-104l-57 700h99l30 -577l252 577h86l50 -577l233 577h101z" />
    <glyph glyph-name="wcircumflex" unicode="&#x175;" horiz-adv-x="746" 
d="M365 606l86 76l58 -76h87l-96 123h-88l-139 -123h92zM538 0h-98l-38 427l-188 -427h-99l-50 540h93l21 -444l196 444h88l41 -444l177 444h94z" />
    <glyph glyph-name="Ycircumflex" unicode="&#x176;" horiz-adv-x="595" 
d="M317 766l86 76l58 -76h87l-96 123h-88l-139 -123h92zM298 0h-96l44 245l-157 455h99l119 -357l245 357h106l-316 -455z" />
    <glyph glyph-name="ycircumflex" unicode="&#x177;" horiz-adv-x="508" 
d="M249 606l86 76l58 -76h87l-96 123h-88l-139 -123h92zM537 540l-374 -700h-91l86 160l-93 540h92l63 -436l221 436h96z" />
    <glyph glyph-name="Ydieresis" unicode="&#x178;" horiz-adv-x="595" 
d="M347 766h-100l20 112h100zM524 766h-100l20 112h100zM298 0h-96l44 245l-157 455h99l119 -357l245 357h106l-316 -455z" />
    <glyph glyph-name="Zacute" unicode="&#x179;" horiz-adv-x="587" 
d="M404 766h-78l113 144h124zM19 71l457 543h-343l14 86h462l-13 -71l-456 -543h359l-15 -86h-477z" />
    <glyph glyph-name="zacute" unicode="&#x17a;" horiz-adv-x="458" 
d="M309 606h-78l113 144h124zM0 61l338 402h-255l14 77h369l-10 -60l-339 -403h268l-13 -77h-382z" />
    <glyph glyph-name="Zdotaccent" unicode="&#x17b;" horiz-adv-x="587" 
d="M442 766h-102l19 108h102zM19 71l457 543h-343l14 86h462l-13 -71l-456 -543h359l-15 -86h-477z" />
    <glyph glyph-name="zdotaccent" unicode="&#x17c;" horiz-adv-x="458" 
d="M347 606h-102l19 108h102zM0 61l338 402h-255l14 77h369l-10 -60l-339 -403h268l-13 -77h-382z" />
    <glyph glyph-name="Zcaron" unicode="&#x17d;" horiz-adv-x="587" 
d="M347 766h87l140 123h-93l-84 -75l-59 75h-87zM19 71l457 543h-343l14 86h462l-13 -71l-456 -543h359l-15 -86h-477z" />
    <glyph glyph-name="zcaron" unicode="&#x17e;" horiz-adv-x="458" 
d="M252 606h87l140 123h-93l-84 -75l-59 75h-87zM0 61l338 402h-255l14 77h369l-10 -60l-339 -403h268l-13 -77h-382z" />
    <glyph glyph-name="florin" unicode="&#x192;" horiz-adv-x="418" 
d="M445 612h-88q-29 0 -43 -12.5t-19 -42.5l-21 -121h130l-14 -83h-131l-37 -213q-25 -140 -162 -140h-74l16 88h62q29 0 43 12.5t19 42.5l37 210h-108l15 83h108l22 124q24 140 161 140h99z" />
    <glyph glyph-name="circumflex" unicode="&#x2c6;" horiz-adv-x="647" 
d="M342 766l86 76l58 -76h87l-96 123h-88l-139 -123h92z" />
    <glyph glyph-name="caron" unicode="&#x2c7;" horiz-adv-x="647" 
d="M367 766h87l140 123h-93l-84 -75l-59 75h-87z" />
    <glyph glyph-name="breve" unicode="&#x2d8;" horiz-adv-x="606" 
d="M516 888l-10 -53q-12 -69 -80 -69h-72q-68 0 -56 69l9 53h63l-8 -48q-2 -10 0.5 -14t12.5 -4h49q11 0 15.5 4t5.5 14l8 48h63z" />
    <glyph glyph-name="dotaccent" unicode="&#x2d9;" horiz-adv-x="449" 
d="M363 766h-102l19 108h102z" />
    <glyph glyph-name="ring" unicode="&#x2da;" horiz-adv-x="338" 
d="M285 766h-58q-32 0 -43 14t-5 46l7 45q6 32 22 46t48 14h59q31 0 42 -14t5 -46l-7 -45q-6 -32 -22 -46t-48 -14zM303 885h-50q-11 0 -12 -11l-10 -51q-1 -6 0.5 -8t7.5 -2h51q10 0 13 10l9 51q1 7 -0.5 9t-8.5 2z" />
    <glyph glyph-name="ogonek" unicode="&#x2db;" horiz-adv-x="380" 
d="M196 0l-74 -90q-15 -20 6 -20h80l-11 -61h-98q-49 0 -64 24.5t22 73.5l61 73h78z" />
    <glyph glyph-name="tilde" unicode="&#x2dc;" horiz-adv-x="598" 
d="M290 769l5 23q4 29 33 29q21 0 59.5 -29.5t72.5 -29.5q83 0 100 97l3 23h-61l-4 -23q-5 -29 -33 -29q-22 0 -59 29.5t-70 29.5q-85 0 -102 -97l-4 -23h60z" />
    <glyph glyph-name="hungarumlaut" unicode="&#x2dd;" horiz-adv-x="736" 
d="M507 911l-138 -145h-95l139 145h94zM664 911l-139 -145h-95l139 145h95z" />
    <glyph glyph-name="uni0326" unicode="&#x326;" horiz-adv-x="0" 
d="M167 -70l-15 -89q-2 -9 -9 -21.5t-13 -21t-18.5 -24.5t-15.5 -21l-50 -64h-47l87 127h-44l21 114h104z" />
    <glyph glyph-name="Wgrave" unicode="&#x1e80;" horiz-adv-x="902" 
d="M530 766h70l-63 144h-116zM648 0h-100l-47 543l-239 -543h-104l-57 700h99l30 -577l252 577h86l50 -577l233 577h101z" />
    <glyph glyph-name="wgrave" unicode="&#x1e81;" horiz-adv-x="746" 
d="M424 606h70l-63 144h-116zM538 0h-98l-38 427l-188 -427h-99l-50 540h93l21 -444l196 444h88l41 -444l177 444h94z" />
    <glyph glyph-name="Wacute" unicode="&#x1e82;" horiz-adv-x="902" 
d="M553 766h-78l113 144h124zM648 0h-100l-47 543l-239 -543h-104l-57 700h99l30 -577l252 577h86l50 -577l233 577h101z" />
    <glyph glyph-name="wacute" unicode="&#x1e83;" horiz-adv-x="746" 
d="M447 606h-78l113 144h124zM538 0h-98l-38 427l-188 -427h-99l-50 540h93l21 -444l196 444h88l41 -444l177 444h94z" />
    <glyph glyph-name="Wdieresis" unicode="&#x1e84;" horiz-adv-x="902" 
d="M501 766h-100l20 112h100zM678 766h-100l20 112h100zM648 0h-100l-47 543l-239 -543h-104l-57 700h99l30 -577l252 577h86l50 -577l233 577h101z" />
    <glyph glyph-name="wdieresis" unicode="&#x1e85;" horiz-adv-x="746" 
d="M395 606h-100l20 112h100zM572 606h-100l20 112h100zM538 0h-98l-38 427l-188 -427h-99l-50 540h93l21 -444l196 444h88l41 -444l177 444h94z" />
    <glyph glyph-name="Ygrave" unicode="&#x1ef2;" horiz-adv-x="595" 
d="M376 766h70l-63 144h-116zM298 0h-96l44 245l-157 455h99l119 -357l245 357h106l-316 -455z" />
    <glyph glyph-name="ygrave" unicode="&#x1ef3;" horiz-adv-x="508" 
d="M308 606h70l-63 144h-116zM537 540l-374 -700h-91l86 160l-93 540h92l63 -436l221 436h96z" />
    <glyph glyph-name="endash" unicode="&#x2013;" horiz-adv-x="549" 
d="M508 374l-15 -88h-432l15 88h432z" />
    <glyph glyph-name="emdash" unicode="&#x2014;" horiz-adv-x="793" 
d="M752 373l-15 -87h-676l15 87h676z" />
    <glyph glyph-name="quoteleft" unicode="&#x2018;" horiz-adv-x="229" 
d="M89 453l15 86q4 26 14.5 43.5t42.5 53.5l58 64h45l-89 -127h52l-21 -120h-117z" />
    <glyph glyph-name="quoteright" unicode="&#x2019;" horiz-adv-x="228" 
d="M248 700l-15 -85q-4 -26 -14.5 -43t-42.5 -55l-58 -64h-45l89 127h-51l21 120h116z" />
    <glyph glyph-name="quotesinglbase" unicode="&#x201a;" horiz-adv-x="229" 
d="M146 120l-15 -85q-4 -26 -14.5 -43t-42.5 -55l-59 -64h-45l90 127h-51l21 120h116z" />
    <glyph glyph-name="quotedblleft" unicode="&#x201c;" horiz-adv-x="396" 
d="M89 453l15 86q4 26 14.5 43.5t42.5 53.5l58 64h45l-89 -127h52l-21 -120h-117zM255 453l15 86q4 26 14.5 43.5t42.5 53.5l58 64h45l-89 -127h52l-21 -120h-117z" />
    <glyph glyph-name="quotedblright" unicode="&#x201d;" horiz-adv-x="396" 
d="M248 700l-15 -85q-4 -26 -14.5 -43t-42.5 -55l-58 -64h-45l89 127h-51l21 120h116zM415 700l-15 -85q-4 -26 -14.5 -43t-42.5 -55l-58 -64h-45l89 127h-51l21 120h116z" />
    <glyph glyph-name="quotedblbase" unicode="&#x201e;" horiz-adv-x="395" 
d="M145 120l-15 -85q-4 -26 -14.5 -43t-42.5 -55l-58 -64h-45l89 127h-51l21 120h116zM312 120l-15 -85q-4 -26 -14.5 -43t-42.5 -55l-58 -64h-45l89 127h-51l21 120h116z" />
    <glyph glyph-name="dagger" unicode="&#x2020;" horiz-adv-x="368" 
d="M365 440h-109l-77 -440h-85l77 440h-108l14 80h108l32 180h85l-32 -180h110z" />
    <glyph glyph-name="daggerdbl" unicode="&#x2021;" horiz-adv-x="368" 
d="M256 440l-30 -173h109l-14 -80h-109l-33 -187h-85l33 187h-108l14 80h108l30 173h-108l14 80h108l32 180h85l-32 -180h110l-15 -80h-109z" />
    <glyph glyph-name="bullet" unicode="&#x2022;" horiz-adv-x="421" 
d="M209 263q-54 0 -72 22t-8 77t35.5 77t79.5 22t72 -22t8 -77t-35.5 -77t-79.5 -22z" />
    <glyph glyph-name="ellipsis" unicode="&#x2026;" horiz-adv-x="648" 
d="M126 0h-117l21 120h117zM335 0h-117l21 120h117zM545 0h-117l21 120h117z" />
    <glyph glyph-name="perthousand" unicode="&#x2030;" horiz-adv-x="881" 
d="M602 700l-475 -700h-83l476 700h82zM191 700h78q37 0 51 -17t7 -54l-24 -134q-7 -38 -26 -54.5t-56 -16.5h-78q-37 0 -50.5 17t-7.5 54l24 134q7 38 26 54.5t56 16.5zM245 502l21 120q2 13 -1 17.5t-15 4.5h-57q-12 0 -17 -4.5t-8 -17.5l-20 -120q-3 -13 0.5 -17.5
t16.5 -4.5h56q12 0 16.5 4.5t7.5 17.5zM426 276h78q37 0 50.5 -17t6.5 -54l-23 -134q-7 -37 -26.5 -54t-56.5 -17h-78q-36 0 -49.5 17t-6.5 54l23 134q7 38 26 54.5t56 16.5zM689 276h78q37 0 50.5 -17t6.5 -54l-24 -134q-11 -71 -82 -71h-78q-70 0 -57 71l23 134
q7 37 26.5 54t56.5 17zM479 78l22 120q2 13 -1.5 17.5t-16.5 4.5h-56q-12 0 -17 -4.5t-7 -17.5l-21 -120q-2 -13 1 -17.5t15 -4.5h56q13 0 18 4.5t7 17.5zM741 78l21 120q2 13 -1 17.5t-15 4.5h-57q-12 0 -17 -4.5t-7 -17.5l-21 -120q-2 -13 1 -17.5t15 -4.5h57q12 0 17 4.5
t7 17.5z" />
    <glyph glyph-name="guilsinglleft" unicode="&#x2039;" horiz-adv-x="275" 
d="M298 559l-180 -208l100 -207h-93l-92 185l8 44l158 186h99z" />
    <glyph glyph-name="guilsinglright" unicode="&#x203a;" horiz-adv-x="275" 
d="M270 373l-7 -44l-158 -185h-99l180 207l-100 208h93z" />
    <glyph glyph-name="fraction" unicode="&#x2044;" horiz-adv-x="164" 
d="M387 707l-509 -707h-72l509 707h72z" />
    <glyph glyph-name="zerosuperior" unicode="&#x2070;" horiz-adv-x="355" 
d="M259 438h-104q-47 0 -64 21t-8 69l34 192q8 47 32.5 68.5t70.5 21.5h104q47 0 63.5 -21t8.5 -69l-34 -192q-8 -48 -32 -69t-71 -21zM186 714l-32 -180q-3 -18 1.5 -23.5t21.5 -5.5h83q18 0 24 5.5t9 23.5l32 180q4 18 -0.5 23.5t-22.5 5.5h-83q-17 0 -23 -5.5t-10 -23.5z
" />
    <glyph glyph-name="foursuperior" unicode="&#x2074;" horiz-adv-x="374" 
d="M392 515h-57l-13 -77h-69l14 77h-189l-3 52l250 243h62l-41 -233h57zM163 577h114l23 128z" />
    <glyph glyph-name="fivesuperior" unicode="&#x2075;" horiz-adv-x="342" 
d="M383 743h-191l-18 -102q23 21 48 30.5t71 9.5q47 0 64 -21t9 -69l-11 -63q-8 -47 -33 -68.5t-72 -21.5h-99q-47 0 -64 21t-8 69l4 21h70l-3 -15q-3 -18 1.5 -23.5t21.5 -5.5h79q17 0 23.5 5.5t9.5 23.5l11 56q3 18 -2 23.5t-22 5.5q-60 0 -106 -20l-66 21l33 190h261z
" />
    <glyph glyph-name="sixsuperior" unicode="&#x2076;" horiz-adv-x="349" 
d="M315 704l1 10q4 18 -1 23.5t-22 5.5h-74q-17 0 -23 -5.5t-10 -23.5l-15 -83q24 20 49.5 30t74.5 10q47 0 64 -20.5t9 -69.5l-9 -53q-9 -48 -33.5 -69t-71.5 -21h-99q-47 0 -64 21t-8 69l34 192q8 48 32 69t71 21h95q47 0 64 -21t9 -69l-3 -16h-70zM165 591l-11 -57
q-3 -18 1.5 -23.5t21.5 -5.5h79q17 0 23.5 5.5t9.5 23.5l9 47q3 18 -1.5 24t-21.5 6q-66 0 -110 -20z" />
    <glyph glyph-name="sevensuperior" unicode="&#x2077;" horiz-adv-x="321" 
d="M385 757l-244 -319h-79l234 305h-194l12 67h280z" />
    <glyph glyph-name="eightsuperior" unicode="&#x2078;" horiz-adv-x="349" 
d="M386 705q-6 -33 -17.5 -50.5t-32.5 -26.5q39 -14 27 -81q-11 -61 -35.5 -85t-72.5 -24h-103q-48 0 -64 24t-4 85q12 68 53 81q-32 17 -21 77q10 58 34 81.5t71 23.5h95q48 0 64 -23.5t6 -81.5zM295 745h-75q-17 0 -23.5 -7.5t-11.5 -35.5t-1.5 -35.5t21.5 -7.5h75
q17 0 23.5 7.5t11.5 35.5t1.5 35.5t-21.5 7.5zM273 597h-83q-18 0 -24 -8t-12 -39q-5 -32 -1.5 -39.5t21.5 -7.5h83q18 0 24.5 8t11.5 39q5 32 1.5 39.5t-21.5 7.5z" />
    <glyph glyph-name="ninesuperior" unicode="&#x2079;" horiz-adv-x="349" 
d="M159 544l-2 -10q-3 -18 1.5 -23.5t21.5 -5.5h74q17 0 23.5 5.5t9.5 23.5l16 83q-26 -21 -51 -30.5t-73 -9.5t-65 20.5t-8 69.5l9 53q8 48 32.5 69t71.5 21h99q47 0 64 -21t9 -69l-34 -192q-9 -48 -33.5 -69t-71.5 -21h-94q-47 0 -64 21t-8 69l3 16h70zM310 657l10 57
q4 18 -1 23.5t-22 5.5h-79q-17 0 -23.5 -5.5t-9.5 -23.5l-9 -47q-3 -18 1.5 -24t21.5 -6q65 0 111 20z" />
    <glyph glyph-name="Euro" unicode="&#x20ac;" horiz-adv-x="658" 
d="M324 700h213q137 0 113 -140l-16 -89h-96l15 86q5 30 -4.5 42.5t-37.5 12.5h-191q-29 0 -43 -12.5t-19 -42.5l-16 -90h224l-11 -67h-225l-16 -95h224l-12 -66h-224l-17 -96q-5 -30 4.5 -42.5t38.5 -12.5h190q29 0 43 12.5t19 42.5l15 86h96l-15 -89q-25 -140 -162 -140
h-213q-137 0 -112 140l17 99h-79l12 66h79l17 95h-79l11 67h80l16 93q24 140 161 140z" />
    <glyph glyph-name="trademark" unicode="&#x2122;" horiz-adv-x="738" 
d="M370 650h-99l-54 -310h-54l54 310h-97l9 50h249zM761 700l-63 -360h-50l46 266l-128 -214h-38l-58 214l-47 -266h-50l63 360h60l61 -235l141 235h63z" />
    <glyph glyph-name="oneeighth" unicode="&#x215b;" horiz-adv-x="737" 
d="M611 707l-509 -707h-72l509 707h72zM111 329l53 299l-82 -24l10 59l98 38h56l-65 -372h-70zM697 267q-6 -33 -17.5 -50.5t-32.5 -26.5q39 -14 27 -81q-11 -61 -35.5 -85t-72.5 -24h-103q-48 0 -64 24t-4 85q12 68 53 81q-32 17 -21 77q10 58 34 81.5t71 23.5h95
q48 0 64 -23.5t6 -81.5zM606 307h-75q-17 0 -23.5 -7.5t-11.5 -35.5t-1.5 -35.5t21.5 -7.5h75q17 0 23.5 7.5t11.5 35.5t1.5 35.5t-21.5 7.5zM584 159h-83q-18 0 -24 -8t-12 -39q-5 -32 -1.5 -39.5t21.5 -7.5h83q18 0 24.5 8t11.5 39q5 32 1.5 39.5t-21.5 7.5z" />
    <glyph glyph-name="threeeighths" unicode="&#x215c;" horiz-adv-x="851" 
d="M725 707l-509 -707h-72l509 707h72zM128 440v-1q-5 -31 -1.5 -38.5t21.5 -7.5h79q18 0 24.5 8t11.5 39q6 32 2 39.5t-22 7.5h-84l11 62h80q18 0 24.5 7.5t11.5 35.5t1 35.5t-22 7.5h-71q-17 0 -23.5 -7.5t-11.5 -35.5l-1 -4h-70l2 7q10 58 34 81.5t71 23.5h91
q47 0 63.5 -23.5t6.5 -81.5t-50 -77q38 -14 26 -81q-10 -61 -34.5 -85t-72.5 -24h-99q-48 0 -64 24t-5 85l1 3h70zM811 267q-6 -33 -17.5 -50.5t-32.5 -26.5q39 -14 27 -81q-11 -61 -35.5 -85t-72.5 -24h-103q-48 0 -64 24t-4 85q12 68 53 81q-32 17 -21 77q10 58 34 81.5
t71 23.5h95q48 0 64 -23.5t6 -81.5zM720 307h-75q-17 0 -23.5 -7.5t-11.5 -35.5t-1.5 -35.5t21.5 -7.5h75q17 0 23.5 7.5t11.5 35.5t1.5 35.5t-21.5 7.5zM698 159h-83q-18 0 -24 -8t-12 -39q-5 -32 -1.5 -39.5t21.5 -7.5h83q18 0 24.5 8t11.5 39q5 32 1.5 39.5t-21.5 7.5z
" />
    <glyph glyph-name="fiveeighths" unicode="&#x215d;" horiz-adv-x="855" 
d="M729 707l-509 -707h-72l509 707h72zM364 633h-191l-18 -102q23 21 48 30.5t71 9.5q47 0 64 -21t9 -69l-11 -63q-8 -47 -33 -68.5t-72 -21.5h-99q-47 0 -64 21t-8 69l4 21h70l-3 -15q-3 -18 1.5 -23.5t21.5 -5.5h79q17 0 23.5 5.5t9.5 23.5l11 56q3 18 -2 23.5t-22 5.5
q-60 0 -106 -20l-66 21l33 190h261zM815 267q-6 -33 -17.5 -50.5t-32.5 -26.5q39 -14 27 -81q-11 -61 -35.5 -85t-72.5 -24h-103q-48 0 -64 24t-4 85q12 68 53 81q-32 17 -21 77q10 58 34 81.5t71 23.5h95q48 0 64 -23.5t6 -81.5zM724 307h-75q-17 0 -23.5 -7.5t-11.5 -35.5
t-1.5 -35.5t21.5 -7.5h75q17 0 23.5 7.5t11.5 35.5t1.5 35.5t-21.5 7.5zM702 159h-83q-18 0 -24 -8t-12 -39q-5 -32 -1.5 -39.5t21.5 -7.5h83q18 0 24.5 8t11.5 39q5 32 1.5 39.5t-21.5 7.5z" />
    <glyph glyph-name="seveneighths" unicode="&#x215e;" horiz-adv-x="754" 
d="M628 707l-509 -707h-72l509 707h72zM366 647l-244 -319h-79l234 305h-194l12 67h280zM714 267q-6 -33 -17.5 -50.5t-32.5 -26.5q39 -14 27 -81q-11 -61 -35.5 -85t-72.5 -24h-103q-48 0 -64 24t-4 85q12 68 53 81q-32 17 -21 77q10 58 34 81.5t71 23.5h95q48 0 64 -23.5
t6 -81.5zM623 307h-75q-17 0 -23.5 -7.5t-11.5 -35.5t-1.5 -35.5t21.5 -7.5h75q17 0 23.5 7.5t11.5 35.5t1.5 35.5t-21.5 7.5zM601 159h-83q-18 0 -24 -8t-12 -39q-5 -32 -1.5 -39.5t21.5 -7.5h83q18 0 24.5 8t11.5 39q5 32 1.5 39.5t-21.5 7.5z" />
    <glyph glyph-name="minus" unicode="&#x2212;" horiz-adv-x="499" 
d="M85 403h376l-15 -86h-376z" />
    <glyph glyph-name="infinity" unicode="&#x221e;" horiz-adv-x="818" 
d="M576 550h85q137 0 113 -140l-18 -94q-24 -140 -160 -140h-86q-97 0 -104 68q-32 -68 -131 -68h-86q-137 0 -113 140l18 94q24 140 161 140h85q97 0 104 -68q32 68 132 68zM203 259h99q29 0 43.5 12.5t19.5 42.5l17 98q5 30 -4.5 42.5t-37.5 12.5h-100q-29 0 -43.5 -12.5
t-19.5 -42.5l-17 -98q-5 -30 4.5 -42.5t38.5 -12.5zM673 314l17 98q5 30 -4.5 42.5t-37.5 12.5h-99q-29 0 -43.5 -12.5t-19.5 -42.5l-17 -98q-5 -30 4.5 -42.5t38.5 -12.5h99q29 0 43 12.5t19 42.5z" />
    <glyph glyph-name="notequal" unicode="&#x2260;" horiz-adv-x="499" 
d="M337 415l-61 -95h170l-15 -87h-211l-65 -102h-77l65 102h-88l16 87h128l61 95h-173l16 87h213l61 95h77l-61 -95h85l-15 -87h-126z" />
    <glyph glyph-name="B.ss01" horiz-adv-x="641" 
d="M164 700h342q137 0 113 -140l-17 -96q-14 -79 -83 -106q68 -25 53 -107l-19 -111q-25 -140 -162 -140h-350zM208 401h234q28 0 42.5 12.5t20.5 41.5l17 103q5 30 -4.5 42.5t-37.5 12.5h-234zM153 87h242q29 0 43 12.5t19 42.5l21 119q5 30 -4.5 42.5t-38.5 12.5h-242z
" />
    <glyph glyph-name="K.ss01" horiz-adv-x="632" 
d="M192 315l-55 -315h-96l123 700h96l-52 -299h69l289 299h115l-329 -342l217 -358h-110l-188 315h-79z" />
    <glyph glyph-name="Kcommaaccent.ss01" horiz-adv-x="632" 
d="M192 315l-55 -315h-96l123 700h96l-52 -299h69l289 299h115l-329 -342l217 -358h-110l-188 315h-79zM324 -70l-15 -89q-2 -9 -9 -21.5t-13 -21t-18.5 -24.5t-15.5 -21l-50 -64h-47l87 127h-44l21 114h104z" />
    <glyph glyph-name="k.ss01" horiz-adv-x="518" 
d="M158 238l-42 -238h-91l129 730h91l-74 -412h49l215 222h107l-253 -262l169 -278h-105l-140 238h-55z" />
    <glyph glyph-name="kcommaaccent.ss01" horiz-adv-x="518" 
d="M158 238l-42 -238h-91l129 730h91l-74 -412h49l215 222h107l-253 -262l169 -278h-105l-140 238h-55zM264 -70l-15 -89q-2 -9 -9 -21.5t-13 -21t-18.5 -24.5t-15.5 -21l-50 -64h-47l87 127h-44l21 114h104z" />
    <glyph glyph-name="three.ss01" horiz-adv-x="592" 
d="M140 205l-11 -63q-5 -30 4.5 -42.5t38.5 -12.5h180q29 0 43 12.5t18 42.5l22 120q5 30 -4.5 42.5t-38.5 12.5h-175l14 86h169q28 0 42 12.5t19 41.5l18 101q5 30 -4.5 42.5t-37.5 12.5h-164q-29 0 -43.5 -12.5t-19.5 -42.5l-11 -63h-96l12 65q24 140 161 140h187
q137 0 113 -140l-17 -95q-14 -77 -82 -106q67 -24 52 -106l-19 -113q-25 -140 -162 -140h-203q-137 0 -112 140l11 65h96z" />
    <glyph glyph-name="eight.ss01" horiz-adv-x="605" 
d="M490 359q67 -23 53 -106l-20 -113q-25 -140 -162 -140h-213q-137 0 -112 140l20 113q13 82 90 106q-58 29 -45 106l17 95q24 140 161 140h197q137 0 113 -140l-17 -95q-12 -76 -82 -106zM214 558l-18 -101q-5 -29 4.5 -41.5t37.5 -12.5h175q28 0 42.5 12.5t19.5 41.5
l18 101q5 30 -4.5 42.5t-38.5 12.5h-174q-29 0 -43 -12.5t-19 -42.5zM427 142l21 120q5 30 -4.5 42.5t-37.5 12.5h-191q-29 0 -43 -12.5t-19 -42.5l-21 -120q-5 -30 4.5 -42.5t38.5 -12.5h190q29 0 43 12.5t19 42.5z" />
    <glyph glyph-name="zero.subs" horiz-adv-x="355" 
d="M164 -102h-104q-47 0 -64 21t-8 69l34 192q8 47 32.5 68.5t70.5 21.5h104q47 0 63.5 -21t8.5 -69l-34 -192q-8 -48 -32 -69t-71 -21zM91 174l-32 -180q-3 -18 1.5 -23.5t21.5 -5.5h83q18 0 24 5.5t9 23.5l32 180q4 18 -0.5 23.5t-22.5 5.5h-83q-17 0 -23 -5.5t-10 -23.5z
" />
    <glyph glyph-name="one.subs" horiz-adv-x="224" 
d="M35 -102l53 299l-82 -24l10 59l98 38h56l-65 -372h-70z" />
    <glyph glyph-name="two.subs" horiz-adv-x="336" 
d="M88 157l3 17q4 18 10 23.5t23 5.5h71q17 0 22 -5.5t1 -23.5l-5 -25q-1 -11 -30 -21l-100 -32q-46 -15 -66.5 -30.5t-26.5 -46.5l-21 -121h271l12 67h-201l6 39q3 14 31 22l100 33q31 10 46 17t28.5 21.5t17.5 36.5l9 46q8 48 -9 69t-64 21h-89q-47 0 -71 -21t-32 -69
l-5 -23h69z" />
    <glyph glyph-name="three.subs" horiz-adv-x="338" 
d="M52 10v-1q-5 -31 -1.5 -38.5t21.5 -7.5h79q18 0 24.5 8t11.5 39q6 32 2 39.5t-22 7.5h-84l11 62h80q18 0 24.5 7.5t11.5 35.5t1 35.5t-22 7.5h-71q-17 0 -23.5 -7.5t-11.5 -35.5l-1 -4h-70l2 7q10 58 34 81.5t71 23.5h91q47 0 63.5 -23.5t6.5 -81.5t-50 -77
q38 -14 26 -81q-10 -61 -34.5 -85t-72.5 -24h-99q-48 0 -64 24t-5 85l1 3h70z" />
    <glyph glyph-name="four.subs" horiz-adv-x="374" 
d="M297 -25h-57l-13 -77h-69l14 77h-189l-3 52l250 243h62l-41 -233h57zM68 37h114l23 128z" />
    <glyph glyph-name="five.subs" horiz-adv-x="342" 
d="M288 203h-191l-18 -102q23 21 48 30.5t71 9.5q47 0 64 -21t9 -69l-11 -63q-8 -47 -33 -68.5t-72 -21.5h-99q-47 0 -64 21t-8 69l4 21h70l-3 -15q-3 -18 1.5 -23.5t21.5 -5.5h79q17 0 23.5 5.5t9.5 23.5l11 56q3 18 -2 23.5t-22 5.5q-60 0 -106 -20l-66 21l33 190h261z
" />
    <glyph glyph-name="six.subs" horiz-adv-x="349" 
d="M220 164l1 10q4 18 -1 23.5t-22 5.5h-74q-17 0 -23 -5.5t-10 -23.5l-15 -83q24 20 49.5 30t74.5 10q47 0 64 -20.5t9 -69.5l-9 -53q-9 -48 -33.5 -69t-71.5 -21h-99q-47 0 -64 21t-8 69l34 192q8 48 32 69t71 21h95q47 0 64 -21t9 -69l-3 -16h-70zM70 51l-11 -57
q-3 -18 1.5 -23.5t21.5 -5.5h79q17 0 23.5 5.5t9.5 23.5l9 47q3 18 -1.5 24t-21.5 6q-66 0 -110 -20z" />
    <glyph glyph-name="seven.subs" horiz-adv-x="321" 
d="M290 217l-244 -319h-79l234 305h-194l12 67h280z" />
    <glyph glyph-name="eight.subs" horiz-adv-x="349" 
d="M291 165q-6 -33 -17.5 -50.5t-32.5 -26.5q39 -14 27 -81q-11 -61 -35.5 -85t-72.5 -24h-103q-48 0 -64 24t-4 85q12 68 53 81q-32 17 -21 77q10 58 34 81.5t71 23.5h95q48 0 64 -23.5t6 -81.5zM200 205h-75q-17 0 -23.5 -7.5t-11.5 -35.5t-1.5 -35.5t21.5 -7.5h75
q17 0 23.5 7.5t11.5 35.5t1.5 35.5t-21.5 7.5zM178 57h-83q-18 0 -24 -8t-12 -39q-5 -32 -1.5 -39.5t21.5 -7.5h83q18 0 24.5 8t11.5 39q5 32 1.5 39.5t-21.5 7.5z" />
    <glyph glyph-name="nine.subs" horiz-adv-x="349" 
d="M64 4l-2 -10q-3 -18 1.5 -23.5t21.5 -5.5h74q17 0 23.5 5.5t9.5 23.5l16 83q-26 -21 -51 -30.5t-73 -9.5t-65 20.5t-8 69.5l9 53q8 48 32.5 69t71.5 21h99q47 0 64 -21t9 -69l-34 -192q-9 -48 -33.5 -69t-71.5 -21h-94q-47 0 -64 21t-8 69l3 16h70zM215 117l10 57
q4 18 -1 23.5t-22 5.5h-79q-17 0 -23.5 -5.5t-9.5 -23.5l-9 -47q-3 -18 1.5 -24t21.5 -6q65 0 111 20z" />
    <glyph glyph-name="zero.tf" horiz-adv-x="628" 
d="M372 0h-211q-137 0 -112 140l74 420q24 140 161 140h211q137 0 113 -140l-74 -420q-25 -140 -162 -140zM218 557l-73 -414q-5 -30 4.5 -42.5t38.5 -12.5h188q29 0 43 12.5t19 42.5l73 414q5 30 -4.5 42.5t-38.5 12.5h-188q-29 0 -43 -12.5t-19 -42.5z" />
    <glyph glyph-name="one.tf" horiz-adv-x="628" 
d="M486 0h-428l16 88h172l91 520l-180 -50l16 92l179 50h97l-107 -612h160z" />
    <glyph glyph-name="two.tf" horiz-adv-x="628" 
d="M225 491l12 66q5 30 19 42.5t43 12.5h156q29 0 38.5 -12.5t4.5 -42.5l-14 -81q-3 -19 -18.5 -30.5t-50.5 -26.5l-179 -77q-86 -37 -121.5 -65t-44.5 -80l-35 -197h463l15 88h-366l16 94q3 19 18 30t51 27l179 81q40 18 55.5 25.5t41 22.5t35.5 26.5t20.5 29.5t14.5 41
l17 95q24 140 -113 140h-178q-137 0 -161 -140l-12 -69h94z" />
    <glyph glyph-name="three.tf" horiz-adv-x="628" 
d="M157 205l-2 -9q-10 -70 -3 -89.5t37 -19.5h180q29 0 44.5 23.5t27.5 91.5q12 70 5 92.5t-37 22.5h-175l14 86h169q29 0 43.5 20t26.5 84q11 68 4 87t-37 19h-164q-30 0 -45.5 -20.5t-26.5 -85.5l-2 -12h-96l3 14q18 106 58 148.5t112 42.5h187q72 0 97 -41.5t7 -145.5
q-13 -73 -33.5 -106t-56.5 -48q36 -13 45.5 -45.5t-3.5 -117.5q-19 -110 -59 -153t-112 -43h-203q-72 0 -97 42.5t-6 149.5l2 13h96z" />
    <glyph glyph-name="four.tf" horiz-adv-x="628" 
d="M571 168h-101l-30 -168h-95l30 168h-339l-3 77l430 455h100l-78 -445h101zM155 255h235l55 311z" />
    <glyph glyph-name="five.tf" horiz-adv-x="628" 
d="M249 612l-41 -234q44 40 88 60t117 20q90 0 122.5 -33.5t20.5 -106.5l-32 -177q-24 -141 -163 -141h-186q-137 0 -112 140l11 65h96l-11 -62q-5 -30 4.5 -42.5t38.5 -12.5h164q29 0 43 12.5t19 42.5l31 174q5 31 -8.5 43t-62.5 12q-101 0 -190 -53l-92 27l62 354h441
l-15 -88h-345z" />
    <glyph glyph-name="six.tf" horiz-adv-x="628" 
d="M486 501l10 56q9 55 -43 55h-159q-53 0 -62 -55l-35 -198q45 40 90 60t121 20q94 0 127 -33.5t20 -106.5l-27 -159q-25 -140 -162 -140h-191q-137 0 -112 140l74 420q24 140 161 140h182q137 0 113 -140l-11 -59h-96zM187 299l-28 -156q-5 -30 4.5 -42.5t38.5 -12.5h168
q29 0 43 12.5t19 42.5l28 154q5 31 -10.5 43t-66.5 12q-107 0 -196 -53z" />
    <glyph glyph-name="seven.tf" horiz-adv-x="628" 
d="M614 634l-410 -634h-108l400 613h-365l15 87h479z" />
    <glyph glyph-name="eight.tf" horiz-adv-x="628" 
d="M502 359q36 -13 46 -45.5t-3 -117.5q-20 -110 -60 -153t-112 -43h-213q-72 0 -97 43t-5 153q14 81 36.5 115.5t63.5 47.5q-31 15 -39.5 45.5t2.5 108.5q18 104 58 145.5t112 41.5h197q72 0 97 -41.5t7 -145.5q-12 -73 -33 -105.5t-57 -48.5zM461 613h-174q-30 0 -45 -20
t-27 -86q-10 -67 -3 -85.5t37 -18.5h175q30 0 44.5 20t26.5 84q11 68 4 87t-38 19zM187 87h190q29 0 44.5 23.5t27.5 91.5q12 70 5 92.5t-37 22.5h-190q-29 0 -45 -23.5t-28 -91.5q-11 -70 -3.5 -92.5t36.5 -22.5z" />
    <glyph glyph-name="nine.tf" horiz-adv-x="628" 
d="M170 199l-10 -56q-5 -29 5 -42t38 -13h159q28 0 42.5 13t19.5 42l36 205q-44 -40 -89.5 -60t-121.5 -20q-94 0 -127 33.5t-21 106.5l28 152q24 140 161 140h191q137 0 113 -140l-74 -420q-25 -140 -162 -140h-182q-137 0 -112 140l10 59h96zM471 407l26 150
q5 30 -4.5 42.5t-37.5 12.5h-169q-29 0 -43 -12.5t-19 -42.5l-26 -148q-5 -31 9.5 -43t65.5 -12q65 0 108.5 13t89.5 40z" />
    <glyph glyph-name="zero.dnom" horiz-adv-x="355" 
d="M182 0h-104q-47 0 -64 21t-8 69l34 192q8 47 32.5 68.5t70.5 21.5h104q47 0 63.5 -21t8.5 -69l-34 -192q-8 -48 -32 -69t-71 -21zM109 276l-32 -180q-3 -18 1.5 -23.5t21.5 -5.5h83q18 0 24 5.5t9 23.5l32 180q4 18 -0.5 23.5t-22.5 5.5h-83q-17 0 -23 -5.5t-10 -23.5z
" />
    <glyph glyph-name="one.dnom" horiz-adv-x="224" 
d="M53 0l53 299l-82 -24l10 59l98 38h56l-65 -372h-70z" />
    <glyph glyph-name="two.dnom" horiz-adv-x="336" 
d="M106 259l3 17q4 18 10 23.5t23 5.5h71q17 0 22 -5.5t1 -23.5l-5 -25q-1 -11 -30 -21l-100 -32q-46 -15 -66.5 -30.5t-26.5 -46.5l-21 -121h271l12 67h-201l6 39q3 14 31 22l100 33q31 10 46 17t28.5 21.5t17.5 36.5l9 46q8 48 -9 69t-64 21h-89q-47 0 -71 -21t-32 -69
l-5 -23h69z" />
    <glyph glyph-name="three.dnom" horiz-adv-x="338" 
d="M70 112v-1q-5 -31 -1.5 -38.5t21.5 -7.5h79q18 0 24.5 8t11.5 39q6 32 2 39.5t-22 7.5h-84l11 62h80q18 0 24.5 7.5t11.5 35.5t1 35.5t-22 7.5h-71q-17 0 -23.5 -7.5t-11.5 -35.5l-1 -4h-70l2 7q10 58 34 81.5t71 23.5h91q47 0 63.5 -23.5t6.5 -81.5t-50 -77
q38 -14 26 -81q-10 -61 -34.5 -85t-72.5 -24h-99q-48 0 -64 24t-5 85l1 3h70z" />
    <glyph glyph-name="four.dnom" horiz-adv-x="374" 
d="M315 77h-57l-13 -77h-69l14 77h-189l-3 52l250 243h62l-41 -233h57zM86 139h114l23 128z" />
    <glyph glyph-name="five.dnom" horiz-adv-x="342" 
d="M306 305h-191l-18 -102q23 21 48 30.5t71 9.5q47 0 64 -21t9 -69l-11 -63q-8 -47 -33 -68.5t-72 -21.5h-99q-47 0 -64 21t-8 69l4 21h70l-3 -15q-3 -18 1.5 -23.5t21.5 -5.5h79q17 0 23.5 5.5t9.5 23.5l11 56q3 18 -2 23.5t-22 5.5q-60 0 -106 -20l-66 21l33 190h261z
" />
    <glyph glyph-name="six.dnom" horiz-adv-x="349" 
d="M238 266l1 10q4 18 -1 23.5t-22 5.5h-74q-17 0 -23 -5.5t-10 -23.5l-15 -83q24 20 49.5 30t74.5 10q47 0 64 -20.5t9 -69.5l-9 -53q-9 -48 -33.5 -69t-71.5 -21h-99q-47 0 -64 21t-8 69l34 192q8 48 32 69t71 21h95q47 0 64 -21t9 -69l-3 -16h-70zM88 153l-11 -57
q-3 -18 1.5 -23.5t21.5 -5.5h79q17 0 23.5 5.5t9.5 23.5l9 47q3 18 -1.5 24t-21.5 6q-66 0 -110 -20z" />
    <glyph glyph-name="seven.dnom" horiz-adv-x="321" 
d="M308 319l-244 -319h-79l234 305h-194l12 67h280z" />
    <glyph glyph-name="eight.dnom" horiz-adv-x="349" 
d="M309 267q-6 -33 -17.5 -50.5t-32.5 -26.5q39 -14 27 -81q-11 -61 -35.5 -85t-72.5 -24h-103q-48 0 -64 24t-4 85q12 68 53 81q-32 17 -21 77q10 58 34 81.5t71 23.5h95q48 0 64 -23.5t6 -81.5zM218 307h-75q-17 0 -23.5 -7.5t-11.5 -35.5t-1.5 -35.5t21.5 -7.5h75
q17 0 23.5 7.5t11.5 35.5t1.5 35.5t-21.5 7.5zM196 159h-83q-18 0 -24 -8t-12 -39q-5 -32 -1.5 -39.5t21.5 -7.5h83q18 0 24.5 8t11.5 39q5 32 1.5 39.5t-21.5 7.5z" />
    <glyph glyph-name="nine.dnom" horiz-adv-x="349" 
d="M82 106l-2 -10q-3 -18 1.5 -23.5t21.5 -5.5h74q17 0 23.5 5.5t9.5 23.5l16 83q-26 -21 -51 -30.5t-73 -9.5t-65 20.5t-8 69.5l9 53q8 48 32.5 69t71.5 21h99q47 0 64 -21t9 -69l-34 -192q-9 -48 -33.5 -69t-71.5 -21h-94q-47 0 -64 21t-8 69l3 16h70zM233 219l10 57
q4 18 -1 23.5t-22 5.5h-79q-17 0 -23.5 -5.5t-9.5 -23.5l-9 -47q-3 -18 1.5 -24t21.5 -6q65 0 111 20z" />
    <glyph glyph-name="zero.numr" horiz-adv-x="355" 
d="M240 328h-104q-47 0 -64 21t-8 69l34 192q8 47 32.5 68.5t70.5 21.5h104q47 0 63.5 -21t8.5 -69l-34 -192q-8 -48 -32 -69t-71 -21zM167 604l-32 -180q-3 -18 1.5 -23.5t21.5 -5.5h83q18 0 24 5.5t9 23.5l32 180q4 18 -0.5 23.5t-22.5 5.5h-83q-17 0 -23 -5.5t-10 -23.5z
" />
    <glyph glyph-name="one.numr" horiz-adv-x="224" 
d="M111 329l53 299l-82 -24l10 59l98 38h56l-65 -372h-70z" />
    <glyph glyph-name="two.numr" horiz-adv-x="336" 
d="M164 587l3 17q4 18 10 23.5t23 5.5h71q17 0 22 -5.5t1 -23.5l-5 -25q-1 -11 -30 -21l-100 -32q-46 -15 -66.5 -30.5t-26.5 -46.5l-21 -121h271l12 67h-201l6 39q3 14 31 22l100 33q31 10 46 17t28.5 21.5t17.5 36.5l9 46q8 48 -9 69t-64 21h-89q-47 0 -71 -21t-32 -69
l-5 -23h69z" />
    <glyph glyph-name="three.numr" horiz-adv-x="338" 
d="M128 440v-1q-5 -31 -1.5 -38.5t21.5 -7.5h79q18 0 24.5 8t11.5 39q6 32 2 39.5t-22 7.5h-84l11 62h80q18 0 24.5 7.5t11.5 35.5t1 35.5t-22 7.5h-71q-17 0 -23.5 -7.5t-11.5 -35.5l-1 -4h-70l2 7q10 58 34 81.5t71 23.5h91q47 0 63.5 -23.5t6.5 -81.5t-50 -77
q38 -14 26 -81q-10 -61 -34.5 -85t-72.5 -24h-99q-48 0 -64 24t-5 85l1 3h70z" />
    <glyph glyph-name="four.numr" horiz-adv-x="374" 
d="M373 405h-57l-13 -77h-69l14 77h-189l-3 52l250 243h62l-41 -233h57zM144 467h114l23 128z" />
    <glyph glyph-name="five.numr" horiz-adv-x="342" 
d="M364 633h-191l-18 -102q23 21 48 30.5t71 9.5q47 0 64 -21t9 -69l-11 -63q-8 -47 -33 -68.5t-72 -21.5h-99q-47 0 -64 21t-8 69l4 21h70l-3 -15q-3 -18 1.5 -23.5t21.5 -5.5h79q17 0 23.5 5.5t9.5 23.5l11 56q3 18 -2 23.5t-22 5.5q-60 0 -106 -20l-66 21l33 190h261z
" />
    <glyph glyph-name="six.numr" horiz-adv-x="349" 
d="M296 594l1 10q4 18 -1 23.5t-22 5.5h-74q-17 0 -23 -5.5t-10 -23.5l-15 -83q24 20 49.5 30t74.5 10q47 0 64 -20.5t9 -69.5l-9 -53q-9 -48 -33.5 -69t-71.5 -21h-99q-47 0 -64 21t-8 69l34 192q8 48 32 69t71 21h95q47 0 64 -21t9 -69l-3 -16h-70zM146 481l-11 -57
q-3 -18 1.5 -23.5t21.5 -5.5h79q17 0 23.5 5.5t9.5 23.5l9 47q3 18 -1.5 24t-21.5 6q-66 0 -110 -20z" />
    <glyph glyph-name="seven.numr" horiz-adv-x="321" 
d="M366 647l-244 -319h-79l234 305h-194l12 67h280z" />
    <glyph glyph-name="eight.numr" horiz-adv-x="349" 
d="M367 595q-6 -33 -17.5 -50.5t-32.5 -26.5q39 -14 27 -81q-11 -61 -35.5 -85t-72.5 -24h-103q-48 0 -64 24t-4 85q12 68 53 81q-32 17 -21 77q10 58 34 81.5t71 23.5h95q48 0 64 -23.5t6 -81.5zM276 635h-75q-17 0 -23.5 -7.5t-11.5 -35.5t-1.5 -35.5t21.5 -7.5h75
q17 0 23.5 7.5t11.5 35.5t1.5 35.5t-21.5 7.5zM254 487h-83q-18 0 -24 -8t-12 -39q-5 -32 -1.5 -39.5t21.5 -7.5h83q18 0 24.5 8t11.5 39q5 32 1.5 39.5t-21.5 7.5z" />
    <glyph glyph-name="nine.numr" horiz-adv-x="349" 
d="M140 434l-2 -10q-3 -18 1.5 -23.5t21.5 -5.5h74q17 0 23.5 5.5t9.5 23.5l16 83q-26 -21 -51 -30.5t-73 -9.5t-65 20.5t-8 69.5l9 53q8 48 32.5 69t71.5 21h99q47 0 64 -21t9 -69l-34 -192q-9 -48 -33.5 -69t-71.5 -21h-94q-47 0 -64 21t-8 69l3 16h70zM291 547l10 57
q4 18 -1 23.5t-22 5.5h-79q-17 0 -23.5 -5.5t-9.5 -23.5l-9 -47q-3 -18 1.5 -24t21.5 -6q65 0 111 20z" />
    <glyph glyph-name="numbersign.tf" horiz-adv-x="628" 
d="M524 443l-77 -163h95l-14 -82h-120l-94 -198h-92l94 198h-122l-94 -198h-93l94 198h-93l15 82h117l77 163h-99l15 82h123l83 175h93l-83 -175h122l83 175h92l-83 -175h89l-14 -82h-114zM432 443h-122l-77 -163h122z" />
    <glyph glyph-name="florin.tf" horiz-adv-x="628" 
d="M555 612h-94q-29 0 -43.5 -12.5t-18.5 -42.5l-22 -121h138l-14 -83h-138l-38 -213q-25 -140 -162 -140h-80l16 88h68q29 0 43 12.5t19 42.5l38 210h-115l15 83h114l22 124q24 140 161 140h106z" />
    <glyph glyph-name="cent.tf" horiz-adv-x="628" 
d="M467 427l8 41q5 30 -5 42.5t-39 12.5h-35l-60 -340h35q29 0 43.5 12.5t19.5 42.5l7 41h91l-7 -40q-24 -140 -161 -140h-38l-17 -99h-77l17 99h-38q-137 0 -113 140l41 228q25 140 162 140h38l16 93h77l-16 -93h37q137 0 112 -140l-6 -40h-92zM328 523h-36
q-28 0 -42 -12.5t-19 -42.5l-41 -230q-5 -30 4.5 -42.5t37.5 -12.5h36z" />
    <glyph glyph-name="currency.tf" horiz-adv-x="628" 
d="M540 438l-28 -160q-7 -41 -24 -71l61 -75l-69 -60l-62 77q-26 -11 -68 -11h-119q-38 0 -65 11l-88 -77l-48 60l88 76q-6 30 1 70l28 160q8 42 23 68l-60 75l69 60l59 -74q31 11 71 11h119q39 0 66 -11l86 74l48 -60l-86 -74q5 -31 -2 -69zM248 219h113q28 0 42.5 12.5
t19.5 41.5l30 170q5 29 -4.5 41.5t-37.5 12.5h-114q-28 0 -42.5 -12.5t-19.5 -41.5l-30 -170q-5 -29 4.5 -41.5t38.5 -12.5z" />
    <glyph glyph-name="dollar.tf" horiz-adv-x="628" 
d="M430 700h52q72 0 97.5 -41t7.5 -142l-5 -26h-94l5 32q9 56 1.5 73t-37.5 17h-48l-39 -220l65 -16q19 -5 31.5 -9t28 -11t24.5 -15.5t17.5 -22.5t11 -32t2 -43t-5.5 -56q-18 -104 -58.5 -146t-113.5 -42h-65l-17 -95h-81l17 95h-65q-72 0 -97 42t-7 146l5 29h95l-6 -34
q-9 -61 -1.5 -78.5t37.5 -17.5h61l41 232l-61 15q-20 5 -32.5 9t-28 11t-24.5 15.5t-17.5 22t-11.5 30.5t-2.5 41t5.5 54q18 101 57.5 142t112.5 41h62l17 95h81zM341 613h-57q-30 0 -44.5 -18t-24.5 -72q-10 -59 0.5 -77t59.5 -30l30 -7zM353 304l-38 -217h61
q30 0 44.5 18.5t24.5 77.5q11 63 1.5 81.5t-57.5 30.5z" />
    <glyph glyph-name="Euro.tf" horiz-adv-x="628" 
d="M321 700h209q137 0 113 -140l-16 -89h-96l15 86q5 30 -4.5 42.5t-37.5 12.5h-187q-29 0 -43 -12.5t-19 -42.5l-16 -90h224l-11 -67h-225l-16 -95h224l-12 -66h-224l-17 -96q-5 -30 4.5 -42.5t38.5 -12.5h186q29 0 43 12.5t19 42.5l15 86h96l-15 -89q-25 -140 -162 -140
h-209q-137 0 -112 140l17 99h-79l12 66h79l17 95h-79l11 67h80l16 93q24 140 161 140z" />
    <glyph glyph-name="sterling.tf" horiz-adv-x="628" 
d="M336 700h163q137 0 113 -140l-15 -81h-96l14 78q5 30 -4.5 42.5t-38.5 12.5h-140q-29 0 -43 -12.5t-19 -42.5l-29 -166h186l-15 -86h-187l-38 -217h345l-15 -88h-521l15 88h61q19 0 23 20l35 197h-81l15 86h81l30 169q24 140 161 140z" />
    <glyph glyph-name="yen.tf" horiz-adv-x="628" 
d="M414 325h118l-12 -66h-152l-10 -14l-8 -43h161l-12 -66h-161l-24 -136h-96l24 136h-159l12 66h159l8 43l-5 14h-153l12 66h118l-129 375h100l118 -358l245 358h106z" />
    <glyph glyph-name="ampersand.ss01" horiz-adv-x="646" 
d="M627 317h-77l-31 -177q-25 -140 -162 -140h-200q-137 0 -112 140l19 111q15 85 91 108q-58 29 -44 108l16 93q24 140 161 140h171q137 0 113 -140l-12 -65h-96l11 63q5 30 -4.5 42.5t-37.5 12.5h-148q-29 0 -43.5 -12.5t-19.5 -42.5l-17 -101q-5 -29 4.5 -41.5
t37.5 -12.5h394zM454 317h-230q-29 0 -43 -12.5t-19 -42.5l-21 -120q-5 -30 4.5 -42.5t38.5 -12.5h177q29 0 43 12.5t19 42.5z" />
    </font>
</defs>
</svg>
