<?xml version="1.0" standalone="no"?>
<!DOCTYPE svg PUBLIC "-//W3C//DTD SVG 1.1//EN" "http://www.w3.org/Graphics/SVG/1.1/DTD/svg11.dtd" >
<svg xmlns="http://www.w3.org/2000/svg" xmlns:xlink="http://www.w3.org/1999/xlink" version="1.1">
<metadata>
Created by FontForge 20161003 at Fri Oct  6 17:13:44 2017
 By www-data
Copyright (c) 2014 by Mattox Shuler. All rights reserved.
</metadata>
<defs>
<font id="FortFoundryIndustryUltraItalic" horiz-adv-x="571" >
  <font-face 
    font-family="FortFoundryIndustryUltraItalic"
    font-weight="900"
    font-style="italic"
    font-stretch="normal"
    units-per-em="1000"
    panose-1="0 0 10 0 0 0 0 0 0 0"
    ascent="800"
    descent="-200"
    x-height="540"
    cap-height="700"
    bbox="-201 -372 1056 949"
    underline-thickness="50"
    underline-position="-150"
    slope="-10"
    unicode-range="U+0020-FB02"
  />
<missing-glyph horiz-adv-x="195" 
 />
    <glyph glyph-name="fi" unicode="fi" horiz-adv-x="668" 
d="M426 596h-73q-20 0 -23 -20l-7 -36h103l-24 -135h-103l-71 -405h-178l71 405h-74l24 135h74l11 62q22 128 149 128h145zM681 593h-186l24 137h186zM667 540l-95 -540h-178l95 540h178z" />
    <glyph glyph-name="fl" unicode="fl" horiz-adv-x="662" 
d="M426 596h-73q-20 0 -23 -20l-7 -36h103l-24 -135h-103l-71 -405h-178l71 405h-74l24 135h74l11 62q22 128 149 128h145zM520 730h178l-129 -730h-178z" />
    <glyph glyph-name=".notdef" horiz-adv-x="195" 
 />
    <glyph glyph-name=".null" horiz-adv-x="0" 
 />
    <glyph glyph-name="nonmarkingreturn" horiz-adv-x="333" 
 />
    <glyph glyph-name="space" unicode=" " horiz-adv-x="240" 
 />
    <glyph glyph-name="exclam" unicode="!" horiz-adv-x="261" 
d="M201 258h-146l48 442h206zM172 0h-177l29 167h177z" />
    <glyph glyph-name="quotedbl" unicode="&#x22;" horiz-adv-x="472" 
d="M296 700l-85 -265h-107l8 265h184zM512 700l-85 -265h-106l7 265h184z" />
    <glyph glyph-name="numbersign" unicode="#" horiz-adv-x="787" 
d="M664 418l-54 -104h90l-27 -154h-143l-83 -160h-171l83 160h-105l-83 -160h-171l83 160h-75l27 154h128l54 104h-95l27 154h148l67 128h170l-66 -128h105l67 128h170l-66 -128h70l-27 -154h-123zM494 418h-106l-54 -104h105z" />
    <glyph glyph-name="dollar" unicode="$" horiz-adv-x="610" 
d="M449 700h53q70 0 94.5 -43t4.5 -154l-5 -28h-188l5 30q5 31 3 38t-13 7h-5l-22 -121l79 -23q34 -9 50 -15.5t34 -20.5t23 -34t5.5 -53.5t-8.5 -82.5q-20 -113 -59 -156.5t-109 -43.5h-65l-19 -105h-144l19 105h-58q-70 0 -94 43.5t-4 156.5l6 32h188l-6 -33
q-5 -32 -3 -39.5t13 -7.5h11l23 128l-71 21q-34 10 -50 16t-34.5 20t-23.5 33.5t-5.5 52t8.5 80.5q20 111 58.5 154t108.5 43h56l19 105h144zM305 550h-10q-10 0 -15 -8t-10 -37t-3 -37t14 -12l7 -2zM345 254l-18 -102h18q11 0 16 8t10 39t2.5 39.5t-13.5 11.5z" />
    <glyph glyph-name="percent" unicode="%" horiz-adv-x="635" 
d="M621 700l-423 -700h-156l423 700h156zM174 700h97q38 0 50.5 -15.5t5.5 -54.5l-24 -136q-7 -39 -24.5 -54.5t-55.5 -15.5h-97q-39 0 -51.5 15.5t-5.5 54.5l24 136q7 39 24.5 54.5t56.5 15.5zM222 510l18 104q1 7 -0.5 9.5t-8.5 2.5h-43q-12 0 -14 -12l-18 -104
q-1 -7 0.5 -9.5t9.5 -2.5h43q11 0 13 12zM441 276h97q39 0 51 -15.5t5 -54.5l-24 -136q-7 -39 -24.5 -54.5t-56.5 -15.5h-97q-38 0 -50.5 15.5t-5.5 54.5l24 136q7 39 25 54.5t56 15.5zM489 86l19 104q1 8 -0.5 10t-8.5 2h-44q-12 0 -13 -12l-19 -104q-1 -7 0.5 -9.5
t8.5 -2.5h44q11 0 13 12z" />
    <glyph glyph-name="ampersand" unicode="&#x26;" horiz-adv-x="650" 
d="M576 283l-26 -147q-12 -65 -57 -100.5t-111 -35.5h-253q-70 0 -94.5 41t-6.5 142q16 89 40.5 129t76.5 45q-47 9 -56 46.5t8 121.5q17 96 55.5 135.5t107.5 39.5h215q65 0 93 -35t16 -101l-13 -78h-188l7 44q2 10 -0.5 14t-12.5 4h-71q-10 0 -15.5 -10t-12.5 -48
q-3 -21 -4.5 -32.5t0 -17.5t4 -7.5t7.5 -1.5h384l-26 -148h-67zM399 283h-148q-11 0 -16 -11t-13 -54q-4 -24 -5.5 -36.5t0 -19.5t3.5 -8.5t8 -1.5h130q11 0 15.5 4t5.5 14z" />
    <glyph glyph-name="quotesingle" unicode="'" horiz-adv-x="256" 
d="M296 700l-85 -265h-107l8 265h184z" />
    <glyph glyph-name="parenleft" unicode="(" horiz-adv-x="398" 
d="M411 604h-81q-17 0 -21 -18l-90 -514q-4 -18 14 -18h81l-29 -160h-153q-133 0 -109 136l106 598q24 136 157 136h153z" />
    <glyph glyph-name="parenright" unicode=")" horiz-adv-x="398" 
d="M134 764h153q133 0 109 -136l-106 -598q-24 -136 -157 -136h-153l29 160h81q10 0 14 3.5t6 14.5l90 514q2 10 -0.5 14t-12.5 4h-81z" />
    <glyph glyph-name="asterisk" unicode="*" horiz-adv-x="416" 
d="M391 398l-118 -77l-31 142l-80 -141l-94 76l130 102l-145 7l62 126l112 -80l-8 147h130l-59 -149l138 81l20 -124l-153 -14z" />
    <glyph glyph-name="plus" unicode="+" horiz-adv-x="498" 
d="M159 182l20 115h-123l26 146h123l20 115h150l-20 -115h123l-26 -146h-123l-20 -115h-150z" />
    <glyph glyph-name="comma" unicode="," horiz-adv-x="254" 
d="M202 176l-21 -121q-6 -31 -21 -54.5t-49 -53.5l-98 -85h-59l110 138h-76l31 176h183z" />
    <glyph glyph-name="hyphen" unicode="-" horiz-adv-x="447" 
d="M426 409l-28 -161h-356l28 161h356z" />
    <glyph glyph-name="period" unicode="." horiz-adv-x="253" 
d="M160 0h-162l29 166h162z" />
    <glyph glyph-name="slash" unicode="/" horiz-adv-x="531" 
d="M624 770l-495 -840h-192l495 840h192z" />
    <glyph glyph-name="zero" unicode="0" horiz-adv-x="636" 
d="M405 0h-269q-133 0 -109 136l75 428q25 136 157 136h269q134 0 109 -136l-75 -428q-24 -136 -157 -136zM284 526l-62 -352q-4 -18 14 -18h125q10 0 14 3.5t6 14.5l62 352q2 11 -1 14.5t-13 3.5h-125q-10 0 -14.5 -4t-5.5 -14z" />
    <glyph glyph-name="one" unicode="1" horiz-adv-x="426" 
d="M113 0l91 515l-141 -54l28 157l192 82h141l-123 -700h-188z" />
    <glyph glyph-name="two" unicode="2" horiz-adv-x="588" 
d="M272 478l9 52q4 18 21 18h103q10 0 12.5 -3.5t0.5 -14.5l-10 -58q-2 -15 -15 -19l-186 -62q-82 -27 -120 -59.5t-49 -96.5l-41 -235h516l28 158h-330l9 54q2 14 16 19l186 62q81 27 119 60t49 96l20 115q12 66 -16 101t-93 35h-241q-64 0 -104.5 -35t-52.5 -101l-15 -86
h184z" />
    <glyph glyph-name="three" unicode="3" horiz-adv-x="607" 
d="M219 223v-3q-4 -23 -5.5 -36.5t-0.5 -20.5t3.5 -9t7.5 -2h119q11 0 16 11t12 55q4 23 5.5 36t0.5 19.5t-3 8t-8 1.5h-145l26 148h137q10 0 15.5 10t11.5 49q4 21 5.5 32t0 17t-4 7.5t-7.5 1.5h-103q-10 0 -15.5 -10t-12.5 -48l-2 -13h-188l9 48q17 96 55.5 135.5
t107.5 39.5h247q70 0 95 -39.5t8 -135.5q-16 -89 -36.5 -124t-70.5 -44q50 -5 61 -48.5t-7 -125.5q-17 -101 -56 -142t-109 -41h-263q-70 0 -94.5 41t-6.5 142l7 40h188z" />
    <glyph glyph-name="four" unicode="4" horiz-adv-x="639" 
d="M598 133h-85l-23 -133h-184l23 133h-308l-11 142l385 425h218l-72 -410h85zM223 290h136l35 198z" />
    <glyph glyph-name="five" unicode="5" horiz-adv-x="618" 
d="M298 544l-26 -149q66 72 159 72q97 0 130.5 -32.5t20.5 -103.5l-34 -195q-24 -136 -157 -136h-255q-133 0 -109 136l15 87h188l-8 -49q-4 -18 14 -18h110q10 0 14.5 3.5t6.5 14.5l20 117q2 10 -4 14t-20 4q-47 0 -112 -31l-179 53l65 369h487l-27 -156h-299z" />
    <glyph glyph-name="six" unicode="6" horiz-adv-x="619" 
d="M415 491l6 35q2 11 -1 14.5t-13 3.5h-103q-10 0 -14.5 -4t-5.5 -14l-27 -153q18 19 32 31t50.5 26.5t81.5 14.5q100 0 134.5 -32.5t21.5 -103.5l-30 -173q-24 -136 -157 -136h-254q-133 0 -109 136l75 428q25 136 157 136h247q134 0 109 -136l-12 -73h-188zM238 266
l-16 -92q-4 -18 14 -18h110q10 0 14 3.5t6 14.5l18 105q2 10 -3.5 14t-22.5 4q-36 0 -58.5 -6t-61.5 -25z" />
    <glyph glyph-name="seven" unicode="7" horiz-adv-x="590" 
d="M617 565l-385 -565h-207l370 540h-311l28 160h528z" />
    <glyph glyph-name="eight" unicode="8" horiz-adv-x="617" 
d="M509 357q50 -5 61 -48.5t-7 -125.5q-17 -101 -56 -142t-108 -41h-275q-70 0 -94.5 41t-6.5 142q16 89 40.5 129t76.5 45q-47 9 -56 46.5t8 121.5q17 96 55.5 135.5t107.5 39.5h259q70 0 95 -39.5t8 -135.5q-16 -88 -37 -123.5t-71 -44.5zM415 548h-114q-10 0 -15.5 -10
t-12.5 -48q-3 -21 -4.5 -32.5t0 -17.5t4 -7.5t7.5 -1.5h114q11 0 16.5 10t11.5 49q4 21 5.5 32t0 17t-4 7.5t-8.5 1.5zM223 152h130q11 0 16 10.5t12 55.5l6 36t1 19t-3.5 8.5t-8.5 1.5h-130q-11 0 -16 -11t-13 -54q-4 -24 -5.5 -36.5t0 -19.5t3.5 -8.5t8 -1.5z" />
    <glyph glyph-name="nine" unicode="9" horiz-adv-x="619" 
d="M233 209l-6 -35q-2 -11 1 -14.5t13 -3.5h103q10 0 14 3.5t6 14.5l26 149q-66 -72 -165 -72q-100 0 -134 32.5t-22 103.5l31 177q25 136 157 136h254q134 0 109 -136l-75 -428q-24 -136 -157 -136h-247q-133 0 -109 136l13 73h188zM409 430l17 96q2 11 -1 14.5t-13 3.5
h-110q-10 0 -14.5 -4t-5.5 -14l-19 -109q-2 -11 3 -14.5t22 -3.5q36 0 59.5 6.5t61.5 24.5z" />
    <glyph glyph-name="colon" unicode=":" horiz-adv-x="274" 
d="M245 364h-183l31 176h183zM181 0h-183l31 176h183z" />
    <glyph glyph-name="semicolon" unicode=";" horiz-adv-x="264" 
d="M235 364h-183l31 176h183zM202 176l-21 -121q-6 -31 -21 -54.5t-49 -53.5l-98 -85h-59l110 138h-76l31 176h183z" />
    <glyph glyph-name="less" unicode="&#x3c;" horiz-adv-x="497" 
d="M74 425l-22 -124l352 -225l30 168l-189 117l229 110l32 180z" />
    <glyph glyph-name="equal" unicode="=" horiz-adv-x="499" 
d="M499 559l-28 -154h-396l28 154h396zM460 343l-27 -154h-396l27 154h396z" />
    <glyph glyph-name="greater" unicode="&#x3e;" horiz-adv-x="497" 
d="M96 483l189 -118l-229 -109l-32 -180l432 225l22 124l-352 226z" />
    <glyph glyph-name="question" unicode="?" horiz-adv-x="566" 
d="M216 700h269q134 0 109 -136l-19 -108q-8 -46 -43.5 -78t-122.5 -81l-60 -34q-12 -7 -13 -21l-4 -19h-188l8 44q4 25 18 47t41 43.5t48.5 35.5t62.5 38l57 33q12 10 14 22l6 36q2 10 -1 14t-14 4h-124q-10 0 -14 -3.5t-6 -14.5l-11 -60h-188l18 102q25 136 157 136z
M321 160l-28 -160h-188l28 160h188z" />
    <glyph glyph-name="at" unicode="@" horiz-adv-x="976" 
d="M272 700h584q134 0 109 -136l-67 -380q-12 -71 -48 -103.5t-109 -32.5h-214l-14 72q-58 -76 -155 -76q-78 0 -107.5 33t-17.5 103l32 182q12 70 53 103t120 33q97 0 128 -76l40 72h145l-61 -346h50q22 0 28 25l67 384q4 25 -18 25h-546q-24 0 -28 -25l-101 -574
q-4 -25 19 -25h497l-21 -118h-516q-133 0 -109 136l103 588q13 71 48.5 103.5t108.5 32.5zM528 208l22 126q-52 30 -96 30q-16 0 -19 -18l-26 -150q-4 -18 12 -18q45 0 107 30z" />
    <glyph glyph-name="A" unicode="A" horiz-adv-x="665" 
d="M411 144h-199l-61 -144h-197l330 700h246l86 -700h-195zM400 294l-18 253l-107 -253h125z" />
    <glyph glyph-name="B" unicode="B" horiz-adv-x="638" 
d="M134 700h390q71 0 100.5 -40.5t12.5 -134.5q-16 -87 -38 -122.5t-73 -44.5q51 -5 63.5 -49t-5.5 -126q-18 -103 -55 -143t-110 -40h-408zM274 424h140q10 0 15 10.5t13 54.5q4 23 5.5 36t0.5 19.5t-3 8t-8 1.5h-140zM225 146h148q10 0 15.5 11.5t14.5 61.5q4 26 6 40.5
t1 22t-3.5 9t-8.5 1.5h-148z" />
    <glyph glyph-name="C" unicode="C" horiz-adv-x="614" 
d="M401 0h-265q-133 0 -109 136l75 428q25 136 159 136h265q132 0 107 -136l-23 -131h-188l17 93q2 11 -1.5 14.5t-13.5 3.5h-120q-10 0 -14.5 -4t-5.5 -14l-62 -352q-4 -18 14 -18h120q10 0 14.5 3.5t6.5 14.5l16 93h188l-23 -131q-24 -136 -157 -136z" />
    <glyph glyph-name="D" unicode="D" horiz-adv-x="652" 
d="M134 700h410q134 0 109 -136l-75 -428q-24 -136 -157 -136h-410zM227 156h150q10 0 14 3.5t6 14.5l62 352q2 11 -1 14.5t-13 3.5h-150z" />
    <glyph glyph-name="E" unicode="E" horiz-adv-x="580" 
d="M134 700h484l-27 -156h-296l-19 -109h234l-27 -154h-234l-22 -125h296l-28 -156h-484z" />
    <glyph glyph-name="F" unicode="F" horiz-adv-x="564" 
d="M11 0l123 700h484l-27 -156h-296l-22 -122h234l-27 -154h-234l-47 -268h-188z" />
    <glyph glyph-name="G" unicode="G" horiz-adv-x="635" 
d="M439 469l10 59q2 11 -1 14.5t-13 3.5h-131q-10 0 -14 -3.5t-6 -14.5l-63 -356q-2 -11 1 -14.5t13 -3.5h131q10 0 14 3.5t6 14.5l16 88h-98l26 148h284l-48 -272q-24 -136 -157 -136h-273q-133 0 -109 136l75 428q25 136 157 136h273q134 0 109 -136l-16 -95h-186z" />
    <glyph glyph-name="H" unicode="H" horiz-adv-x="686" 
d="M11 0l123 700h188l-46 -262h193l46 262h188l-123 -700h-188l49 278h-193l-49 -278h-188z" />
    <glyph glyph-name="I" unicode="I" horiz-adv-x="305" 
d="M11 0l123 700h188l-123 -700h-188z" />
    <glyph glyph-name="J" unicode="J" horiz-adv-x="561" 
d="M580 700l-99 -564q-24 -136 -157 -136h-230q-133 0 -109 136l27 155h188l-20 -113q-2 -11 1 -14.5t13 -3.5h85q11 0 15.5 4t5.5 14l92 522h188z" />
    <glyph glyph-name="K" unicode="K" horiz-adv-x="655" 
d="M484 437l120 -437h-192l-66 280l-127 -144l-24 -136h-184l123 700h184l-55 -313l246 313h208z" />
    <glyph glyph-name="L" unicode="L" horiz-adv-x="538" 
d="M134 700h188l-95 -540h271l-28 -160h-459z" />
    <glyph glyph-name="M" unicode="M" horiz-adv-x="842" 
d="M859 700l-123 -700h-181l71 403l-176 -318h-112l-78 318l-71 -403h-178l123 700h211l87 -368l206 368h221z" />
    <glyph glyph-name="N" unicode="N" horiz-adv-x="707" 
d="M542 700h182l-123 -700h-158l-179 401l-71 -401h-182l123 700h179l164 -372z" />
    <glyph glyph-name="O" unicode="O" horiz-adv-x="644" 
d="M413 0h-277q-133 0 -109 136l75 428q25 136 157 136h277q134 0 109 -136l-75 -428q-24 -136 -157 -136zM284 526l-62 -352q-4 -18 14 -18h133q10 0 14 3.5t6 14.5l62 352q2 11 -1 14.5t-13 3.5h-133q-10 0 -14.5 -4t-5.5 -14z" />
    <glyph glyph-name="P" unicode="P" horiz-adv-x="622" 
d="M134 700h404q134 0 109 -136l-37 -211q-24 -136 -157 -136h-216l-38 -217h-188zM264 371h144q17 0 21 18l24 139q4 18 -14 18h-144z" />
    <glyph glyph-name="Q" unicode="Q" horiz-adv-x="645" 
d="M259 700h278q134 0 109 -136l-75 -428q-24 -136 -157 -136h-49l-23 -130h-179l23 130h-50q-133 0 -109 136l75 428q25 136 157 136zM390 174l62 352q2 11 -1 14.5t-13 3.5h-134q-10 0 -14.5 -4t-5.5 -14l-62 -352q-4 -18 14 -18h134q10 0 14 3.5t6 14.5z" />
    <glyph glyph-name="R" unicode="R" horiz-adv-x="643" 
d="M134 700h405q134 0 109 -136l-32 -182q-19 -114 -115 -132l76 -250h-182l-76 234h-79l-41 -234h-188zM266 382h145q17 0 21 18l22 130q2 10 -0.5 14t-12.5 4h-145z" />
    <glyph glyph-name="S" unicode="S" horiz-adv-x="611" 
d="M408 475l10 57q2 11 -1.5 14.5t-13.5 3.5h-108q-10 0 -14.5 -4t-5.5 -14l-10 -54q-2 -10 1 -14t15 -8l174 -50q22 -6 36.5 -11t30 -11.5t24 -13.5t16 -17t10.5 -22.5t3 -28.5t-4 -37l-23 -129q-24 -136 -157 -136h-267q-133 0 -109 136l17 96h188l-11 -64q-2 -11 1 -14.5
t13 -3.5h121q18 0 22 18l10 61q1 10 -2 14t-14 7l-173 51q-53 15 -77 27.5t-35.5 39.5t-3.5 74l21 122q25 136 157 136h253q134 0 109 -136l-15 -89h-188z" />
    <glyph glyph-name="T" unicode="T" horiz-adv-x="563" 
d="M593 540h-170l-95 -540h-188l95 540h-170l28 160h528z" />
    <glyph glyph-name="U" unicode="U" horiz-adv-x="646" 
d="M665 700l-99 -564q-12 -66 -52.5 -101t-104.5 -35h-267q-65 0 -93 35t-16 101l99 564h188l-91 -520q-3 -18 14 -18h122q18 0 21 18l91 520h188z" />
    <glyph glyph-name="V" unicode="V" horiz-adv-x="631" 
d="M704 700l-329 -700h-214l-83 700h197l25 -506l204 506h200z" />
    <glyph glyph-name="W" unicode="W" horiz-adv-x="912" 
d="M705 0h-194l-22 434l-176 -434h-200l-35 700h184l-12 -474l192 474h178l25 -474l155 474h185z" />
    <glyph glyph-name="X" unicode="X" horiz-adv-x="642" 
d="M314 201l-150 -201h-210l282 358l-153 342h198l75 -200l145 200h210l-270 -348l152 -352h-198z" />
    <glyph glyph-name="Y" unicode="Y" horiz-adv-x="629" 
d="M361 0h-188l38 217l-133 483h198l57 -297l161 297h208l-303 -483z" />
    <glyph glyph-name="Z" unicode="Z" horiz-adv-x="586" 
d="M14 119l341 421h-249l28 160h487l-21 -119l-340 -421h265l-28 -160h-504z" />
    <glyph glyph-name="bracketleft" unicode="[" horiz-adv-x="382" 
d="M313 604l-97 -550h82l-29 -160h-270l154 870h270l-28 -160h-82z" />
    <glyph glyph-name="backslash" unicode="\" horiz-adv-x="516" 
d="M461 -70h-177l-199 840h177z" />
    <glyph glyph-name="bracketright" unicode="]" horiz-adv-x="382" 
d="M134 764h270l-154 -870h-270l29 160h82l97 550h-82z" />
    <glyph glyph-name="asciicircum" unicode="^" horiz-adv-x="769" 
d="M365 700h190l147 -494h-190l-77 327l-193 -327h-197z" />
    <glyph glyph-name="underscore" unicode="_" 
d="M512 -34l-28 -159h-560l28 159h560z" />
    <glyph glyph-name="grave" unicode="`" horiz-adv-x="339" 
d="M264 766h140l-64 144h-214z" />
    <glyph glyph-name="a" unicode="a" horiz-adv-x="570" 
d="M236 546q98 0 143 -69l11 63h177l-95 -540h-177l11 63q-69 -69 -167 -69q-82 0 -109.5 30.5t-15.5 97.5l52 296q12 67 50 97.5t120 30.5zM238 384l-40 -228q-2 -11 3.5 -15.5t24.5 -4.5q43 0 98 28l37 212q-44 28 -88 28q-19 0 -26 -4.5t-9 -15.5z" />
    <glyph glyph-name="b" unicode="b" horiz-adv-x="570" 
d="M431 546q82 0 110 -30.5t16 -97.5l-52 -296q-12 -67 -50.5 -97.5t-120.5 -30.5q-95 0 -142 69l-11 -63h-178l129 730h178l-45 -253q71 69 166 69zM334 156l40 228q2 11 -4 15.5t-25 4.5q-42 0 -98 -28l-37 -212q46 -28 88 -28q32 0 36 20z" />
    <glyph glyph-name="c" unicode="c" horiz-adv-x="527" 
d="M212 540h207q125 0 103 -128l-14 -80h-177l8 48q2 11 -1.5 15.5t-14.5 4.5h-63q-19 0 -23 -20l-39 -220q-3 -20 16 -20h63q20 0 23 20l9 48h177l-14 -80q-12 -65 -48 -96.5t-100 -31.5h-207q-126 0 -102 128l50 284q22 128 147 128z" />
    <glyph glyph-name="d" unicode="d" horiz-adv-x="570" 
d="M236 546q98 0 143 -69l45 253h177l-129 -730h-177l11 63q-69 -69 -167 -69q-82 0 -109.5 30.5t-15.5 97.5l52 296q12 67 50 97.5t120 30.5zM238 384l-40 -228q-2 -11 3.5 -15.5t24.5 -4.5q43 0 98 28l37 212q-44 28 -88 28q-19 0 -26 -4.5t-9 -15.5z" />
    <glyph glyph-name="e" unicode="e" horiz-adv-x="538" 
d="M212 540h211q126 0 104 -128l-33 -185h-286l-13 -75q-4 -20 15 -20h71q20 0 24 20l5 27h176l-9 -51q-24 -128 -149 -128h-211q-126 0 -102 128l50 284q22 128 147 128zM335 325l11 63q2 11 -1.5 15.5t-14.5 4.5h-71q-19 0 -23 -20l-11 -63h110z" />
    <glyph glyph-name="f" unicode="f" horiz-adv-x="393" 
d="M426 596h-73q-20 0 -23 -20l-7 -36h103l-24 -135h-103l-71 -405h-178l71 405h-74l24 135h74l11 62q22 128 149 128h145z" />
    <glyph glyph-name="g" unicode="g" horiz-adv-x="573" 
d="M570 540l-101 -572q-22 -128 -148 -128h-284l24 136h212q20 0 23 20l17 97q-69 -69 -167 -69q-82 0 -110 30.5t-17 97.5l49 266q12 67 50 97.5t120 30.5q98 0 143 -69l11 63h178zM240 384l-35 -198q-2 -11 3.5 -15.5t24.5 -4.5q43 0 98 28l32 182q-44 28 -88 28
q-19 0 -26 -4.5t-9 -15.5z" />
    <glyph glyph-name="h" unicode="h" 
d="M310 730l-45 -253q71 69 162 69q78 0 106.5 -31t17.5 -97l-74 -418h-178l66 376q2 11 -2.5 15.5t-19.5 4.5q-42 0 -97 -28l-65 -368h-178l129 730h178z" />
    <glyph glyph-name="i" unicode="i" horiz-adv-x="275" 
d="M288 593h-186l24 137h186zM274 540l-95 -540h-178l95 540h178z" />
    <glyph glyph-name="j" unicode="j" horiz-adv-x="274" 
d="M287 593h-187l24 137h187zM274 540l-99 -563q-11 -60 -47.5 -89.5t-102.5 -39.5l-148 -22l22 121l81 31q18 6 21 22l95 540h178z" />
    <glyph glyph-name="k" unicode="k" horiz-adv-x="559" 
d="M416 340l92 -340h-176l-43 197l-96 -108l-16 -89h-174l129 730h174l-75 -422l167 232h195z" />
    <glyph glyph-name="l" unicode="l" horiz-adv-x="269" 
d="M127 730h178l-129 -730h-178z" />
    <glyph glyph-name="m" unicode="m" horiz-adv-x="856" 
d="M713 546q78 0 106 -31t17 -97l-74 -418h-178l66 376q2 11 -1.5 15.5t-15.5 4.5q-42 0 -97 -28l-65 -368h-177l66 376q2 11 -1.5 15.5t-15.5 4.5q-42 0 -97 -28l-65 -368h-178l95 540h178l-11 -63q22 21 37.5 33t48 24t71.5 12q117 0 126 -76q65 76 165 76z" />
    <glyph glyph-name="n" unicode="n" 
d="M276 540l-11 -63q71 69 162 69q78 0 106.5 -31t17.5 -97l-74 -418h-178l66 376q2 11 -2.5 15.5t-19.5 4.5q-42 0 -97 -28l-65 -368h-178l95 540h178z" />
    <glyph glyph-name="o" unicode="o" horiz-adv-x="547" 
d="M212 540h218q125 0 103 -128l-50 -284q-12 -65 -48 -96.5t-100 -31.5h-218q-126 0 -102 128l50 284q22 128 147 128zM315 160l39 220q2 11 -1.5 15.5t-14.5 4.5h-82q-19 0 -23 -20l-39 -220q-2 -11 1.5 -15.5t14.5 -4.5h82q20 0 23 20z" />
    <glyph glyph-name="p" unicode="p" horiz-adv-x="570" 
d="M431 546q82 0 110 -30.5t16 -97.5l-52 -296q-12 -67 -50.5 -97.5t-120.5 -30.5q-95 0 -142 69l-39 -223h-178l123 700h178l-11 -63q71 69 166 69zM334 156l40 228q2 11 -4 15.5t-25 4.5q-42 0 -98 -28l-37 -212q46 -28 88 -28q32 0 36 20z" />
    <glyph glyph-name="q" unicode="q" horiz-adv-x="570" 
d="M236 546q98 0 143 -69l11 63h177l-123 -700h-177l39 223q-69 -69 -167 -69q-82 0 -109.5 30.5t-15.5 97.5l52 296q12 67 50 97.5t120 30.5zM238 384l-40 -228q-2 -11 3.5 -15.5t24.5 -4.5q43 0 98 28l37 212q-44 28 -88 28q-19 0 -26 -4.5t-9 -15.5z" />
    <glyph glyph-name="r" unicode="r" horiz-adv-x="426" 
d="M427 385h-65q-73 0 -118 -28l-63 -357h-178l95 540h178l-12 -69q60 69 134 69h56z" />
    <glyph glyph-name="s" unicode="s" horiz-adv-x="519" 
d="M324 367l2 15q3 20 0.5 26t-14.5 6h-59q-11 0 -16 -6t-9 -26q-5 -33 14 -36l145 -27q63 -12 83 -40.5t5 -111.5q-16 -92 -52 -129.5t-102 -37.5h-218q-66 0 -89 37.5t-7 129.5l3 15h176l-3 -17q-3 -23 -0.5 -29t13.5 -6h77q12 0 17 6.5t9 28.5q6 30 -13 33l-145 27
q-26 5 -42 10.5t-29.5 16t-18.5 26t-5.5 39.5t5.5 58q16 91 52.5 128t101.5 37h199q66 0 89.5 -37t7.5 -128l-1 -8h-176z" />
    <glyph glyph-name="t" unicode="t" horiz-adv-x="412" 
d="M298 402l-42 -240q-2 -11 1 -15.5t14 -4.5h87l-25 -142h-159q-126 0 -102 128l48 274h-83l24 138h85l23 130h174l-23 -130h108l-24 -138h-106z" />
    <glyph glyph-name="u" unicode="u" 
d="M295 0l11 63q-69 -69 -163 -69q-78 0 -106 31t-16 97l73 418h178l-65 -370q-2 -11 2.5 -15.5t19.5 -4.5q42 0 97 28l64 362h178l-95 -540h-178z" />
    <glyph glyph-name="v" unicode="v" horiz-adv-x="530" 
d="M574 540l-261 -540h-190l-72 540h181l13 -374l146 374h183z" />
    <glyph glyph-name="w" unicode="w" horiz-adv-x="792" 
d="M602 0h-177l-18 327l-133 -327h-181l-42 540h174l-4 -352l143 352h159l20 -352l119 352h174z" />
    <glyph glyph-name="x" unicode="x" horiz-adv-x="536" 
d="M245 138l-107 -138h-184l225 279l-128 261h181l55 -143l105 143h185l-217 -264l127 -276h-182z" />
    <glyph glyph-name="y" unicode="y" horiz-adv-x="538" 
d="M582 540l-351 -700h-176l84 160l-88 540h182l21 -361l147 361h181z" />
    <glyph glyph-name="z" unicode="z" horiz-adv-x="479" 
d="M1 121l245 276h-190l25 143h408l-21 -118l-248 -279h209l-25 -143h-424z" />
    <glyph glyph-name="braceleft" unicode="{" horiz-adv-x="463" 
d="M374 586l-29 -168q-6 -35 -31 -58t-53 -29q25 -5 42 -28.5t11 -58.5l-30 -172q-2 -11 1 -14.5t13 -3.5h81l-29 -160h-153q-133 0 -109 136l36 205q2 11 -1 14.5t-13 3.5h-75l27 155h75q11 0 15.5 4t5.5 14l36 202q24 136 157 136h153l-28 -160h-81q-10 0 -14.5 -3.5
t-6.5 -14.5z" />
    <glyph glyph-name="bar" unicode="|" horiz-adv-x="362" 
d="M180 767h177l-173 -983h-177z" />
    <glyph glyph-name="braceright" unicode="}" horiz-adv-x="464" 
d="M171 418l29 168q2 10 -0.5 14t-12.5 4h-81l28 160h153q133 0 109 -136l-36 -202q-2 -11 1.5 -14.5t13.5 -3.5h75l-27 -155h-75q-18 0 -22 -18l-36 -205q-24 -136 -157 -136h-153l29 160h81q10 0 14 3.5t6 14.5l30 172q6 35 31 58.5t52 28.5q-25 6 -41.5 29t-10.5 58z" />
    <glyph glyph-name="asciitilde" unicode="~" horiz-adv-x="497" 
d="M152 254l3 19q4 21 26 21q19 0 67 -23t78 -23q47 0 77.5 28.5t43.5 103.5l4 25h-85l-3 -19q-3 -21 -25 -21q-19 0 -65.5 23t-73.5 23q-103 0 -126 -132l-4 -25h83z" />
    <glyph glyph-name="exclamdown" unicode="&#xa1;" horiz-adv-x="261" 
d="M85 540h184l-30 -170h-184zM57 282h150l-50 -442h-206z" />
    <glyph glyph-name="cent" unicode="&#xa2;" horiz-adv-x="596" 
d="M411 401l9 50q2 11 -1.5 14.5t-13.5 3.5h-15l-41 -232h15q10 0 14.5 3.5t6.5 14.5l9 50h170l-15 -84q-24 -136 -157 -136h-46l-15 -85h-159l15 85h-46q-133 0 -109 136l47 264q24 136 156 136h46l14 79h159l-14 -79h46q134 0 110 -136l-15 -84h-170zM278 469h-15
q-10 0 -14.5 -4t-5.5 -14l-35 -196q-4 -18 14 -18h15z" />
    <glyph glyph-name="sterling" unicode="&#xa3;" horiz-adv-x="614" 
d="M298 700h221q134 0 109 -136l-17 -101h-188l11 65q2 11 -1 14.5t-13 3.5h-77q-10 0 -14 -3.5t-6 -14.5l-20 -114h105l-27 -152h-105l-19 -108h303l-27 -154h-561l27 154h52q11 0 15.5 4t5.5 14l16 90h-70l27 152h70l26 150q25 136 157 136z" />
    <glyph glyph-name="currency" unicode="&#xa4;" horiz-adv-x="587" 
d="M541 442l-30 -168q-3 -20 -9 -36l66 -81l-128 -110l-73 91h-13h-167h-13l-106 -91l-88 110l94 82q2 22 4 35l30 168q2 14 8 33l-66 81l127 110l71 -89l17 1h167h15l102 88l89 -110l-93 -81q-2 -23 -4 -33zM256 279h79q17 0 20 18l22 122q2 11 -1 14.5t-13 3.5h-79
q-10 0 -14 -3.5t-6 -14.5l-22 -122q-3 -18 14 -18z" />
    <glyph glyph-name="yen" unicode="&#xa5;" horiz-adv-x="629" 
d="M477 342h73l-13 -77h-108l-24 -38h125l-14 -77h-129l-26 -150h-188l26 150h-138l14 77h133l-10 38h-116l13 77h82l-99 358h198l57 -297l161 297h208z" />
    <glyph glyph-name="brokenbar" unicode="&#xa6;" horiz-adv-x="362" 
d="M180 767h177l-70 -396h-177zM184 -216h-177l70 396h177z" />
    <glyph glyph-name="section" unicode="&#xa7;" horiz-adv-x="526" 
d="M354 520l5 30q2 11 -1.5 14.5t-13.5 3.5h-61q-11 0 -15.5 -5.5t-7.5 -22.5q-3 -19 -1 -26.5t12 -8.5l147 -27q63 -11 82 -44t5 -112q-21 -114 -73 -133q18 -9 24.5 -27t-0.5 -78q-18 -98 -56.5 -138t-108.5 -40h-192q-133 0 -109 136l10 56h174l-6 -34q-2 -11 1 -14.5
t13 -3.5h81q11 0 15.5 6.5t8.5 28.5q4 24 2 32t-11 10l-149 25q-61 10 -80 43t-6 110q11 59 34 91.5t44 40.5q-45 17 -30 100q16 90 54.5 128.5t107.5 38.5h172q134 0 109 -136l-7 -44h-173zM222 272l84 -15q18 -3 24.5 4.5t12.5 41.5q5 27 2 38.5t-18 14.5l-84 16
q-11 2 -16.5 -7.5t-11.5 -41.5q-5 -35 -3.5 -42t10.5 -9z" />
    <glyph glyph-name="dieresis" unicode="&#xa8;" horiz-adv-x="626" 
d="M374 766h-148l25 140h148zM575 766h-148l25 140h148z" />
    <glyph glyph-name="copyright" unicode="&#xa9;" horiz-adv-x="828" 
d="M272 700h436q134 0 109 -136l-75 -428q-12 -70 -49 -103t-108 -33h-436q-133 0 -109 136l75 428q13 71 49.5 103.5t107.5 32.5zM627 143l73 414q5 24 -2 33t-30 9h-391q-23 0 -33 -9t-15 -33l-73 -414q-4 -24 3 -33t30 -9h391q23 0 33 9t14 33zM378 548h173
q45 0 62 -21.5t9 -68.5l-13 -71h-125l6 31q2 11 -1.5 14.5t-13.5 3.5h-61q-11 0 -15.5 -4t-5.5 -14l-24 -136q-2 -10 1 -14t14 -4h61q10 0 14.5 3.5t6.5 14.5l5 31h125l-12 -71q-8 -47 -32 -68.5t-71 -21.5h-173q-45 0 -62 21.5t-9 68.5l38 216q8 47 32 68.5t71 21.5z" />
    <glyph glyph-name="ordfeminine" unicode="&#xaa;" horiz-adv-x="383" 
d="M210 700h122q88 0 73 -90l-46 -261h-108l8 49q-13 -17 -22.5 -26.5t-29 -17.5t-43.5 -8q-115 0 -96 105q9 52 38 73.5t86 31.5q44 8 97 11l7 39q1 12 -10 12h-61q-13 0 -14 -12l-4 -20h-105l5 24q8 47 32.5 68.5t70.5 21.5zM280 508l-77 -18q-20 -4 -25 -29
q-2 -17 1.5 -22t22.5 -5q31 0 68 22zM350 299l-17 -96h-301l17 96h301z" />
    <glyph glyph-name="guillemotleft" unicode="&#xab;" horiz-adv-x="564" 
d="M366 559l-189 -210l103 -205h-174l-93 179l10 56l157 180h186zM611 559l-189 -210l103 -205h-173l-94 179l10 56l158 180h185z" />
    <glyph glyph-name="registered" unicode="&#xae;" horiz-adv-x="395" 
d="M174 700h195q31 0 42.5 -14.5t6.5 -45.5l-45 -253q-10 -60 -69 -60h-195q-31 0 -42 14t-6 46l45 253q5 32 21 46t47 14zM329 390l43 247q2 12 -1.5 16.5t-14.5 4.5h-180q-20 0 -24 -21l-43 -247q-2 -12 1.5 -16.5t14.5 -4.5h180q20 0 24 21zM182 622h119q22 0 29 -9
t3 -31l-10 -57q-7 -36 -36 -39l20 -82h-51l-19 81h-28l-15 -81h-51zM217 528h46q7 0 10 8l6 35q1 8 -7 8h-46z" />
    <glyph glyph-name="macron" unicode="&#xaf;" horiz-adv-x="604" 
d="M542 897l-23 -131h-278l23 131h278z" />
    <glyph glyph-name="degree" unicode="&#xb0;" horiz-adv-x="311" 
d="M244 488h-100q-31 0 -42.5 14.5t-5.5 45.5l16 92q10 60 69 60h100q31 0 42.5 -14.5t6.5 -45.5l-16 -92q-11 -60 -70 -60zM245 636h-50q-12 0 -14 -12l-11 -60q-1 -8 1 -10t9 -2h50q12 0 13 12l11 60q2 8 0 10t-9 2z" />
    <glyph glyph-name="plusminus" unicode="&#xb1;" horiz-adv-x="498" 
d="M173 263l20 114h-123l26 147h123l21 115h150l-21 -115h123l-26 -147h-123l-20 -114h-150zM40 206h396l-25 -145h-396z" />
    <glyph glyph-name="twosuperior" unicode="&#xb2;" horiz-adv-x="363" 
d="M212 677l4 21q2 10 11 10h66q11 0 8 -10l-4 -25q-1 -8 -10 -10l-118 -31q-50 -13 -72 -31t-28 -52l-26 -147h326l19 105h-207l3 18q1 7 10 10l117 31q50 13 72 31t29 52l14 81q14 80 -63 80h-166q-77 0 -91 -80l-10 -53h116z" />
    <glyph glyph-name="threesuperior" unicode="&#xb3;" horiz-adv-x="362" 
d="M181 531l-1 -2q-3 -19 -2 -23.5t6 -4.5h66q6 0 9 5t7 25q2 14 2.5 20.5t-1.5 8t-6 1.5h-69l17 96h64q6 0 8.5 4.5t6.5 22.5q3 19 1.5 23t-7.5 4h-56q-5 0 -7.5 -4.5t-5.5 -22.5l-1 -3h-119l4 20q10 59 33.5 84t62.5 25h159q39 0 54 -25t5 -84q-15 -87 -60 -91
q46 -12 31 -94q-11 -62 -34.5 -88t-62.5 -26h-168q-39 0 -54 26t-4 88l3 15h119z" />
    <glyph glyph-name="acute" unicode="&#xb4;" horiz-adv-x="341" 
d="M257 766h-151l113 144h227z" />
    <glyph glyph-name="paragraph" unicode="&#xb6;" horiz-adv-x="859" 
d="M753 0h-188l95 541h-81l-95 -541h-188l43 245h-166q-133 0 -109 136l32 183q25 136 157 136h623z" />
    <glyph glyph-name="periodcentered" unicode="&#xb7;" horiz-adv-x="250" 
d="M200 241h-162l30 165h162z" />
    <glyph glyph-name="cedilla" unicode="&#xb8;" horiz-adv-x="553" 
d="M293 0l-12 -66q-10 -55 -32.5 -74.5t-75.5 -19.5h-92l-34 86h90q20 0 23 20l10 54h123z" />
    <glyph glyph-name="onesuperior" unicode="&#xb9;" horiz-adv-x="260" 
d="M123 402l52 295l-87 -29l16 93l122 49h89l-72 -408h-120z" />
    <glyph glyph-name="ordmasculine" unicode="&#xba;" horiz-adv-x="383" 
d="M202 700h130q47 0 64 -21.5t9 -68.5l-31 -171q-8 -47 -32.5 -68.5t-70.5 -21.5h-130q-46 0 -63.5 22t-9.5 68l31 171q8 47 32.5 68.5t70.5 21.5zM270 457l23 135q4 16 -13 16h-57q-15 0 -19 -16l-23 -135q-4 -16 13 -16h57q15 0 19 16zM342 299l-17 -96h-290l17 96h290z
" />
    <glyph glyph-name="guillemotright" unicode="&#xbb;" horiz-adv-x="565" 
d="M335 379l-10 -56l-158 -179h-185l189 209l-103 206h173zM581 379l-10 -56l-157 -179h-186l189 209l-103 206h174z" />
    <glyph glyph-name="onequarter" unicode="&#xbc;" horiz-adv-x="846" 
d="M722 700l-537 -700h-126l537 700h126zM103 292l52 295l-87 -29l16 93l122 49h89l-72 -408h-120zM791 66h-54l-12 -66h-118l12 66h-181l-11 82l280 260h90l-43 -245h54zM568 163h68l15 83z" />
    <glyph glyph-name="onehalf" unicode="&#xbd;" horiz-adv-x="856" 
d="M722 700l-537 -700h-126l537 700h126zM103 292l52 295l-87 -29l16 93l122 49h89l-72 -408h-120zM634 275l4 21q2 10 11 10h66q11 0 8 -10l-4 -25q-1 -8 -10 -10l-118 -31q-50 -13 -72 -31t-28 -52l-26 -147h326l19 105h-207l3 18q1 7 10 10l117 31q50 13 72 31t29 52
l14 81q14 80 -63 80h-166q-77 0 -91 -80l-10 -53h116z" />
    <glyph glyph-name="threequarters" unicode="&#xbe;" horiz-adv-x="948" 
d="M161 421l-1 -2q-3 -19 -2 -23.5t6 -4.5h66q6 0 9 5t7 25q2 14 2.5 20.5t-1.5 8t-6 1.5h-69l17 96h64q6 0 8.5 4.5t6.5 22.5q3 19 1.5 23t-7.5 4h-56q-5 0 -7.5 -4.5t-5.5 -22.5l-1 -3h-119l4 20q10 59 33.5 84t62.5 25h159q39 0 54 -25t5 -84q-15 -87 -60 -91
q46 -12 31 -94q-11 -62 -34.5 -88t-62.5 -26h-168q-39 0 -54 26t-4 88l3 15h119zM824 700l-537 -700h-126l537 700h126zM893 66h-54l-12 -66h-118l12 66h-181l-11 82l280 260h90l-43 -245h54zM670 163h68l15 83z" />
    <glyph glyph-name="questiondown" unicode="&#xbf;" horiz-adv-x="566" 
d="M245 380l28 160h188l-28 -160h-188zM350 -160h-269q-133 0 -109 136l19 108q8 46 43.5 78t122.5 81l60 34q11 7 14 21l3 19h188l-8 -44q-4 -25 -18 -47t-41 -43.5t-48.5 -35.5t-62.5 -38l-57 -33q-12 -9 -13 -22l-7 -36q-2 -11 1 -14.5t13 -3.5h124q11 0 15.5 4t5.5 14
l11 60h188l-18 -102q-24 -136 -157 -136z" />
    <glyph glyph-name="Agrave" unicode="&#xc0;" horiz-adv-x="665" 
d="M370 766l-138 144h214l64 -144h-140zM411 144h-199l-61 -144h-197l330 700h246l86 -700h-195zM400 294l-18 253l-107 -253h125z" />
    <glyph glyph-name="Aacute" unicode="&#xc1;" horiz-adv-x="665" 
d="M475 766h-151l113 144h227zM530 700l86 -700h-195l-10 144h-199l-61 -144h-197l330 700h246zM400 294l-18 253l-107 -253h125z" />
    <glyph glyph-name="Acircumflex" unicode="&#xc2;" horiz-adv-x="665" 
d="M371 766h-166l176 143h128l126 -143h-160l-42 57zM530 700l86 -700h-195l-10 144h-199l-61 -144h-197l330 700h246zM400 294l-18 253l-107 -253h125z" />
    <glyph glyph-name="Atilde" unicode="&#xc3;" horiz-adv-x="665" 
d="M321 762h-83l5 25q23 132 127 132q27 0 68.5 -23t61.5 -23t24 21l3 19h85l-4 -25q-13 -75 -44 -103.5t-77 -28.5q-32 0 -75 23t-61 23q-22 0 -26 -21zM411 144h-199l-61 -144h-197l330 700h246l86 -700h-195zM400 294l-18 253l-107 -253h125z" />
    <glyph glyph-name="Adieresis" unicode="&#xc4;" horiz-adv-x="665" 
d="M394 766h-148l25 140h148zM595 766h-148l25 140h148zM530 700l86 -700h-195l-10 144h-199l-61 -144h-197l330 700h246zM400 294l-18 253l-107 -253h125z" />
    <glyph glyph-name="Aring" unicode="&#xc5;" horiz-adv-x="665" 
d="M480 766h-121q-26 0 -35 11.5t-4 38.5l15 83q5 27 17.5 38.5t38.5 11.5h121q26 0 35.5 -11.5t4.5 -38.5l-15 -83q-4 -27 -17.5 -38.5t-39.5 -11.5zM410 874l-6 -33q-1 -8 1 -10t9 -2h33q13 0 14 12l6 33q1 7 -0.5 9.5t-9.5 2.5h-33q-12 0 -14 -12zM411 144h-199l-61 -144
h-197l330 700h246l86 -700h-195zM400 294l-18 253l-107 -253h125z" />
    <glyph glyph-name="AE" unicode="&#xc6;" horiz-adv-x="1018" 
d="M734 540l-18 -103h232l-28 -158h-232l-21 -119h294l-28 -160h-482l29 166h-206l-110 -166h-209l478 700h623l-28 -160h-294zM508 321l38 219h-24l-145 -219h131z" />
    <glyph glyph-name="Ccedilla" unicode="&#xc7;" horiz-adv-x="614" 
d="M261 700h265q132 0 107 -136l-23 -131h-188l17 93q2 11 -1.5 14.5t-13.5 3.5h-120q-10 0 -14.5 -4t-5.5 -14l-62 -352q-4 -18 14 -18h120q10 0 14.5 3.5t6.5 14.5l16 93h188l-23 -131q-24 -136 -157 -136h-67l-12 -66q-10 -55 -32.5 -74.5t-75.5 -19.5h-92l-34 86h90
q20 0 23 20l10 54h-75q-133 0 -109 136l75 428q25 136 159 136z" />
    <glyph glyph-name="Egrave" unicode="&#xc8;" horiz-adv-x="580" 
d="M342 766h140l-64 144h-214zM134 700h484l-27 -156h-296l-19 -109h234l-27 -154h-234l-22 -125h296l-28 -156h-484z" />
    <glyph glyph-name="Eacute" unicode="&#xc9;" horiz-adv-x="580" 
d="M447 766h-151l113 144h227zM134 700h484l-27 -156h-296l-19 -109h234l-27 -154h-234l-22 -125h296l-28 -156h-484z" />
    <glyph glyph-name="Ecircumflex" unicode="&#xca;" horiz-adv-x="580" 
d="M343 766l62 57l42 -57h160l-126 143h-128l-176 -143h166zM134 700h484l-27 -156h-296l-19 -109h234l-27 -154h-234l-22 -125h296l-28 -156h-484z" />
    <glyph glyph-name="Edieresis" unicode="&#xcb;" horiz-adv-x="580" 
d="M366 766h-148l25 140h148zM567 766h-148l25 140h148zM134 700h484l-27 -156h-296l-19 -109h234l-27 -154h-234l-22 -125h296l-28 -156h-484z" />
    <glyph glyph-name="Igrave" unicode="&#xcc;" horiz-adv-x="305" 
d="M190 766h140l-64 144h-214zM11 0l123 700h188l-123 -700h-188z" />
    <glyph glyph-name="Iacute" unicode="&#xcd;" horiz-adv-x="305" 
d="M295 766h-151l113 144h227zM11 0l123 700h188l-123 -700h-188z" />
    <glyph glyph-name="Icircumflex" unicode="&#xce;" horiz-adv-x="305" 
d="M191 766l62 57l42 -57h160l-126 143h-128l-176 -143h166zM11 0l123 700h188l-123 -700h-188z" />
    <glyph glyph-name="Idieresis" unicode="&#xcf;" horiz-adv-x="305" 
d="M214 766h-148l25 140h148zM415 766h-148l25 140h148zM11 0l123 700h188l-123 -700h-188z" />
    <glyph glyph-name="Eth" unicode="&#xd0;" horiz-adv-x="644" 
d="M125 700h411q134 0 109 -136l-75 -428q-24 -136 -157 -136h-411l49 278h-64l29 166h64zM389 178l61 344q2 10 -1 14t-14 4h-150l-17 -96h65l-29 -166h-65l-21 -118h150q11 0 15.5 4t5.5 14z" />
    <glyph glyph-name="Ntilde" unicode="&#xd1;" horiz-adv-x="707" 
d="M336 762l4 19q4 21 26 21q18 0 61 -23t75 -23q46 0 77 28.5t44 103.5l4 25h-85l-3 -19q-5 -21 -24 -21q-20 0 -61.5 23t-68.5 23q-104 0 -127 -132l-5 -25h83zM542 700h182l-123 -700h-158l-179 401l-71 -401h-182l123 700h179l164 -372z" />
    <glyph glyph-name="Ograve" unicode="&#xd2;" horiz-adv-x="644" 
d="M360 766h140l-64 144h-214zM413 0h-277q-133 0 -109 136l75 428q25 136 157 136h277q134 0 109 -136l-75 -428q-24 -136 -157 -136zM284 526l-62 -352q-4 -18 14 -18h133q10 0 14 3.5t6 14.5l62 352q2 11 -1 14.5t-13 3.5h-133q-10 0 -14.5 -4t-5.5 -14z" />
    <glyph glyph-name="Oacute" unicode="&#xd3;" horiz-adv-x="644" 
d="M465 766h-151l113 144h227zM413 0h-277q-133 0 -109 136l75 428q25 136 157 136h277q134 0 109 -136l-75 -428q-24 -136 -157 -136zM284 526l-62 -352q-4 -18 14 -18h133q10 0 14 3.5t6 14.5l62 352q2 11 -1 14.5t-13 3.5h-133q-10 0 -14.5 -4t-5.5 -14z" />
    <glyph glyph-name="Ocircumflex" unicode="&#xd4;" horiz-adv-x="644" 
d="M361 766l62 57l42 -57h160l-126 143h-128l-176 -143h166zM413 0h-277q-133 0 -109 136l75 428q25 136 157 136h277q134 0 109 -136l-75 -428q-24 -136 -157 -136zM284 526l-62 -352q-4 -18 14 -18h133q10 0 14 3.5t6 14.5l62 352q2 11 -1 14.5t-13 3.5h-133
q-10 0 -14.5 -4t-5.5 -14z" />
    <glyph glyph-name="Otilde" unicode="&#xd5;" horiz-adv-x="644" 
d="M311 762l4 19q4 21 26 21q18 0 61 -23t75 -23q46 0 77 28.5t44 103.5l4 25h-85l-3 -19q-4 -21 -24 -21t-61.5 23t-68.5 23q-104 0 -127 -132l-5 -25h83zM413 0h-277q-133 0 -109 136l75 428q25 136 157 136h277q134 0 109 -136l-75 -428q-24 -136 -157 -136zM284 526
l-62 -352q-4 -18 14 -18h133q10 0 14 3.5t6 14.5l62 352q2 11 -1 14.5t-13 3.5h-133q-10 0 -14.5 -4t-5.5 -14z" />
    <glyph glyph-name="Odieresis" unicode="&#xd6;" horiz-adv-x="644" 
d="M384 766h-148l25 140h148zM585 766h-148l25 140h148zM413 0h-277q-133 0 -109 136l75 428q25 136 157 136h277q134 0 109 -136l-75 -428q-24 -136 -157 -136zM284 526l-62 -352q-4 -18 14 -18h133q10 0 14 3.5t6 14.5l62 352q2 11 -1 14.5t-13 3.5h-133q-10 0 -14.5 -4
t-5.5 -14z" />
    <glyph glyph-name="multiply" unicode="&#xd7;" horiz-adv-x="497" 
d="M361 326l77 -96l-113 -96l-76 95l-118 -102l-93 111l120 103l-77 96l114 96l76 -95l118 102l92 -111z" />
    <glyph glyph-name="Oslash" unicode="&#xd8;" horiz-adv-x="645" 
d="M633 766l-39 -74q71 -26 52 -128l-75 -428q-24 -136 -157 -136h-187l-35 -66h-154l40 75q-69 25 -51 127l75 428q25 136 157 136h186l35 66h153zM249 332l111 208h-57q-10 0 -14 -3.5t-6 -14.5zM425 373l-113 -213h58q10 0 14.5 4t5.5 14z" />
    <glyph glyph-name="Ugrave" unicode="&#xd9;" horiz-adv-x="646" 
d="M360 766h140l-64 144h-214zM665 700l-99 -564q-12 -66 -52.5 -101t-104.5 -35h-267q-65 0 -93 35t-16 101l99 564h188l-91 -520q-3 -18 14 -18h122q18 0 21 18l91 520h188z" />
    <glyph glyph-name="Uacute" unicode="&#xda;" horiz-adv-x="646" 
d="M465 766h-151l113 144h227zM665 700l-99 -564q-12 -66 -52.5 -101t-104.5 -35h-267q-65 0 -93 35t-16 101l99 564h188l-91 -520q-3 -18 14 -18h122q18 0 21 18l91 520h188z" />
    <glyph glyph-name="Ucircumflex" unicode="&#xdb;" horiz-adv-x="646" 
d="M361 766l62 57l42 -57h160l-126 143h-128l-176 -143h166zM665 700l-99 -564q-12 -66 -52.5 -101t-104.5 -35h-267q-65 0 -93 35t-16 101l99 564h188l-91 -520q-3 -18 14 -18h122q18 0 21 18l91 520h188z" />
    <glyph glyph-name="Udieresis" unicode="&#xdc;" horiz-adv-x="646" 
d="M384 766h-148l25 140h148zM585 766h-148l25 140h148zM665 700l-99 -564q-12 -66 -52.5 -101t-104.5 -35h-267q-65 0 -93 35t-16 101l99 564h188l-91 -520q-3 -18 14 -18h122q18 0 21 18l91 520h188z" />
    <glyph glyph-name="Yacute" unicode="&#xdd;" horiz-adv-x="629" 
d="M458 766h-151l113 144h227zM361 0h-188l38 217l-133 483h198l57 -297l161 297h208l-303 -483z" />
    <glyph glyph-name="Thorn" unicode="&#xde;" horiz-adv-x="622" 
d="M322 700l-17 -98h216q133 0 109 -136l-36 -203q-24 -136 -157 -136h-216l-22 -127h-188l123 700h188zM250 287h144q10 0 14 3.5t6 14.5l21 119q2 11 -1 14.5t-13 3.5h-144z" />
    <glyph glyph-name="germandbls" unicode="&#xdf;" horiz-adv-x="564" 
d="M574 538q-14 -79 -31.5 -111.5t-57.5 -54.5q37 -21 44 -54t-7 -119q-20 -113 -56.5 -156t-103.5 -43h-135l28 156h65q11 0 17.5 13.5t14.5 56.5q5 29 5.5 44.5t-3 20t-10.5 4.5h-72l27 155h64q11 0 18 12t13 50q5 27 5 40.5t-3.5 17.5t-10.5 4h-88q-19 0 -22 -20
l-98 -554h-178l106 602q11 62 49 95t99 33h220q65 0 92 -43.5t9 -148.5z" />
    <glyph glyph-name="agrave" unicode="&#xe0;" horiz-adv-x="570" 
d="M284 606h140l-64 144h-214zM236 546q98 0 143 -69l11 63h177l-95 -540h-177l11 63q-69 -69 -167 -69q-82 0 -109.5 30.5t-15.5 97.5l52 296q12 67 50 97.5t120 30.5zM238 384l-40 -228q-2 -11 3.5 -15.5t24.5 -4.5q43 0 98 28l37 212q-44 28 -88 28q-19 0 -26 -4.5
t-9 -15.5z" />
    <glyph glyph-name="aacute" unicode="&#xe1;" horiz-adv-x="570" 
d="M389 606h-151l113 144h227zM236 546q98 0 143 -69l11 63h177l-95 -540h-177l11 63q-69 -69 -167 -69q-82 0 -109.5 30.5t-15.5 97.5l52 296q12 67 50 97.5t120 30.5zM238 384l-40 -228q-2 -11 3.5 -15.5t24.5 -4.5q43 0 98 28l37 212q-44 28 -88 28q-19 0 -26 -4.5
t-9 -15.5z" />
    <glyph glyph-name="acircumflex" unicode="&#xe2;" horiz-adv-x="570" 
d="M285 606l62 57l42 -57h160l-126 143h-128l-176 -143h166zM236 546q98 0 143 -69l11 63h177l-95 -540h-177l11 63q-69 -69 -167 -69q-82 0 -109.5 30.5t-15.5 97.5l52 296q12 67 50 97.5t120 30.5zM238 384l-40 -228q-2 -11 3.5 -15.5t24.5 -4.5q43 0 98 28l37 212
q-44 28 -88 28q-19 0 -26 -4.5t-9 -15.5z" />
    <glyph glyph-name="atilde" unicode="&#xe3;" horiz-adv-x="570" 
d="M235 602l4 19q4 21 26 21q18 0 61 -23t75 -23q46 0 77 28.5t44 103.5l4 25h-85l-3 -19q-4 -21 -24 -21t-61.5 23t-68.5 23q-104 0 -127 -132l-5 -25h83zM236 546q98 0 143 -69l11 63h177l-95 -540h-177l11 63q-69 -69 -167 -69q-82 0 -109.5 30.5t-15.5 97.5l52 296
q12 67 50 97.5t120 30.5zM238 384l-40 -228q-2 -11 3.5 -15.5t24.5 -4.5q43 0 98 28l37 212q-44 28 -88 28q-19 0 -26 -4.5t-9 -15.5z" />
    <glyph glyph-name="adieresis" unicode="&#xe4;" horiz-adv-x="570" 
d="M308 606h-148l25 140h148zM509 606h-148l25 140h148zM236 546q98 0 143 -69l11 63h177l-95 -540h-177l11 63q-69 -69 -167 -69q-82 0 -109.5 30.5t-15.5 97.5l52 296q12 67 50 97.5t120 30.5zM238 384l-40 -228q-2 -11 3.5 -15.5t24.5 -4.5q43 0 98 28l37 212
q-44 28 -88 28q-19 0 -26 -4.5t-9 -15.5z" />
    <glyph glyph-name="aring" unicode="&#xe5;" horiz-adv-x="570" 
d="M394 606h-121q-26 0 -35 11.5t-4 38.5l15 83q5 27 17.5 38.5t38.5 11.5h121q26 0 35.5 -11.5t4.5 -38.5l-15 -83q-4 -27 -17.5 -38.5t-39.5 -11.5zM371 726h-33q-12 0 -14 -12l-6 -33q-1 -8 1 -10t9 -2h33q13 0 14 12l6 33q1 7 -0.5 9.5t-9.5 2.5zM236 546q98 0 143 -69
l11 63h177l-95 -540h-177l11 63q-69 -69 -167 -69q-82 0 -109.5 30.5t-15.5 97.5l52 296q12 67 50 97.5t120 30.5zM238 384l-40 -228q-2 -11 3.5 -15.5t24.5 -4.5q43 0 98 28l37 212q-44 28 -88 28q-19 0 -26 -4.5t-9 -15.5z" />
    <glyph glyph-name="ae" unicode="&#xe6;" horiz-adv-x="816" 
d="M487 225l-13 -73q-2 -11 1 -15.5t14 -4.5h71q20 0 24 20l4 25h175l-8 -49q-12 -65 -48 -96.5t-100 -31.5h-211q-91 0 -104 68q-65 -72 -171 -72q-77 0 -104 37.5t-11 128.5q8 45 20.5 73.5t35.5 45t47.5 23.5t66.5 13q29 4 153 14l10 57q2 11 -1.5 15.5t-14.5 4.5h-61
q-19 0 -23 -20l-5 -30h-176l10 54q22 128 147 128h128q109 0 102 -51q10 51 120 51h137q125 0 103 -128l-33 -187h-285zM614 325l11 63q2 11 -1.5 15.5t-14.5 4.5h-71q-19 0 -23 -20l-11 -63h110zM314 243l-94 -20q-15 -3 -22.5 -13.5t-11.5 -35.5q-10 -50 18 -50
q33 0 95 35z" />
    <glyph glyph-name="ccedilla" unicode="&#xe7;" horiz-adv-x="527" 
d="M212 540h207q125 0 103 -128l-14 -80h-177l8 48q2 11 -1.5 15.5t-14.5 4.5h-63q-19 0 -23 -20l-39 -220q-3 -20 16 -20h63q20 0 23 20l9 48h177l-14 -80q-12 -65 -48 -96.5t-100 -31.5h-36l-12 -66q-10 -55 -32.5 -74.5t-75.5 -19.5h-92l-34 86h90q20 0 23 20l10 54h-48
q-126 0 -102 128l50 284q22 128 147 128z" />
    <glyph glyph-name="egrave" unicode="&#xe8;" horiz-adv-x="538" 
d="M281 606l-138 144h214l64 -144h-140zM212 540h211q126 0 104 -128l-33 -185h-286l-13 -75q-4 -20 15 -20h71q20 0 24 20l5 27h176l-9 -51q-24 -128 -149 -128h-211q-126 0 -102 128l50 284q22 128 147 128zM335 325l11 63q2 11 -1.5 15.5t-14.5 4.5h-71q-19 0 -23 -20
l-11 -63h110z" />
    <glyph glyph-name="eacute" unicode="&#xe9;" horiz-adv-x="538" 
d="M386 606h-151l113 144h227zM212 540h211q126 0 104 -128l-33 -185h-286l-13 -75q-4 -20 15 -20h71q20 0 24 20l5 27h176l-9 -51q-24 -128 -149 -128h-211q-126 0 -102 128l50 284q22 128 147 128zM335 325l11 63q2 11 -1.5 15.5t-14.5 4.5h-71q-19 0 -23 -20l-11 -63h110
z" />
    <glyph glyph-name="ecircumflex" unicode="&#xea;" horiz-adv-x="538" 
d="M282 606h-166l176 143h128l126 -143h-160l-42 57zM212 540h211q126 0 104 -128l-33 -185h-286l-13 -75q-4 -20 15 -20h71q20 0 24 20l5 27h176l-9 -51q-24 -128 -149 -128h-211q-126 0 -102 128l50 284q22 128 147 128zM335 325l11 63q2 11 -1.5 15.5t-14.5 4.5h-71
q-19 0 -23 -20l-11 -63h110z" />
    <glyph glyph-name="edieresis" unicode="&#xeb;" horiz-adv-x="538" 
d="M305 606h-148l25 140h148zM506 606h-148l25 140h148zM212 540h211q126 0 104 -128l-33 -185h-286l-13 -75q-4 -20 15 -20h71q20 0 24 20l5 27h176l-9 -51q-24 -128 -149 -128h-211q-126 0 -102 128l50 284q22 128 147 128zM335 325l11 63q2 11 -1.5 15.5t-14.5 4.5h-71
q-19 0 -23 -20l-11 -63h110z" />
    <glyph glyph-name="igrave" unicode="&#xec;" horiz-adv-x="273" 
d="M144 586h140l-64 144h-214zM262 540l-95 -540h-155l95 540h155z" />
    <glyph glyph-name="iacute" unicode="&#xed;" horiz-adv-x="273" 
d="M237 586h-151l113 144h227zM262 540l-95 -540h-155l95 540h155z" />
    <glyph glyph-name="icircumflex" unicode="&#xee;" horiz-adv-x="287" 
d="M150 586l62 57l42 -57h160l-126 143h-128l-176 -143h166zM269 540l-95 -540h-156l95 540h156z" />
    <glyph glyph-name="idieresis" unicode="&#xef;" horiz-adv-x="287" 
d="M173 586h-148l25 140h148zM374 586h-148l25 140h148zM269 540l-95 -540h-156l95 540h156z" />
    <glyph glyph-name="eth" unicode="&#xf0;" horiz-adv-x="559" 
d="M544 740l-76 -68q69 -26 87 -63t6 -102l-66 -379q-12 -65 -48 -96.5t-100 -31.5h-230q-126 0 -102 128l43 244q12 67 50 97.5t120 30.5q96 0 143 -69l12 66q7 39 3 53.5t-25 21.5l-3 1l-29 -26h-143l71 63l-67 25l18 105l151 -38l43 38h142zM323 160l30 170
q-44 28 -88 28q-19 0 -26 -4.5t-9 -15.5l-32 -178q-3 -20 16 -20h86q20 0 23 20z" />
    <glyph glyph-name="ntilde" unicode="&#xf1;" 
d="M245 602l4 19q4 21 26 21q18 0 61 -23t75 -23q46 0 77 28.5t44 103.5l4 25h-85l-3 -19q-4 -21 -24 -21t-61.5 23t-68.5 23q-104 0 -127 -132l-5 -25h83zM276 540l-11 -63q71 69 162 69q78 0 106.5 -31t17.5 -97l-74 -418h-178l66 376q2 11 -2.5 15.5t-19.5 4.5
q-42 0 -97 -28l-65 -368h-178l95 540h178z" />
    <glyph glyph-name="ograve" unicode="&#xf2;" horiz-adv-x="547" 
d="M283 606h140l-64 144h-214zM212 540h218q125 0 103 -128l-50 -284q-12 -65 -48 -96.5t-100 -31.5h-218q-126 0 -102 128l50 284q22 128 147 128zM315 160l39 220q2 11 -1.5 15.5t-14.5 4.5h-82q-19 0 -23 -20l-39 -220q-2 -11 1.5 -15.5t14.5 -4.5h82q20 0 23 20z" />
    <glyph glyph-name="oacute" unicode="&#xf3;" horiz-adv-x="547" 
d="M388 606h-151l113 144h227zM212 540h218q125 0 103 -128l-50 -284q-12 -65 -48 -96.5t-100 -31.5h-218q-126 0 -102 128l50 284q22 128 147 128zM315 160l39 220q2 11 -1.5 15.5t-14.5 4.5h-82q-19 0 -23 -20l-39 -220q-2 -11 1.5 -15.5t14.5 -4.5h82q20 0 23 20z" />
    <glyph glyph-name="ocircumflex" unicode="&#xf4;" horiz-adv-x="547" 
d="M284 606l62 57l42 -57h160l-126 143h-128l-176 -143h166zM212 540h218q125 0 103 -128l-50 -284q-12 -65 -48 -96.5t-100 -31.5h-218q-126 0 -102 128l50 284q22 128 147 128zM315 160l39 220q2 11 -1.5 15.5t-14.5 4.5h-82q-19 0 -23 -20l-39 -220q-2 -11 1.5 -15.5
t14.5 -4.5h82q20 0 23 20z" />
    <glyph glyph-name="otilde" unicode="&#xf5;" horiz-adv-x="547" 
d="M234 602l4 19q4 21 26 21q18 0 61 -23t75 -23q46 0 77 28.5t44 103.5l4 25h-85l-3 -19q-5 -21 -24 -21q-20 0 -61.5 23t-68.5 23q-104 0 -127 -132l-5 -25h83zM212 540h218q125 0 103 -128l-50 -284q-12 -65 -48 -96.5t-100 -31.5h-218q-126 0 -102 128l50 284
q22 128 147 128zM315 160l39 220q2 11 -1.5 15.5t-14.5 4.5h-82q-19 0 -23 -20l-39 -220q-2 -11 1.5 -15.5t14.5 -4.5h82q20 0 23 20z" />
    <glyph glyph-name="odieresis" unicode="&#xf6;" horiz-adv-x="547" 
d="M307 606h-148l25 140h148zM508 606h-148l25 140h148zM212 540h218q125 0 103 -128l-50 -284q-12 -65 -48 -96.5t-100 -31.5h-218q-126 0 -102 128l50 284q22 128 147 128zM315 160l39 220q2 11 -1.5 15.5t-14.5 4.5h-82q-19 0 -23 -20l-39 -220q-2 -11 1.5 -15.5
t14.5 -4.5h82q20 0 23 20z" />
    <glyph glyph-name="divide" unicode="&#xf7;" horiz-adv-x="498" 
d="M370 511h-156l26 148h156zM57 454h449l-30 -168h-449zM294 81h-156l26 148h156z" />
    <glyph glyph-name="oslash" unicode="&#xf8;" horiz-adv-x="537" 
d="M507 600l-37 -66q69 -22 53 -122l-50 -284q-12 -65 -48 -96.5t-100 -31.5h-152l-33 -60h-106l36 65q-74 21 -55 123l50 284q22 128 147 128h154l34 60h107zM199 237l90 163h-41q-20 0 -24 -20zM336 294l-85 -154h40q11 0 15.5 4.5t6.5 15.5z" />
    <glyph glyph-name="ugrave" unicode="&#xf9;" 
d="M298 606h140l-64 144h-214zM295 0l11 63q-69 -69 -163 -69q-78 0 -106 31t-16 97l73 418h178l-65 -370q-2 -11 2.5 -15.5t19.5 -4.5q42 0 97 28l64 362h178l-95 -540h-178z" />
    <glyph glyph-name="uacute" unicode="&#xfa;" 
d="M403 606h-151l113 144h227zM295 0l11 63q-69 -69 -163 -69q-78 0 -106 31t-16 97l73 418h178l-65 -370q-2 -11 2.5 -15.5t19.5 -4.5q42 0 97 28l64 362h178l-95 -540h-178z" />
    <glyph glyph-name="ucircumflex" unicode="&#xfb;" 
d="M299 606l62 57l42 -57h160l-126 143h-128l-176 -143h166zM295 0l11 63q-69 -69 -163 -69q-78 0 -106 31t-16 97l73 418h178l-65 -370q-2 -11 2.5 -15.5t19.5 -4.5q42 0 97 28l64 362h178l-95 -540h-178z" />
    <glyph glyph-name="udieresis" unicode="&#xfc;" 
d="M322 606h-148l25 140h148zM523 606h-148l25 140h148zM295 0l11 63q-69 -69 -163 -69q-78 0 -106 31t-16 97l73 418h178l-65 -370q-2 -11 2.5 -15.5t19.5 -4.5q42 0 97 28l64 362h178l-95 -540h-178z" />
    <glyph glyph-name="yacute" unicode="&#xfd;" horiz-adv-x="538" 
d="M389 606h-151l113 144h227zM582 540l-351 -700h-176l84 160l-88 540h182l21 -361l147 361h181z" />
    <glyph glyph-name="thorn" unicode="&#xfe;" horiz-adv-x="570" 
d="M431 546q82 0 110 -30.5t16 -97.5l-52 -296q-12 -67 -50.5 -97.5t-120.5 -30.5q-95 0 -142 69l-39 -223h-178l157 890h178l-45 -253q71 69 166 69zM334 156l40 228q2 11 -4 15.5t-25 4.5q-42 0 -98 -28l-37 -212q46 -28 88 -28q32 0 36 20z" />
    <glyph glyph-name="ydieresis" unicode="&#xff;" horiz-adv-x="538" 
d="M308 606h-148l25 140h148zM509 606h-148l25 140h148zM582 540l-351 -700h-176l84 160l-88 540h182l21 -361l147 361h181z" />
    <glyph glyph-name="Amacron" unicode="&#x100;" horiz-adv-x="665" 
d="M561 766h-278l23 131h278zM411 144h-199l-61 -144h-197l330 700h246l86 -700h-195zM400 294l-18 253l-107 -253h125z" />
    <glyph glyph-name="amacron" unicode="&#x101;" horiz-adv-x="570" 
d="M498 737l-23 -131h-278l23 131h278zM236 546q98 0 143 -69l11 63h177l-95 -540h-177l11 63q-69 -69 -167 -69q-82 0 -109.5 30.5t-15.5 97.5l52 296q12 67 50 97.5t120 30.5zM238 384l-40 -228q-2 -11 3.5 -15.5t24.5 -4.5q43 0 98 28l37 212q-44 28 -88 28
q-19 0 -26 -4.5t-9 -15.5z" />
    <glyph glyph-name="Abreve" unicode="&#x102;" horiz-adv-x="665" 
d="M475 766h-112q-41 0 -56.5 19t-7.5 61l11 62h106l-9 -50q-1 -8 0.5 -10t8.5 -2h34q13 0 14 12l9 50h105l-11 -62q-8 -42 -29.5 -61t-62.5 -19zM411 144h-199l-61 -144h-197l330 700h246l86 -700h-195zM400 294l-18 253l-107 -253h125z" />
    <glyph glyph-name="abreve" unicode="&#x103;" horiz-adv-x="570" 
d="M492 748l-11 -62q-8 -42 -29.5 -61t-62.5 -19h-112q-41 0 -56.5 19t-7.5 61l11 62h106l-9 -50q-1 -8 0.5 -10t8.5 -2h34q13 0 14 12l9 50h105zM236 546q98 0 143 -69l11 63h177l-95 -540h-177l11 63q-69 -69 -167 -69q-82 0 -109.5 30.5t-15.5 97.5l52 296q12 67 50 97.5
t120 30.5zM238 384l-40 -228q-2 -11 3.5 -15.5t24.5 -4.5q43 0 98 28l37 212q-44 28 -88 28q-19 0 -26 -4.5t-9 -15.5z" />
    <glyph glyph-name="Aogonek" unicode="&#x104;" horiz-adv-x="665" 
d="M616 0l-53 -74q-9 -12 4 -12h47l-17 -94h-108q-54 0 -68 29t22 79l53 72h-75l-10 144h-199l-61 -144h-197l330 700h246zM400 294l-18 253l-107 -253h125z" />
    <glyph glyph-name="aogonek" unicode="&#x105;" horiz-adv-x="570" 
d="M472 0l-53 -74q-9 -12 4 -12h47l-17 -94h-108q-54 0 -68 29t22 79l53 72h-57l11 63q-69 -69 -167 -69q-82 0 -109.5 30.5t-15.5 97.5l52 296q12 67 50 97.5t120 30.5q98 0 143 -69l11 63h177zM324 164l37 212q-44 28 -88 28q-19 0 -26 -4.5t-9 -15.5l-40 -228
q-2 -11 3.5 -15.5t24.5 -4.5q43 0 98 28z" />
    <glyph glyph-name="Cacute" unicode="&#x106;" horiz-adv-x="614" 
d="M461 766h-151l113 144h227zM401 0h-265q-133 0 -109 136l75 428q25 136 159 136h265q132 0 107 -136l-23 -131h-188l17 93q2 11 -1.5 14.5t-13.5 3.5h-120q-10 0 -14.5 -4t-5.5 -14l-62 -352q-4 -18 14 -18h120q10 0 14.5 3.5t6.5 14.5l16 93h188l-23 -131
q-24 -136 -157 -136z" />
    <glyph glyph-name="cacute" unicode="&#x107;" horiz-adv-x="527" 
d="M385 606h-151l113 144h227zM212 540h207q125 0 103 -128l-14 -80h-177l8 48q2 11 -1.5 15.5t-14.5 4.5h-63q-19 0 -23 -20l-39 -220q-3 -20 16 -20h63q20 0 23 20l9 48h177l-14 -80q-12 -65 -48 -96.5t-100 -31.5h-207q-126 0 -102 128l50 284q22 128 147 128z" />
    <glyph glyph-name="Cdotaccent" unicode="&#x10a;" horiz-adv-x="614" 
d="M480 766h-147l25 142h147zM401 0h-265q-133 0 -109 136l75 428q25 136 159 136h265q132 0 107 -136l-23 -131h-188l17 93q2 11 -1.5 14.5t-13.5 3.5h-120q-10 0 -14.5 -4t-5.5 -14l-62 -352q-4 -18 14 -18h120q10 0 14.5 3.5t6.5 14.5l16 93h188l-23 -131
q-24 -136 -157 -136z" />
    <glyph glyph-name="cdotaccent" unicode="&#x10b;" horiz-adv-x="527" 
d="M404 606h-147l25 142h147zM212 540h207q125 0 103 -128l-14 -80h-177l8 48q2 11 -1.5 15.5t-14.5 4.5h-63q-19 0 -23 -20l-39 -220q-3 -20 16 -20h63q20 0 23 20l9 48h177l-14 -80q-12 -65 -48 -96.5t-100 -31.5h-207q-126 0 -102 128l50 284q22 128 147 128z" />
    <glyph glyph-name="Ccaron" unicode="&#x10c;" horiz-adv-x="614" 
d="M342 766h128l176 143h-166l-62 -57l-42 57h-160zM401 0h-265q-133 0 -109 136l75 428q25 136 159 136h265q132 0 107 -136l-23 -131h-188l17 93q2 11 -1.5 14.5t-13.5 3.5h-120q-10 0 -14.5 -4t-5.5 -14l-62 -352q-4 -18 14 -18h120q10 0 14.5 3.5t6.5 14.5l16 93h188
l-23 -131q-24 -136 -157 -136z" />
    <glyph glyph-name="ccaron" unicode="&#x10d;" horiz-adv-x="527" 
d="M266 606h128l176 143h-166l-62 -57l-42 57h-160zM212 540h207q125 0 103 -128l-14 -80h-177l8 48q2 11 -1.5 15.5t-14.5 4.5h-63q-19 0 -23 -20l-39 -220q-3 -20 16 -20h63q20 0 23 20l9 48h177l-14 -80q-12 -65 -48 -96.5t-100 -31.5h-207q-126 0 -102 128l50 284
q22 128 147 128z" />
    <glyph glyph-name="Dcaron" unicode="&#x10e;" horiz-adv-x="652" 
d="M348 766h128l176 143h-166l-62 -57l-42 57h-160zM134 700h410q134 0 109 -136l-75 -428q-24 -136 -157 -136h-410zM227 156h150q10 0 14 3.5t6 14.5l62 352q2 11 -1 14.5t-13 3.5h-150z" />
    <glyph glyph-name="dcaron" unicode="&#x10f;" horiz-adv-x="570" 
d="M837 739l-21 -121q-5 -31 -20 -54t-50 -54l-98 -85h-59l110 138h-76l31 176h183zM236 546q98 0 143 -69l45 253h177l-129 -730h-177l11 63q-69 -69 -167 -69q-82 0 -109.5 30.5t-15.5 97.5l52 296q12 67 50 97.5t120 30.5zM238 384l-40 -228q-2 -11 3.5 -15.5t24.5 -4.5
q43 0 98 28l37 212q-44 28 -88 28q-19 0 -26 -4.5t-9 -15.5z" />
    <glyph glyph-name="Dcroat" unicode="&#x110;" horiz-adv-x="644" 
d="M125 700h411q134 0 109 -136l-75 -428q-24 -136 -157 -136h-411l49 278h-64l29 166h64zM389 178l61 344q2 10 -1 14t-14 4h-150l-17 -96h65l-29 -166h-65l-21 -118h150q11 0 15.5 4t5.5 14z" />
    <glyph glyph-name="dcroat" unicode="&#x111;" 
d="M608 561h-37l-99 -561h-177l11 63q-69 -69 -167 -69q-82 0 -109.5 30.5t-15.5 97.5l52 296q12 67 50 97.5t120 30.5q98 0 143 -69l15 84h-86l18 105h87l11 64h177l-11 -64h36zM324 164l37 212q-44 28 -88 28q-19 0 -26 -4.5t-9 -15.5l-40 -228q-2 -11 3.5 -15.5
t24.5 -4.5q43 0 98 28z" />
    <glyph glyph-name="Emacron" unicode="&#x112;" horiz-adv-x="580" 
d="M556 897l-23 -131h-278l23 131h278zM134 700h484l-27 -156h-296l-19 -109h234l-27 -154h-234l-22 -125h296l-28 -156h-484z" />
    <glyph glyph-name="emacron" unicode="&#x113;" horiz-adv-x="538" 
d="M472 606h-278l23 131h278zM212 540h211q126 0 104 -128l-33 -185h-286l-13 -75q-4 -20 15 -20h71q20 0 24 20l5 27h176l-9 -51q-24 -128 -149 -128h-211q-126 0 -102 128l50 284q22 128 147 128zM335 325l11 63q2 11 -1.5 15.5t-14.5 4.5h-71q-19 0 -23 -20l-11 -63h110z
" />
    <glyph glyph-name="Edotaccent" unicode="&#x116;" horiz-adv-x="580" 
d="M466 766h-147l25 142h147zM134 700h484l-27 -156h-296l-19 -109h234l-27 -154h-234l-22 -125h296l-28 -156h-484z" />
    <glyph glyph-name="edotaccent" unicode="&#x117;" horiz-adv-x="538" 
d="M405 606h-147l25 142h147zM212 540h211q126 0 104 -128l-33 -185h-286l-13 -75q-4 -20 15 -20h71q20 0 24 20l5 27h176l-9 -51q-24 -128 -149 -128h-211q-126 0 -102 128l50 284q22 128 147 128zM335 325l11 63q2 11 -1.5 15.5t-14.5 4.5h-71q-19 0 -23 -20l-11 -63h110z
" />
    <glyph glyph-name="Eogonek" unicode="&#x118;" horiz-adv-x="580" 
d="M295 544l-19 -109h234l-27 -154h-234l-22 -125h296l-28 -156l-53 -74q-9 -12 4 -12h47l-17 -94h-108q-54 0 -68 29t22 79l53 72h-364l123 700h484l-27 -156h-296z" />
    <glyph glyph-name="eogonek" unicode="&#x119;" horiz-adv-x="538" 
d="M212 540h211q126 0 104 -128l-33 -185h-286l-13 -75q-4 -20 15 -20h71q20 0 24 20l5 27h176l-9 -51q-24 -128 -149 -128h-43l-53 -74q-9 -12 4 -12h47l-17 -94h-108q-54 0 -68 29t22 79l53 72h-48q-126 0 -102 128l50 284q22 128 147 128zM335 325l11 63q2 11 -1.5 15.5
t-14.5 4.5h-71q-19 0 -23 -20l-11 -63h110z" />
    <glyph glyph-name="Ecaron" unicode="&#x11a;" horiz-adv-x="580" 
d="M328 766h128l176 143h-166l-62 -57l-42 57h-160zM134 700h484l-27 -156h-296l-19 -109h234l-27 -154h-234l-22 -125h296l-28 -156h-484z" />
    <glyph glyph-name="ecaron" unicode="&#x11b;" horiz-adv-x="538" 
d="M267 606l-126 143h160l42 -57l62 57h166l-176 -143h-128zM212 540h211q126 0 104 -128l-33 -185h-286l-13 -75q-4 -20 15 -20h71q20 0 24 20l5 27h176l-9 -51q-24 -128 -149 -128h-211q-126 0 -102 128l50 284q22 128 147 128zM335 325l11 63q2 11 -1.5 15.5t-14.5 4.5
h-71q-19 0 -23 -20l-11 -63h110z" />
    <glyph glyph-name="Gbreve" unicode="&#x11e;" horiz-adv-x="635" 
d="M566 908l-11 -62q-8 -42 -29.5 -61t-62.5 -19h-112q-41 0 -56.5 19t-7.5 61l11 62h106l-9 -50q-1 -8 0.5 -10t8.5 -2h34q13 0 14 12l9 50h105zM439 469l10 59q2 11 -1 14.5t-13 3.5h-131q-10 0 -14 -3.5t-6 -14.5l-63 -356q-2 -11 1 -14.5t13 -3.5h131q10 0 14 3.5
t6 14.5l16 88h-98l26 148h284l-48 -272q-24 -136 -157 -136h-273q-133 0 -109 136l75 428q25 136 157 136h273q134 0 109 -136l-16 -95h-186z" />
    <glyph glyph-name="gbreve" unicode="&#x11f;" horiz-adv-x="573" 
d="M516 748l-11 -62q-8 -42 -29.5 -61t-62.5 -19h-112q-41 0 -56.5 19t-7.5 61l11 62h106l-9 -50q-1 -8 0.5 -10t8.5 -2h34q13 0 14 12l9 50h105zM570 540l-101 -572q-22 -128 -148 -128h-284l24 136h212q20 0 23 20l17 97q-69 -69 -167 -69q-82 0 -110 30.5t-17 97.5
l49 266q12 67 50 97.5t120 30.5q98 0 143 -69l11 63h178zM240 384l-35 -198q-2 -11 3.5 -15.5t24.5 -4.5q43 0 98 28l32 182q-44 28 -88 28q-19 0 -26 -4.5t-9 -15.5z" />
    <glyph glyph-name="Gdotaccent" unicode="&#x120;" horiz-adv-x="635" 
d="M482 766h-147l25 142h147zM439 469l10 59q2 11 -1 14.5t-13 3.5h-131q-10 0 -14 -3.5t-6 -14.5l-63 -356q-2 -11 1 -14.5t13 -3.5h131q10 0 14 3.5t6 14.5l16 88h-98l26 148h284l-48 -272q-24 -136 -157 -136h-273q-133 0 -109 136l75 428q25 136 157 136h273
q134 0 109 -136l-16 -95h-186z" />
    <glyph glyph-name="gdotaccent" unicode="&#x121;" horiz-adv-x="573" 
d="M432 606h-147l25 142h147zM570 540l-101 -572q-22 -128 -148 -128h-284l24 136h212q20 0 23 20l17 97q-69 -69 -167 -69q-82 0 -110 30.5t-17 97.5l49 266q12 67 50 97.5t120 30.5q98 0 143 -69l11 63h178zM240 384l-35 -198q-2 -11 3.5 -15.5t24.5 -4.5q43 0 98 28
l32 182q-44 28 -88 28q-19 0 -26 -4.5t-9 -15.5z" />
    <glyph glyph-name="Gcommaaccent" unicode="&#x122;" horiz-adv-x="635" 
d="M439 469l10 59q2 11 -1 14.5t-13 3.5h-131q-10 0 -14 -3.5t-6 -14.5l-63 -356q-2 -11 1 -14.5t13 -3.5h131q10 0 14 3.5t6 14.5l16 88h-98l26 148h284l-48 -272q-24 -136 -157 -136h-273q-133 0 -109 136l75 428q25 136 157 136h273q134 0 109 -136l-16 -95h-186z
M343 -68l-21 -121q-8 -40 -69 -98l-88 -85h-59l107 138h-63l29 166h164z" />
    <glyph glyph-name="gcommaaccent" unicode="&#x123;" horiz-adv-x="573" 
d="M277 608l21 121q8 40 69 98l88 85h59l-107 -138h63l-29 -166h-164zM570 540l-101 -572q-22 -128 -148 -128h-284l24 136h212q20 0 23 20l17 97q-69 -69 -167 -69q-82 0 -110 30.5t-17 97.5l49 266q12 67 50 97.5t120 30.5q98 0 143 -69l11 63h178zM240 384l-35 -198
q-2 -11 3.5 -15.5t24.5 -4.5q43 0 98 28l32 182q-44 28 -88 28q-19 0 -26 -4.5t-9 -15.5z" />
    <glyph glyph-name="Hbar" unicode="&#x126;" horiz-adv-x="688" 
d="M730 495h-78l-87 -495h-167l50 281h-203l-50 -281h-167l87 495h-78l21 115h77l16 90h167l-16 -90h203l16 90h167l-16 -90h79zM485 495h-203l-10 -60h203z" />
    <glyph glyph-name="hbar" unicode="&#x127;" 
d="M428 546q78 0 106 -31t17 -97l-74 -418h-178l66 376q2 11 -2.5 15.5t-19.5 4.5q-42 0 -97 -28l-65 -368h-178l99 561h-36l18 105h37l11 64h178l-11 -64h85l-18 -105h-86l-15 -84q71 69 163 69z" />
    <glyph glyph-name="Imacron" unicode="&#x12a;" horiz-adv-x="305" 
d="M404 897l-23 -131h-278l23 131h278zM11 0l123 700h188l-123 -700h-188z" />
    <glyph glyph-name="imacron" unicode="&#x12b;" horiz-adv-x="282" 
d="M360 725l-23 -131h-278l23 131h278zM266 540l-95 -540h-155l95 540h155z" />
    <glyph glyph-name="Iogonek" unicode="&#x12e;" horiz-adv-x="305" 
d="M199 0l-53 -74q-9 -12 4 -12h47l-17 -94h-108q-54 0 -68 29t22 79l53 72h-68l123 700h188z" />
    <glyph glyph-name="iogonek" unicode="&#x12f;" horiz-adv-x="275" 
d="M312 730l-24 -137h-186l24 137h186zM96 540h178l-95 -540l-53 -74q-9 -12 4 -12h47l-17 -94h-108q-54 0 -68 29t22 79l53 72h-58z" />
    <glyph glyph-name="Idotaccent" unicode="&#x130;" horiz-adv-x="305" 
d="M314 766h-147l25 142h147zM11 0l123 700h188l-123 -700h-188z" />
    <glyph glyph-name="IJ" unicode="&#x132;" horiz-adv-x="866" 
d="M11 0l123 700h188l-123 -700h-188zM885 700l-99 -564q-24 -136 -157 -136h-230q-133 0 -109 136l27 155h188l-20 -113q-2 -11 1 -14.5t13 -3.5h85q11 0 15.5 4t5.5 14l92 522h188z" />
    <glyph glyph-name="ij" unicode="&#x133;" horiz-adv-x="565" 
d="M288 593h-186l24 137h186zM578 593h-187l24 137h187zM274 540l-95 -540h-178l95 540h178zM565 540l-99 -563q-11 -60 -47.5 -89.5t-102.5 -39.5l-148 -22l22 121l81 31q18 6 21 22l95 540h178z" />
    <glyph glyph-name="Kcommaaccent" unicode="&#x136;" horiz-adv-x="655" 
d="M484 437l120 -437h-192l-66 280l-127 -144l-24 -136h-184l123 700h184l-55 -313l246 313h208zM211 -68h164l-21 -121q-8 -40 -69 -98l-88 -85h-59l107 138h-63z" />
    <glyph glyph-name="kcommaaccent" unicode="&#x137;" horiz-adv-x="559" 
d="M416 340l92 -340h-176l-43 197l-96 -108l-16 -89h-174l129 730h174l-75 -422l167 232h195zM146 -68h164l-21 -121q-8 -40 -69 -98l-88 -85h-59l107 138h-63z" />
    <glyph glyph-name="Lacute" unicode="&#x139;" horiz-adv-x="538" 
d="M295 766h-151l113 144h227zM134 700h188l-95 -540h271l-28 -160h-459z" />
    <glyph glyph-name="lacute" unicode="&#x13a;" horiz-adv-x="269" 
d="M283 796h-151l113 144h227zM127 730h178l-129 -730h-178z" />
    <glyph glyph-name="Lcommaaccent" unicode="&#x13b;" horiz-adv-x="538" 
d="M134 700h188l-95 -540h271l-28 -160h-459zM311 -68l-21 -121q-8 -40 -69 -98l-88 -85h-59l107 138h-63l29 166h164z" />
    <glyph glyph-name="lcommaaccent" unicode="&#x13c;" horiz-adv-x="269" 
d="M127 730h178l-129 -730h-178zM156 -68l-21 -121q-8 -40 -69 -98l-88 -85h-59l107 138h-63l29 166h164z" />
    <glyph glyph-name="Lcaron" unicode="&#x13d;" horiz-adv-x="538" 
d="M569 710l-21 -121q-6 -31 -21 -54.5t-49 -53.5l-98 -85h-59l110 138h-76l31 176h183zM134 700h188l-95 -540h271l-28 -160h-459z" />
    <glyph glyph-name="lcaron" unicode="&#x13e;" horiz-adv-x="462" 
d="M127 730h178l-129 -730h-178zM533 730l-22 -121q-6 -38 -68 -98l-88 -85h-59l106 138h-63l30 166h164z" />
    <glyph glyph-name="Ldot" unicode="&#x13f;" horiz-adv-x="538" 
d="M134 700h188l-95 -540h271l-28 -160h-459zM497 301h-162l30 165h162z" />
    <glyph glyph-name="ldot" unicode="&#x140;" horiz-adv-x="445" 
d="M127 730h178l-129 -730h-178zM444 300h-164l29 166h164z" />
    <glyph glyph-name="Lslash" unicode="&#x141;" horiz-adv-x="537" 
d="M495 150l-26 -150h-446l51 289l-66 -24l27 154l66 24l49 277h166l-38 -214l145 52l-27 -154l-145 -52l-36 -202h280z" />
    <glyph glyph-name="lslash" unicode="&#x142;" horiz-adv-x="360" 
d="M372 403l-86 -33l-65 -370h-178l52 296l-84 -32l27 155l85 33l49 278h178l-36 -205l85 33z" />
    <glyph glyph-name="Nacute" unicode="&#x143;" horiz-adv-x="707" 
d="M490 766h-151l113 144h227zM542 700h182l-123 -700h-158l-179 401l-71 -401h-182l123 700h179l164 -372z" />
    <glyph glyph-name="nacute" unicode="&#x144;" 
d="M399 606h-151l113 144h227zM276 540l-11 -63q71 69 162 69q78 0 106.5 -31t17.5 -97l-74 -418h-178l66 376q2 11 -2.5 15.5t-19.5 4.5q-42 0 -97 -28l-65 -368h-178l95 540h178z" />
    <glyph glyph-name="Ncommaaccent" unicode="&#x145;" horiz-adv-x="707" 
d="M542 700h182l-123 -700h-158l-179 401l-71 -401h-182l123 700h179l164 -372zM369 -68l-21 -121q-8 -40 -69 -98l-88 -85h-59l107 138h-63l29 166h164z" />
    <glyph glyph-name="ncommaaccent" unicode="&#x146;" 
d="M276 540l-11 -63q71 69 162 69q78 0 106.5 -31t17.5 -97l-74 -418h-178l66 376q2 11 -2.5 15.5t-19.5 4.5q-42 0 -97 -28l-65 -368h-178l95 540h178zM304 -68l-21 -121q-8 -40 -69 -98l-88 -85h-59l107 138h-63l29 166h164z" />
    <glyph glyph-name="Ncaron" unicode="&#x147;" horiz-adv-x="707" 
d="M371 766h128l176 143h-166l-62 -57l-42 57h-160zM542 700h182l-123 -700h-158l-179 401l-71 -401h-182l123 700h179l164 -372z" />
    <glyph glyph-name="ncaron" unicode="&#x148;" 
d="M280 606h128l176 143h-166l-62 -57l-42 57h-160zM276 540l-11 -63q71 69 162 69q78 0 106.5 -31t17.5 -97l-74 -418h-178l66 376q2 11 -2.5 15.5t-19.5 4.5q-42 0 -97 -28l-65 -368h-178l95 540h178z" />
    <glyph glyph-name="Eng" unicode="&#x14a;" horiz-adv-x="693" 
d="M710 700l-127 -724q-24 -136 -156 -136h-155l25 144h96q11 0 15.5 4t5.5 14l3 15l-155 398l-73 -415h-178l123 700h190l145 -358l63 358h178z" />
    <glyph glyph-name="eng" unicode="&#x14b;" 
d="M427 546q78 0 106.5 -31t17.5 -97l-78 -442q-24 -136 -158 -136h-131l23 130h69q10 0 14.5 3.5t6.5 14.5l68 388q2 11 -2.5 15.5t-19.5 4.5q-42 0 -97 -28l-65 -368h-178l95 540h178l-11 -63q71 69 162 69z" />
    <glyph glyph-name="Omacron" unicode="&#x14c;" horiz-adv-x="644" 
d="M574 897l-23 -131h-278l23 131h278zM413 0h-277q-133 0 -109 136l75 428q25 136 157 136h277q134 0 109 -136l-75 -428q-24 -136 -157 -136zM284 526l-62 -352q-4 -18 14 -18h133q10 0 14 3.5t6 14.5l62 352q2 11 -1 14.5t-13 3.5h-133q-10 0 -14.5 -4t-5.5 -14z" />
    <glyph glyph-name="omacron" unicode="&#x14d;" horiz-adv-x="547" 
d="M497 737l-23 -131h-278l23 131h278zM212 540h218q125 0 103 -128l-50 -284q-12 -65 -48 -96.5t-100 -31.5h-218q-126 0 -102 128l50 284q22 128 147 128zM315 160l39 220q2 11 -1.5 15.5t-14.5 4.5h-82q-19 0 -23 -20l-39 -220q-2 -11 1.5 -15.5t14.5 -4.5h82q20 0 23 20
z" />
    <glyph glyph-name="Ohungarumlaut" unicode="&#x150;" horiz-adv-x="644" 
d="M500 911l-139 -145h-160l139 145h160zM711 911l-139 -145h-160l139 145h160zM413 0h-277q-133 0 -109 136l75 428q25 136 157 136h277q134 0 109 -136l-75 -428q-24 -136 -157 -136zM284 526l-62 -352q-4 -18 14 -18h133q10 0 14 3.5t6 14.5l62 352q2 11 -1 14.5t-13 3.5
h-133q-10 0 -14.5 -4t-5.5 -14z" />
    <glyph glyph-name="ohungarumlaut" unicode="&#x151;" horiz-adv-x="547" 
d="M423 751l-139 -145h-160l139 145h160zM634 751l-139 -145h-160l139 145h160zM212 540h218q125 0 103 -128l-50 -284q-12 -65 -48 -96.5t-100 -31.5h-218q-126 0 -102 128l50 284q22 128 147 128zM315 160l39 220q2 11 -1.5 15.5t-14.5 4.5h-82q-19 0 -23 -20l-39 -220
q-2 -11 1.5 -15.5t14.5 -4.5h82q20 0 23 20z" />
    <glyph glyph-name="OE" unicode="&#x152;" horiz-adv-x="928" 
d="M858 437l-28 -158h-234l-21 -119h296l-28 -160h-707q-133 0 -109 136l75 428q25 136 157 136h707l-28 -160h-296l-18 -103h234zM454 540h-151q-10 0 -14 -3.5t-6 -14.5l-61 -344q-2 -11 1 -14.5t13 -3.5h151z" />
    <glyph glyph-name="oe" unicode="&#x153;" horiz-adv-x="832" 
d="M503 225l-13 -73q-2 -11 1 -15.5t14 -4.5h71q20 0 24 20l4 25h175l-8 -49q-12 -65 -48 -96.5t-100 -31.5h-138q-110 0 -102 51q-12 -51 -120 -51h-146q-126 0 -102 128l50 284q22 128 147 128h146q109 0 102 -51q10 51 120 51h138q125 0 103 -128l-33 -187h-285zM630 325
l11 63q2 11 -1.5 15.5t-14.5 4.5h-71q-19 0 -23 -20l-11 -63h110zM315 160l39 220q2 11 -1.5 15.5t-14.5 4.5h-82q-19 0 -23 -20l-39 -220q-2 -11 1.5 -15.5t14.5 -4.5h82q20 0 23 20z" />
    <glyph glyph-name="Racute" unicode="&#x154;" horiz-adv-x="643" 
d="M455 766h-151l113 144h227zM134 700h405q134 0 109 -136l-32 -182q-19 -114 -115 -132l76 -250h-182l-76 234h-79l-41 -234h-188zM266 382h145q17 0 21 18l22 130q2 10 -0.5 14t-12.5 4h-145z" />
    <glyph glyph-name="racute" unicode="&#x155;" horiz-adv-x="426" 
d="M342 606h-151l113 144h227zM427 385h-65q-73 0 -118 -28l-63 -357h-178l95 540h178l-12 -69q60 69 134 69h56z" />
    <glyph glyph-name="Rcommaaccent" unicode="&#x156;" horiz-adv-x="643" 
d="M134 700h405q134 0 109 -136l-32 -182q-19 -114 -115 -132l76 -250h-182l-76 234h-79l-41 -234h-188zM266 382h145q17 0 21 18l22 130q2 10 -0.5 14t-12.5 4h-145zM181 -68h164l-21 -121q-8 -40 -69 -98l-88 -85h-59l107 138h-63z" />
    <glyph glyph-name="rcommaaccent" unicode="&#x157;" horiz-adv-x="426" 
d="M427 385h-65q-73 0 -118 -28l-63 -357h-178l95 540h178l-12 -69q60 69 134 69h56zM161 -68l-21 -121q-8 -40 -69 -98l-88 -85h-59l107 138h-63l29 166h164z" />
    <glyph glyph-name="Rcaron" unicode="&#x158;" horiz-adv-x="643" 
d="M336 766l-126 143h160l42 -57l62 57h166l-176 -143h-128zM134 700h405q134 0 109 -136l-32 -182q-19 -114 -115 -132l76 -250h-182l-76 234h-79l-41 -234h-188zM266 382h145q17 0 21 18l22 130q2 10 -0.5 14t-12.5 4h-145z" />
    <glyph glyph-name="rcaron" unicode="&#x159;" horiz-adv-x="426" 
d="M223 606h128l176 143h-166l-62 -57l-42 57h-160zM427 385h-65q-73 0 -118 -28l-63 -357h-178l95 540h178l-12 -69q60 69 134 69h56z" />
    <glyph glyph-name="Sacute" unicode="&#x15a;" horiz-adv-x="611" 
d="M448 766h-151l113 144h227zM408 475l10 57q2 11 -1.5 14.5t-13.5 3.5h-108q-10 0 -14.5 -4t-5.5 -14l-10 -54q-2 -10 1 -14t15 -8l174 -50q22 -6 36.5 -11t30 -11.5t24 -13.5t16 -17t10.5 -22.5t3 -28.5t-4 -37l-23 -129q-24 -136 -157 -136h-267q-133 0 -109 136l17 96
h188l-11 -64q-2 -11 1 -14.5t13 -3.5h121q18 0 22 18l10 61q1 10 -2 14t-14 7l-173 51q-53 15 -77 27.5t-35.5 39.5t-3.5 74l21 122q25 136 157 136h253q134 0 109 -136l-15 -89h-188z" />
    <glyph glyph-name="sacute" unicode="&#x15b;" horiz-adv-x="519" 
d="M376 606h-151l113 144h227zM324 367l2 15q3 20 0.5 26t-14.5 6h-59q-11 0 -16 -6t-9 -26q-5 -33 14 -36l145 -27q63 -12 83 -40.5t5 -111.5q-16 -92 -52 -129.5t-102 -37.5h-218q-66 0 -89 37.5t-7 129.5l3 15h176l-3 -17q-3 -23 -0.5 -29t13.5 -6h77q12 0 17 6.5t9 28.5
q6 30 -13 33l-145 27q-26 5 -42 10.5t-29.5 16t-18.5 26t-5.5 39.5t5.5 58q16 91 52.5 128t101.5 37h199q66 0 89.5 -37t7.5 -128l-1 -8h-176z" />
    <glyph glyph-name="Scedilla" unicode="&#x15e;" horiz-adv-x="611" 
d="M249 700h253q134 0 109 -136l-15 -89h-188l10 57q2 11 -1.5 14.5t-13.5 3.5h-108q-10 0 -14.5 -4t-5.5 -14l-10 -54q-2 -10 1 -14t15 -8l174 -50q22 -6 36.5 -11t30 -11.5t24 -13.5t16 -17t10.5 -22.5t3 -28.5t-4 -37l-23 -129q-24 -136 -157 -136h-56l-12 -66
q-10 -55 -32.5 -74.5t-75.5 -19.5h-92l-34 86h90q20 0 23 20l10 54h-88q-133 0 -109 136l17 96h188l-11 -64q-2 -11 1 -14.5t13 -3.5h121q18 0 22 18l10 61q1 10 -2 14t-14 7l-173 51q-53 15 -77 27.5t-35.5 39.5t-3.5 74l21 122q25 136 157 136z" />
    <glyph glyph-name="scedilla" unicode="&#x15f;" horiz-adv-x="519" 
d="M205 540h199q66 0 89.5 -37t7.5 -128l-1 -8h-176l2 15q3 20 0.5 26t-14.5 6h-59q-11 0 -16 -6t-9 -26q-5 -33 14 -36l145 -27q63 -12 83 -40.5t5 -111.5q-16 -92 -52 -129.5t-102 -37.5h-33l-12 -66q-10 -55 -32.5 -74.5t-75.5 -19.5h-92l-34 86h90q20 0 23 20l10 54h-62
q-66 0 -89 37.5t-7 129.5l3 15h176l-3 -17q-3 -23 -0.5 -29t13.5 -6h77q12 0 17 6.5t9 28.5q6 30 -13 33l-145 27q-26 5 -42 10.5t-29.5 16t-18.5 26t-5.5 39.5t5.5 58q16 91 52.5 128t101.5 37z" />
    <glyph glyph-name="Scaron" unicode="&#x160;" horiz-adv-x="611" 
d="M329 766h128l176 143h-166l-62 -57l-42 57h-160zM408 475l10 57q2 11 -1.5 14.5t-13.5 3.5h-108q-10 0 -14.5 -4t-5.5 -14l-10 -54q-2 -10 1 -14t15 -8l174 -50q22 -6 36.5 -11t30 -11.5t24 -13.5t16 -17t10.5 -22.5t3 -28.5t-4 -37l-23 -129q-24 -136 -157 -136h-267
q-133 0 -109 136l17 96h188l-11 -64q-2 -11 1 -14.5t13 -3.5h121q18 0 22 18l10 61q1 10 -2 14t-14 7l-173 51q-53 15 -77 27.5t-35.5 39.5t-3.5 74l21 122q25 136 157 136h253q134 0 109 -136l-15 -89h-188z" />
    <glyph glyph-name="scaron" unicode="&#x161;" horiz-adv-x="519" 
d="M257 606h128l176 143h-166l-62 -57l-42 57h-160zM324 367l2 15q3 20 0.5 26t-14.5 6h-59q-11 0 -16 -6t-9 -26q-5 -33 14 -36l145 -27q63 -12 83 -40.5t5 -111.5q-16 -92 -52 -129.5t-102 -37.5h-218q-66 0 -89 37.5t-7 129.5l3 15h176l-3 -17q-3 -23 -0.5 -29t13.5 -6
h77q12 0 17 6.5t9 28.5q6 30 -13 33l-145 27q-26 5 -42 10.5t-29.5 16t-18.5 26t-5.5 39.5t5.5 58q16 91 52.5 128t101.5 37h199q66 0 89.5 -37t7.5 -128l-1 -8h-176z" />
    <glyph glyph-name="Tcedilla" unicode="&#x162;" horiz-adv-x="563" 
d="M621 700l-28 -160h-170l-95 -540l-12 -66q-10 -55 -32.5 -74.5t-75.5 -19.5h-92l-34 86h90q20 0 23 20l10 54h-65l95 540h-170l28 160h528z" />
    <glyph glyph-name="tcedilla" unicode="&#x163;" horiz-adv-x="412" 
d="M298 402l-42 -240q-2 -11 1 -15.5t14 -4.5h87l-25 -142l-12 -66q-10 -55 -32.5 -74.5t-75.5 -19.5h-92l-34 86h90q20 0 23 20l10 54h-36q-126 0 -102 128l48 274h-83l24 138h85l23 130h174l-23 -130h108l-24 -138h-106z" />
    <glyph glyph-name="Tcaron" unicode="&#x164;" horiz-adv-x="563" 
d="M305 766h128l176 143h-166l-62 -57l-42 57h-160zM593 540h-170l-95 -540h-188l95 540h-170l28 160h528z" />
    <glyph glyph-name="tcaron" unicode="&#x165;" horiz-adv-x="412" 
d="M581 875l-21 -121q-5 -31 -20 -54t-50 -54l-98 -85h-59l110 138h-76l31 176h183zM298 402l-42 -240q-2 -11 1 -15.5t14 -4.5h87l-25 -142h-159q-126 0 -102 128l48 274h-83l24 138h85l23 130h174l-23 -130h108l-24 -138h-106z" />
    <glyph glyph-name="Tbar" unicode="&#x166;" horiz-adv-x="563" 
d="M533 897l-23 -131h-278l23 131h278zM593 540h-170l-95 -540h-188l95 540h-170l28 160h528z" />
    <glyph glyph-name="tbar" unicode="&#x167;" horiz-adv-x="412" 
d="M298 402l-10 -59h53l-23 -131h-53l-9 -50q-2 -11 1 -15.5t14 -4.5h87l-25 -142h-159q-126 0 -102 128l15 84h-47l23 131h47l10 59h-83l24 138h85l23 130h174l-23 -130h108l-24 -138h-106z" />
    <glyph glyph-name="Umacron" unicode="&#x16a;" horiz-adv-x="646" 
d="M574 897l-23 -131h-278l23 131h278zM665 700l-99 -564q-12 -66 -52.5 -101t-104.5 -35h-267q-65 0 -93 35t-16 101l99 564h188l-91 -520q-3 -18 14 -18h122q18 0 21 18l91 520h188z" />
    <glyph glyph-name="umacron" unicode="&#x16b;" 
d="M512 737l-23 -131h-278l23 131h278zM295 0l11 63q-69 -69 -163 -69q-78 0 -106 31t-16 97l73 418h178l-65 -370q-2 -11 2.5 -15.5t19.5 -4.5q42 0 97 28l64 362h178l-95 -540h-178z" />
    <glyph glyph-name="Uring" unicode="&#x16e;" horiz-adv-x="646" 
d="M470 766h-121q-26 0 -35 11.5t-4 38.5l15 83q5 27 17.5 38.5t38.5 11.5h121q26 0 35.5 -11.5t4.5 -38.5l-15 -83q-4 -27 -17.5 -38.5t-39.5 -11.5zM447 886h-33q-12 0 -14 -12l-6 -33q-1 -8 1 -10t9 -2h33q13 0 14 12l6 33q1 7 -0.5 9.5t-9.5 2.5zM665 700l-99 -564
q-12 -66 -52.5 -101t-104.5 -35h-267q-65 0 -93 35t-16 101l99 564h188l-91 -520q-3 -18 14 -18h122q18 0 21 18l91 520h188z" />
    <glyph glyph-name="uring" unicode="&#x16f;" 
d="M408 606h-121q-26 0 -35 11.5t-4 38.5l15 83q5 27 17.5 38.5t38.5 11.5h121q26 0 35.5 -11.5t4.5 -38.5l-15 -83q-4 -27 -17.5 -38.5t-39.5 -11.5zM385 726h-33q-12 0 -14 -12l-6 -33q-1 -8 1 -10t9 -2h33q13 0 14 12l6 33q1 7 -0.5 9.5t-9.5 2.5zM295 0l11 63
q-69 -69 -163 -69q-78 0 -106 31t-16 97l73 418h178l-65 -370q-2 -11 2.5 -15.5t19.5 -4.5q42 0 97 28l64 362h178l-95 -540h-178z" />
    <glyph glyph-name="Uhungarumlaut" unicode="&#x170;" horiz-adv-x="646" 
d="M500 911l-139 -145h-160l139 145h160zM711 911l-139 -145h-160l139 145h160zM665 700l-99 -564q-12 -66 -52.5 -101t-104.5 -35h-267q-65 0 -93 35t-16 101l99 564h188l-91 -520q-3 -18 14 -18h122q18 0 21 18l91 520h188z" />
    <glyph glyph-name="uhungarumlaut" unicode="&#x171;" 
d="M438 751l-139 -145h-160l139 145h160zM649 751l-139 -145h-160l139 145h160zM295 0l11 63q-69 -69 -163 -69q-78 0 -106 31t-16 97l73 418h178l-65 -370q-2 -11 2.5 -15.5t19.5 -4.5q42 0 97 28l64 362h178l-95 -540h-178z" />
    <glyph glyph-name="Uogonek" unicode="&#x172;" horiz-adv-x="646" 
d="M665 700l-99 -564q-12 -66 -52.5 -101t-104.5 -35h-70l-53 -74q-9 -12 4 -12h47l-17 -94h-108q-54 0 -68 29t22 79l53 72h-77q-65 0 -93 35t-16 101l99 564h188l-91 -520q-3 -18 14 -18h122q18 0 21 18l91 520h188z" />
    <glyph glyph-name="uogonek" unicode="&#x173;" 
d="M473 0l-53 -74q-9 -12 4 -12h47l-17 -94h-108q-54 0 -68 29t22 79l53 72h-58l11 63q-69 -69 -163 -69q-78 0 -106 31t-16 97l73 418h178l-65 -370q-2 -11 2.5 -15.5t19.5 -4.5q42 0 97 28l64 362h178z" />
    <glyph glyph-name="Wcircumflex" unicode="&#x174;" horiz-adv-x="912" 
d="M499 766l62 57l42 -57h160l-126 143h-128l-176 -143h166zM705 0h-194l-22 434l-176 -434h-200l-35 700h184l-12 -474l192 474h178l25 -474l155 474h185z" />
    <glyph glyph-name="wcircumflex" unicode="&#x175;" horiz-adv-x="792" 
d="M412 606l62 57l42 -57h160l-126 143h-128l-176 -143h166zM602 0h-177l-18 327l-133 -327h-181l-42 540h174l-4 -352l143 352h159l20 -352l119 352h174z" />
    <glyph glyph-name="Ycircumflex" unicode="&#x176;" horiz-adv-x="629" 
d="M354 766l62 57l42 -57h160l-126 143h-128l-176 -143h166zM361 0h-188l38 217l-133 483h198l57 -297l161 297h208l-303 -483z" />
    <glyph glyph-name="ycircumflex" unicode="&#x177;" horiz-adv-x="538" 
d="M285 606l62 57l42 -57h160l-126 143h-128l-176 -143h166zM582 540l-351 -700h-176l84 160l-88 540h182l21 -361l147 361h181z" />
    <glyph glyph-name="Ydieresis" unicode="&#x178;" horiz-adv-x="629" 
d="M377 766h-148l25 140h148zM578 766h-148l25 140h148zM361 0h-188l38 217l-133 483h198l57 -297l161 297h208l-303 -483z" />
    <glyph glyph-name="Zacute" unicode="&#x179;" horiz-adv-x="586" 
d="M452 766h-151l113 144h227zM14 119l341 421h-249l28 160h487l-21 -119l-340 -421h265l-28 -160h-504z" />
    <glyph glyph-name="zacute" unicode="&#x17a;" horiz-adv-x="479" 
d="M355 606h-151l113 144h227zM1 121l245 276h-190l25 143h408l-21 -118l-248 -279h209l-25 -143h-424z" />
    <glyph glyph-name="Zdotaccent" unicode="&#x17b;" horiz-adv-x="586" 
d="M471 766h-147l25 142h147zM14 119l341 421h-249l28 160h487l-21 -119l-340 -421h265l-28 -160h-504z" />
    <glyph glyph-name="zdotaccent" unicode="&#x17c;" horiz-adv-x="479" 
d="M374 606h-147l25 142h147zM1 121l245 276h-190l25 143h408l-21 -118l-248 -279h209l-25 -143h-424z" />
    <glyph glyph-name="Zcaron" unicode="&#x17d;" horiz-adv-x="586" 
d="M333 766h128l176 143h-166l-62 -57l-42 57h-160zM14 119l341 421h-249l28 160h487l-21 -119l-340 -421h265l-28 -160h-504z" />
    <glyph glyph-name="zcaron" unicode="&#x17e;" horiz-adv-x="479" 
d="M236 606h128l176 143h-166l-62 -57l-42 57h-160zM1 121l245 276h-190l25 143h408l-21 -118l-248 -279h209l-25 -143h-424z" />
    <glyph glyph-name="florin" unicode="&#x192;" horiz-adv-x="473" 
d="M489 542h-108q-17 0 -21 -18l-12 -72h116l-27 -154h-116l-29 -162q-24 -136 -157 -136h-150l28 158h77q11 0 15.5 4t5.5 14l22 122h-88l27 154h88l19 112q25 136 157 136h180z" />
    <glyph glyph-name="circumflex" unicode="&#x2c6;" horiz-adv-x="645" 
d="M361 766l62 57l42 -57h160l-126 143h-128l-176 -143h166z" />
    <glyph glyph-name="caron" unicode="&#x2c7;" horiz-adv-x="645" 
d="M346 766h128l176 143h-166l-62 -57l-42 57h-160z" />
    <glyph glyph-name="breve" unicode="&#x2d8;" horiz-adv-x="604" 
d="M548 908l-11 -62q-8 -42 -29.5 -61t-62.5 -19h-112q-41 0 -56.5 19t-7.5 61l11 62h106l-9 -50q-1 -8 0.5 -10t8.5 -2h34q13 0 14 12l9 50h105z" />
    <glyph glyph-name="dotaccent" unicode="&#x2d9;" horiz-adv-x="418" 
d="M370 766h-147l25 142h147z" />
    <glyph glyph-name="ring" unicode="&#x2da;" horiz-adv-x="336" 
d="M315 766h-121q-26 0 -35 11.5t-4 38.5l15 83q5 27 17.5 38.5t38.5 11.5h121q26 0 35.5 -11.5t4.5 -38.5l-15 -83q-4 -27 -17.5 -38.5t-39.5 -11.5zM292 886h-33q-12 0 -14 -12l-6 -33q-1 -8 1 -10t9 -2h33q13 0 14 12l6 33q1 7 -0.5 9.5t-9.5 2.5z" />
    <glyph glyph-name="ogonek" unicode="&#x2db;" horiz-adv-x="373" 
d="M221 0l-53 -74q-9 -12 4 -12h47l-17 -94h-108q-54 0 -68 29t22 79l53 72h120z" />
    <glyph glyph-name="tilde" unicode="&#x2dc;" horiz-adv-x="597" 
d="M286 762l4 19q4 21 26 21q18 0 61 -23t75 -23q46 0 77 28.5t44 103.5l4 25h-85l-3 -19q-5 -21 -24 -21q-20 0 -61.5 23t-68.5 23q-104 0 -127 -132l-5 -25h83z" />
    <glyph glyph-name="hungarumlaut" unicode="&#x2dd;" horiz-adv-x="733" 
d="M511 911l-139 -145h-160l139 145h160zM722 911l-139 -145h-160l139 145h160z" />
    <glyph glyph-name="uni0326" unicode="&#x326;" horiz-adv-x="0" 
d="M204 -68l-21 -121q-8 -40 -69 -98l-88 -85h-59l107 138h-63l29 166h164z" />
    <glyph glyph-name="Wgrave" unicode="&#x1e80;" horiz-adv-x="912" 
d="M498 766h140l-64 144h-214zM705 0h-194l-22 434l-176 -434h-200l-35 700h184l-12 -474l192 474h178l25 -474l155 474h185z" />
    <glyph glyph-name="wgrave" unicode="&#x1e81;" horiz-adv-x="792" 
d="M411 606h140l-64 144h-214zM602 0h-177l-18 327l-133 -327h-181l-42 540h174l-4 -352l143 352h159l20 -352l119 352h174z" />
    <glyph glyph-name="Wacute" unicode="&#x1e82;" horiz-adv-x="912" 
d="M603 766h-151l113 144h227zM705 0h-194l-22 434l-176 -434h-200l-35 700h184l-12 -474l192 474h178l25 -474l155 474h185z" />
    <glyph glyph-name="wacute" unicode="&#x1e83;" horiz-adv-x="792" 
d="M516 606h-151l113 144h227zM602 0h-177l-18 327l-133 -327h-181l-42 540h174l-4 -352l143 352h159l20 -352l119 352h174z" />
    <glyph glyph-name="Wdieresis" unicode="&#x1e84;" horiz-adv-x="912" 
d="M522 766h-148l25 140h148zM723 766h-148l25 140h148zM705 0h-194l-22 434l-176 -434h-200l-35 700h184l-12 -474l192 474h178l25 -474l155 474h185z" />
    <glyph glyph-name="wdieresis" unicode="&#x1e85;" horiz-adv-x="792" 
d="M435 606h-148l25 140h148zM636 606h-148l25 140h148zM602 0h-177l-18 327l-133 -327h-181l-42 540h174l-4 -352l143 352h159l20 -352l119 352h174z" />
    <glyph glyph-name="Ygrave" unicode="&#x1ef2;" horiz-adv-x="629" 
d="M353 766h140l-64 144h-214zM361 0h-188l38 217l-133 483h198l57 -297l161 297h208l-303 -483z" />
    <glyph glyph-name="ygrave" unicode="&#x1ef3;" horiz-adv-x="538" 
d="M284 606h140l-64 144h-214zM582 540l-351 -700h-176l84 160l-88 540h182l21 -361l147 361h181z" />
    <glyph glyph-name="endash" unicode="&#x2013;" horiz-adv-x="552" 
d="M531 409l-28 -161h-461l28 161h461z" />
    <glyph glyph-name="emdash" unicode="&#x2014;" horiz-adv-x="782" 
d="M761 410l-28 -162h-691l28 162h691z" />
    <glyph glyph-name="quoteleft" unicode="&#x2018;" horiz-adv-x="254" 
d="M56 386l21 121q6 31 21 54.5t49 53.5l98 85h59l-110 -138h76l-31 -176h-183z" />
    <glyph glyph-name="quoteright" unicode="&#x2019;" horiz-adv-x="254" 
d="M294 700l-21 -121q-5 -31 -20 -54t-50 -54l-98 -85h-59l110 138h-76l31 176h183z" />
    <glyph glyph-name="quotesinglbase" unicode="&#x201a;" horiz-adv-x="254" 
d="M202 176l-21 -121q-6 -31 -21 -54.5t-49 -53.5l-98 -85h-59l110 138h-76l31 176h183z" />
    <glyph glyph-name="quotedblleft" unicode="&#x201c;" horiz-adv-x="475" 
d="M56 386l21 121q6 31 21 54.5t49 53.5l98 85h59l-110 -138h76l-31 -176h-183zM277 386l21 121q6 31 21 54.5t49 53.5l98 85h59l-110 -138h76l-31 -176h-183z" />
    <glyph glyph-name="quotedblright" unicode="&#x201d;" horiz-adv-x="475" 
d="M294 700l-21 -121q-5 -31 -20 -54t-50 -54l-98 -85h-59l110 138h-76l31 176h183zM515 700l-21 -121q-5 -31 -20 -54t-50 -54l-98 -85h-59l110 138h-76l31 176h183z" />
    <glyph glyph-name="quotedblbase" unicode="&#x201e;" horiz-adv-x="475" 
d="M200 166l-21 -121q-5 -31 -20 -54t-50 -54l-98 -85h-59l110 138h-76l31 176h183zM421 166l-21 -121q-5 -31 -20 -54t-50 -54l-98 -85h-59l110 138h-76l31 176h183z" />
    <glyph glyph-name="dagger" unicode="&#x2020;" horiz-adv-x="385" 
d="M393 380h-97l-67 -380h-166l67 380h-99l28 160h99l28 160h166l-28 -160h97z" />
    <glyph glyph-name="daggerdbl" unicode="&#x2021;" horiz-adv-x="385" 
d="M296 380l-11 -60h97l-28 -160h-97l-28 -160h-166l28 160h-99l28 160h99l11 60h-99l28 160h99l28 160h166l-28 -160h97l-28 -160h-97z" />
    <glyph glyph-name="bullet" unicode="&#x2022;" horiz-adv-x="419" 
d="M204 230q-70 0 -95.5 31t-12.5 101q12 70 48 101t106 31t95 -30.5t13 -101.5q-13 -71 -48.5 -101.5t-105.5 -30.5z" />
    <glyph glyph-name="ellipsis" unicode="&#x2026;" horiz-adv-x="712" 
d="M181 0h-183l31 176h183zM400 0h-183l31 176h183zM619 0h-183l31 176h183z" />
    <glyph glyph-name="perthousand" unicode="&#x2030;" horiz-adv-x="894" 
d="M621 700l-423 -700h-156l423 700h156zM174 700h97q38 0 50.5 -15.5t5.5 -54.5l-24 -136q-7 -39 -24.5 -54.5t-55.5 -15.5h-97q-39 0 -51.5 15.5t-5.5 54.5l24 136q7 39 24.5 54.5t56.5 15.5zM222 510l18 104q1 7 -0.5 9.5t-8.5 2.5h-43q-12 0 -14 -12l-18 -104
q-1 -7 0.5 -9.5t9.5 -2.5h43q11 0 13 12zM441 276h97q39 0 51 -15.5t5 -54.5l-24 -136q-7 -39 -24.5 -54.5t-56.5 -15.5h-97q-38 0 -50.5 15.5t-5.5 54.5l24 136q7 39 25 54.5t56 15.5zM700 276h97q38 0 50.5 -15.5t5.5 -54.5l-24 -136q-7 -39 -25 -54.5t-56 -15.5h-97
q-38 0 -51 15.5t-6 54.5l24 136q7 39 25.5 54.5t56.5 15.5zM489 86l19 104q1 8 -0.5 10t-8.5 2h-44q-12 0 -13 -12l-19 -104q-1 -7 0.5 -9.5t8.5 -2.5h44q11 0 13 12zM747 86l19 104q1 8 -0.5 10t-8.5 2h-43q-12 0 -13 -12l-19 -104q-2 -8 0 -10t9 -2h43q7 0 9 2t4 10z" />
    <glyph glyph-name="guilsinglleft" unicode="&#x2039;" horiz-adv-x="319" 
d="M366 559l-189 -210l103 -205h-174l-93 179l10 56l157 180h186z" />
    <glyph glyph-name="guilsinglright" unicode="&#x203a;" horiz-adv-x="319" 
d="M335 379l-10 -56l-158 -179h-185l189 209l-103 206h173z" />
    <glyph glyph-name="fraction" unicode="&#x2044;" horiz-adv-x="233" 
d="M462 700l-537 -700h-126l537 700h126z" />
    <glyph glyph-name="zerosuperior" unicode="&#x2070;" horiz-adv-x="380" 
d="M300 402h-173q-78 0 -64 80l44 248q14 80 92 80h173q77 0 63 -80l-44 -248q-14 -80 -91 -80zM220 694l-31 -176q-1 -10 8 -10h70q10 0 11 10l31 176q3 10 -8 10h-70q-9 0 -11 -10z" />
    <glyph glyph-name="foursuperior" unicode="&#x2074;" horiz-adv-x="413" 
d="M429 468h-54l-12 -66h-118l12 66h-181l-11 82l280 260h90l-43 -245h54zM206 565h68l15 83z" />
    <glyph glyph-name="fivesuperior" unicode="&#x2075;" horiz-adv-x="374" 
d="M416 706h-191l-15 -80q44 44 104 44t81.5 -19.5t14.5 -60.5l-19 -108q-14 -80 -92 -80h-176q-78 0 -64 80l9 49h119l-3 -13q-1 -10 8 -10h76q10 0 11 10l9 48q1 6 -2.5 8t-18.5 2q-29 0 -67 -11l-113 33l37 212h310z" />
    <glyph glyph-name="sixsuperior" unicode="&#x2076;" horiz-adv-x="381" 
d="M307 685l2 13q1 6 -0.5 8t-7.5 2h-70q-10 0 -11 -10l-14 -82q24 25 45 34.5t62 9.5q62 0 84 -19.5t15 -60.5l-17 -97q-14 -80 -92 -80h-176q-78 0 -64 80l44 248q14 80 92 80h168q77 0 63 -80l-8 -46h-115zM197 559l-8 -42q-1 -10 7 -10h75q11 0 12 10l8 43q1 6 -3.5 8
t-21.5 2q-31 0 -69 -11z" />
    <glyph glyph-name="sevensuperior" unicode="&#x2077;" horiz-adv-x="350" 
d="M419 727l-230 -325h-133l216 301h-183l19 107h326z" />
    <glyph glyph-name="eightsuperior" unicode="&#x2078;" horiz-adv-x="383" 
d="M429 701q-15 -87 -60 -91q25 -6 32.5 -27t-0.5 -67q-11 -62 -35 -88t-63 -26h-176q-39 0 -54 26t-4 88q8 45 23.5 66.5t42.5 27.5q-43 4 -28 91q10 59 33.5 84t62.5 25h167q39 0 54 -25t5 -84zM301 715h-63q-6 0 -8 -5t-6 -25q-2 -14 -2.5 -20.5t1 -8t5.5 -1.5h63
q6 0 8.5 5t6.5 25q2 14 2.5 20.5t-1.5 8t-6 1.5zM279 563h-73q-6 0 -8 -5.5t-6 -27.5q-2 -9 -2.5 -15t-1 -10t0.5 -5.5t2.5 -2t3.5 -0.5h73q6 0 9 5.5t7 27.5q2 15 2.5 22t-1.5 9t-6 2z" />
    <glyph glyph-name="ninesuperior" unicode="&#x2079;" horiz-adv-x="381" 
d="M193 528l-2 -13q-1 -10 7 -10h70q11 0 12 10l14 78q-25 -25 -46 -34.5t-62 -9.5q-62 0 -84 19.5t-15 60.5l18 101q14 80 92 80h176q78 0 64 -80l-44 -248q-14 -80 -92 -80h-168q-78 0 -64 80l8 46h116zM303 650l8 46q1 6 -0.5 8t-7.5 2h-75q-10 0 -11 -10l-8 -47
q-2 -6 2 -8t21 -2q31 0 71 11z" />
    <glyph glyph-name="Euro" unicode="&#x20ac;" horiz-adv-x="647" 
d="M292 700h265q134 0 109 -136l-17 -101h-188l11 63q2 11 -1 14.5t-13 3.5h-121q-10 0 -14 -3.5t-6 -14.5l-14 -78h137l-14 -78h-136l-8 -43h137l-14 -77h-137l-13 -76q-2 -11 1 -14.5t13 -3.5h121q10 0 14 3.5t6 14.5l11 63h188l-18 -101q-24 -136 -157 -136h-265
q-133 0 -109 136l20 114h-64l14 77h63l8 43h-64l14 78h64l20 116q25 136 157 136z" />
    <glyph glyph-name="trademark" unicode="&#x2122;" horiz-adv-x="739" 
d="M361 614h-84l-48 -274h-92l48 274h-82l15 86h258zM772 700l-63 -360h-86l35 200l-84 -148h-53l-40 148l-35 -200h-85l63 360h96l43 -188l106 188h103z" />
    <glyph glyph-name="oneeighth" unicode="&#x215b;" horiz-adv-x="876" 
d="M722 700l-537 -700h-126l537 700h126zM103 292l52 295l-87 -29l16 93l122 49h89l-72 -408h-120zM851 299q-15 -87 -60 -91q25 -6 32.5 -27t-0.5 -67q-11 -62 -35 -88t-63 -26h-176q-39 0 -54 26t-4 88q8 45 23.5 66.5t42.5 27.5q-43 4 -28 91q10 59 33.5 84t62.5 25h167
q39 0 54 -25t5 -84zM723 313h-63q-6 0 -8 -5t-6 -25q-2 -14 -2.5 -20.5t1 -8t5.5 -1.5h63q6 0 8.5 5t6.5 25q2 14 2.5 20.5t-1.5 8t-6 1.5zM701 161h-73q-6 0 -8 -5.5t-6 -27.5q-2 -9 -2.5 -15t-1 -10t0.5 -5.5t2.5 -2t3.5 -0.5h73q6 0 9 5.5t7 27.5q2 15 2.5 22t-1.5 9
t-6 2z" />
    <glyph glyph-name="threeeighths" unicode="&#x215c;" horiz-adv-x="978" 
d="M161 421l-1 -2q-3 -19 -2 -23.5t6 -4.5h66q6 0 9 5t7 25q2 14 2.5 20.5t-1.5 8t-6 1.5h-69l17 96h64q6 0 8.5 4.5t6.5 22.5q3 19 1.5 23t-7.5 4h-56q-5 0 -7.5 -4.5t-5.5 -22.5l-1 -3h-119l4 20q10 59 33.5 84t62.5 25h159q39 0 54 -25t5 -84q-15 -87 -60 -91
q46 -12 31 -94q-11 -62 -34.5 -88t-62.5 -26h-168q-39 0 -54 26t-4 88l3 15h119zM824 700l-537 -700h-126l537 700h126zM953 299q-15 -87 -60 -91q25 -6 32.5 -27t-0.5 -67q-11 -62 -35 -88t-63 -26h-176q-39 0 -54 26t-4 88q8 45 23.5 66.5t42.5 27.5q-43 4 -28 91
q10 59 33.5 84t62.5 25h167q39 0 54 -25t5 -84zM825 313h-63q-6 0 -8 -5t-6 -25q-2 -14 -2.5 -20.5t1 -8t5.5 -1.5h63q6 0 8.5 5t6.5 25q2 14 2.5 20.5t-1.5 8t-6 1.5zM803 161h-73q-6 0 -8 -5.5t-6 -27.5q-2 -9 -2.5 -15t-1 -10t0.5 -5.5t2.5 -2t3.5 -0.5h73q6 0 9 5.5
t7 27.5q2 15 2.5 22t-1.5 9t-6 2z" />
    <glyph glyph-name="fiveeighths" unicode="&#x215d;" horiz-adv-x="990" 
d="M396 596h-191l-15 -80q44 44 104 44t81.5 -19.5t14.5 -60.5l-19 -108q-14 -80 -92 -80h-176q-78 0 -64 80l9 49h119l-3 -13q-1 -10 8 -10h76q10 0 11 10l9 48q1 6 -2.5 8t-18.5 2q-29 0 -67 -11l-113 33l37 212h310zM836 700l-537 -700h-126l537 700h126zM965 299
q-15 -87 -60 -91q25 -6 32.5 -27t-0.5 -67q-11 -62 -35 -88t-63 -26h-176q-39 0 -54 26t-4 88q8 45 23.5 66.5t42.5 27.5q-43 4 -28 91q10 59 33.5 84t62.5 25h167q39 0 54 -25t5 -84zM837 313h-63q-6 0 -8 -5t-6 -25q-2 -14 -2.5 -20.5t1 -8t5.5 -1.5h63q6 0 8.5 5t6.5 25
q2 14 2.5 20.5t-1.5 8t-6 1.5zM815 161h-73q-6 0 -8 -5.5t-6 -27.5q-2 -9 -2.5 -15t-1 -10t0.5 -5.5t2.5 -2t3.5 -0.5h73q6 0 9 5.5t7 27.5q2 15 2.5 22t-1.5 9t-6 2z" />
    <glyph glyph-name="seveneighths" unicode="&#x215e;" horiz-adv-x="886" 
d="M399 617l-230 -325h-133l216 301h-183l19 107h326zM732 700l-537 -700h-126l537 700h126zM861 299q-15 -87 -60 -91q25 -6 32.5 -27t-0.5 -67q-11 -62 -35 -88t-63 -26h-176q-39 0 -54 26t-4 88q8 45 23.5 66.5t42.5 27.5q-43 4 -28 91q10 59 33.5 84t62.5 25h167
q39 0 54 -25t5 -84zM733 313h-63q-6 0 -8 -5t-6 -25q-2 -14 -2.5 -20.5t1 -8t5.5 -1.5h63q6 0 8.5 5t6.5 25q2 14 2.5 20.5t-1.5 8t-6 1.5zM711 161h-73q-6 0 -8 -5.5t-6 -27.5q-2 -9 -2.5 -15t-1 -10t0.5 -5.5t2.5 -2t3.5 -0.5h73q6 0 9 5.5t7 27.5q2 15 2.5 22t-1.5 9
t-6 2z" />
    <glyph glyph-name="minus" unicode="&#x2212;" horiz-adv-x="498" 
d="M82 444h396l-29 -168h-396z" />
    <glyph glyph-name="infinity" unicode="&#x221e;" horiz-adv-x="809" 
d="M573 576h120q64 0 88.5 -33.5t12.5 -102.5l-28 -154q-24 -136 -156 -136h-113q-96 0 -96 90q-13 -41 -46.5 -65.5t-85.5 -24.5h-113q-133 0 -109 136l28 154q24 136 157 136h113q46 0 71.5 -25t24.5 -65q14 40 50 65t82 25zM214 293h58q17 0 20 18l18 104q3 18 -14 18
h-58q-18 0 -21 -18l-18 -104q-3 -18 15 -18zM624 311l18 104q3 18 -14 18h-58q-18 0 -21 -18l-18 -104q-3 -18 15 -18h58q17 0 20 18z" />
    <glyph glyph-name="notequal" unicode="&#x2260;" horiz-adv-x="499" 
d="M337 402l-27 -56h151l-28 -157h-199l-59 -121h-111l59 121h-86l28 157h134l27 56h-151l28 157h200l55 114h111l-55 -114h85l-28 -157h-134z" />
    <glyph glyph-name="B.ss01" horiz-adv-x="638" 
d="M134 700h400q134 0 109 -136l-13 -78q-11 -59 -32.5 -89t-71.5 -39q88 -9 67 -128l-17 -94q-24 -136 -157 -136h-408zM274 426h140q10 0 14.5 4t5.5 14l17 92q2 11 -1 14.5t-13 3.5h-140zM225 146h148q10 0 14 3.5t6 14.5l19 108q2 11 -1 14.5t-13 3.5h-148z" />
    <glyph glyph-name="K.ss01" horiz-adv-x="663" 
d="M245 281l-50 -281h-184l123 700h184l-46 -265h17l226 265h211l-295 -342l181 -358h-202l-137 281h-28z" />
    <glyph glyph-name="Kcommaaccent.ss01" horiz-adv-x="663" 
d="M245 281l-50 -281h-184l123 700h184l-46 -265h17l226 265h211l-295 -342l181 -358h-202l-137 281h-28zM371 -68l-21 -121q-8 -40 -69 -98l-88 -85h-59l107 138h-63l29 166h164z" />
    <glyph glyph-name="k.ss01" horiz-adv-x="559" 
d="M213 207l-36 -207h-174l129 730h174l-67 -381h4l151 191h197l-207 -262l122 -278h-191l-80 207h-22z" />
    <glyph glyph-name="kcommaaccent.ss01" horiz-adv-x="559" 
d="M213 207l-36 -207h-174l129 730h174l-67 -381h4l151 191h197l-207 -262l122 -278h-191l-80 207h-22zM310 -68l-21 -121q-8 -40 -69 -98l-88 -85h-59l107 138h-63l29 166h164z" />
    <glyph glyph-name="three.ss01" horiz-adv-x="603" 
d="M214 223l-9 -51q-2 -11 1 -14.5t13 -3.5h119q10 0 14.5 4t5.5 14l17 93q2 11 -1 14.5t-13 3.5h-145l26 148h137q10 0 14.5 4t5.5 14l14 80q4 18 -14 18h-103q-10 0 -14 -3.5t-6 -14.5l-9 -52h-188l15 87q25 136 157 136h247q134 0 109 -136l-13 -78q-11 -60 -31.5 -90
t-68.5 -39q49 -5 61 -38.5t2 -88.5l-17 -94q-24 -136 -157 -136h-263q-133 0 -109 136l15 87h188z" />
    <glyph glyph-name="eight.ss01" horiz-adv-x="618" 
d="M509 357q49 -5 61 -38.5t2 -88.5l-17 -94q-24 -136 -156 -136h-275q-133 0 -109 136l17 94q10 55 33.5 88.5t74.5 38.5q-46 9 -57 42t2 87l13 78q25 136 157 136h259q134 0 109 -136l-13 -78q-11 -60 -31.5 -90t-69.5 -39zM280 529l-14 -80q-2 -11 1 -14.5t13 -3.5h114
q11 0 15.5 4t5.5 14l14 80q2 10 -1 14t-14 4h-114q-10 0 -14 -3.5t-6 -14.5zM373 172l17 93q2 11 -1 14.5t-13 3.5h-130q-10 0 -14.5 -4t-5.5 -14l-17 -93q-2 -11 1 -14.5t13 -3.5h130q10 0 14 3.5t6 14.5z" />
    <glyph glyph-name="zero.subs" horiz-adv-x="380" 
d="M204 -138h-173q-78 0 -64 80l44 248q14 80 92 80h173q77 0 63 -80l-44 -248q-14 -80 -91 -80zM124 154l-31 -176q-1 -10 8 -10h70q10 0 11 10l31 176q3 10 -8 10h-70q-9 0 -11 -10z" />
    <glyph glyph-name="one.subs" horiz-adv-x="260" 
d="M27 -138l52 295l-87 -29l16 93l122 49h89l-72 -408h-120z" />
    <glyph glyph-name="two.subs" horiz-adv-x="363" 
d="M116 137l4 21q2 10 11 10h66q11 0 8 -10l-4 -25q-1 -8 -10 -10l-118 -31q-50 -13 -72 -31t-28 -52l-26 -147h326l19 105h-207l3 18q1 7 10 10l117 31q50 13 72 31t29 52l14 81q14 80 -63 80h-166q-77 0 -91 -80l-10 -53h116z" />
    <glyph glyph-name="three.subs" horiz-adv-x="362" 
d="M85 -9l-1 -2q-3 -19 -2 -23.5t6 -4.5h66q6 0 9 5t7 25q2 14 2.5 20.5t-1.5 8t-6 1.5h-69l17 96h64q6 0 8.5 4.5t6.5 22.5q3 19 1.5 23t-7.5 4h-56q-5 0 -7.5 -4.5t-5.5 -22.5l-1 -3h-119l4 20q10 59 33.5 84t62.5 25h159q39 0 54 -25t5 -84q-15 -87 -60 -91
q46 -12 31 -94q-11 -62 -34.5 -88t-62.5 -26h-168q-39 0 -54 26t-4 88l3 15h119z" />
    <glyph glyph-name="four.subs" horiz-adv-x="413" 
d="M333 -72h-54l-12 -66h-118l12 66h-181l-11 82l280 260h90l-43 -245h54zM110 25h68l15 83z" />
    <glyph glyph-name="five.subs" horiz-adv-x="374" 
d="M320 166h-191l-15 -80q44 44 104 44t81.5 -19.5t14.5 -60.5l-19 -108q-14 -80 -92 -80h-176q-78 0 -64 80l9 49h119l-3 -13q-1 -10 8 -10h76q10 0 11 10l9 48q1 6 -2.5 8t-18.5 2q-29 0 -67 -11l-113 33l37 212h310z" />
    <glyph glyph-name="six.subs" horiz-adv-x="381" 
d="M212 145l2 13q1 6 -0.5 8t-7.5 2h-70q-10 0 -11 -10l-14 -82q24 25 45 34.5t62 9.5q62 0 84 -19.5t15 -60.5l-17 -97q-14 -80 -92 -80h-176q-78 0 -64 80l44 248q14 80 92 80h168q77 0 63 -80l-8 -46h-115zM102 19l-8 -42q-1 -10 7 -10h75q11 0 12 10l8 43q1 6 -3.5 8
t-21.5 2q-31 0 -69 -11z" />
    <glyph glyph-name="seven.subs" horiz-adv-x="350" 
d="M323 187l-230 -325h-133l216 301h-183l19 107h326z" />
    <glyph glyph-name="eight.subs" horiz-adv-x="383" 
d="M333 161q-15 -87 -60 -91q25 -6 32.5 -27t-0.5 -67q-11 -62 -35 -88t-63 -26h-176q-39 0 -54 26t-4 88q8 45 23.5 66.5t42.5 27.5q-43 4 -28 91q10 59 33.5 84t62.5 25h167q39 0 54 -25t5 -84zM205 175h-63q-6 0 -8 -5t-6 -25q-2 -14 -2.5 -20.5t1 -8t5.5 -1.5h63
q6 0 8.5 5t6.5 25q2 14 2.5 20.5t-1.5 8t-6 1.5zM183 23h-73q-6 0 -8 -5.5t-6 -27.5q-2 -9 -2.5 -15t-1 -10t0.5 -5.5t2.5 -2t3.5 -0.5h73q6 0 9 5.5t7 27.5q2 15 2.5 22t-1.5 9t-6 2z" />
    <glyph glyph-name="nine.subs" horiz-adv-x="381" 
d="M97 -12l-2 -13q-1 -10 7 -10h70q11 0 12 10l14 78q-25 -25 -46 -34.5t-62 -9.5q-62 0 -84 19.5t-15 60.5l18 101q14 80 92 80h176q78 0 64 -80l-44 -248q-14 -80 -92 -80h-168q-78 0 -64 80l8 46h116zM207 110l8 46q1 6 -0.5 8t-7.5 2h-75q-10 0 -11 -10l-8 -47
q-2 -6 2 -8t21 -2q31 0 71 11z" />
    <glyph glyph-name="zero.tf" horiz-adv-x="628" 
d="M400 0h-269q-133 0 -109 136l75 428q25 136 157 136h269q134 0 109 -136l-75 -428q-24 -136 -157 -136zM279 526l-62 -352q-4 -18 14 -18h125q10 0 14 3.5t6 14.5l62 352q2 11 -1 14.5t-13 3.5h-125q-10 0 -14.5 -4t-5.5 -14z" />
    <glyph glyph-name="one.tf" horiz-adv-x="628" 
d="M496 0h-448l28 160h136l65 369l-144 -46l28 159l155 58h179l-95 -540h124z" />
    <glyph glyph-name="two.tf" horiz-adv-x="628" 
d="M280 478l9 52q4 18 21 18h103q10 0 12.5 -3.5t0.5 -14.5l-10 -58q-2 -15 -15 -19l-186 -62q-82 -27 -120 -59.5t-49 -96.5l-41 -235h516l28 158h-330l9 54q2 14 16 19l186 62q81 27 119 60t49 96l20 115q12 66 -16 101t-93 35h-241q-64 0 -104.5 -35t-52.5 -101l-15 -86
h184z" />
    <glyph glyph-name="three.tf" horiz-adv-x="628" 
d="M228 223v-3q-4 -23 -5.5 -36.5t-0.5 -20.5t3.5 -9t7.5 -2h119q11 0 16 11t12 55q4 23 5.5 36t0.5 19.5t-3 8t-8 1.5h-145l26 148h137q10 0 15.5 10t11.5 49q4 21 5.5 32t0 17t-4 7.5t-7.5 1.5h-103q-10 0 -15.5 -10t-12.5 -48l-2 -13h-188l9 48q17 96 55.5 135.5
t107.5 39.5h247q70 0 95 -39.5t8 -135.5q-16 -89 -36.5 -124t-70.5 -44q50 -5 61 -48.5t-7 -125.5q-17 -101 -56 -142t-109 -41h-263q-70 0 -94.5 41t-6.5 142l7 40h188z" />
    <glyph glyph-name="four.tf" horiz-adv-x="628" 
d="M594 133h-85l-23 -133h-184l23 133h-308l-11 142l385 425h218l-72 -410h85zM219 290h136l35 198z" />
    <glyph glyph-name="five.tf" horiz-adv-x="628" 
d="M302 544l-26 -149q66 72 159 72q97 0 130.5 -32.5t20.5 -103.5l-34 -195q-24 -136 -157 -136h-255q-133 0 -109 136l15 87h188l-8 -49q-4 -18 14 -18h110q10 0 14.5 3.5t6.5 14.5l20 117q2 10 -4 14t-20 4q-47 0 -112 -31l-179 53l65 369h487l-27 -156h-299z" />
    <glyph glyph-name="six.tf" horiz-adv-x="628" 
d="M419 491l6 35q2 11 -1 14.5t-13 3.5h-103q-10 0 -14.5 -4t-5.5 -14l-27 -153q18 19 32 31t50.5 26.5t81.5 14.5q100 0 134.5 -32.5t21.5 -103.5l-30 -173q-24 -136 -157 -136h-254q-133 0 -109 136l75 428q25 136 157 136h247q134 0 109 -136l-12 -73h-188zM242 266
l-16 -92q-4 -18 14 -18h110q10 0 14 3.5t6 14.5l18 105q2 10 -3.5 14t-22.5 4q-36 0 -58.5 -6t-61.5 -25z" />
    <glyph glyph-name="seven.tf" horiz-adv-x="628" 
d="M638 565l-385 -565h-207l370 540h-311l28 160h528z" />
    <glyph glyph-name="eight.tf" horiz-adv-x="628" 
d="M514 357q50 -5 61 -48.5t-7 -125.5q-17 -101 -56 -142t-108 -41h-275q-70 0 -94.5 41t-6.5 142q16 89 40.5 129t76.5 45q-47 9 -56 46.5t8 121.5q17 96 55.5 135.5t107.5 39.5h259q70 0 95 -39.5t8 -135.5q-16 -88 -37 -123.5t-71 -44.5zM420 548h-114q-10 0 -15.5 -10
t-12.5 -48q-3 -21 -4.5 -32.5t0 -17.5t4 -7.5t7.5 -1.5h114q11 0 16.5 10t11.5 49q4 21 5.5 32t0 17t-4 7.5t-8.5 1.5zM228 152h130q11 0 16 10.5t12 55.5l6 36t1 19t-3.5 8.5t-8.5 1.5h-130q-11 0 -16 -11t-13 -54q-4 -24 -5.5 -36.5t0 -19.5t3.5 -8.5t8 -1.5z" />
    <glyph glyph-name="nine.tf" horiz-adv-x="628" 
d="M238 209l-6 -35q-2 -11 1 -14.5t13 -3.5h103q10 0 14 3.5t6 14.5l26 149q-66 -72 -165 -72q-100 0 -134 32.5t-22 103.5l31 177q25 136 157 136h254q134 0 109 -136l-75 -428q-24 -136 -157 -136h-247q-133 0 -109 136l13 73h188zM414 430l17 96q2 11 -1 14.5t-13 3.5
h-110q-10 0 -14.5 -4t-5.5 -14l-19 -109q-2 -11 3 -14.5t22 -3.5q36 0 59.5 6.5t61.5 24.5z" />
    <glyph glyph-name="zero.dnom" horiz-adv-x="380" 
d="M229 0h-173q-78 0 -64 80l44 248q14 80 92 80h173q77 0 63 -80l-44 -248q-14 -80 -91 -80zM149 292l-31 -176q-1 -10 8 -10h70q10 0 11 10l31 176q2 10 -8 10h-70q-8 0 -11 -10z" />
    <glyph glyph-name="one.dnom" horiz-adv-x="260" 
d="M52 0l52 295l-87 -29l16 93l122 49h89l-72 -408h-120z" />
    <glyph glyph-name="two.dnom" horiz-adv-x="363" 
d="M141 275l4 21q3 10 11 10h66q10 0 8 -10l-4 -25q-1 -8 -10 -10l-118 -31q-50 -13 -72 -31t-28 -52l-26 -147h326l19 105h-207l3 18q1 7 10 10l117 31q50 13 72 31t29 52l14 81q14 80 -63 80h-166q-77 0 -91 -80l-10 -53h116z" />
    <glyph glyph-name="three.dnom" horiz-adv-x="362" 
d="M110 129l-1 -2q-3 -19 -2 -23.5t6 -4.5h66q6 0 9 5t7 25q2 14 2.5 20.5t-1.5 8t-6 1.5h-69l17 96h64q6 0 8.5 4.5t6.5 22.5q3 19 1.5 23t-7.5 4h-56q-5 0 -7.5 -4.5t-5.5 -22.5l-1 -3h-119l4 20q10 59 33.5 84t62.5 25h159q39 0 54 -25t5 -84q-15 -87 -60 -91
q46 -12 31 -94q-11 -62 -34.5 -88t-62.5 -26h-168q-39 0 -54 26t-4 88l3 15h119z" />
    <glyph glyph-name="four.dnom" horiz-adv-x="413" 
d="M358 66h-54l-12 -66h-118l12 66h-181l-11 82l280 260h90l-43 -245h54zM135 163h68l15 83z" />
    <glyph glyph-name="five.dnom" horiz-adv-x="374" 
d="M345 304h-191l-15 -80q44 44 104 44t81.5 -19.5t14.5 -60.5l-19 -108q-14 -80 -92 -80h-176q-78 0 -64 80l9 49h119l-3 -13q-1 -10 8 -10h76q10 0 11 10l9 48q1 6 -2.5 8t-18.5 2q-28 0 -67 -11l-113 33l37 212h310z" />
    <glyph glyph-name="six.dnom" horiz-adv-x="381" 
d="M236 282l2 13q1 6 -0.5 8t-7.5 2h-70q-10 0 -11 -10l-14 -82q24 25 45 34.5t62 9.5q62 0 84 -19.5t15 -60.5l-17 -97q-14 -80 -92 -80h-176q-78 0 -64 80l44 248q14 80 92 80h168q77 0 63 -80l-8 -46h-115zM126 156l-8 -42q-1 -10 7 -10h75q11 0 12 10l8 43q1 6 -3.5 8
t-21.5 2q-31 0 -69 -11z" />
    <glyph glyph-name="seven.dnom" horiz-adv-x="350" 
d="M348 325l-230 -325h-133l216 301h-183l19 107h326z" />
    <glyph glyph-name="eight.dnom" horiz-adv-x="383" 
d="M358 299q-15 -87 -60 -91q25 -6 32.5 -27t-0.5 -67q-11 -62 -35 -88t-63 -26h-176q-39 0 -54 26t-4 88q8 45 23.5 66.5t42.5 27.5q-43 4 -28 91q10 59 33.5 84t62.5 25h167q39 0 54 -25t5 -84zM230 313h-63q-5 0 -7.5 -5t-6.5 -25q-2 -14 -2.5 -20.5t1 -8t5.5 -1.5h63
q6 0 8.5 5t6.5 25q2 14 2.5 20.5t-1.5 8t-6 1.5zM208 161h-73q-6 0 -8 -5.5t-6 -27.5q-2 -9 -2.5 -15t-1 -10t0.5 -5.5t2.5 -2t3.5 -0.5h73q6 0 9 5.5t7 27.5q2 15 2.5 22t-1.5 9t-6 2z" />
    <glyph glyph-name="nine.dnom" horiz-adv-x="381" 
d="M122 126l-2 -13q-1 -10 7 -10h70q11 0 12 10l14 78q-25 -25 -46 -34.5t-62 -9.5q-62 0 -84 19.5t-15 60.5l18 101q14 80 92 80h176q78 0 64 -80l-44 -248q-14 -80 -92 -80h-168q-78 0 -64 80l8 46h116zM232 248l8 46q1 6 -0.5 8t-7.5 2h-75q-10 0 -11 -10l-8 -47
q-2 -6 2 -8t21 -2q31 0 71 11z" />
    <glyph glyph-name="zero.numr" horiz-adv-x="380" 
d="M280 292h-173q-78 0 -64 80l44 248q14 80 92 80h173q77 0 63 -80l-44 -248q-14 -80 -91 -80zM200 584l-31 -176q-1 -10 8 -10h70q10 0 11 10l31 176q3 10 -8 10h-70q-9 0 -11 -10z" />
    <glyph glyph-name="one.numr" horiz-adv-x="260" 
d="M103 292l52 295l-87 -29l16 93l122 49h89l-72 -408h-120z" />
    <glyph glyph-name="two.numr" horiz-adv-x="363" 
d="M192 567l4 21q2 10 11 10h66q11 0 8 -10l-4 -25q-1 -8 -10 -10l-118 -31q-50 -13 -72 -31t-28 -52l-26 -147h326l19 105h-207l3 18q1 7 10 10l117 31q50 13 72 31t29 52l14 81q14 80 -63 80h-166q-77 0 -91 -80l-10 -53h116z" />
    <glyph glyph-name="three.numr" horiz-adv-x="362" 
d="M161 421l-1 -2q-3 -19 -2 -23.5t6 -4.5h66q6 0 9 5t7 25q2 14 2.5 20.5t-1.5 8t-6 1.5h-69l17 96h64q6 0 8.5 4.5t6.5 22.5q3 19 1.5 23t-7.5 4h-56q-5 0 -7.5 -4.5t-5.5 -22.5l-1 -3h-119l4 20q10 59 33.5 84t62.5 25h159q39 0 54 -25t5 -84q-15 -87 -60 -91
q46 -12 31 -94q-11 -62 -34.5 -88t-62.5 -26h-168q-39 0 -54 26t-4 88l3 15h119z" />
    <glyph glyph-name="four.numr" horiz-adv-x="413" 
d="M409 358h-54l-12 -66h-118l12 66h-181l-11 82l280 260h90l-43 -245h54zM186 455h68l15 83z" />
    <glyph glyph-name="five.numr" horiz-adv-x="374" 
d="M396 596h-191l-15 -80q44 44 104 44t81.5 -19.5t14.5 -60.5l-19 -108q-14 -80 -92 -80h-176q-78 0 -64 80l9 49h119l-3 -13q-1 -10 8 -10h76q10 0 11 10l9 48q1 6 -2.5 8t-18.5 2q-29 0 -67 -11l-113 33l37 212h310z" />
    <glyph glyph-name="six.numr" horiz-adv-x="381" 
d="M288 575l2 13q1 6 -0.5 8t-7.5 2h-70q-10 0 -11 -10l-14 -82q24 25 45 34.5t62 9.5q62 0 84 -19.5t15 -60.5l-17 -97q-14 -80 -92 -80h-176q-78 0 -64 80l44 248q14 80 92 80h168q77 0 63 -80l-8 -46h-115zM178 449l-8 -42q-1 -10 7 -10h75q11 0 12 10l8 43q1 6 -3.5 8
t-21.5 2q-31 0 -69 -11z" />
    <glyph glyph-name="seven.numr" horiz-adv-x="350" 
d="M399 617l-230 -325h-133l216 301h-183l19 107h326z" />
    <glyph glyph-name="eight.numr" horiz-adv-x="383" 
d="M409 591q-15 -87 -60 -91q25 -6 32.5 -27t-0.5 -67q-11 -62 -35 -88t-63 -26h-176q-39 0 -54 26t-4 88q8 45 23.5 66.5t42.5 27.5q-43 4 -28 91q10 59 33.5 84t62.5 25h167q39 0 54 -25t5 -84zM281 605h-63q-6 0 -8 -5t-6 -25q-2 -14 -2.5 -20.5t1 -8t5.5 -1.5h63
q6 0 8.5 5t6.5 25q2 14 2.5 20.5t-1.5 8t-6 1.5zM259 453h-73q-6 0 -8 -5.5t-6 -27.5q-2 -9 -2.5 -15t-1 -10t0.5 -5.5t2.5 -2t3.5 -0.5h73q6 0 9 5.5t7 27.5q2 15 2.5 22t-1.5 9t-6 2z" />
    <glyph glyph-name="nine.numr" horiz-adv-x="381" 
d="M173 418l-2 -13q-1 -10 7 -10h70q11 0 12 10l14 78q-25 -25 -46 -34.5t-62 -9.5q-62 0 -84 19.5t-15 60.5l18 101q14 80 92 80h176q78 0 64 -80l-44 -248q-14 -80 -92 -80h-168q-78 0 -64 80l8 46h116zM283 540l8 46q1 6 -0.5 8t-7.5 2h-75q-10 0 -11 -10l-8 -47
q-2 -6 2 -8t21 -2q31 0 71 11z" />
    <glyph glyph-name="numbersign.tf" horiz-adv-x="628" 
d="M635 580h37l-27 -156h-89l-59 -116h59l-27 -156h-112l-77 -152h-166l78 152h-56l-77 -152h-166l78 152h-37l27 156h89l59 116h-60l27 156h113l61 120h162l-61 -120h59l61 120h165zM390 424h-58l-58 -116h57z" />
    <glyph glyph-name="florin.tf" horiz-adv-x="628" 
d="M566 542h-108q-17 0 -21 -18l-12 -72h116l-27 -154h-116l-29 -162q-24 -136 -157 -136h-150l28 158h77q11 0 15.5 4t5.5 14l22 122h-88l27 154h88l19 112q25 136 157 136h180z" />
    <glyph glyph-name="cent.tf" horiz-adv-x="628" 
d="M429 401l9 50q2 11 -1.5 14.5t-13.5 3.5h-15l-41 -232h15q10 0 14.5 3.5t6.5 14.5l9 50h170l-15 -84q-24 -136 -157 -136h-46l-15 -85h-159l15 85h-46q-133 0 -109 136l47 264q24 136 156 136h46l14 79h159l-14 -79h46q134 0 110 -136l-15 -84h-170zM296 469h-15
q-10 0 -14.5 -4t-5.5 -14l-35 -196q-4 -18 14 -18h15z" />
    <glyph glyph-name="currency.tf" horiz-adv-x="628" 
d="M561 442l-30 -168q-3 -20 -9 -36l66 -81l-128 -110l-73 91h-13h-167h-13l-106 -91l-88 110l94 82q2 22 4 35l30 168q2 14 8 33l-66 81l127 110l71 -89l17 1h167h15l102 88l89 -110l-93 -81q-2 -23 -4 -33zM276 279h79q17 0 20 18l22 122q2 11 -1 14.5t-13 3.5h-79
q-10 0 -14 -3.5t-6 -14.5l-22 -122q-3 -18 14 -18z" />
    <glyph glyph-name="dollar.tf" horiz-adv-x="628" 
d="M457 700h53q70 0 94.5 -43t4.5 -154l-5 -28h-188l5 30q5 31 3 38t-13 7h-5l-22 -121l79 -23q34 -9 50 -15.5t34 -20.5t23 -34t5.5 -53.5t-8.5 -82.5q-20 -113 -59 -156.5t-109 -43.5h-65l-19 -105h-144l19 105h-58q-70 0 -94 43.5t-4 156.5l6 32h188l-6 -33
q-5 -32 -3 -39.5t13 -7.5h11l23 128l-71 21q-34 10 -50 16t-34.5 20t-23.5 33.5t-5.5 52t8.5 80.5q20 111 58.5 154t108.5 43h56l19 105h144zM313 550h-10q-10 0 -15 -8t-10 -37t-3 -37t14 -12l7 -2zM353 254l-18 -102h18q11 0 16 8t10 39t2.5 39.5t-13.5 11.5z" />
    <glyph glyph-name="Euro.tf" horiz-adv-x="628" 
d="M289 700h265q134 0 109 -136l-17 -101h-188l11 63q2 11 -1 14.5t-13 3.5h-121q-10 0 -14 -3.5t-6 -14.5l-14 -78h137l-14 -78h-136l-8 -43h137l-14 -77h-137l-13 -76q-2 -11 1 -14.5t13 -3.5h121q10 0 14 3.5t6 14.5l11 63h188l-18 -101q-24 -136 -157 -136h-265
q-133 0 -109 136l20 114h-64l14 77h63l8 43h-64l14 78h64l20 116q25 136 157 136z" />
    <glyph glyph-name="sterling.tf" horiz-adv-x="628" 
d="M301 700h221q134 0 109 -136l-17 -101h-188l11 65q2 11 -1 14.5t-13 3.5h-77q-10 0 -14 -3.5t-6 -14.5l-20 -114h105l-27 -152h-105l-19 -108h303l-27 -154h-561l27 154h52q11 0 15.5 4t5.5 14l16 90h-70l27 152h70l26 150q25 136 157 136z" />
    <glyph glyph-name="yen.tf" horiz-adv-x="628" 
d="M477 342h73l-13 -77h-108l-24 -38h125l-14 -77h-129l-26 -150h-188l26 150h-138l14 77h133l-10 38h-116l13 77h82l-99 358h198l57 -297l161 297h208z" />
    <glyph glyph-name="ampersand.ss01" horiz-adv-x="650" 
d="M643 283h-67l-26 -147q-12 -65 -57 -100.5t-111 -35.5h-253q-133 0 -109 136l17 94q10 55 33.5 88.5t74.5 38.5q-46 9 -57 42t2 87l13 78q25 136 157 136h215q65 0 93 -35t16 -101l-13 -78h-188l7 44q2 10 -0.5 14t-12.5 4h-71q-17 0 -21 -18l-14 -81q-2 -11 1 -14.5
t13 -3.5h384zM399 283h-148q-10 0 -14.5 -4t-5.5 -14l-17 -95q-2 -11 1 -14.5t13 -3.5h130q11 0 15.5 4t5.5 14z" />
    </font>
</defs>
</svg>
